<svg width="64" height="64" viewBox="0 0 64 64" fill="none" xmlns="http://www.w3.org/2000/svg">
<g clip-path="url(#clip0_221_1053)">
<rect x="8" y="4" width="48" height="48" rx="8" fill="white" fill-opacity="0.04"/>
<g filter="url(#filter0_d_221_1053)">
<path d="M19.1964 13.3526L5.1964 19.4955C4.46948 19.8144 4 20.5331 4 21.3269V39.7556C4 49.3111 19 56 20 56C21.1734 56 36 49.3111 36 39.7556V21.3269C36 20.5331 35.5305 19.8144 34.8036 19.4955L20.8036 13.3526C20.2914 13.1279 19.7086 13.1279 19.1964 13.3526Z" fill="url(#paint0_linear_221_1053)"/>
</g>
<g filter="url(#filter1_d_221_1053)">
<path d="M20 20L31 24.7347V38.0444C31 44.4889 20.6875 49 20 49C19.1933 49 9 44.4889 9 38.0444V24.7347L20 20Z" fill="url(#paint1_linear_221_1053)"/>
</g>
<path d="M37.5 19.1522L40.4333 21.5L44.5 16.5" stroke="white" stroke-width="1.5" stroke-linecap="round"/>
<circle cx="41" cy="19" r="9.25" stroke="white" stroke-width="1.5"/>
</g>
<defs>
<filter id="filter0_d_221_1053" x="-2" y="9.18405" width="44" height="54.8159" filterUnits="userSpaceOnUse" color-interpolation-filters="sRGB">
<feFlood flood-opacity="0" result="BackgroundImageFix"/>
<feColorMatrix in="SourceAlpha" type="matrix" values="0 0 0 0 0 0 0 0 0 0 0 0 0 0 0 0 0 0 127 0" result="hardAlpha"/>
<feOffset dy="2"/>
<feGaussianBlur stdDeviation="3"/>
<feComposite in2="hardAlpha" operator="out"/>
<feColorMatrix type="matrix" values="0 0 0 0 0.132666 0 0 0 0 0.132452 0 0 0 0 0.132254 0 0 0 1 0"/>
<feBlend mode="normal" in2="BackgroundImageFix" result="effect1_dropShadow_221_1053"/>
<feBlend mode="normal" in="SourceGraphic" in2="effect1_dropShadow_221_1053" result="shape"/>
</filter>
<filter id="filter1_d_221_1053" x="3" y="16" width="34" height="41" filterUnits="userSpaceOnUse" color-interpolation-filters="sRGB">
<feFlood flood-opacity="0" result="BackgroundImageFix"/>
<feColorMatrix in="SourceAlpha" type="matrix" values="0 0 0 0 0 0 0 0 0 0 0 0 0 0 0 0 0 0 127 0" result="hardAlpha"/>
<feOffset dy="2"/>
<feGaussianBlur stdDeviation="3"/>
<feComposite in2="hardAlpha" operator="out"/>
<feColorMatrix type="matrix" values="0 0 0 0 0.132666 0 0 0 0 0.132452 0 0 0 0 0.132254 0 0 0 0.6 0"/>
<feBlend mode="normal" in2="BackgroundImageFix" result="effect1_dropShadow_221_1053"/>
<feBlend mode="normal" in="SourceGraphic" in2="effect1_dropShadow_221_1053" result="shape"/>
</filter>
<linearGradient id="paint0_linear_221_1053" x1="12" y1="52.4167" x2="13.3929" y2="17.9941" gradientUnits="userSpaceOnUse">
<stop stop-color="#B18C43"/>
<stop offset="1" stop-color="#FFE183"/>
</linearGradient>
<linearGradient id="paint1_linear_221_1053" x1="25.5" y1="46.5833" x2="9.03881" y2="32.3638" gradientUnits="userSpaceOnUse">
<stop stop-color="#B18C43"/>
<stop offset="1" stop-color="#FFE183"/>
</linearGradient>
<clipPath id="clip0_221_1053">
<rect width="64" height="64" rx="8" fill="white"/>
</clipPath>
</defs>
</svg>
