<svg width="64" height="64" viewBox="0 0 64 64" fill="none" xmlns="http://www.w3.org/2000/svg">
<g clip-path="url(#clip0_221_994)">
<rect x="8" y="4.00002" width="48" height="48" rx="8" fill="white" fill-opacity="0.08"/>
<path d="M31.591 40.409C30.7123 39.5303 29.2877 39.5303 28.409 40.409C27.5303 41.2877 27.5303 42.7123 28.409 43.591L37.409 52.591C38.2877 53.4697 39.7123 53.4697 40.591 52.591C41.4697 51.7123 41.4697 50.2877 40.591 49.409L31.591 40.409Z" stroke="white" stroke-width="1.5" stroke-linecap="round"/>
<g filter="url(#filter0_d_221_994)">
<circle cx="20" cy="31" r="16" fill="url(#paint0_linear_221_994)"/>
</g>
<g filter="url(#filter1_d_221_994)">
<circle r="12" transform="matrix(-1 0 0 1 20 31)" fill="url(#paint1_linear_221_994)"/>
</g>
<path d="M44 15V21" stroke="white" stroke-width="1.5" stroke-linecap="round"/>
<path d="M41 18H47" stroke="white" stroke-width="1.5" stroke-linecap="round"/>
</g>
<defs>
<filter id="filter0_d_221_994" x="-2" y="11" width="44" height="44" filterUnits="userSpaceOnUse" color-interpolation-filters="sRGB">
<feFlood flood-opacity="0" result="BackgroundImageFix"/>
<feColorMatrix in="SourceAlpha" type="matrix" values="0 0 0 0 0 0 0 0 0 0 0 0 0 0 0 0 0 0 127 0" result="hardAlpha"/>
<feOffset dy="2"/>
<feGaussianBlur stdDeviation="3"/>
<feComposite in2="hardAlpha" operator="out"/>
<feColorMatrix type="matrix" values="0 0 0 0 0.132666 0 0 0 0 0.132452 0 0 0 0 0.132254 0 0 0 1 0"/>
<feBlend mode="normal" in2="BackgroundImageFix" result="effect1_dropShadow_221_994"/>
<feBlend mode="normal" in="SourceGraphic" in2="effect1_dropShadow_221_994" result="shape"/>
</filter>
<filter id="filter1_d_221_994" x="2" y="15" width="36" height="36" filterUnits="userSpaceOnUse" color-interpolation-filters="sRGB">
<feFlood flood-opacity="0" result="BackgroundImageFix"/>
<feColorMatrix in="SourceAlpha" type="matrix" values="0 0 0 0 0 0 0 0 0 0 0 0 0 0 0 0 0 0 127 0" result="hardAlpha"/>
<feOffset dy="2"/>
<feGaussianBlur stdDeviation="3"/>
<feComposite in2="hardAlpha" operator="out"/>
<feColorMatrix type="matrix" values="0 0 0 0 0.132666 0 0 0 0 0.132452 0 0 0 0 0.132254 0 0 0 1 0"/>
<feBlend mode="normal" in2="BackgroundImageFix" result="effect1_dropShadow_221_994"/>
<feBlend mode="normal" in="SourceGraphic" in2="effect1_dropShadow_221_994" result="shape"/>
</filter>
<linearGradient id="paint0_linear_221_994" x1="12" y1="44.3333" x2="30.2053" y2="23.6034" gradientUnits="userSpaceOnUse">
<stop stop-color="#B18C43"/>
<stop offset="1" stop-color="#FFE183"/>
</linearGradient>
<linearGradient id="paint1_linear_221_994" x1="6" y1="22" x2="19.654" y2="6.45255" gradientUnits="userSpaceOnUse">
<stop stop-color="#B18C43"/>
<stop offset="1" stop-color="#FFE183"/>
</linearGradient>
<clipPath id="clip0_221_994">
<rect y="1.52588e-05" width="64" height="64" rx="8" fill="white"/>
</clipPath>
</defs>
</svg>
