<svg width="64" height="64" viewBox="0 0 64 64" fill="none" xmlns="http://www.w3.org/2000/svg">
<rect x="8" y="4" width="48" height="48" rx="8" fill="white" fill-opacity="0.04"/>
<g filter="url(#filter0_d_221_1022)">
<path d="M28 28H22C20.8954 28 20 28.8954 20 30V52C20 53.1046 20.8954 54 22 54H28C29.1046 54 30 53.1046 30 52V30C30 28.8954 29.1046 28 28 28Z" fill="url(#paint0_linear_221_1022)"/>
</g>
<g filter="url(#filter1_d_221_1022)">
<path d="M34 20C34 18.8954 34.8954 18 36 18H42C43.1046 18 44 18.8954 44 20V52C44 53.1046 43.1046 54 42 54H36C34.8954 54 34 53.1046 34 52V20Z" fill="url(#paint1_linear_221_1022)"/>
</g>
<g filter="url(#filter2_d_221_1022)">
<path d="M6 40C6 38.8954 6.89543 38 8 38H14C15.1046 38 16 38.8954 16 40V52C16 53.1046 15.1046 54 14 54H11H8C6.89543 54 6 53.1046 6 52V40Z" fill="url(#paint2_linear_221_1022)"/>
</g>
<path d="M10 43.5C27.5 43.5 45 30.5 48 14" stroke="white" stroke-width="1.5" stroke-linecap="round"/>
<defs>
<filter id="filter0_d_221_1022" x="14" y="24" width="22" height="38" filterUnits="userSpaceOnUse" color-interpolation-filters="sRGB">
<feFlood flood-opacity="0" result="BackgroundImageFix"/>
<feColorMatrix in="SourceAlpha" type="matrix" values="0 0 0 0 0 0 0 0 0 0 0 0 0 0 0 0 0 0 127 0" result="hardAlpha"/>
<feOffset dy="2"/>
<feGaussianBlur stdDeviation="3"/>
<feComposite in2="hardAlpha" operator="out"/>
<feColorMatrix type="matrix" values="0 0 0 0 0.132666 0 0 0 0 0.132452 0 0 0 0 0.132254 0 0 0 1 0"/>
<feBlend mode="normal" in2="BackgroundImageFix" result="effect1_dropShadow_221_1022"/>
<feBlend mode="normal" in="SourceGraphic" in2="effect1_dropShadow_221_1022" result="shape"/>
</filter>
<filter id="filter1_d_221_1022" x="28" y="14" width="22" height="48" filterUnits="userSpaceOnUse" color-interpolation-filters="sRGB">
<feFlood flood-opacity="0" result="BackgroundImageFix"/>
<feColorMatrix in="SourceAlpha" type="matrix" values="0 0 0 0 0 0 0 0 0 0 0 0 0 0 0 0 0 0 127 0" result="hardAlpha"/>
<feOffset dy="2"/>
<feGaussianBlur stdDeviation="3"/>
<feComposite in2="hardAlpha" operator="out"/>
<feColorMatrix type="matrix" values="0 0 0 0 0.132666 0 0 0 0 0.132452 0 0 0 0 0.132254 0 0 0 1 0"/>
<feBlend mode="normal" in2="BackgroundImageFix" result="effect1_dropShadow_221_1022"/>
<feBlend mode="normal" in="SourceGraphic" in2="effect1_dropShadow_221_1022" result="shape"/>
</filter>
<filter id="filter2_d_221_1022" x="0" y="34" width="22" height="28" filterUnits="userSpaceOnUse" color-interpolation-filters="sRGB">
<feFlood flood-opacity="0" result="BackgroundImageFix"/>
<feColorMatrix in="SourceAlpha" type="matrix" values="0 0 0 0 0 0 0 0 0 0 0 0 0 0 0 0 0 0 127 0" result="hardAlpha"/>
<feOffset dy="2"/>
<feGaussianBlur stdDeviation="3"/>
<feComposite in2="hardAlpha" operator="out"/>
<feColorMatrix type="matrix" values="0 0 0 0 0.132666 0 0 0 0 0.132452 0 0 0 0 0.132254 0 0 0 1 0"/>
<feBlend mode="normal" in2="BackgroundImageFix" result="effect1_dropShadow_221_1022"/>
<feBlend mode="normal" in="SourceGraphic" in2="effect1_dropShadow_221_1022" result="shape"/>
</filter>
<linearGradient id="paint0_linear_221_1022" x1="22.5" y1="51.8333" x2="24.1224" y2="31.1126" gradientUnits="userSpaceOnUse">
<stop stop-color="#B18C43"/>
<stop offset="1" stop-color="#FFE183"/>
</linearGradient>
<linearGradient id="paint1_linear_221_1022" x1="36.5" y1="51" x2="39.593" y2="22.4692" gradientUnits="userSpaceOnUse">
<stop stop-color="#B18C43"/>
<stop offset="1" stop-color="#FFE183"/>
</linearGradient>
<linearGradient id="paint2_linear_221_1022" x1="8.5" y1="52.6667" x2="9.11672" y2="39.867" gradientUnits="userSpaceOnUse">
<stop stop-color="#B18C43"/>
<stop offset="1" stop-color="#FFE183"/>
</linearGradient>
</defs>
</svg>
