<svg width="498" height="488" viewBox="0 0 498 488" fill="none" xmlns="http://www.w3.org/2000/svg">
<mask id="mask0_221_935" style="mask-type:alpha" maskUnits="userSpaceOnUse" x="0" y="0" width="498" height="104">
<rect width="498" height="104" fill="url(#paint0_linear_221_935)"/>
</mask>
<g mask="url(#mask0_221_935)">
<g opacity="0.6" clip-path="url(#clip0_221_935)">
<path d="M217.39 49.4476C217.394 49.2239 217.485 49.0105 217.643 48.8523C217.801 48.6941 218.015 48.6034 218.239 48.5993H218.439C218.601 48.5997 218.761 48.642 218.902 48.722C219.043 48.802 219.161 48.917 219.245 49.0559L224.687 57.2344L230.129 49.0559C230.211 48.9157 230.329 48.7997 230.471 48.7195C230.612 48.6393 230.772 48.5979 230.935 48.5993H231.135C231.359 48.6034 231.572 48.6941 231.731 48.8523C231.889 49.0105 231.98 49.2239 231.984 49.4476V63.1298C231.984 63.3569 231.896 63.5752 231.737 63.7377C231.578 63.9003 231.362 63.9941 231.135 63.9991C230.905 63.995 230.686 63.9021 230.524 63.74C230.361 63.5779 230.268 63.3591 230.264 63.1298V51.7738L225.388 58.9301C225.317 59.0592 225.213 59.1673 225.087 59.2438C224.96 59.3202 224.816 59.3623 224.669 59.3658C224.519 59.3626 224.371 59.3209 224.242 59.2446C224.112 59.1684 224.004 59.06 223.929 58.9301L219.075 51.7957V63.1508C219.079 63.2632 219.06 63.3753 219.02 63.4804C218.979 63.5854 218.918 63.6812 218.84 63.7622C218.762 63.8431 218.668 63.9075 218.564 63.9514C218.46 63.9954 218.349 64.018 218.236 64.018C218.124 64.018 218.012 63.9954 217.909 63.9514C217.805 63.9075 217.711 63.8431 217.633 63.7622C217.555 63.6812 217.494 63.5854 217.453 63.4804C217.413 63.3753 217.394 63.2632 217.398 63.1508L217.39 49.4476Z" fill="white"/>
<path d="M240.793 49.4256C240.793 49.1977 240.884 48.9791 241.045 48.818C241.206 48.6568 241.425 48.5663 241.653 48.5663C241.881 48.5663 242.1 48.6568 242.261 48.818C242.422 48.9791 242.513 49.1977 242.513 49.4256V63.1298C242.513 63.3577 242.422 63.5762 242.261 63.7374C242.1 63.8985 241.881 63.9891 241.653 63.9891C241.425 63.9891 241.206 63.8985 241.045 63.7374C240.884 63.5762 240.793 63.3577 240.793 63.1298V49.4256Z" fill="white"/>
<path d="M251.329 49.4476C251.333 49.2238 251.424 49.0104 251.582 48.8522C251.74 48.694 251.954 48.6033 252.178 48.5992H252.418C252.593 48.6034 252.764 48.6513 252.916 48.7386C253.068 48.8258 253.196 48.9497 253.288 49.0988L262.54 60.8895V49.4036C262.536 49.2911 262.555 49.179 262.595 49.074C262.636 48.9689 262.697 48.8731 262.775 48.7922C262.853 48.7112 262.947 48.6469 263.051 48.6029C263.154 48.559 263.266 48.5363 263.378 48.5363C263.491 48.5363 263.602 48.559 263.706 48.6029C263.81 48.6469 263.904 48.7112 263.982 48.7922C264.06 48.8731 264.121 48.9689 264.162 49.074C264.202 49.179 264.221 49.2911 264.217 49.4036V63.1507C264.221 63.2558 264.204 63.3607 264.167 63.459C264.129 63.5573 264.072 63.6469 263.999 63.7223C263.925 63.7977 263.837 63.8574 263.74 63.8976C263.643 63.9377 263.538 63.9577 263.433 63.9561H263.346C263.167 63.9424 262.994 63.8883 262.839 63.7977C262.684 63.7072 262.552 63.5826 262.453 63.4335L253.005 51.361V63.1517C253.005 63.2617 252.983 63.3705 252.941 63.4721C252.899 63.5737 252.837 63.666 252.759 63.7438C252.682 63.8215 252.589 63.8832 252.488 63.9253C252.386 63.9674 252.277 63.989 252.167 63.989C252.057 63.989 251.948 63.9674 251.846 63.9253C251.744 63.8832 251.652 63.8215 251.574 63.7438C251.496 63.666 251.435 63.5737 251.393 63.4721C251.351 63.3705 251.329 63.2617 251.329 63.1517V49.4476Z" fill="white"/>
<path d="M273.034 49.4256C273.03 49.3103 273.049 49.1954 273.091 49.0878C273.132 48.9802 273.195 48.882 273.275 48.7991C273.355 48.7162 273.451 48.6502 273.558 48.6052C273.664 48.5601 273.778 48.5369 273.893 48.5369C274.009 48.5369 274.123 48.5601 274.229 48.6052C274.336 48.6502 274.432 48.7162 274.512 48.7991C274.592 48.882 274.655 48.9802 274.696 49.0878C274.738 49.1954 274.757 49.3103 274.753 49.4256V63.1297C274.757 63.2449 274.738 63.3598 274.696 63.4674C274.655 63.5751 274.592 63.6733 274.512 63.7562C274.432 63.8391 274.336 63.905 274.229 63.9501C274.123 63.9951 274.009 64.0183 273.893 64.0183C273.778 64.0183 273.664 63.9951 273.558 63.9501C273.451 63.905 273.355 63.8391 273.275 63.7562C273.195 63.6733 273.132 63.5751 273.091 63.4674C273.049 63.3598 273.03 63.2449 273.034 63.1297V49.4256Z" fill="white"/>
<path d="M283.575 49.4476C283.579 49.2239 283.67 49.0105 283.828 48.8523C283.986 48.694 284.2 48.6034 284.424 48.5993H284.624C284.785 48.6005 284.943 48.6432 285.084 48.7232C285.224 48.8031 285.341 48.9177 285.424 49.0559L290.867 57.2344L296.309 49.0559C296.39 48.9164 296.507 48.8007 296.648 48.7206C296.788 48.6404 296.947 48.5986 297.109 48.5993H297.309C297.533 48.6031 297.747 48.6937 297.905 48.852C298.063 49.0102 298.154 49.2238 298.158 49.4476V63.1297C298.158 63.3569 298.07 63.5752 297.911 63.7377C297.752 63.9003 297.536 63.9941 297.309 63.9991C297.08 63.9947 296.861 63.9017 296.699 63.7396C296.536 63.5775 296.443 63.3589 296.439 63.1297V51.7737L291.562 58.9301C291.491 59.0591 291.387 59.1673 291.261 59.2438C291.135 59.3202 290.991 59.3623 290.844 59.3657C290.694 59.3626 290.546 59.3209 290.417 59.2446C290.287 59.1683 290.179 59.06 290.104 58.9301L285.249 51.7957V63.1507C285.249 63.3728 285.161 63.5858 285.003 63.7428C284.846 63.8998 284.633 63.9881 284.411 63.9881C284.189 63.9881 283.975 63.8998 283.818 63.7428C283.661 63.5858 283.573 63.3728 283.573 63.1507L283.575 49.4476Z" fill="white"/>
<path d="M305.884 62.76L312.067 49.2517C312.144 49.0256 312.29 48.8299 312.486 48.693C312.682 48.5561 312.916 48.485 313.155 48.4903H313.242C313.478 48.4859 313.709 48.5576 313.901 48.6947C314.093 48.8319 314.236 49.0271 314.309 49.2517L320.491 62.741C320.555 62.8773 320.592 63.025 320.6 63.1756C320.6 63.3948 320.513 63.605 320.358 63.7599C320.203 63.9149 319.992 64.002 319.773 64.002C319.584 63.9944 319.402 63.9302 319.251 63.8177C319.099 63.7052 318.985 63.5497 318.924 63.3715L317.335 59.8743H308.975L307.386 63.4204C307.328 63.5931 307.217 63.7429 307.068 63.8483C306.919 63.9537 306.741 64.0092 306.559 64.007C306.456 64.0074 306.354 63.9874 306.259 63.9482C306.163 63.9091 306.077 63.8515 306.004 63.7788C305.931 63.7061 305.873 63.6197 305.834 63.5245C305.795 63.4294 305.775 63.3275 305.775 63.2246C305.773 63.0632 305.81 62.9036 305.884 62.76ZM316.66 58.3005L313.16 50.5127L309.655 58.3005H316.66Z" fill="white"/>
<path d="M190.31 45.3428H196.075L200.539 63.999H194.775L190.31 45.3428Z" fill="#6B6B6B"/>
<path d="M188.112 42.1303L191.848 63.999H186.086L182.349 42.1303H188.112Z" fill="#6B6B6B"/>
<path d="M177.4 63.999H183.162L188.113 42.1303L182.833 40L177.4 63.999Z" fill="white"/>
<path d="M186.087 63.999H191.849L196.075 45.3428L190.795 43.2125L186.087 63.999Z" fill="white"/>
<path d="M198.752 46.4249L194.775 63.999H200.537L204.037 48.5552L198.752 46.4249Z" fill="white"/>
</g>
<rect x="0.5" y="0.5" width="497" height="103" rx="15.5" stroke="white" stroke-opacity="0.13"/>
</g>
<rect y="128" width="498" height="104" rx="16" fill="white" fill-opacity="0.03"/>
<g clip-path="url(#clip1_221_935)">
<path d="M208.383 177.6H193.95V172.8H212.12V168H193.917C192.652 168 191.44 168.502 190.546 169.396C189.652 170.29 189.15 171.502 189.15 172.767V177.633C189.15 178.898 189.652 180.11 190.546 181.004C191.44 181.898 192.652 182.4 193.917 182.4H208.35V187.2H189.493V192H208.383C209.647 192 210.86 191.498 211.754 190.604C212.648 189.71 213.15 188.498 213.15 187.233V182.367C213.15 181.102 212.648 179.89 211.754 178.996C210.86 178.102 209.647 177.6 208.383 177.6Z" fill="white"/>
<path d="M236.333 168H221.847C221.221 168 220.601 168.123 220.023 168.363C219.445 168.602 218.92 168.954 218.477 169.396C218.035 169.839 217.684 170.364 217.445 170.943C217.206 171.521 217.083 172.141 217.083 172.767V187.233C217.083 187.859 217.206 188.479 217.445 189.057C217.684 189.635 218.035 190.161 218.477 190.604C218.92 191.046 219.445 191.398 220.023 191.637C220.601 191.877 221.221 192 221.847 192H236.333C237.597 192 238.81 191.498 239.704 190.604C240.598 189.71 241.1 188.498 241.1 187.233V172.767C241.1 171.502 240.598 170.29 239.704 169.396C238.81 168.502 237.597 168 236.333 168ZM236.3 187.2H221.9V172.8H236.3V187.2Z" fill="white"/>
<path d="M287.033 168H272.907C271.643 168 270.43 168.502 269.536 169.396C268.642 170.29 268.14 171.502 268.14 172.767V192H272.94V184.113H287V192H291.8V172.767C291.8 172.141 291.677 171.521 291.438 170.942C291.199 170.364 290.847 169.838 290.405 169.395C289.962 168.952 289.436 168.601 288.858 168.362C288.279 168.123 287.659 168 287.033 168ZM287 179.313H272.94V172.8H287V179.313Z" fill="white"/>
<path d="M343.233 168H329.11C328.483 167.999 327.862 168.121 327.283 168.36C326.703 168.599 326.177 168.95 325.733 169.393C325.289 169.835 324.937 170.361 324.697 170.94C324.457 171.519 324.333 172.14 324.333 172.767V192H329.133V184.113H343.2V192H348V172.767C348 171.502 347.498 170.29 346.604 169.396C345.71 168.502 344.497 168 343.233 168ZM343.2 179.313H329.143V172.8H343.2V179.313Z" fill="white"/>
<path d="M315.27 187.2H313.35L306.47 170C306.235 169.41 305.828 168.904 305.302 168.547C304.776 168.191 304.155 168 303.52 168H299.247C298.404 168 297.596 168.335 297 168.93C296.405 169.526 296.07 170.334 296.07 171.177V192H300.87V172.8H302.79L309.667 190C309.901 190.59 310.307 191.096 310.832 191.453C311.358 191.809 311.978 192 312.613 192H316.887C317.729 192 318.537 191.665 319.133 191.07C319.729 190.474 320.063 189.666 320.063 188.823V168H315.263L315.27 187.2Z" fill="white"/>
<path d="M250.153 168H245.353V187.233C245.353 188.498 245.856 189.71 246.75 190.604C247.644 191.498 248.856 192 250.12 192H264.553V187.2H250.153V168Z" fill="white"/>
<path fill-rule="evenodd" clip-rule="evenodd" d="M155.08 186.3C155.165 186.208 155.268 186.134 155.383 186.082C155.497 186.03 155.621 186.003 155.747 186H176.693C176.782 186.001 176.868 186.028 176.942 186.077C177.016 186.126 177.074 186.196 177.109 186.277C177.144 186.359 177.155 186.448 177.14 186.536C177.126 186.623 177.086 186.705 177.027 186.77L172.587 191.7C172.501 191.792 172.398 191.866 172.284 191.918C172.169 191.97 172.046 191.997 171.92 192H150.96C150.871 191.999 150.785 191.972 150.711 191.923C150.637 191.874 150.579 191.804 150.544 191.723C150.509 191.641 150.498 191.552 150.513 191.464C150.527 191.377 150.567 191.295 150.627 191.23L155.08 186.3ZM177.047 182.213C177.106 182.279 177.146 182.36 177.16 182.448C177.175 182.535 177.164 182.625 177.129 182.706C177.094 182.787 177.036 182.857 176.962 182.906C176.888 182.955 176.802 182.982 176.713 182.983L155.76 183C155.634 182.997 155.511 182.97 155.396 182.918C155.281 182.866 155.178 182.792 155.093 182.7L150.62 177.787C150.56 177.721 150.521 177.64 150.506 177.552C150.491 177.465 150.502 177.375 150.538 177.294C150.573 177.213 150.631 177.143 150.705 177.094C150.778 177.045 150.865 177.018 150.953 177.017L171.907 177C172.032 177.003 172.156 177.03 172.271 177.082C172.385 177.134 172.488 177.208 172.573 177.3L177.047 182.213ZM155.08 168.3C155.165 168.208 155.268 168.134 155.383 168.082C155.497 168.03 155.621 168.003 155.747 168L176.707 168.017C176.795 168.018 176.882 168.045 176.955 168.094C177.029 168.143 177.087 168.213 177.122 168.294C177.157 168.375 177.168 168.465 177.154 168.552C177.139 168.64 177.1 168.721 177.04 168.787L172.587 173.7C172.501 173.792 172.398 173.866 172.284 173.918C172.169 173.97 172.046 173.997 171.92 174H150.96C150.871 173.999 150.785 173.972 150.711 173.923C150.637 173.874 150.579 173.804 150.544 173.723C150.509 173.641 150.498 173.552 150.513 173.464C150.527 173.377 150.567 173.295 150.627 173.23L155.08 168.3Z" fill="url(#paint1_linear_221_935)"/>
</g>
<rect x="0.5" y="128.5" width="497" height="103" rx="15.5" stroke="white" stroke-opacity="0.12"/>
<g opacity="0.6">
<path d="M228.546 320.094C221.497 320.094 217.078 315.086 217.078 308.36C217.078 301.699 221.536 296.626 228.585 296.626C234.273 296.626 237.591 299.579 238.977 303.989H235.181C233.975 301.257 232.019 299.865 228.572 299.865C223.764 299.865 220.888 303.638 220.888 308.373C220.888 313.108 223.764 316.881 228.572 316.881C232.265 316.881 234.261 315.229 235.181 312.757H238.977C237.928 316.959 234.209 320.094 228.546 320.094Z" fill="white"/>
<path d="M255.032 319.69H251.3C251.184 318.961 251.132 318.233 251.145 317.504V317.023H251.119C250.549 318.519 249.072 320.106 245.936 320.106C242.269 320.106 240.182 317.816 240.182 315.215C240.182 310.453 245.741 310.323 248.087 309.946C250.238 309.595 251.119 309.283 251.119 307.917C251.119 306.551 249.953 305.666 247.957 305.666C246.182 305.666 244.925 306.655 244.834 308.294H241.258C241.413 305.601 243.539 302.804 247.892 302.804C253.322 302.804 254.721 306.069 254.721 309.595V315.904C254.721 317.153 254.773 318.831 255.032 319.69ZM251.21 310.414C250.834 311.403 249.914 312.158 247.232 312.639C244.99 313.055 243.824 313.68 243.824 315.15C243.824 316.45 244.964 317.4 246.856 317.4C249.098 317.4 251.223 315.787 251.223 312.132V310.414H251.21Z" fill="white"/>
<path d="M263.053 305.628C261.628 305.628 260.397 306.486 260.397 307.657C260.397 309.244 262.289 309.687 265.036 310.324C267.913 310.961 269.999 312.327 269.999 314.955C269.999 318.22 266.863 320.133 263.261 320.133C259.904 320.133 256.756 318.611 256.367 314.669H259.995C260.306 316.477 261.421 317.297 263.312 317.297C264.867 317.297 266.319 316.659 266.319 315.137C266.319 313.524 264.712 313.264 262.081 312.627C259.464 312.028 256.833 310.792 256.833 307.8C256.833 304.808 259.736 302.818 263.092 302.818C266.63 302.818 269.286 304.626 269.662 308.178H266.202C265.969 306.395 264.543 305.628 263.053 305.628Z" fill="white"/>
<path d="M288.373 311.431C288.373 316.543 285.276 320.159 280.948 320.159C278.136 320.159 276.296 318.663 275.636 316.699H275.61V326H271.852V303.287H275.649V306.266C276.245 304.484 278.149 302.845 280.961 302.845C285.276 302.845 288.373 306.357 288.373 311.431ZM284.68 311.431C284.68 308.321 282.905 305.85 280.041 305.85C277.229 305.85 275.493 308.035 275.363 311.079V311.431C275.363 314.67 276.854 317.115 280.041 317.115C282.97 317.115 284.68 314.605 284.68 311.431Z" fill="white"/>
<path d="M305.569 312.484H292.986C293.246 315.463 295.137 317.18 297.69 317.18C299.556 317.18 301.098 316.478 301.707 314.839H305.335C304.351 318.169 301.539 320.133 297.69 320.133C292.792 320.133 289.436 316.608 289.436 311.444C289.436 306.461 292.909 302.845 297.69 302.845C303.249 302.845 305.53 307.164 305.556 311.795V312.484H305.569ZM301.94 309.817C301.681 307.242 300.204 305.694 297.677 305.694C295.15 305.694 293.44 307.307 293.064 309.817H301.94Z" fill="white"/>
<path d="M311.193 311.911V319.69H307.525V303.286H311.128V306.772H311.193C311.827 304.548 313.408 303.091 316 302.96V306.642C312.903 306.681 311.193 308.671 311.193 311.911Z" fill="white"/>
<path d="M211.428 317.817C210.573 317.817 209.847 318.415 209.666 319.248L202.863 318.923C202.889 318.792 202.902 318.662 202.902 318.532C202.902 318.298 202.863 318.064 202.798 317.83L205.273 316.399C205.882 317.153 206.984 317.309 207.774 316.737C208.565 316.165 208.772 315.072 208.241 314.252C207.709 313.433 206.634 313.173 205.792 313.654C204.949 314.135 204.625 315.202 205.066 316.074L202.669 317.466C202.099 316.256 200.686 315.709 199.455 316.217C198.224 316.724 197.602 318.116 198.043 319.378L193.585 320.458C193.559 319.846 193.3 319.274 192.872 318.831L193.676 317.713C194.583 318.025 195.581 317.57 195.943 316.672C196.306 315.774 195.905 314.747 195.036 314.343C194.168 313.927 193.119 314.278 192.665 315.124C192.212 315.97 192.497 317.036 193.313 317.544L192.574 318.571C192.056 318.181 191.395 318.012 190.747 318.09L189.983 313.706C190.942 313.498 191.68 312.743 191.888 311.794C192.095 310.831 191.732 309.842 190.955 309.257C190.177 308.659 189.127 308.58 188.272 309.036L186.342 305.25C186.756 305.042 187.093 304.717 187.339 304.327L188.946 304.756C188.933 304.847 188.92 304.925 188.92 305.016C188.92 305.953 189.633 306.746 190.566 306.837C191.499 306.928 192.354 306.291 192.523 305.354C192.691 304.418 192.134 303.52 191.227 303.273C190.32 303.013 189.374 303.494 189.037 304.379L187.521 303.975C187.728 303.481 187.767 302.935 187.637 302.414L192.108 300.346C192.937 301.387 194.44 301.608 195.529 300.827C196.617 300.047 196.902 298.551 196.177 297.432L199.027 294.635C199.377 294.856 199.779 294.999 200.181 295.025V296.261C199.235 296.365 198.522 297.198 198.574 298.16C198.626 299.123 199.416 299.878 200.375 299.878C201.334 299.878 202.124 299.123 202.176 298.16C202.228 297.198 201.528 296.365 200.569 296.261V295.025C200.932 294.999 201.269 294.895 201.58 294.726L204.703 298.304C203.977 299.266 204.029 300.606 204.82 301.504C205.623 302.401 206.945 302.609 207.981 301.985C209.018 301.361 209.459 300.099 209.057 298.967L210.029 298.421C210.651 299.149 211.726 299.279 212.491 298.694C213.255 298.121 213.437 297.042 212.906 296.248C212.374 295.455 211.312 295.207 210.495 295.702C209.679 296.196 209.381 297.237 209.822 298.095L208.902 298.616C208.526 297.926 207.852 297.458 207.087 297.341C206.323 297.224 205.532 297.471 204.975 298.017L201.917 294.518C202.215 294.284 202.461 293.972 202.63 293.633L205.312 294.076C205.519 295.012 206.427 295.624 207.36 295.455C208.305 295.298 208.953 294.427 208.85 293.477C208.746 292.528 207.917 291.812 206.971 291.864C206.012 291.916 205.273 292.697 205.26 293.659L202.772 293.243C203.122 292.046 202.552 290.771 201.425 290.238C200.297 289.705 198.963 290.095 198.276 291.136C197.589 292.176 197.771 293.568 198.704 294.401L195.93 297.12C195.503 296.625 194.894 296.313 194.246 296.261V294.362C195.192 294.258 195.905 293.425 195.853 292.463C195.801 291.5 195.023 290.758 194.065 290.758C193.106 290.758 192.315 291.513 192.263 292.476C192.212 293.438 192.911 294.271 193.87 294.375V296.261C193.015 296.326 192.25 296.834 191.849 297.588C191.447 298.356 191.46 299.266 191.888 300.021L187.534 302.024C187.378 301.647 187.132 301.322 186.821 301.061L188.518 297.991C188.674 298.03 188.816 298.056 188.972 298.056C189.892 298.056 190.657 297.367 190.773 296.456C190.89 295.546 190.294 294.7 189.413 294.479C188.518 294.258 187.611 294.739 187.287 295.598C186.963 296.456 187.339 297.419 188.143 297.848L186.497 300.84C185.499 300.242 184.242 300.411 183.426 301.244C182.623 302.076 182.48 303.338 183.089 304.327C183.698 305.315 184.89 305.758 185.992 305.406L187.948 309.244C187.456 309.608 187.106 310.155 186.989 310.753L185.564 310.337C185.603 310.194 185.616 310.037 185.616 309.894C185.616 308.971 184.929 308.203 184.022 308.099C183.115 307.995 182.273 308.58 182.052 309.478C181.832 310.376 182.325 311.286 183.193 311.599C184.048 311.911 185.007 311.534 185.421 310.714L186.938 311.156C186.938 311.195 186.938 311.234 186.938 311.273C186.938 312.132 187.365 312.925 188.091 313.381L187.119 314.656C186.406 314.018 185.318 314.057 184.644 314.747C183.97 315.436 183.944 316.516 184.592 317.231C185.24 317.947 186.316 318.025 187.067 317.413C187.819 316.802 187.948 315.722 187.391 314.942L188.441 313.563C188.752 313.706 189.102 313.771 189.451 313.771C189.503 313.771 189.555 313.771 189.607 313.758L190.384 318.168C189.348 318.48 188.622 319.43 188.583 320.51C188.557 321.602 189.231 322.578 190.255 322.942C191.279 323.307 192.419 322.968 193.08 322.097L196.708 323.723C196.682 323.853 196.656 323.996 196.656 324.126C196.656 325.05 197.343 325.83 198.263 325.934C199.183 326.038 200.025 325.44 200.233 324.542C200.44 323.645 199.935 322.734 199.066 322.422C198.198 322.11 197.239 322.513 196.838 323.346L193.3 321.758C193.455 321.472 193.559 321.16 193.585 320.835L198.198 319.703C198.548 320.353 199.17 320.809 199.896 320.965C200.621 321.108 201.373 320.926 201.943 320.471L203.666 321.967C203.265 322.851 203.615 323.892 204.47 324.334C205.325 324.79 206.375 324.49 206.867 323.658C207.36 322.825 207.126 321.758 206.336 321.212C205.532 320.666 204.457 320.848 203.874 321.615L202.228 320.197C202.474 319.937 202.656 319.612 202.772 319.274L209.627 319.612C209.64 320.614 210.444 321.407 211.441 321.407C212.439 321.407 213.242 320.588 213.23 319.599C213.23 318.623 212.426 317.817 211.428 317.817Z" fill="white"/>
</g>
<rect x="0.5" y="256.5" width="497" height="103" rx="15.5" stroke="white" stroke-opacity="0.13"/>
<mask id="mask1_221_935" style="mask-type:alpha" maskUnits="userSpaceOnUse" x="0" y="384" width="601" height="104">
<rect width="601" height="104" transform="matrix(1 0 0 -1 0 488)" fill="url(#paint2_linear_221_935)"/>
</mask>
<g mask="url(#mask1_221_935)">
<g opacity="0.6">
<path d="M260.048 439.191C258.855 443.24 255.038 446.124 250.453 446.124C244.463 446.124 240.169 441.387 240.169 435.936C240.169 430.721 244.224 425.798 250.426 425.798C256.073 425.824 259.28 429.98 260.049 432.837H255.887C255.277 431.49 253.528 429.291 250.4 429.264C246.583 429.264 244.119 432.467 244.119 435.936C244.119 439.509 246.689 442.658 250.427 442.658C253.926 442.658 255.517 439.903 255.888 439.191H260.048Z" fill="white"/>
<path d="M265.191 439.639C265.35 441.969 267.418 443.266 269.406 443.24C271.101 443.24 272.242 442.472 272.905 441.281H276.483C275.794 442.896 274.76 444.111 273.542 444.932C272.322 445.781 270.891 446.206 269.38 446.206C264.9 446.206 261.692 442.578 261.692 438.529C261.692 434.401 264.927 430.772 269.326 430.772C271.5 430.772 273.408 431.593 274.76 432.997C276.537 434.822 277.199 437.101 276.907 439.639H265.191ZM273.488 436.992C273.355 435.617 271.898 433.685 269.353 433.711C266.782 433.711 265.377 435.562 265.247 436.992H273.488Z" fill="white"/>
<path d="M279.533 431.225H282.819V433.129C283.455 431.83 284.649 430.801 286.849 430.772V434.268H286.69C284.252 434.268 283.005 435.404 283.005 437.92V445.753H279.533V431.225Z" fill="white"/>
<path d="M290.719 439.639C290.879 441.969 292.944 443.266 294.932 443.24C296.629 443.24 297.769 442.472 298.432 441.281H302.009C301.322 442.896 300.287 444.111 299.065 444.932C297.849 445.781 296.418 446.206 294.905 446.206C290.426 446.206 287.219 442.578 287.219 438.529C287.219 434.401 290.453 430.772 294.852 430.772C297.026 430.772 298.933 431.593 300.287 432.997C302.062 434.822 302.726 437.101 302.433 439.639H290.719ZM299.013 436.992C298.883 435.617 297.426 433.685 294.879 433.711C292.309 433.711 290.906 435.562 290.772 436.992H299.013Z" fill="white"/>
<path d="M211.762 454C203.478 454 197.042 450.025 194.966 443.626L194.5 442.194L195.862 441.544C196.006 441.473 199.578 439.681 199.356 436.158C199.121 432.438 196.099 430.693 195.97 430.621L194.642 429.872L195.215 428.458C197.933 421.908 204.12 418 211.763 418C217.771 418 223.036 420.344 226.206 424.43L227.005 425.463L220.69 433.947L219.28 432.588C219.252 432.563 216.25 429.733 212.765 429.717C209.407 429.701 208.084 430.962 208.029 431.017L205.541 428.634C205.768 428.392 207.901 426.242 212.78 426.278C215.889 426.292 218.575 427.773 220.16 428.894L222.637 425.567C220.068 422.931 216.181 421.441 211.764 421.441C206.061 421.441 201.377 424.076 198.977 428.556C200.427 429.77 202.556 432.172 202.796 435.941C203.053 440.015 200.439 442.577 198.739 443.8C200.751 448 205.607 450.556 211.765 450.556C216.03 450.556 220.396 448.901 223.092 446.342L220.275 442.823C218.776 443.882 216.214 445.258 212.863 445.432C208.105 445.676 205.292 443.493 205.175 443.4L207.314 440.704C207.38 440.752 209.291 442.174 212.683 441.995C216.699 441.789 219.275 439.218 219.299 439.191L220.661 437.807L221.88 439.317L227.573 446.434L226.7 447.509C223.497 451.452 217.637 454 211.762 454Z" fill="white"/>
</g>
<rect x="0.5" y="384.5" width="497" height="103" rx="15.5" stroke="white" stroke-opacity="0.13"/>
</g>
<defs>
<linearGradient id="paint0_linear_221_935" x1="249" y1="0" x2="249" y2="104" gradientUnits="userSpaceOnUse">
<stop stop-color="#C4C4C4" stop-opacity="0"/>
<stop offset="1" stop-color="#C4C4C4"/>
</linearGradient>
<linearGradient id="paint1_linear_221_935" x1="151.31" y1="192.523" x2="176.357" y2="167.477" gradientUnits="userSpaceOnUse">
<stop stop-color="#9945FF"/>
<stop offset="0.14" stop-color="#8A53F4"/>
<stop offset="0.42" stop-color="#6377D6"/>
<stop offset="0.79" stop-color="#24B0A7"/>
<stop offset="0.99" stop-color="#00D18C"/>
<stop offset="1" stop-color="#00D18C"/>
</linearGradient>
<linearGradient id="paint2_linear_221_935" x1="300.5" y1="0" x2="300.5" y2="104" gradientUnits="userSpaceOnUse">
<stop stop-color="#C4C4C4" stop-opacity="0"/>
<stop offset="1" stop-color="#C4C4C4"/>
</linearGradient>
<clipPath id="clip0_221_935">
<rect width="143.2" height="24" fill="white" transform="translate(177.4 40)"/>
</clipPath>
<clipPath id="clip1_221_935">
<rect width="198" height="24" fill="white" transform="translate(150 168)"/>
</clipPath>
</defs>
</svg>
