<svg width="160" height="32" viewBox="0 0 160 32" fill="none" xmlns="http://www.w3.org/2000/svg">
<path fill-rule="evenodd" clip-rule="evenodd" d="M27.2941 9.61141L16 2.82353L4.70585 9.61141L4.70585 15.374L1.88232 18.9881V9.61141C1.88232 8.62035 2.40192 7.70186 3.25136 7.19133L14.5455 0.403452C15.4405 -0.134484 16.5594 -0.134484 17.4545 0.403452L28.7486 7.19133C29.598 7.70186 30.1176 8.62035 30.1176 9.61141V22.3883C30.1176 23.3794 29.598 24.2979 28.7486 24.8084L17.4545 31.5963C16.5594 32.1342 15.4405 32.1342 14.5455 31.5963L3.28916 24.8311L3.25136 24.8084C2.40192 24.2979 1.88232 23.3794 1.88232 22.3883V22.0456L2.56144 21.1764L4.70585 18.4315L7.09595 15.3722C7.69122 14.6102 8.76695 14.4232 9.58446 14.9395L12.7933 16.9662C13.2014 17.2239 13.7383 17.1312 14.0363 16.7515L19.3346 10.0016C19.928 9.24558 20.9957 9.05804 21.8112 9.56656L25.4117 11.8116V15.139L21.7508 12.8563C21.3431 12.6021 20.8092 12.6958 20.5125 13.0739L15.2081 19.8315C14.6121 20.5908 13.5384 20.7762 12.7223 20.2608L9.51669 18.2362C9.10794 17.9781 8.57007 18.0716 8.27244 18.4525L5.04048 22.5895L16 29.1762L27.2941 22.3883V9.61141Z" fill="#F9D073"/>
<path d="M27.2941 9.61141L16 2.82353V0C16.5035 0 17.007 0.134484 17.4545 0.403452L28.7486 7.19133C29.5981 7.70186 30.1176 8.62035 30.1176 9.61141V22.3883C30.1176 23.3794 29.5981 24.2979 28.7486 24.8084L17.4545 31.5963C17.007 31.8653 16.5035 31.9998 16 31.9998V29.1762L27.2941 22.3883V9.61141Z" fill="#B28736"/>
<path d="M21.8113 9.56656L25.4118 11.8116V15.139L21.7509 12.8563C21.3431 12.6021 20.8093 12.6958 20.5125 13.0739L16 18.8227V14.2498L19.3346 10.0016C19.9281 9.24558 20.9957 9.05804 21.8113 9.56656Z" fill="#B28736"/>
<path d="M54.18 16.232C54.18 18.008 53.828 19.392 53.124 20.384C52.436 21.36 51.46 22.04 50.196 22.424C48.932 22.808 47.444 23 45.732 23H42.012V9.48805H45.732C47.444 9.48805 48.932 9.74405 50.196 10.256C51.46 10.752 52.436 11.496 53.124 12.488C53.828 13.48 54.18 14.728 54.18 16.232ZM44.436 20.984H46.428C47.484 20.984 48.396 20.864 49.164 20.624C49.932 20.368 50.524 19.896 50.94 19.208C51.356 18.52 51.564 17.52 51.564 16.208C51.564 14.656 51.1 13.504 50.172 12.752C49.26 11.984 48.012 11.6 46.428 11.6H44.436V20.984Z" fill="#F9D073"/>
<path d="M62.9035 23.336C60.7275 23.336 59.0635 22.704 57.9115 21.44C56.7595 20.16 56.1835 18.44 56.1835 16.28C56.1835 14.856 56.4315 13.624 56.9275 12.584C57.4235 11.528 58.1675 10.712 59.1595 10.136C60.1675 9.54405 61.4155 9.24805 62.9035 9.24805C65.1115 9.24805 66.7835 9.88805 67.9195 11.168C69.0555 12.432 69.6235 14.136 69.6235 16.28C69.6235 17.672 69.3675 18.904 68.8555 19.976C68.3435 21.032 67.5915 21.856 66.5995 22.448C65.6075 23.04 64.3755 23.336 62.9035 23.336ZM62.8795 20.984C64.3195 20.984 65.3995 20.536 66.1195 19.64C66.8555 18.744 67.2235 17.624 67.2235 16.28C67.2235 15.368 67.0635 14.56 66.7435 13.856C66.4235 13.136 65.9435 12.576 65.3035 12.176C64.6635 11.76 63.8555 11.552 62.8795 11.552C61.4715 11.552 60.3995 11.984 59.6635 12.848C58.9275 13.712 58.5595 14.856 58.5595 16.28C58.5595 17.16 58.7115 17.96 59.0155 18.68C59.3355 19.384 59.8155 19.944 60.4555 20.36C61.0955 20.776 61.9035 20.984 62.8795 20.984Z" fill="#F9D073"/>
<path d="M77.5268 23.336C75.6068 23.336 74.1428 22.808 73.1348 21.752C72.1428 20.68 71.6468 19.176 71.6468 17.24V9.48805H74.2628V17.216C74.2628 18.208 74.4228 18.976 74.7428 19.52C75.0628 20.064 75.4708 20.448 75.9668 20.672C76.4628 20.896 76.9828 21.008 77.5268 21.008C78.1348 21.008 78.6868 20.904 79.1828 20.696C79.6788 20.472 80.0708 20.088 80.3588 19.544C80.6628 19 80.8148 18.224 80.8148 17.216V9.48805H83.4068V17.24C83.4068 19.208 82.9108 20.72 81.9188 21.776C80.9428 22.816 79.4788 23.336 77.5268 23.336Z" fill="#F9D073"/>
<path d="M85.4403 23V9.48805H90.7923C91.2883 9.48805 91.8323 9.52005 92.4243 9.58405C93.0323 9.64805 93.6163 9.79205 94.1763 10.016C94.7363 10.24 95.1923 10.592 95.5443 11.072C95.9123 11.552 96.0963 12.216 96.0963 13.064C96.0963 13.576 95.9923 14.048 95.7843 14.48C95.5923 14.912 95.2243 15.272 94.6803 15.56C94.1523 15.832 93.3923 15.992 92.4003 16.04V16.112C93.5523 16.144 94.4403 16.312 95.0643 16.616C95.6883 16.904 96.1203 17.288 96.3603 17.768C96.6003 18.248 96.7203 18.784 96.7203 19.376C96.7203 20.24 96.5283 20.92 96.1443 21.416C95.7603 21.896 95.2643 22.256 94.6563 22.496C94.0483 22.72 93.4083 22.864 92.7363 22.928C92.0803 22.976 91.4723 23 90.9123 23H85.4403ZM87.8403 15.104H90.5043C91.0643 15.104 91.5843 15.072 92.0643 15.008C92.5603 14.944 92.9523 14.792 93.2403 14.552C93.5283 14.296 93.6723 13.888 93.6723 13.328C93.6723 12.736 93.5203 12.312 93.2163 12.056C92.9283 11.8 92.5443 11.64 92.0643 11.576C91.5843 11.512 91.0643 11.48 90.5043 11.48H87.8403V15.104ZM87.8643 21.032H90.7203C91.3443 21.032 91.9203 20.992 92.4483 20.912C92.9763 20.832 93.4003 20.656 93.7203 20.384C94.0403 20.096 94.2003 19.648 94.2003 19.04C94.2003 18.416 94.0323 17.96 93.6963 17.672C93.3603 17.368 92.9203 17.176 92.3763 17.096C91.8323 17.016 91.2323 16.976 90.5763 16.976H87.8643V21.032Z" fill="#F9D073"/>
<path d="M98.774 23V9.48805H101.222V20.912H107.894V23H98.774Z" fill="#F9D073"/>
<path d="M112.351 21.032H119.815V23H109.927V9.48805H119.575V11.6H112.351V15.152H117.895V17.168H112.351V21.032Z" fill="#F9D073"/>
<path d="M121.84 11.6V9.48805H132.28V11.6H128.272V23H125.824V11.6H121.84Z" fill="#B28736"/>
<path d="M140.148 23.336C137.972 23.336 136.308 22.704 135.156 21.44C134.004 20.16 133.428 18.44 133.428 16.28C133.428 14.856 133.676 13.624 134.172 12.584C134.668 11.528 135.412 10.712 136.404 10.136C137.412 9.54405 138.66 9.24805 140.148 9.24805C142.356 9.24805 144.028 9.88805 145.164 11.168C146.3 12.432 146.868 14.136 146.868 16.28C146.868 17.672 146.612 18.904 146.1 19.976C145.588 21.032 144.836 21.856 143.844 22.448C142.852 23.04 141.62 23.336 140.148 23.336ZM140.124 20.984C141.564 20.984 142.644 20.536 143.364 19.64C144.1 18.744 144.468 17.624 144.468 16.28C144.468 15.368 144.308 14.56 143.988 13.856C143.668 13.136 143.188 12.576 142.548 12.176C141.908 11.76 141.1 11.552 140.124 11.552C138.716 11.552 137.644 11.984 136.908 12.848C136.172 13.712 135.804 14.856 135.804 16.28C135.804 17.16 135.956 17.96 136.26 18.68C136.58 19.384 137.06 19.944 137.7 20.36C138.34 20.776 139.148 20.984 140.124 20.984Z" fill="#B28736"/>
<path d="M151.316 23H148.868V9.48805H154.292C155.796 9.48805 156.964 9.86405 157.796 10.616C158.628 11.368 159.044 12.504 159.044 14.024C159.044 15.352 158.612 16.392 157.748 17.144C156.9 17.896 155.748 18.272 154.292 18.272H151.316V23ZM153.956 11.48H151.316V16.472H153.956C154.82 16.472 155.516 16.264 156.044 15.848C156.572 15.432 156.836 14.808 156.836 13.976C156.836 13.128 156.572 12.504 156.044 12.104C155.532 11.688 154.836 11.48 153.956 11.48Z" fill="#B28736"/>
</svg>
