<svg width="614" height="692" viewBox="0 0 614 692" fill="none" xmlns="http://www.w3.org/2000/svg">
<g opacity="0.5">
<g filter="url(#filter0_d_221_190)">
<path fill-rule="evenodd" clip-rule="evenodd" d="M450.525 266.071L307.656 180.237L164.787 266.071L164.787 338.94L129.07 384.642V266.071C129.07 253.539 135.642 241.924 146.388 235.469L289.257 149.634C300.579 142.832 314.733 142.832 326.055 149.634L468.924 235.469C479.669 241.924 486.242 253.539 486.242 266.071V427.639C486.242 440.171 479.669 451.786 468.924 458.241L326.055 544.076C314.733 550.878 300.579 550.878 289.257 544.076L146.866 458.529L146.388 458.241C135.642 451.786 129.07 440.171 129.07 427.639V423.305L137.66 412.313L164.787 377.604L196.032 337.624C202.989 328.723 215.558 326.537 225.111 332.569L276.179 364.811L350.844 269.725C357.779 260.893 370.254 258.701 379.784 264.642L426.713 293.893V335.969L371.337 301.453L284.367 412.209L216.535 369.384L169.02 430.182L307.656 513.473L450.525 427.639V266.071Z" stroke="#F9D073" stroke-linecap="round" shape-rendering="crispEdges"/>
</g>
<g filter="url(#filter1_d_221_190)">
<path d="M326.055 149.634C314.733 142.832 300.579 142.832 289.257 149.634L146.388 235.469C135.642 241.924 129.07 253.539 129.07 266.071V378.078C129.07 380.228 131.788 381.164 133.111 379.47L162.39 342.008C163.943 340.02 164.787 337.57 164.787 335.047M468.924 458.241C479.669 451.786 486.242 440.171 486.242 427.639V346.855M289.257 544.076L146.866 458.528L146.388 458.241M450.525 414.848C450.525 422.784 446.364 430.139 439.561 434.226L319.298 506.479C312.133 510.783 303.178 510.783 296.014 506.479L179.973 436.763C174.153 433.266 172.707 425.463 176.888 420.114M195.694 338.056C202.843 328.909 215.758 326.664 225.574 332.861L267.554 359.366C272.454 362.459 278.9 361.346 282.478 356.789L350.508 270.152C357.635 261.077 370.453 258.825 380.245 264.929L422.454 291.238C425.103 292.889 426.713 295.79 426.713 298.912" stroke="#FCE3A8" stroke-width="2" stroke-linecap="round"/>
</g>
<g filter="url(#filter2_d_221_190)">
<path d="M607 197.838H607.5V197.837L607 197.838ZM607 493.457H606.5V493.457L607 493.457ZM601.203 515.069L600.771 514.819L601.203 515.069ZM585.351 530.891L585.101 530.458L585.101 530.458L585.351 530.891ZM328.649 679.024L328.899 679.457L328.899 679.457L328.649 679.024ZM285.35 679.024L285.101 679.457L285.101 679.457L285.35 679.024ZM28.6495 530.891L28.8994 530.458L28.8991 530.458L28.6495 530.891ZM12.8582 515.176L13.2904 514.925L12.8582 515.176ZM7 493.703H6.49999L6.50001 493.706L7 493.703ZM7 197.962L6.5 197.962V197.962H7ZM12.8043 176.367L13.2371 176.617H13.2371L12.8043 176.367ZM28.6495 160.558L28.8991 160.992L28.8994 160.991L28.6495 160.558ZM285.35 12.4251L285.101 11.9919L285.101 11.9921L285.35 12.4251ZM328.649 12.4251L328.899 11.9921L328.899 11.9919L328.649 12.4251ZM585.351 160.558L585.101 160.991L585.101 160.992L585.351 160.558ZM601.165 176.313L601.597 176.062L601.165 176.313ZM565.957 218.295H566.457V218.293L565.957 218.295ZM565.957 473.021H565.457V473.021L565.957 473.021ZM560.953 491.644L561.386 491.894L560.953 491.644ZM547.269 505.277L547.02 504.843L547.02 504.844L547.269 505.277ZM325.687 632.919L325.936 633.352L325.936 633.352L325.687 632.919ZM288.311 632.919L288.062 633.352L288.062 633.352L288.311 632.919ZM66.7292 505.277L66.9787 504.844L66.9784 504.843L66.7292 505.277ZM48.0415 473.233H47.5415L47.5415 473.236L48.0415 473.233ZM48.0415 218.401L47.5415 218.401V218.401H48.0415ZM53.0517 199.793L52.6192 199.543L53.0517 199.793ZM66.7292 186.172L66.9784 186.605L66.9787 186.605L66.7292 186.172ZM288.311 58.5296L288.062 58.0961L288.062 58.0963L288.311 58.5296ZM325.687 58.5296L325.936 58.0963L325.936 58.0961L325.687 58.5296ZM547.269 186.172L547.02 186.605L547.02 186.605L547.269 186.172ZM560.92 199.747L561.352 199.496L560.92 199.747ZM607.5 290.175V197.838H606.5V290.175H607.5ZM607.5 312.148V290.175H606.5V312.148H607.5ZM607.5 373.098V312.148H606.5V373.098H607.5ZM607.5 493.457V373.098H606.5V493.457H607.5ZM601.636 515.32C605.481 508.672 607.503 501.132 607.5 493.456L606.5 493.457C606.503 500.956 604.527 508.324 600.771 514.819L601.636 515.32ZM585.6 531.324C592.261 527.487 597.792 521.967 601.636 515.32L600.771 514.819C597.014 521.314 591.61 526.708 585.101 530.458L585.6 531.324ZM328.899 679.457L585.6 531.324L585.101 530.458L328.4 678.591L328.899 679.457ZM307 685.313C314.688 685.313 322.241 683.293 328.899 679.457L328.4 678.591C321.894 682.339 314.513 684.313 307 684.313V685.313ZM285.101 679.457C291.759 683.293 299.312 685.313 307 685.313V684.313C299.487 684.313 292.106 682.339 285.6 678.591L285.101 679.457ZM28.3996 531.324L285.101 679.457L285.6 678.591L28.8994 530.458L28.3996 531.324ZM12.4261 515.428C16.2684 522.028 21.7757 527.508 28.3999 531.324L28.8991 530.458C22.426 526.729 17.0446 521.373 13.2904 514.925L12.4261 515.428ZM6.50001 493.706C6.5407 501.339 8.58388 508.828 12.4261 515.428L13.2904 514.925C9.53607 508.476 7.53975 501.159 7.49999 493.701L6.50001 493.706ZM6.5 197.962V493.703H7.5V197.962H6.5ZM12.3716 176.116C8.52742 182.758 6.50239 190.292 6.5 197.962L7.5 197.962C7.50234 190.468 9.48091 183.107 13.2371 176.617L12.3716 176.116ZM28.3999 160.125C21.7437 163.96 16.2157 169.475 12.3716 176.116L13.2371 176.617C16.9932 170.128 22.3947 164.739 28.8991 160.992L28.3999 160.125ZM285.101 11.9921L28.3996 160.125L28.8994 160.991L285.6 12.8582L285.101 11.9921ZM307 6.13672C299.312 6.13672 291.759 8.15607 285.101 11.9919L285.6 12.8584C292.106 9.11008 299.487 7.13672 307 7.13672V6.13672ZM328.899 11.9919C322.241 8.15607 314.688 6.13672 307 6.13672V7.13672C314.513 7.13672 321.894 9.11008 328.4 12.8584L328.899 11.9919ZM585.6 160.125L328.899 11.9921L328.4 12.8582L585.101 160.991L585.6 160.125ZM601.597 176.062C597.754 169.444 592.238 163.949 585.6 160.125L585.101 160.992C591.587 164.728 596.977 170.098 600.732 176.564L601.597 176.062ZM607.5 197.837C607.476 190.188 605.44 182.68 601.597 176.062L600.732 176.564C604.487 183.031 606.476 190.367 606.5 197.84L607.5 197.837ZM566.457 297.858V218.295H565.457V297.858H566.457ZM566.457 316.792V297.858H565.457V316.792H566.457ZM566.457 369.311V316.792H565.457V369.311H566.457ZM566.457 473.021V369.311H565.457V473.021H566.457ZM561.386 491.894C564.71 486.156 566.459 479.646 566.457 473.02L565.457 473.021C565.459 479.47 563.757 485.807 560.521 491.393L561.386 491.894ZM547.518 505.71C553.278 502.398 558.061 497.633 561.386 491.894L560.521 491.393C557.284 496.979 552.628 501.618 547.02 504.843L547.518 505.71ZM325.936 633.352L547.519 505.71L547.02 504.844L325.437 632.486L325.936 633.352ZM306.999 638.407C313.647 638.407 320.178 636.664 325.936 633.352L325.438 632.485C319.832 635.709 313.472 637.407 306.999 637.407V638.407ZM288.062 633.352C293.82 636.664 300.351 638.407 306.999 638.407V637.407C300.526 637.407 294.167 635.709 288.561 632.485L288.062 633.352ZM66.4796 505.71L288.062 633.352L288.561 632.486L66.9787 504.844L66.4796 505.71ZM52.6664 491.988C55.9891 497.685 60.7516 502.416 66.4799 505.71L66.9784 504.843C61.4012 501.636 56.7648 497.03 53.5302 491.484L52.6664 491.988ZM47.5415 473.236C47.5767 479.825 49.3437 486.29 52.6664 491.988L53.5302 491.484C50.2957 485.938 48.5757 479.644 48.5415 473.231L47.5415 473.236ZM47.5415 218.401V473.233H48.5415V218.401H47.5415ZM52.6192 199.543C49.2948 205.276 47.5436 211.78 47.5415 218.401L48.5415 218.401C48.5435 211.956 50.2481 205.625 53.4843 200.044L52.6192 199.543ZM66.4799 185.738C60.7239 189.048 55.9436 193.809 52.6192 199.543L53.4843 200.044C56.7205 194.463 61.3743 189.828 66.9784 186.605L66.4799 185.738ZM288.062 58.0963L66.4796 185.738L66.9787 186.605L288.561 58.9628L288.062 58.0963ZM306.999 53.0419C300.351 53.0419 293.82 54.785 288.062 58.0961L288.561 58.963C294.167 55.7392 300.526 54.0419 306.999 54.0419V53.0419ZM325.936 58.0961C320.178 54.785 313.647 53.0419 306.999 53.0419V54.0419C313.472 54.0419 319.832 55.7392 325.438 58.963L325.936 58.0961ZM547.519 185.738L325.936 58.0963L325.437 58.9628L547.02 186.605L547.519 185.738ZM561.352 199.496C558.029 193.783 553.258 189.039 547.518 185.738L547.02 186.605C552.609 189.819 557.252 194.438 560.488 199.999L561.352 199.496ZM566.457 218.293C566.436 211.69 564.675 205.209 561.352 199.496L560.488 199.999C563.723 205.56 565.436 211.869 565.457 218.297L566.457 218.293Z" fill="#F9D073"/>
</g>
</g>
<defs>
<filter id="filter0_d_221_190" x="122.57" y="138.032" width="370.173" height="417.645" filterUnits="userSpaceOnUse" color-interpolation-filters="sRGB">
<feFlood flood-opacity="0" result="BackgroundImageFix"/>
<feColorMatrix in="SourceAlpha" type="matrix" values="0 0 0 0 0 0 0 0 0 0 0 0 0 0 0 0 0 0 127 0" result="hardAlpha"/>
<feOffset/>
<feGaussianBlur stdDeviation="3"/>
<feComposite in2="hardAlpha" operator="out"/>
<feColorMatrix type="matrix" values="0 0 0 0 1 0 0 0 0 0.924558 0 0 0 0 0.742725 0 0 0 1 0"/>
<feBlend mode="normal" in2="BackgroundImageFix" result="effect1_dropShadow_221_190"/>
<feBlend mode="normal" in="SourceGraphic" in2="effect1_dropShadow_221_190" result="shape"/>
</filter>
<filter id="filter1_d_221_190" x="122.07" y="137.532" width="371.173" height="413.543" filterUnits="userSpaceOnUse" color-interpolation-filters="sRGB">
<feFlood flood-opacity="0" result="BackgroundImageFix"/>
<feColorMatrix in="SourceAlpha" type="matrix" values="0 0 0 0 0 0 0 0 0 0 0 0 0 0 0 0 0 0 127 0" result="hardAlpha"/>
<feOffset/>
<feGaussianBlur stdDeviation="3"/>
<feComposite in2="hardAlpha" operator="out"/>
<feColorMatrix type="matrix" values="0 0 0 0 1 0 0 0 0 0.924558 0 0 0 0 0.742725 0 0 0 1 0"/>
<feBlend mode="normal" in2="BackgroundImageFix" result="effect1_dropShadow_221_190"/>
<feBlend mode="normal" in="SourceGraphic" in2="effect1_dropShadow_221_190" result="shape"/>
</filter>
<filter id="filter2_d_221_190" x="0.5" y="0.136719" width="613" height="691.176" filterUnits="userSpaceOnUse" color-interpolation-filters="sRGB">
<feFlood flood-opacity="0" result="BackgroundImageFix"/>
<feColorMatrix in="SourceAlpha" type="matrix" values="0 0 0 0 0 0 0 0 0 0 0 0 0 0 0 0 0 0 127 0" result="hardAlpha"/>
<feOffset/>
<feGaussianBlur stdDeviation="3"/>
<feComposite in2="hardAlpha" operator="out"/>
<feColorMatrix type="matrix" values="0 0 0 0 1 0 0 0 0 0.924558 0 0 0 0 0.742725 0 0 0 1 0"/>
<feBlend mode="normal" in2="BackgroundImageFix" result="effect1_dropShadow_221_190"/>
<feBlend mode="normal" in="SourceGraphic" in2="effect1_dropShadow_221_190" result="shape"/>
</filter>
</defs>
</svg>
