<svg width="113" height="24" viewBox="0 0 113 24" fill="none" xmlns="http://www.w3.org/2000/svg">
<g clip-path="url(#clip0_41_1335)">
<path fill-rule="evenodd" clip-rule="evenodd" d="M50.2928 15.1551V6.23748H48.8704V15.1551C48.8704 16.4687 49.9368 17.5375 51.2472 17.5375H56.1336V16.1119H51.248C50.7216 16.1119 50.2936 15.6831 50.2936 15.1551H50.2928ZM72.1912 13.8191C72.1912 15.0831 71.1648 16.1119 69.9032 16.1119H68.7376C67.4768 16.1119 66.4504 15.0839 66.4504 13.8191V6.23748H65.0288V13.8191C65.0288 15.8695 66.6928 17.5375 68.7376 17.5375H69.904C71.9496 17.5375 73.6128 15.8695 73.6128 13.8191V6.23748H72.192V13.8191H72.1912ZM84.0104 9.91748C83.7608 10.0343 83.6016 10.2855 83.6016 10.5623V16.8247H85.0232V12.0807L91.1504 17.1823L92.0592 16.0863L84.7664 10.0143C84.5552 9.83748 84.26 9.79988 84.0104 9.91748ZM91.56 10.9815L85.432 5.87988L84.524 6.97588L91.816 13.0479C91.9456 13.1567 92.1072 13.2127 92.2704 13.2127C92.3728 13.2127 92.476 13.1903 92.572 13.1455C92.8216 13.0279 92.9816 12.7767 92.9816 12.4999V6.23748H91.56V10.9815ZM32.8392 16.1119L36.2696 8.73828L39.7 16.1119H32.84H32.8392ZM36.9144 6.75028C36.7976 6.49988 36.5464 6.33908 36.2696 6.33908C35.9936 6.33908 35.7416 6.49908 35.6256 6.75028L31.0784 16.5239C30.976 16.7439 30.9928 17.0023 31.1232 17.2079C31.2536 17.4135 31.48 17.5375 31.7232 17.5375H40.816C41.0592 17.5375 41.2848 17.4135 41.416 17.2079C41.5464 17.0023 41.5632 16.7439 41.46 16.5239L36.9144 6.75028ZM103.991 16.1119L107.422 8.73828L110.852 16.1119H103.992H103.991ZM112.613 16.5239L108.066 6.75028C107.95 6.49988 107.698 6.33908 107.422 6.33908C107.145 6.33908 106.894 6.49908 106.778 6.75028L102.23 16.5239C102.127 16.7439 102.145 17.0023 102.275 17.2079C102.406 17.4135 102.632 17.5375 102.875 17.5375H111.969C112.211 17.5375 112.438 17.4135 112.569 17.2079C112.698 17.0023 112.715 16.7439 112.613 16.5239Z" fill="white"/>
</g>
<path fill-rule="evenodd" clip-rule="evenodd" d="M12.6 20.791V19.6606C15.5328 19.3622 17.8288 16.9006 17.8288 13.9174C17.8288 13.7806 17.8216 13.6454 17.8128 13.5102L19.6288 16.5294C18.1688 18.9334 15.5832 20.5934 12.6 20.791ZM4.37202 16.5294L6.18802 13.5102C6.17842 13.6446 6.17203 13.7806 6.17203 13.9182C6.17203 16.9006 8.46723 19.3622 11.4 19.6606V20.791C8.41683 20.5934 5.83203 18.9334 4.37202 16.5294ZM11.4 4.84461V8.17421C10.476 8.26861 9.61603 8.57821 8.87043 9.05101L11.4 4.84461ZM15.1296 9.05101C14.384 8.57901 13.524 8.26861 12.6 8.17421V4.84461L15.1296 9.05101ZM12.6 17.0974C14.116 16.8174 15.268 15.499 15.268 13.9174C15.268 12.3358 14.116 11.0174 12.6 10.7374V9.37181C14.8696 9.66461 16.6288 11.591 16.6288 13.9174C16.6288 16.2438 14.8696 18.1702 12.6 18.463V17.0974ZM12 15.9662C10.86 15.9662 9.93202 15.047 9.93202 13.9182C9.93202 12.7878 10.86 11.8694 12 11.8694C13.14 11.8694 14.068 12.7878 14.068 13.9174C14.068 15.047 13.14 15.9654 12 15.9654V15.9662ZM11.4 9.37181V10.7374C9.88403 11.0174 8.73203 12.3358 8.73203 13.9174C8.73203 15.499 9.88403 16.8174 11.4 17.0974V18.463C9.13043 18.1702 7.37122 16.2438 7.37122 13.9174C7.37122 11.591 9.13043 9.66461 11.4 9.37181ZM23.6 20.4222L21.2392 16.4974C21.9152 15.1398 22.2968 13.6134 22.2968 11.9998H20.8968C20.8968 13.0638 20.7048 14.0838 20.3552 15.0286L12.6016 2.1382C12.4752 1.9286 12.2464 1.7998 12 1.7998C11.7536 1.7998 11.5248 1.9278 11.3984 2.1382L3.64482 15.0286C3.29442 14.0838 3.10322 13.0638 3.10322 11.9998H1.70402C1.70402 13.6134 2.08562 15.1398 2.76242 16.4974L0.400024 20.4222L1.60242 21.1326L3.57522 17.8526C5.43922 20.4798 8.52003 22.1998 12 22.1998C15.48 22.1998 18.56 20.4798 20.4248 17.8534L22.3976 21.1326L23.6 20.4222Z" fill="white"/>
<defs>
<clipPath id="clip0_41_1335">
<rect width="82.4" height="12" fill="white" transform="translate(30.4 5.6001)"/>
</clipPath>
</defs>
</svg>
