<svg width="113" height="24" viewBox="0 0 113 24" fill="none" xmlns="http://www.w3.org/2000/svg">
<g clip-path="url(#clip0_221_878)">
<path fill-rule="evenodd" clip-rule="evenodd" d="M50.4361 15.1553V6.23773H49.0238V15.1553C49.0238 16.4689 50.0826 17.5377 51.3837 17.5377H56.2355V16.1121H51.3845C50.8618 16.1121 50.4369 15.6833 50.4369 15.1553H50.4361ZM72.1792 13.8193C72.1792 15.0833 71.1601 16.1121 69.9074 16.1121H68.7501C67.4982 16.1121 66.4791 15.0841 66.4791 13.8193V6.23773H65.0676V13.8193C65.0676 15.8697 66.7198 17.5377 68.7501 17.5377H69.9082C71.9393 17.5377 73.5907 15.8697 73.5907 13.8193V6.23773H72.18V13.8193H72.1792ZM83.9146 9.91773C83.6667 10.0345 83.5087 10.2857 83.5087 10.5625V16.8249H84.9202V12.0809L91.0039 17.1825L91.9063 16.0865L84.6652 10.0145C84.4555 9.83773 84.1624 9.80013 83.9146 9.91773ZM91.4106 10.9817L85.3261 5.88013L84.4245 6.97613L91.6648 13.0481C91.7935 13.1569 91.9539 13.2129 92.116 13.2129C92.2176 13.2129 92.3201 13.1905 92.4154 13.1457C92.6633 13.0281 92.8221 12.7769 92.8221 12.5001V6.23773H91.4106V10.9817ZM33.1063 16.1121L36.5123 8.73853L39.9184 16.1121H33.1071H33.1063ZM37.1526 6.75053C37.0366 6.50013 36.7872 6.33933 36.5123 6.33933C36.2383 6.33933 35.9881 6.49933 35.8729 6.75053L31.3579 16.5241C31.2563 16.7441 31.273 17.0025 31.4024 17.2081C31.5319 17.4137 31.7567 17.5377 31.9982 17.5377H41.0265C41.268 17.5377 41.492 17.4137 41.6222 17.2081C41.7517 17.0025 41.7684 16.7441 41.6659 16.5241L37.1526 6.75053ZM103.754 16.1121L107.16 8.73853L110.566 16.1121H103.754H103.754ZM112.314 16.5241L107.8 6.75053C107.684 6.50013 107.435 6.33933 107.16 6.33933C106.885 6.33933 106.635 6.49933 106.52 6.75053L102.005 16.5241C101.903 16.7441 101.92 17.0025 102.05 17.2081C102.179 17.4137 102.404 17.5377 102.646 17.5377H111.675C111.915 17.5377 112.14 17.4137 112.27 17.2081C112.399 17.0025 112.416 16.7441 112.314 16.5241Z" fill="#6B6B6B"/>
</g>
<g clip-path="url(#clip1_221_878)">
<path fill-rule="evenodd" clip-rule="evenodd" d="M13.0107 20.7913V19.6609C15.9227 19.3624 18.2024 16.9008 18.2024 13.9176C18.2024 13.7808 18.1953 13.6456 18.1865 13.5105L19.9896 16.5297C18.54 18.9337 15.9727 20.5937 13.0107 20.7913ZM4.84105 16.5297L6.64417 13.5105C6.63464 13.6449 6.62828 13.7809 6.62828 13.9185C6.62828 16.9009 8.9072 19.3624 11.8192 19.6609V20.7913C8.85716 20.5937 6.29069 18.9337 4.84105 16.5297ZM11.8192 4.84485V8.17445C10.9018 8.26885 10.0479 8.57845 9.30754 9.05125L11.8192 4.84485ZM15.5224 9.05125C14.782 8.57925 13.9281 8.26885 13.0107 8.17445V4.84485L15.5224 9.05125ZM13.0107 17.0976C14.5159 16.8176 15.6598 15.4992 15.6598 13.9176C15.6598 12.336 14.5159 11.0176 13.0107 10.7376V9.37205C15.2642 9.66485 17.0109 11.5912 17.0109 13.9176C17.0109 16.2441 15.2642 18.1705 13.0107 18.4633V17.0976ZM12.4149 15.9665C11.283 15.9665 10.3616 15.0473 10.3616 13.9185C10.3616 12.7881 11.283 11.8696 12.4149 11.8696C13.5469 11.8696 14.4683 12.788 14.4683 13.9176C14.4683 15.0472 13.5469 15.9657 12.4149 15.9657V15.9665ZM11.8192 9.37205V10.7376C10.314 11.0176 9.17013 12.336 9.17013 13.9176C9.17013 15.4992 10.314 16.8176 11.8192 17.0976V18.4633C9.5657 18.1705 7.81898 16.2441 7.81898 13.9176C7.81898 11.5912 9.5657 9.66485 11.8192 9.37205ZM23.9327 20.4225L21.5886 16.4977C22.2598 15.14 22.6387 13.6137 22.6387 12H21.2487C21.2487 13.064 21.058 14.084 20.7109 15.0288L13.0123 2.13845C12.8868 1.92885 12.6596 1.80005 12.4149 1.80005C12.1703 1.80005 11.9431 1.92805 11.8176 2.13845L4.119 15.0288C3.77109 14.084 3.58125 13.064 3.58125 12H2.19197C2.19197 13.6137 2.57086 15.14 3.24286 16.4977L0.897217 20.4225L2.09109 21.1329L4.0499 17.8528C5.90068 20.4801 8.95963 22.2001 12.4149 22.2001C15.8703 22.2001 18.9284 20.48 20.78 17.8536L22.7388 21.1329L23.9327 20.4225Z" fill="#6B6B6B"/>
</g>
<defs>
<clipPath id="clip0_221_878">
<rect width="81.8156" height="12" fill="white" transform="translate(30.6843 5.6001)"/>
</clipPath>
<clipPath id="clip1_221_878">
<rect width="23.8298" height="24" fill="white" transform="translate(0.5)"/>
</clipPath>
</defs>
</svg>
