<svg width="634" height="127" viewBox="0 0 634 127" fill="none" xmlns="http://www.w3.org/2000/svg">
<path d="M38.7199 53.2L63.3099 28.62L87.9099 53.22L102.21 38.91L63.3099 0L24.4099 38.9L38.7199 53.2Z" fill="#F3BA2F"/>
<path d="M-0.00512695 63.3071L14.2996 49.0024L28.6044 63.3071L14.2996 77.6119L-0.00512695 63.3071Z" fill="#F3BA2F"/>
<path d="M38.7199 73.4099L63.3099 97.9999L87.9099 73.3999L102.22 87.6899L102.21 87.6999L63.3099 126.61L24.4099 87.7199L24.3899 87.6999L38.7199 73.4099Z" fill="#F3BA2F"/>
<path d="M97.9912 63.3105L112.296 49.0058L126.601 63.3105L112.296 77.6153L97.9912 63.3105Z" fill="#F3BA2F"/>
<path d="M77.82 63.2998L63.31 48.7798L52.58 59.5098L51.34 60.7398L48.8 63.2798L48.78 63.2998L48.8 63.3298L63.31 77.8298L77.82 63.3098L77.83 63.2998H77.82Z" fill="#F3BA2F"/>
<path d="M148.92 30.6802H180.04C187.76 30.6802 193.6 32.6802 197.56 36.6802C199.052 38.1577 200.228 39.923 201.017 41.869C201.806 43.8149 202.192 45.9008 202.15 48.0002V48.1902C202.177 49.91 201.937 51.6236 201.44 53.2702C200.997 54.6876 200.354 56.0346 199.53 57.2702C198.762 58.4353 197.833 59.4858 196.77 60.3902C195.732 61.2839 194.594 62.0556 193.38 62.6902C196.881 63.9098 200.03 65.9701 202.55 68.6902C204.777 71.2235 205.89 74.7235 205.89 79.1902V79.3802C205.953 82.1698 205.346 84.9338 204.12 87.4402C202.932 89.7495 201.19 91.7285 199.05 93.2002C196.631 94.8221 193.937 95.9911 191.1 96.6502C187.729 97.4495 184.274 97.8357 180.81 97.8002H148.92V30.6802ZM176.92 57.8202C179.612 57.9503 182.292 57.371 184.69 56.1402C185.625 55.5939 186.389 54.7967 186.894 53.8387C187.4 52.8808 187.627 51.8005 187.55 50.7202V50.5302C187.599 49.5347 187.397 48.5429 186.962 47.6462C186.527 46.7496 185.873 45.9771 185.06 45.4002C183.4 44.2202 181.003 43.6302 177.87 43.6302H163.31V57.8202H176.92ZM180.85 84.8702C183.532 85.0205 186.202 84.4067 188.55 83.1002C189.464 82.5126 190.205 81.6906 190.694 80.7198C191.183 79.7489 191.402 78.6648 191.33 77.5802V77.3902C191.366 76.3593 191.149 75.3352 190.697 74.4078C190.246 73.4803 189.574 72.6777 188.74 72.0702C187.02 70.7368 184.24 70.0702 180.4 70.0702H163.31V84.8702H180.85Z" fill="#F3BA2F"/>
<path d="M224.43 30.6802H239.2V97.8202H224.43V30.6802Z" fill="#F3BA2F"/>
<path d="M261.55 30.6802H275.17L306.65 72.0002V30.6802H321.23V97.8202H308.66L276.15 55.1402V97.8202H261.55V30.6802Z" fill="#F3BA2F"/>
<path d="M365.95 30.2002H379.55L408.32 97.8202H392.9L386.76 82.7602H358.37L352.23 97.8202H337.17L365.95 30.2002ZM381.49 69.7202L372.55 47.9402L363.65 69.7202H381.49Z" fill="#F3BA2F"/>
<path d="M424.29 30.6802H437.91L469.37 72.0002V30.6802H483.95V97.8202H471.38L438.87 55.1402V97.8202H424.29V30.6802Z" fill="#F3BA2F"/>
<path d="M537.11 99C532.403 99.0403 527.736 98.1287 523.39 96.32C519.298 94.6305 515.586 92.1393 512.473 88.9929C509.359 85.8466 506.907 82.1089 505.26 78C503.522 73.7021 502.643 69.1057 502.67 64.47V64.28C502.593 55.1422 506.109 46.3399 512.46 39.77C515.585 36.5607 519.327 34.0164 523.46 32.29C527.956 30.4276 532.784 29.4988 537.65 29.56C540.528 29.5385 543.402 29.7964 546.23 30.33C548.65 30.7876 551.016 31.4947 553.29 32.44C555.354 33.3086 557.316 34.4019 559.14 35.7C560.92 36.966 562.593 38.3775 564.14 39.92L554.75 50.76C552.35 48.5463 549.659 46.6722 546.75 45.19C543.892 43.8236 540.757 43.139 537.59 43.19C534.954 43.1618 532.343 43.6948 529.929 44.7534C527.515 45.812 525.354 47.3721 523.59 49.33C521.84 51.2828 520.47 53.5448 519.55 56C518.586 58.5945 518.102 61.3424 518.12 64.11V64.3C518.111 67.0636 518.595 69.8066 519.55 72.4C520.459 74.8639 521.815 77.1387 523.55 79.11C525.3 81.0922 527.456 82.6751 529.872 83.7517C532.287 84.8283 534.906 85.3733 537.55 85.35C540.917 85.4561 544.259 84.7314 547.28 83.24C550.156 81.6725 552.815 79.7361 555.19 77.48L564.59 86.98C562.93 88.7814 561.135 90.453 559.22 91.98C557.338 93.4676 555.296 94.7389 553.13 95.77C550.822 96.8563 548.391 97.6588 545.89 98.16C543 98.7394 540.058 99.0209 537.11 99Z" fill="#F3BA2F"/>
<path d="M582.02 30.6802H632.55V43.8202H596.55V57.4402H628.25V70.5802H596.6V84.6802H633.05V97.8202H582.05L582.02 30.6802Z" fill="#F3BA2F"/>
</svg>
