<svg width="120" height="24" viewBox="0 0 120 24" fill="none" xmlns="http://www.w3.org/2000/svg">
<g clip-path="url(#clip0_221_755)">
<path d="M7.33978 10.0845L12.001 5.42516L16.6642 10.0883L19.3748 7.37572L12.001 0L4.6272 7.37382L7.33978 10.0845Z" fill="#6B6B6B"/>
<path d="M-0.000976562 12.0005L2.71061 9.2889L5.4222 12.0005L2.71061 14.7121L-0.000976562 12.0005Z" fill="#6B6B6B"/>
<path d="M7.33966 13.9156L12.0009 18.5768L16.664 13.9137L19.3766 16.6225L19.3747 16.6244L12.0009 24.0001L4.62708 16.6282L4.62329 16.6244L7.33966 13.9156Z" fill="#6B6B6B"/>
<path d="M18.5752 12.0011L21.2868 9.28951L23.9984 12.0011L21.2868 14.7127L18.5752 12.0011Z" fill="#6B6B6B"/>
<path d="M14.7514 11.9992L12.0009 9.24683L9.9669 11.2808L9.73185 11.5139L9.25037 11.9954L9.24658 11.9992L9.25037 12.0049L12.0009 14.7535L14.7514 12.0011L14.7533 11.9992H14.7514Z" fill="#6B6B6B"/>
<path d="M28.229 5.81555H34.1281C35.5915 5.81555 36.6985 6.19467 37.4491 6.9529C37.7319 7.23299 37.9549 7.56762 38.1045 7.93648C38.254 8.30534 38.3271 8.70075 38.3192 9.09871V9.13472C38.3243 9.46073 38.2789 9.78556 38.1846 10.0977C38.1006 10.3664 37.9787 10.6217 37.8226 10.8559C37.677 11.0768 37.5008 11.2759 37.2994 11.4473C37.1026 11.6168 36.8869 11.763 36.6568 11.8833C37.3205 12.1145 37.9174 12.5051 38.395 13.0207C38.8171 13.5009 39.0282 14.1643 39.0282 15.011V15.0471C39.0401 15.5758 38.9251 16.0998 38.6926 16.5749C38.4674 17.0126 38.1372 17.3878 37.7316 17.6668C37.273 17.9742 36.7624 18.1958 36.2246 18.3207C35.5856 18.4722 34.9306 18.5454 34.274 18.5387H28.229V5.81555ZM33.5366 10.9602C34.047 10.9848 34.5549 10.875 35.0095 10.6417C35.1868 10.5382 35.3315 10.387 35.4274 10.2055C35.5232 10.0239 35.5662 9.8191 35.5517 9.61431V9.57829C35.561 9.38959 35.5227 9.20158 35.4402 9.03161C35.3577 8.86165 35.2337 8.71522 35.0797 8.60585C34.765 8.38217 34.3107 8.27034 33.7167 8.27034H30.9568V10.9602H33.5366ZM34.2816 16.0877C34.7901 16.1162 35.2962 15.9999 35.7412 15.7522C35.9146 15.6408 36.0549 15.485 36.1476 15.301C36.2403 15.117 36.2819 14.9114 36.2682 14.7058V14.6698C36.275 14.4744 36.2338 14.2803 36.1482 14.1045C36.0626 13.9287 35.9353 13.7765 35.7772 13.6614C35.4512 13.4086 34.9242 13.2823 34.1963 13.2823H30.9568V16.0877H34.2816Z" fill="#6B6B6B"/>
<path d="M42.5425 5.81555H45.3422V18.5425H42.5425V5.81555Z" fill="#6B6B6B"/>
<path d="M49.5791 5.81555H52.1609L58.1282 13.6481V5.81555H60.892V18.5425H58.5092L52.3467 10.4522V18.5425H49.5791V5.81555Z" fill="#6B6B6B"/>
<path d="M69.3688 5.72449H71.9468L77.4004 18.5424H74.4774L73.3135 15.6877H67.932L66.7681 18.5424H63.9133L69.3688 5.72449ZM72.3145 13.2158L70.6199 9.08725L68.9328 13.2158H72.3145Z" fill="#6B6B6B"/>
<path d="M80.4277 5.81555H83.0095L88.973 13.6481V5.81555H91.7368V18.5425H89.354L83.1915 10.4522V18.5425H80.4277V5.81555Z" fill="#6B6B6B"/>
<path d="M101.814 18.7663C100.921 18.7739 100.037 18.6011 99.213 18.2582C98.4375 17.938 97.7338 17.4658 97.1436 16.8693C96.5534 16.2729 96.0885 15.5644 95.7763 14.7855C95.447 13.9708 95.2802 13.0996 95.2854 12.2208V12.1848C95.2707 10.4527 95.9372 8.7841 97.1412 7.53871C97.7335 6.93037 98.4428 6.44808 99.2263 6.12082C100.079 5.76779 100.994 5.59172 101.916 5.60332C102.462 5.59925 103.006 5.64813 103.543 5.74928C104.001 5.83603 104.45 5.97007 104.881 6.14925C105.272 6.31391 105.644 6.52114 105.99 6.76721C106.327 7.0072 106.644 7.27476 106.938 7.56715L105.158 9.62196C104.703 9.20235 104.192 8.84709 103.641 8.56612C103.099 8.30711 102.505 8.17734 101.905 8.187C101.405 8.18167 100.91 8.2827 100.453 8.48337C99.9951 8.68404 99.5854 8.97976 99.2509 9.35089C98.9193 9.72108 98.6596 10.1499 98.4851 10.6152C98.3025 11.1071 98.2107 11.6279 98.2141 12.1526V12.1886C98.2123 12.7124 98.3041 13.2324 98.4851 13.724C98.6574 14.1911 98.9144 14.6223 99.2434 14.9959C99.5752 15.3717 99.9838 15.6717 100.442 15.8758C100.9 16.0799 101.396 16.1832 101.897 16.1788C102.535 16.1989 103.169 16.0615 103.742 15.7788C104.287 15.4817 104.791 15.1146 105.241 14.687L107.023 16.4878C106.708 16.8292 106.368 17.1461 106.005 17.4356C105.648 17.7175 105.261 17.9585 104.85 18.154C104.413 18.3599 103.952 18.512 103.478 18.607C102.93 18.7169 102.373 18.7702 101.814 18.7663Z" fill="#6B6B6B"/>
<path d="M110.327 5.81555H119.905V8.30635H113.081V10.8881H119.09V13.3789H113.091V16.0517H120V18.5425H110.333L110.327 5.81555Z" fill="#6B6B6B"/>
</g>
<defs>
<clipPath id="clip0_221_755">
<rect width="119.998" height="24" fill="white"/>
</clipPath>
</defs>
</svg>
