<svg width="101" height="24" viewBox="0 0 101 24" fill="none" xmlns="http://www.w3.org/2000/svg">
<path d="M97.9994 9C99.127 9 100 8.1309 100 6.99999C100 5.86905 99.127 5 97.9994 5C96.8719 5 96 5.87301 96 6.99999C96 8.1309 96.8763 9 97.9994 9ZM97.9994 8.4921C97.175 8.4921 96.5456 7.84919 96.5456 6.99999C96.5456 6.15078 97.175 5.5119 97.9994 5.5119C98.8283 5.5119 99.4577 6.15078 99.4577 6.99999C99.4577 7.84919 98.8283 8.4921 97.9994 8.4921ZM97.7007 7.89284V7.26587H97.9598L98.3577 7.89284H98.9385L98.459 7.19443C98.6949 7.13094 98.8448 6.92063 98.8448 6.64285C98.8448 6.29364 98.5737 6.05555 98.1681 6.05555H97.2179V7.89284H97.7007ZM98.0589 6.90873H97.7007V6.44444H98.0667C98.2397 6.44444 98.3334 6.52381 98.3334 6.67459C98.3334 6.82539 98.2309 6.90873 98.0589 6.90873Z" fill="#6C6C6C"/>
<path d="M35.7623 16.6584C38.2363 16.6584 40.0421 15.1281 40.2198 12.9075H38.1297C37.9235 14.0391 36.9993 14.7651 35.7694 14.7651C34.1485 14.7651 33.1461 13.4199 33.1461 11.2562C33.1461 9.09255 34.1485 7.75441 35.7623 7.75441C36.9851 7.75441 37.9164 8.5303 38.1226 9.71173H40.2127C40.0563 7.47684 38.1937 5.86121 35.7623 5.86121C32.7835 5.86121 30.9492 7.91814 30.9492 11.2562C30.9492 14.6015 32.7906 16.6584 35.7623 16.6584ZM45.2065 16.5658C47.6165 16.5658 49.0669 15.0356 49.0669 12.4662C49.0669 9.91815 47.5953 8.37368 45.2065 8.37368C42.8178 8.37368 41.3462 9.92526 41.3462 12.4662C41.3462 15.0356 42.7964 16.5658 45.2065 16.5658ZM45.2065 14.8719C44.0975 14.8719 43.4719 13.9964 43.4719 12.4662C43.4719 10.9573 44.1046 10.0677 45.2065 10.0677C46.3014 10.0677 46.9412 10.9573 46.9412 12.4662C46.9412 13.9893 46.3085 14.8719 45.2065 14.8719ZM51.544 7.37012C52.191 7.37012 52.7171 6.84343 52.7171 6.1815C52.7171 5.51958 52.191 5 51.544 5C50.9041 5 50.3709 5.51958 50.3709 6.1815C50.3709 6.84343 50.9041 7.37012 51.544 7.37012ZM52.5749 16.395V8.54453H50.506V16.395H52.5749ZM56.4739 16.395V11.8684C56.4739 10.8363 57.0639 10.1601 58.0236 10.1601C59.0047 10.1601 59.4668 10.7295 59.4668 11.8114V16.395H61.5357V11.3203C61.5357 9.44127 60.5972 8.37368 58.8554 8.37368C57.6966 8.37368 56.9004 8.9217 56.5378 9.80431H56.4098V8.54453H54.405V16.395H56.4739ZM68.0935 16.395C70.2832 16.395 71.6411 15.2562 71.6411 13.4555C71.6411 12.1317 70.6529 11.1068 69.2949 11.0071V10.879C70.3472 10.7224 71.1506 9.77576 71.1506 8.68682C71.1506 7.09966 69.9633 6.12456 67.9726 6.12456H63.4866V16.395H68.0935ZM67.2475 10.3808H65.6337V7.76864H67.4253C68.4489 7.76864 69.0391 8.25975 69.0391 9.07832C69.0391 9.90392 68.4064 10.3808 67.2475 10.3808ZM67.5461 14.7509H65.6337V11.8328H67.4963C68.7618 11.8328 69.4514 12.331 69.4514 13.2704C69.4514 14.2313 68.7831 14.7509 67.5461 14.7509ZM75.7888 16.5658C76.9761 16.5658 77.7084 16.0462 78.0781 15.1353H78.206V16.395H80.2109V8.54453H78.142V13.0712C78.142 14.1175 77.5875 14.7651 76.5566 14.7651C75.604 14.7651 75.1135 14.21 75.1135 13.1281V8.54453H73.0446V13.6619C73.0446 15.484 74.0968 16.5658 75.7888 16.5658ZM84.0956 16.395V12.0462C84.0956 10.9431 84.8705 10.274 86.0009 10.274C86.3351 10.274 86.8185 10.3381 86.982 10.4021V8.51597C86.8043 8.45194 86.4559 8.41637 86.1715 8.41637C85.1762 8.41637 84.3658 9.01419 84.1596 9.7972H84.0316V8.54453H82.0268V16.395H84.0956ZM90.2409 19V15.1922H90.369C90.7532 16.0249 91.6136 16.516 92.7368 16.516C94.6985 16.516 95.9005 15 95.9005 12.4662C95.9005 9.92526 94.6843 8.41637 92.7007 8.41637C91.6202 8.41637 90.7313 8.95016 90.3054 9.83277H90.1773V8.54453H88.1723V19H90.2409ZM91.9968 14.7864C90.9021 14.7864 90.22 13.911 90.22 12.4733C90.22 11.0355 90.9021 10.153 92.0044 10.153C93.1058 10.153 93.7746 11.0284 93.7746 12.4662C93.7746 13.9182 93.1134 14.7864 91.9968 14.7864Z" fill="#6C6C6C"/>
<path d="M23.7017 11.6665C23.3375 12.0338 22.8069 12.4001 22.208 12.6977C21.6091 12.9953 20.9965 13.197 20.483 13.2658C19.9803 13.3331 19.7608 13.2462 19.7207 13.2142L19.6207 13.0197C19.5835 12.9474 19.6321 12.8618 19.7132 12.8542C19.7139 12.8542 19.7143 12.8542 19.715 12.8541C20.3746 12.7923 21.159 12.5492 21.9236 12.1692C22.6883 11.7892 23.3555 11.3113 23.802 10.8231C23.8101 10.8142 23.8182 10.8054 23.8262 10.7966C23.8795 10.737 23.976 10.7495 24.0127 10.8207L24.1195 11.0287C24.1204 11.081 24.0571 11.308 23.7017 11.6665ZM19.2991 11.8472C19.1213 11.837 19.0228 11.6398 19.1218 11.4921C19.1847 11.398 19.276 11.2839 19.4067 11.1522C19.7711 10.7848 20.3015 10.4186 20.9004 10.121C21.4993 9.82336 22.1119 9.62152 22.6254 9.55272C22.8096 9.528 22.9559 9.52408 23.0691 9.53056C23.2471 9.54072 23.3455 9.738 23.2466 9.88568C23.1836 9.97984 23.0923 10.0938 22.9616 10.2257C22.5973 10.593 22.0667 10.9594 21.4679 11.2569C20.8691 11.5545 20.2563 11.7562 19.7429 11.8251C19.5587 11.8497 19.4124 11.8538 19.2991 11.8472ZM25.0383 10.5822L24.2957 9.13632H24.2956C24.1558 8.8608 23.7574 8.42096 22.6532 8.52376C21.9936 8.58536 21.2092 8.82848 20.4446 9.20848C19.6799 9.58848 19.0129 10.0666 18.5663 10.5546C17.8142 11.3767 17.9325 11.9612 18.0699 12.2364C18.0708 12.238 18.0719 12.2398 18.0727 12.2414L18.0727 12.2415L18.8116 13.6802C18.9364 13.9277 19.2702 14.3102 20.1398 14.3102C20.2379 14.3102 20.3428 14.3053 20.4551 14.2947C21.1147 14.2332 21.8991 13.99 22.6638 13.61C23.4285 13.23 24.0956 12.752 24.5421 12.2639C25.2943 11.4419 25.1759 10.8574 25.0383 10.5822ZM20.2632 19.6713C18.2275 21.6447 15.5442 22.7186 12.7015 22.6972C9.84426 22.675 7.16803 21.5542 5.16599 19.5412C3.16403 17.5285 2.06155 14.8503 2.06155 12.0002C2.06155 6.10141 6.87314 1.30246 12.7873 1.30246C15.6003 1.30246 18.2587 2.38071 20.2729 4.33842C20.4852 4.54482 20.5927 4.82068 20.5771 5.11741C20.5601 5.44224 20.3847 5.73844 20.1199 5.92852L18.6491 6.98548C18.3542 7.19738 17.9736 7.23482 17.6504 7.10505C17.5995 7.08462 17.4779 6.99229 17.3639 6.90074C17.2158 6.78179 17.1547 6.58586 17.2089 6.40416C17.3551 5.91369 17.6293 4.93318 17.6382 4.44942C17.6587 3.33678 17.1829 2.97582 16.8974 2.85966L15.3823 2.26307C15.0949 2.1483 14.5042 2.07997 13.7433 2.88471C13.2888 3.3655 12.8608 4.06473 12.5382 4.85376C12.4924 4.96556 12.4499 5.07744 12.4098 5.18924C10.7081 5.28078 9.12522 5.9897 7.91857 7.20951C6.62322 8.51904 5.9237 10.2539 5.94873 12.0948C5.9994 15.8144 9.06217 18.8216 12.7878 18.8212C12.8044 18.8212 12.8218 18.8211 12.8384 18.821C14.5005 18.809 16.0988 18.195 17.3387 17.0921C17.7117 16.7604 18.2505 16.7287 18.6491 17.015L20.1432 18.0887C20.3939 18.2688 20.5506 18.5484 20.5732 18.8557C20.5958 19.1612 20.4827 19.4584 20.2632 19.6713ZM16.6114 4.55424C16.5812 5.07011 16.4254 5.69446 16.1727 6.31244C15.9199 6.93033 15.5935 7.48538 15.2534 7.87532C14.9206 8.2568 14.6981 8.336 14.6467 8.33848L14.443 8.25824C14.3674 8.22848 14.3468 8.13224 14.4026 8.07336C14.4031 8.0728 14.4036 8.07232 14.4041 8.07184C14.8587 7.59107 15.2867 6.89184 15.6092 6.1029C15.9319 5.31395 16.1162 4.51558 16.1284 3.85492C16.1287 3.84288 16.1289 3.83092 16.129 3.81906C16.1297 3.73911 16.2103 3.685 16.285 3.71442L16.503 3.8002C16.5384 3.83886 16.6411 4.05102 16.6114 4.55424ZM13.7438 7.28082C13.6217 7.42071 13.5146 7.51994 13.4251 7.58967C13.2849 7.69911 13.0803 7.61586 13.0567 7.43982C13.0418 7.32759 13.0347 7.18194 13.0456 6.99683C13.076 6.48096 13.2319 5.85661 13.4846 5.23863C13.7373 4.62074 14.0637 4.06569 14.4037 3.67584C14.5258 3.53594 14.6329 3.43671 14.7223 3.36698C14.8625 3.25754 15.0671 3.34071 15.0907 3.51683C15.1056 3.62898 15.1127 3.77463 15.1019 3.95965C15.0715 4.47561 14.9156 5.09996 14.6629 5.71794C14.4102 6.33591 14.0838 6.89088 13.7438 7.28082ZM14.8083 11.6129C15.0564 11.7194 15.2143 11.8764 15.3052 12.1074C15.5143 12.6388 15.3494 12.907 14.7845 13.5986C14.4172 14.0481 13.9603 14.6075 13.7504 15.3779C13.692 15.5922 13.5594 16.1658 13.5751 16.8914C13.5819 17.2041 13.4327 17.4799 13.2034 17.4958C12.991 17.5106 12.7959 17.5188 12.7879 17.5188C12.0343 17.5188 11.3143 17.3666 10.6573 17.0917C10.698 16.0816 11.1375 15.2553 11.9071 14.7542C12.1828 14.5746 12.2603 14.2062 12.0803 13.9313C11.9003 13.6562 11.5309 13.579 11.2551 13.7584C10.3253 14.3639 9.71898 15.321 9.5269 16.4529C8.97698 16.0511 8.50354 15.5507 8.13322 14.9779C7.96329 14.7151 8.01675 14.2951 8.23718 14.0726C9.13002 13.1721 10.1787 12.4845 11.4208 11.984C12.3026 11.6288 13.9324 11.2369 14.8083 11.6129ZM20.9065 17.0321L19.4123 15.9582C18.5131 15.3121 17.3031 15.3788 16.4695 16.1201C15.9998 16.5378 15.4661 16.8675 14.8938 17.1025C14.8505 16.5759 14.9143 16.0737 15.0107 15.7193C15.1478 15.2158 15.4631 14.8299 15.797 14.4212C16.3447 13.7506 17.0266 12.916 16.5207 11.6314C16.3034 11.0792 15.8897 10.659 15.3245 10.4164C13.6779 9.70976 11.2079 10.665 10.9318 10.7763C9.54554 11.3347 8.37036 12.1005 7.3651 13.1002C7.29746 12.7688 7.2593 12.427 7.25458 12.0771C7.23437 10.5875 7.80035 9.18368 8.84826 8.12424C9.72586 7.237 10.8495 6.68387 12.068 6.5273C12.0392 6.72707 12.0223 6.91968 12.019 7.10164C11.9984 8.21416 12.4743 8.57512 12.7599 8.69128C12.7614 8.69192 12.7635 8.69256 12.7651 8.6932L12.7651 8.69352L14.2727 9.28712C14.3651 9.32432 14.4891 9.35688 14.6404 9.35688C14.9585 9.3568 15.397 9.21296 15.9139 8.66624C16.1162 8.45216 16.3134 8.19456 16.4983 7.90516C17.3104 8.61616 18.5319 8.67512 19.4124 8.04224L20.9071 6.96829C21.4724 6.56195 21.8263 5.93123 21.8779 5.23776C21.9291 4.55162 21.6763 3.88381 21.1843 3.40573C18.925 1.20951 15.9428 0 12.7873 0C6.15306 0 0.755615 5.38333 0.755615 12.0002C0.755615 15.1962 1.9926 18.2001 4.23887 20.4586C6.48522 22.7171 9.48706 23.9747 12.6914 23.9997C12.7237 24 12.7555 24 12.7876 24C15.9381 24 18.9131 22.7965 21.1734 20.6052C21.6707 20.1232 21.9266 19.4507 21.8756 18.7602C21.8246 18.0678 21.4714 17.4377 20.9065 17.0321Z" fill="#6C6C6C"/>
</svg>
