<svg width="102" height="24" viewBox="0 0 102 24" fill="none" xmlns="http://www.w3.org/2000/svg">
<path d="M98.5846 9C99.7122 9 100.585 8.1309 100.585 6.99999C100.585 5.86905 99.7122 5 98.5846 5C97.4571 5 96.5852 5.87301 96.5852 6.99999C96.5852 8.1309 97.4615 9 98.5846 9ZM98.5846 8.4921C97.7602 8.4921 97.1308 7.84919 97.1308 6.99999C97.1308 6.15078 97.7602 5.5119 98.5846 5.5119C99.4135 5.5119 100.043 6.15078 100.043 6.99999C100.043 7.84919 99.4135 8.4921 98.5846 8.4921ZM98.2859 7.89284V7.26587H98.545L98.9429 7.89284H99.5237L99.0443 7.19443C99.2801 7.13094 99.43 6.92063 99.43 6.64285C99.43 6.29364 99.1589 6.05555 98.7533 6.05555H97.8032V7.89284H98.2859ZM98.6441 6.90873H98.2859V6.44444H98.6519C98.8249 6.44444 98.9186 6.52381 98.9186 6.67459C98.9186 6.82539 98.8161 6.90873 98.6441 6.90873Z" fill="#6C6C6C"/>
<path d="M36.3475 17.1584C38.8216 17.1584 40.6273 15.6281 40.8051 13.4075H38.7149C38.5087 14.5391 37.5845 15.2651 36.3546 15.2651C34.7337 15.2651 33.7313 13.9199 33.7313 11.7562C33.7313 9.59255 34.7337 8.25441 36.3475 8.25441C37.5703 8.25441 38.5016 9.0303 38.7078 10.2117H40.7979C40.6415 7.97684 38.7789 6.36121 36.3475 6.36121C33.3687 6.36121 31.5344 8.41814 31.5344 11.7562C31.5344 15.1015 33.3758 17.1584 36.3475 17.1584ZM45.7917 17.0658C48.2017 17.0658 49.6521 15.5356 49.6521 12.9662C49.6521 10.4181 48.1805 8.87368 45.7917 8.87368C43.403 8.87368 41.9314 10.4253 41.9314 12.9662C41.9314 15.5356 43.3816 17.0658 45.7917 17.0658ZM45.7917 15.3719C44.6827 15.3719 44.0571 14.4964 44.0571 12.9662C44.0571 11.4573 44.6898 10.5677 45.7917 10.5677C46.8866 10.5677 47.5264 11.4573 47.5264 12.9662C47.5264 14.4893 46.8937 15.3719 45.7917 15.3719ZM52.1292 7.87012C52.7762 7.87012 53.3023 7.34343 53.3023 6.6815C53.3023 6.01958 52.7762 5.5 52.1292 5.5C51.4893 5.5 50.9561 6.01958 50.9561 6.6815C50.9561 7.34343 51.4893 7.87012 52.1292 7.87012ZM53.1601 16.895V9.04453H51.0912V16.895H53.1601ZM57.0591 16.895V12.3684C57.0591 11.3363 57.6491 10.6601 58.6088 10.6601C59.5899 10.6601 60.052 11.2295 60.052 12.3114V16.895H62.1209V11.8203C62.1209 9.94127 61.1824 8.87368 59.4406 8.87368C58.2819 8.87368 57.4856 9.4217 57.123 10.3043H56.995V9.04453H54.9902V16.895H57.0591ZM68.6787 16.895C70.8684 16.895 72.2263 15.7562 72.2263 13.9555C72.2263 12.6317 71.2381 11.6068 69.8801 11.5071V11.379C70.9324 11.2224 71.7358 10.2758 71.7358 9.18682C71.7358 7.59966 70.5485 6.62456 68.5578 6.62456H64.0718V16.895H68.6787ZM67.8327 10.8808H66.2189V8.26864H68.0105C69.0342 8.26864 69.6243 8.75975 69.6243 9.57832C69.6243 10.4039 68.9916 10.8808 67.8327 10.8808ZM68.1313 15.2509H66.2189V12.3328H68.0815C69.347 12.3328 70.0366 12.831 70.0366 13.7704C70.0366 14.7313 69.3684 15.2509 68.1313 15.2509ZM76.374 17.0658C77.5613 17.0658 78.2936 16.5462 78.6633 15.6353H78.7912V16.895H80.7961V9.04453H78.7272V13.5712C78.7272 14.6175 78.1727 15.2651 77.1418 15.2651C76.1892 15.2651 75.6987 14.71 75.6987 13.6281V9.04453H73.6298V14.1619C73.6298 15.984 74.682 17.0658 76.374 17.0658ZM84.6808 16.895V12.5462C84.6808 11.4431 85.4557 10.774 86.5861 10.774C86.9203 10.774 87.4037 10.8381 87.5672 10.9021V9.01597C87.3895 8.95194 87.0411 8.91637 86.7567 8.91637C85.7614 8.91637 84.951 9.51419 84.7448 10.2972H84.6168V9.04453H82.612V16.895H84.6808ZM90.8261 19.5V15.6922H90.9542C91.3384 16.5249 92.1988 17.016 93.322 17.016C95.2837 17.016 96.4857 15.5 96.4857 12.9662C96.4857 10.4253 95.2695 8.91637 93.2859 8.91637C92.2054 8.91637 91.3165 9.45016 90.8906 10.3328H90.7625V9.04453H88.7575V19.5H90.8261ZM92.582 15.2864C91.4873 15.2864 90.8052 14.411 90.8052 12.9733C90.8052 11.5355 91.4873 10.653 92.5896 10.653C93.691 10.653 94.3598 11.5284 94.3598 12.9662C94.3598 14.4182 93.6986 15.2864 92.582 15.2864Z" fill="#6C6C6C"/>
<path d="M24.2869 11.6665C23.9227 12.0338 23.3921 12.4001 22.7932 12.6977C22.1943 12.9953 21.5817 13.197 21.0682 13.2658C20.5655 13.3331 20.346 13.2462 20.3059 13.2142L20.2059 13.0197C20.1687 12.9474 20.2173 12.8618 20.2984 12.8542C20.2991 12.8542 20.2995 12.8542 20.3002 12.8541C20.9598 12.7923 21.7442 12.5492 22.5088 12.1692C23.2735 11.7892 23.9407 11.3113 24.3872 10.8231C24.3953 10.8142 24.4034 10.8054 24.4114 10.7966C24.4647 10.737 24.5612 10.7495 24.5979 10.8207L24.7047 11.0287C24.7056 11.081 24.6423 11.308 24.2869 11.6665ZM19.8843 11.8472C19.7065 11.837 19.608 11.6398 19.707 11.4921C19.7699 11.398 19.8612 11.2839 19.9919 11.1522C20.3563 10.7848 20.8867 10.4186 21.4856 10.121C22.0845 9.82336 22.6971 9.62152 23.2106 9.55272C23.3948 9.528 23.5411 9.52408 23.6543 9.53056C23.8323 9.54072 23.9307 9.738 23.8318 9.88568C23.7688 9.97984 23.6775 10.0938 23.5468 10.2257C23.1825 10.593 22.6519 10.9594 22.0531 11.2569C21.4543 11.5545 20.8415 11.7562 20.3281 11.8251C20.1439 11.8497 19.9976 11.8538 19.8843 11.8472ZM25.6235 10.5822L24.8809 9.13632H24.8808C24.741 8.8608 24.3426 8.42096 23.2384 8.52376C22.5788 8.58536 21.7944 8.82848 21.0298 9.20848C20.2651 9.58848 19.5981 10.0666 19.1515 10.5546C18.3994 11.3767 18.5177 11.9612 18.6551 12.2364C18.656 12.238 18.6571 12.2398 18.6579 12.2414L18.6579 12.2415L19.3968 13.6802C19.5216 13.9277 19.8554 14.3102 20.725 14.3102C20.8231 14.3102 20.928 14.3053 21.0403 14.2947C21.6999 14.2332 22.4843 13.99 23.249 13.61C24.0137 13.23 24.6808 12.752 25.1273 12.2639C25.8795 11.4419 25.7611 10.8574 25.6235 10.5822ZM20.8484 19.6713C18.8127 21.6447 16.1294 22.7186 13.2867 22.6972C10.4295 22.675 7.75324 21.5542 5.7512 19.5412C3.74924 17.5285 2.64676 14.8503 2.64676 12.0002C2.64676 6.10141 7.45835 1.30246 13.3725 1.30246C16.1855 1.30246 18.8439 2.38071 20.8581 4.33842C21.0704 4.54482 21.1779 4.82068 21.1623 5.11741C21.1453 5.44224 20.9699 5.73844 20.7051 5.92852L19.2343 6.98548C18.9394 7.19738 18.5588 7.23482 18.2356 7.10505C18.1847 7.08462 18.0631 6.99229 17.9491 6.90074C17.801 6.78179 17.7399 6.58586 17.7941 6.40416C17.9403 5.91369 18.2145 4.93318 18.2234 4.44942C18.2439 3.33678 17.7681 2.97582 17.4826 2.85966L15.9675 2.26307C15.6801 2.1483 15.0894 2.07997 14.3285 2.88471C13.874 3.3655 13.446 4.06473 13.1234 4.85376C13.0776 4.96556 13.0351 5.07744 12.995 5.18924C11.2933 5.28078 9.71042 5.9897 8.50377 7.20951C7.20843 8.51904 6.50891 10.2539 6.53393 12.0948C6.5846 15.8144 9.64738 18.8216 13.373 18.8212C13.3896 18.8212 13.407 18.8211 13.4236 18.821C15.0857 18.809 16.684 18.195 17.9239 17.0921C18.2969 16.7604 18.8357 16.7287 19.2343 17.015L20.7284 18.0887C20.9791 18.2688 21.1358 18.5484 21.1584 18.8557C21.181 19.1612 21.0679 19.4584 20.8484 19.6713ZM17.1966 4.55424C17.1664 5.07011 17.0106 5.69446 16.7579 6.31244C16.5051 6.93033 16.1787 7.48538 15.8386 7.87532C15.5058 8.2568 15.2833 8.336 15.2319 8.33848L15.0282 8.25824C14.9526 8.22848 14.932 8.13224 14.9878 8.07336C14.9883 8.0728 14.9888 8.07232 14.9893 8.07184C15.4439 7.59107 15.8719 6.89184 16.1944 6.1029C16.5171 5.31395 16.7014 4.51558 16.7136 3.85492C16.7139 3.84288 16.7141 3.83092 16.7142 3.81906C16.7149 3.73911 16.7955 3.685 16.8702 3.71442L17.0882 3.8002C17.1236 3.83886 17.2263 4.05102 17.1966 4.55424ZM14.329 7.28082C14.2069 7.42071 14.0998 7.51994 14.0103 7.58967C13.8701 7.69911 13.6655 7.61586 13.6419 7.43982C13.627 7.32759 13.6199 7.18194 13.6308 6.99683C13.6612 6.48096 13.8171 5.85661 14.0698 5.23863C14.3225 4.62074 14.6489 4.06569 14.9889 3.67584C15.111 3.53594 15.2181 3.43671 15.3075 3.36698C15.4477 3.25754 15.6523 3.34071 15.6759 3.51683C15.6908 3.62898 15.6979 3.77463 15.6871 3.95965C15.6567 4.47561 15.5008 5.09996 15.2481 5.71794C14.9954 6.33591 14.669 6.89088 14.329 7.28082ZM15.3935 11.6129C15.6416 11.7194 15.7995 11.8764 15.8904 12.1074C16.0995 12.6388 15.9346 12.907 15.3697 13.5986C15.0024 14.0481 14.5455 14.6075 14.3356 15.3779C14.2772 15.5922 14.1446 16.1658 14.1603 16.8914C14.1671 17.2041 14.0179 17.4799 13.7886 17.4958C13.5762 17.5106 13.3811 17.5188 13.3731 17.5188C12.6195 17.5188 11.8995 17.3666 11.2425 17.0917C11.2832 16.0816 11.7227 15.2553 12.4923 14.7542C12.768 14.5746 12.8455 14.2062 12.6655 13.9313C12.4855 13.6562 12.1161 13.579 11.8403 13.7584C10.9105 14.3639 10.3042 15.321 10.1121 16.4529C9.56218 16.0511 9.08875 15.5507 8.71843 14.9779C8.54849 14.7151 8.60196 14.2951 8.82239 14.0726C9.71522 13.1721 10.7639 12.4845 12.006 11.984C12.8878 11.6288 14.5176 11.2369 15.3935 11.6129ZM21.4917 17.0321L19.9975 15.9582C19.0983 15.3121 17.8883 15.3788 17.0547 16.1201C16.585 16.5378 16.0513 16.8675 15.479 17.1025C15.4357 16.5759 15.4995 16.0737 15.5959 15.7193C15.733 15.2158 16.0483 14.8299 16.3822 14.4212C16.9299 13.7506 17.6118 12.916 17.1059 11.6314C16.8886 11.0792 16.4749 10.659 15.9097 10.4164C14.2631 9.70976 11.7931 10.665 11.517 10.7763C10.1307 11.3347 8.95556 12.1005 7.9503 13.1002C7.88266 12.7688 7.84451 12.427 7.83978 12.0771C7.81957 10.5875 8.38556 9.18368 9.43346 8.12424C10.3111 7.237 11.4347 6.68387 12.6532 6.5273C12.6244 6.72707 12.6075 6.91968 12.6042 7.10164C12.5836 8.21416 13.0595 8.57512 13.3451 8.69128C13.3466 8.69192 13.3487 8.69256 13.3503 8.6932L13.3503 8.69352L14.8579 9.28712C14.9503 9.32432 15.0743 9.35688 15.2256 9.35688C15.5437 9.3568 15.9822 9.21296 16.4991 8.66624C16.7014 8.45216 16.8986 8.19456 17.0835 7.90516C17.8956 8.61616 19.1171 8.67512 19.9976 8.04224L21.4923 6.96829C22.0576 6.56195 22.4115 5.93123 22.4631 5.23776C22.5143 4.55162 22.2615 3.88381 21.7695 3.40573C19.5102 1.20951 16.528 0 13.3725 0C6.73826 0 1.34082 5.38333 1.34082 12.0002C1.34082 15.1962 2.5778 18.2001 4.82408 20.4586C7.07043 22.7171 10.0723 23.9747 13.2766 23.9997C13.3089 24 13.3407 24 13.3728 24C16.5233 24 19.4983 22.7965 21.7586 20.6052C22.2559 20.1232 22.5118 19.4507 22.4608 18.7602C22.4098 18.0678 22.0566 17.4377 21.4917 17.0321Z" fill="#6C6C6C"/>
</svg>
