<svg width="125" height="20" viewBox="0 0 125 20" fill="none" xmlns="http://www.w3.org/2000/svg">
<g clip-path="url(#clip0_221_790)">
<path d="M32.0664 17.2414C31.6755 16.8501 31.3335 16.63 31.1381 16.63C30.4541 17.2169 29.5258 17.5104 28.2555 17.5104C25.8615 17.5104 24.4935 15.9208 24.4935 13.6463C24.4935 11.2986 25.8859 9.70897 28.1578 9.70897C29.0617 9.70897 29.7456 9.9291 30.2098 10.3203V11.5921C30.2098 11.7877 30.332 11.9834 30.6495 12.3013C30.9427 12.5703 31.1625 12.6926 31.3091 12.6926C31.5045 12.6926 31.7 12.5703 31.9687 12.3013C32.2618 12.0078 32.4084 11.7877 32.4084 11.5921V9.24434C32.4084 8.85303 31.9687 8.41283 31.1381 7.97262C30.3075 7.50793 29.3059 7.31228 28.1334 7.31228C26.2279 7.31228 24.6401 7.89924 23.4431 9.09759C22.2461 10.2714 21.6109 11.7877 21.6109 13.6219C21.6109 13.9154 21.6354 14.1844 21.6597 14.4534L11.0088 8.38834L15.3327 5.91832C15.919 5.57594 16.1389 4.81781 15.7969 4.20641C15.4549 3.61947 14.6976 3.39937 14.0869 3.74174L9.71414 6.23624V1.24725C9.71414 0.562485 9.15228 0 8.46828 0C7.78427 0 7.22241 0.562485 7.22241 1.24725V6.23624L2.84968 3.74174C2.23896 3.39937 1.48167 3.61947 1.13967 4.20641C0.797668 4.79335 1.01753 5.57594 1.60381 5.91832L5.95212 8.38834L1.62824 10.8584C1.04196 11.2008 0.822097 11.9589 1.1641 12.5703C1.38396 12.9616 1.82367 13.2061 2.23896 13.2061C2.45882 13.2061 2.65425 13.1572 2.84968 13.035L7.22241 10.5405V15.5539C7.22241 16.2387 7.78427 16.8012 8.46828 16.8012C9.15228 16.8012 9.71414 16.2387 9.71414 15.5539V10.516L24.1026 18.7088L25.2263 19.3446L25.2508 19.369C25.3241 19.4179 25.4218 19.4424 25.4951 19.4668C26.2768 19.7603 27.1562 19.907 28.1334 19.907C30.0144 19.907 31.5534 19.3201 32.7015 18.1707C32.726 17.975 32.5061 17.6327 32.0664 17.2414Z" fill="#6B6B6B"/>
<path d="M40.2551 7.31238C38.3985 7.31238 36.8595 7.89934 35.6624 9.1221C34.4654 10.296 33.8547 11.8123 33.8547 13.6464C33.8547 15.4562 34.441 16.948 35.6624 18.1708C36.8595 19.3447 38.3985 19.9561 40.2551 19.9561C42.1116 19.9561 43.6507 19.3691 44.8477 18.1708C46.0447 16.9724 46.6798 15.4562 46.6798 13.6464C46.6798 11.8123 46.0691 10.3204 44.8477 9.1221C43.6262 7.89934 42.1116 7.31238 40.2551 7.31238ZM42.7468 16.4589C42.1361 17.1926 41.3055 17.5349 40.2551 17.5349C39.2046 17.5349 38.3741 17.1926 37.7634 16.4589C37.1526 15.7252 36.8351 14.7959 36.8351 13.6464C36.8351 12.4971 37.1526 11.5433 37.7634 10.834C38.3741 10.1004 39.2046 9.75796 40.2551 9.75796C41.3055 9.75796 42.1361 10.1004 42.7468 10.834C43.3819 11.5677 43.724 12.4971 43.724 13.6464C43.724 14.7959 43.4064 15.7252 42.7468 16.4589Z" fill="#6B6B6B"/>
<path d="M51.5654 0.489034C51.2967 0.195563 51.0768 0.0488281 50.9058 0.0488281H47.4858C47.2904 0.0488281 47.0949 0.171108 46.7773 0.489034C46.5086 0.758048 46.3865 0.978152 46.3865 1.14934C46.3865 1.32053 46.5086 1.54063 46.7773 1.85856C47.0705 2.12758 47.2904 2.24986 47.4858 2.24986H49.2202V19.6869H51.9807V1.14934C52.0051 0.953697 51.8585 0.758048 51.5654 0.489034Z" fill="#6B6B6B"/>
<path d="M66.1984 16.6299V1.14934C66.1984 0.953696 66.0518 0.758048 65.7587 0.489034C65.49 0.195563 65.2701 0.0488281 65.0991 0.0488281H62.4608C62.2654 0.0488281 62.07 0.171108 61.7524 0.489034C61.4837 0.758048 61.3615 0.978152 61.3615 1.14934C61.3615 1.32053 61.4837 1.54063 61.7524 1.85857C62.0455 2.12758 62.2654 2.24986 62.4608 2.24986H63.438V7.70352C62.6318 7.43448 61.8501 7.31221 61.0684 7.31221C59.1629 7.31221 57.5995 7.89917 56.378 9.12193C55.1322 10.2959 54.5215 11.8366 54.5215 13.7197C54.5215 15.505 55.059 16.9723 56.1582 18.1461C57.2575 19.3201 58.6499 19.9314 60.3111 19.9314C61.5814 19.9314 62.6807 19.5401 63.609 18.7576C63.9265 19.1978 64.5129 19.6869 64.806 19.6869H66.4671V19.369L66.3939 19.1488C66.2961 18.9043 66.1984 17.9016 66.1984 16.6299ZM63.4135 16.7766C62.754 17.2902 61.9478 17.5348 60.9951 17.5348C58.8209 17.5348 57.4529 15.9452 57.4529 13.6708C57.4529 11.2986 58.8454 9.7089 61.1905 9.7089C62.0211 9.7089 62.7784 9.88007 63.4135 10.2225V16.7766Z" fill="#6B6B6B"/>
<path d="M73.7709 12.4724C73.0386 12.1789 72.5984 11.9588 72.4034 11.861C71.7683 11.5431 71.4259 11.1518 71.4259 10.7605C71.4259 10.0268 72.11 9.5866 73.2584 9.5866C74.26 9.5866 75.0412 9.85564 75.6033 10.4181C75.799 10.4181 76.1166 10.198 76.5072 9.80667C76.8978 9.41543 77.1182 9.07301 77.1182 8.90184C76.1166 7.85026 74.7973 7.33667 73.1846 7.33667C70.3023 7.33667 68.8366 8.65729 68.8366 10.9072C68.8366 12.7169 69.7649 13.5974 72.3545 14.6734L73.7709 15.2848C74.5528 15.6272 74.9193 16.0429 74.9193 16.4343C74.9193 17.2168 74.0885 17.7059 72.8671 17.7059C71.7435 17.7059 70.7908 17.3391 70.0826 16.6054C69.8869 16.6054 69.5695 16.8255 69.1542 17.2413C68.7389 17.6815 68.5435 17.9994 68.5435 18.1706C69.6916 19.32 71.182 19.9069 72.9649 19.9069C75.872 19.9069 77.5329 18.5374 77.5329 16.312C77.5329 15.4071 77.2401 14.6734 76.678 14.1598C76.1407 13.6463 75.139 13.0594 73.7709 12.4724Z" fill="#6B6B6B"/>
<path d="M87.3048 17.4617C86.9624 17.0949 86.6696 16.8992 86.474 16.8992C86.0097 17.3638 85.4234 17.5595 84.6415 17.5595C83.7625 17.5595 83.2982 17.0704 83.2982 16.1411V9.78254H87.1822V7.58151H83.2982V3.15503H82.5163L80.6846 4.15772V7.58151H79.3653C79.1697 7.58151 78.9258 7.70385 78.6565 7.97282C78.3878 8.24185 78.2659 8.4864 78.2659 8.68206C78.2659 8.87771 78.3878 9.07337 78.6565 9.3913C78.9499 9.66026 79.1697 9.78254 79.3653 9.78254H80.5137V16.6302C80.5137 18.8312 81.6862 19.9317 84.0312 19.9317C85.4723 19.9317 86.7427 19.3937 87.8421 18.2932C87.8662 18.0976 87.6713 17.8041 87.3048 17.4617Z" fill="#6B6B6B"/>
<path d="M98.8595 16.6301V11.5433C98.8595 8.77976 97.2227 7.31238 94.0221 7.31238C92.0925 7.31238 90.5046 7.89934 89.2832 9.1221C89.2832 9.36672 89.503 9.68458 89.9184 10.1248C90.3579 10.5161 90.6755 10.7362 90.8952 10.7362C91.6771 9.9781 92.6298 9.61127 93.7782 9.61127C95.1953 9.61127 96.0991 10.3204 96.0991 11.6167V12.546C95.488 12.4726 94.9259 12.4481 94.3886 12.4481C90.8711 12.4481 88.9897 13.8666 88.9897 16.3855C88.9897 18.6599 90.6265 19.9316 92.9963 19.9316C94.2914 19.9316 95.3902 19.5403 96.2699 18.7333C96.6116 19.198 97.1979 19.7115 97.5154 19.7115H99.177V19.3936L99.1033 19.1735C98.9573 18.9044 98.8595 17.9018 98.8595 16.6301ZM96.0991 16.7279C95.4639 17.3638 94.6572 17.7061 93.6804 17.7061C92.386 17.7061 91.7508 17.1926 91.7508 16.1654C91.7508 15.016 92.6298 14.4535 94.4134 14.4535C94.9748 14.4535 95.537 14.5024 96.0991 14.5758V16.7279Z" fill="#6B6B6B"/>
<path d="M111.708 17.2415C111.293 16.8502 110.976 16.6301 110.781 16.6301C110.096 17.217 109.168 17.5105 107.898 17.5105C105.504 17.5105 104.136 15.9209 104.136 13.6464C104.136 11.2987 105.528 9.70907 107.8 9.70907C108.704 9.70907 109.388 9.92921 109.852 10.3204V11.5922C109.852 11.7878 109.974 11.9835 110.291 12.3014C110.585 12.5704 110.805 12.6927 110.976 12.6927C111.171 12.6927 111.367 12.5704 111.635 12.3014C111.928 12.0079 112.075 11.7878 112.075 11.5922V9.24438C112.075 8.85314 111.635 8.41293 110.805 7.97272C109.974 7.50803 108.973 7.31238 107.8 7.31238C105.895 7.31238 104.307 7.89934 103.11 9.09769C101.888 10.2716 101.277 11.7878 101.277 13.622C101.277 15.4807 101.888 16.9724 103.11 18.1708C104.307 19.3447 105.895 19.9561 107.849 19.9561C109.73 19.9561 111.269 19.3691 112.417 18.2197C112.344 17.9751 112.124 17.6328 111.708 17.2415Z" fill="#6B6B6B"/>
<path d="M120.869 13.4506L124.729 8.97524C124.729 8.7551 124.461 8.43717 123.923 7.97255C123.41 7.50786 123.044 7.31221 122.824 7.31221L118.573 12.2034L117.498 12.3501V1.14934C117.498 0.953696 117.376 0.758048 117.058 0.489034C116.79 0.195563 116.57 0.0488281 116.374 0.0488281H113.736C113.541 0.0488281 113.345 0.171108 113.028 0.489034C112.759 0.758048 112.637 0.978152 112.637 1.14934C112.637 1.32053 112.759 1.54063 113.028 1.85856C113.321 2.12758 113.541 2.24985 113.736 2.24985H114.714V19.6869H117.474V14.7712L118.476 14.649L123.092 19.9559C123.312 19.9559 123.679 19.7113 124.192 19.2467C124.704 18.7576 124.973 18.4152 124.973 18.1951L120.869 13.4506Z" fill="#6B6B6B"/>
</g>
<defs>
<clipPath id="clip0_221_790">
<rect width="124" height="20" fill="white" transform="translate(0.998047)"/>
</clipPath>
</defs>
</svg>
