<svg width="180" height="29" viewBox="0 0 180 29" fill="none" xmlns="http://www.w3.org/2000/svg">
<g clip-path="url(#clip0_41_965)">
<path d="M45.1065 25C44.5391 24.4326 44.0427 24.1135 43.759 24.1135C42.7661 24.9645 41.4186 25.3901 39.5746 25.3901C36.0994 25.3901 34.1136 23.0851 34.1136 19.7872C34.1136 16.383 36.1349 14.078 39.4327 14.078C40.7448 14.078 41.7377 14.3972 42.4115 14.9645V16.8085C42.4115 17.0922 42.5888 17.3759 43.0498 17.8369C43.4753 18.2269 43.7944 18.4043 44.0072 18.4043C44.2909 18.4043 44.5746 18.2269 44.9647 17.8369C45.3902 17.4113 45.603 17.0922 45.603 16.8085V13.4043C45.603 12.8369 44.9647 12.1986 43.759 11.5603C42.5533 10.8865 41.0994 10.6028 39.3973 10.6028C36.6313 10.6028 34.3264 11.4539 32.5888 13.1915C30.8512 14.8936 29.9292 17.0922 29.9292 19.7518C29.9292 20.1773 29.9647 20.5674 30.0001 20.9574L14.5391 12.1631L20.8157 8.58156C21.6668 8.08511 21.9859 6.98582 21.4895 6.09929C20.993 5.24823 19.8937 4.92908 19.0072 5.42553L12.6597 9.04255V1.80851C12.6597 0.815603 11.8441 0 10.8512 0C9.85828 0 9.04268 0.815603 9.04268 1.80851V9.04255L2.69516 5.42553C1.80863 4.92908 0.709344 5.24823 0.21289 6.09929C-0.283564 6.95036 0.0355856 8.08511 0.886649 8.58156L7.19871 12.1631L0.92211 15.7447C0.0710465 16.2411 -0.248103 17.3404 0.248351 18.227C0.5675 18.7943 1.2058 19.1489 1.80863 19.1489C2.12778 19.1489 2.41147 19.078 2.69516 18.9007L9.04268 15.2837V22.5532C9.04268 23.5461 9.85828 24.3617 10.8512 24.3617C11.8441 24.3617 12.6597 23.5461 12.6597 22.5532V15.2482L33.5462 27.1277L35.1774 28.0496L35.2129 28.0851C35.3193 28.156 35.4611 28.1915 35.5675 28.2269C36.7023 28.6525 37.9788 28.8652 39.3973 28.8652C42.1278 28.8652 44.3618 28.0142 46.0285 26.3475C46.064 26.0638 45.7448 25.5674 45.1065 25Z" fill="#0053F1"/>
<path d="M56.9861 10.603C54.2911 10.603 52.057 11.4541 50.3194 13.2271C48.5818 14.9293 47.6953 17.1279 47.6953 19.7874C47.6953 22.4115 48.5464 24.5747 50.3194 26.3477C52.057 28.0498 54.2911 28.9364 56.9861 28.9364C59.6811 28.9364 61.9152 28.0853 63.6528 26.3477C65.3904 24.6101 66.3123 22.4115 66.3123 19.7874C66.3123 17.1279 65.4258 14.9647 63.6528 13.2271C61.8797 11.4541 59.6811 10.603 56.9861 10.603ZM60.6031 23.8654C59.7166 24.9293 58.5109 25.4257 56.9861 25.4257C55.4613 25.4257 54.2556 24.9293 53.3691 23.8654C52.4825 22.8016 52.0216 21.4541 52.0216 19.7874C52.0216 18.1208 52.4825 16.7378 53.3691 15.7094C54.2556 14.6456 55.4613 14.1491 56.9861 14.1491C58.5109 14.1491 59.7166 14.6456 60.6031 15.7094C61.5251 16.7732 62.0216 18.1208 62.0216 19.7874C62.0216 21.4541 61.5606 22.8016 60.6031 23.8654Z" fill="#0053F1"/>
<path d="M73.4045 0.709099C73.0144 0.283567 72.6952 0.0708008 72.447 0.0708008H67.4825C67.1988 0.0708008 66.9151 0.248106 66.4541 0.709099C66.064 1.09917 65.8867 1.41832 65.8867 1.66655C65.8867 1.91477 66.064 2.23392 66.4541 2.69491C66.8796 3.08499 67.1988 3.26229 67.4825 3.26229H70.0002V28.546H74.0073V1.66655C74.0427 1.38286 73.83 1.09917 73.4045 0.709099Z" fill="#0053F1"/>
<path d="M94.6457 24.1134V1.66655C94.6457 1.38286 94.4329 1.09917 94.0074 0.709099C93.6173 0.283567 93.2981 0.0708008 93.0499 0.0708008H89.2201C88.9364 0.0708008 88.6528 0.248106 88.1918 0.709099C87.8017 1.09917 87.6244 1.41832 87.6244 1.66655C87.6244 1.91477 87.8017 2.23392 88.1918 2.69492C88.6173 3.08499 88.9364 3.26229 89.2201 3.26229H90.6386V11.1701C89.4684 10.78 88.3336 10.6027 87.1989 10.6027C84.4329 10.6027 82.1634 11.4538 80.3903 13.2268C78.5818 14.929 77.6953 17.163 77.6953 19.8935C77.6953 22.4822 78.4755 24.6098 80.0712 26.3119C81.6669 28.0141 83.6882 28.9006 86.0996 28.9006C87.9435 28.9006 89.5393 28.3332 90.8868 27.1985C91.3478 27.8368 92.1989 28.546 92.6244 28.546H95.0357V28.085L94.9294 27.7658C94.7875 27.4112 94.6457 25.9573 94.6457 24.1134ZM90.6031 24.3261C89.6457 25.0708 88.4755 25.4254 87.0925 25.4254C83.9364 25.4254 81.9506 23.1205 81.9506 19.8226C81.9506 16.3829 83.9719 14.0779 87.3762 14.0779C88.5818 14.0779 89.6811 14.3261 90.6031 14.8226V24.3261Z" fill="#0053F1"/>
<path d="M105.638 18.085C104.575 17.6595 103.936 17.3403 103.653 17.1985C102.731 16.7375 102.234 16.1701 102.234 15.6027C102.234 14.5389 103.227 13.9006 104.894 13.9006C106.348 13.9006 107.482 14.2907 108.298 15.1063C108.582 15.1063 109.043 14.7871 109.61 14.2197C110.177 13.6524 110.497 13.1559 110.497 12.9077C109.043 11.3829 107.128 10.6382 104.787 10.6382C100.603 10.6382 98.4753 12.5531 98.4753 15.8155C98.4753 18.4396 99.8229 19.7162 103.582 21.2765L105.638 22.163C106.773 22.6595 107.305 23.2623 107.305 23.8297C107.305 24.9644 106.099 25.6736 104.326 25.6736C102.695 25.6736 101.312 25.1417 100.284 24.0779C100 24.0779 99.5392 24.397 98.9363 24.9999C98.3335 25.6382 98.0498 26.0992 98.0498 26.3474C99.7165 28.0141 101.88 28.8651 104.468 28.8651C108.688 28.8651 111.099 26.8793 111.099 23.6524C111.099 22.3403 110.674 21.2765 109.858 20.5318C109.078 19.7871 107.624 18.9361 105.638 18.085Z" fill="#0053F1"/>
<path d="M125.284 25.3194C124.787 24.7875 124.362 24.5038 124.078 24.5038C123.404 25.1775 122.553 25.4612 121.418 25.4612C120.142 25.4612 119.468 24.752 119.468 23.4045V14.1846H125.106V10.9931H119.468V4.57471H118.333L115.674 6.02861V10.9931H113.759C113.475 10.9931 113.121 11.1705 112.73 11.5605C112.34 11.9506 112.163 12.3052 112.163 12.5889C112.163 12.8726 112.34 13.1563 112.73 13.6173C113.156 14.0073 113.475 14.1846 113.759 14.1846H115.426V24.1137C115.426 27.3052 117.128 28.9009 120.532 28.9009C122.624 28.9009 124.468 28.1208 126.064 26.5251C126.099 26.2414 125.816 25.8158 125.284 25.3194Z" fill="#0053F1"/>
<path d="M142.057 24.1137V16.7378C142.057 12.7307 139.681 10.603 135.035 10.603C132.234 10.603 129.929 11.4541 128.156 13.2271C128.156 13.5818 128.475 14.0427 129.078 14.681C129.716 15.2484 130.177 15.5676 130.496 15.5676C131.631 14.4683 133.014 13.9364 134.681 13.9364C136.738 13.9364 138.05 14.9647 138.05 16.8442V18.1917C137.163 18.0853 136.347 18.0498 135.567 18.0498C130.461 18.0498 127.73 20.1066 127.73 23.7591C127.73 27.0569 130.106 28.9009 133.546 28.9009C135.426 28.9009 137.021 28.3335 138.298 27.1633C138.794 27.8371 139.645 28.5818 140.106 28.5818H142.518V28.1208L142.411 27.8016C142.199 27.4115 142.057 25.9576 142.057 24.1137ZM138.05 24.2555C137.128 25.1775 135.957 25.6739 134.539 25.6739C132.66 25.6739 131.738 24.9293 131.738 23.4399C131.738 21.7732 133.014 20.9576 135.603 20.9576C136.418 20.9576 137.234 21.0286 138.05 21.1349V24.2555Z" fill="#0053F1"/>
<path d="M160.709 25.0002C160.106 24.4328 159.645 24.1137 159.362 24.1137C158.369 24.9647 157.021 25.3903 155.177 25.3903C151.702 25.3903 149.716 23.0853 149.716 19.7874C149.716 16.3832 151.738 14.0782 155.035 14.0782C156.348 14.0782 157.34 14.3974 158.014 14.9647V16.8087C158.014 17.0924 158.191 17.3761 158.652 17.8371C159.078 18.2271 159.397 18.4044 159.645 18.4044C159.929 18.4044 160.213 18.2271 160.603 17.8371C161.028 17.4115 161.241 17.0924 161.241 16.8087V13.4044C161.241 12.8371 160.603 12.1988 159.397 11.5605C158.191 10.8867 156.738 10.603 155.035 10.603C152.27 10.603 149.965 11.4541 148.227 13.1917C146.454 14.8938 145.567 17.0924 145.567 19.752C145.567 22.447 146.454 24.6101 148.227 26.3477C149.965 28.0498 152.27 28.9364 155.106 28.9364C157.837 28.9364 160.071 28.0853 161.738 26.4186C161.631 26.064 161.312 25.5676 160.709 25.0002Z" fill="#0053F1"/>
<path d="M174.007 19.5034L179.61 13.0141C179.61 12.6949 179.22 12.2339 178.44 11.5602C177.695 10.8864 177.163 10.6027 176.844 10.6027L170.674 17.6949L169.113 17.9077V1.66655C169.113 1.38286 168.936 1.09917 168.475 0.709099C168.085 0.283567 167.766 0.0708008 167.482 0.0708008H163.652C163.369 0.0708008 163.085 0.248106 162.624 0.709099C162.234 1.09917 162.057 1.41832 162.057 1.66655C162.057 1.91477 162.234 2.23392 162.624 2.69491C163.05 3.08499 163.369 3.26229 163.652 3.26229H165.071V28.546H169.078V21.4183L170.532 21.241L177.234 28.9361C177.553 28.9361 178.085 28.5814 178.83 27.9077C179.574 27.1985 179.964 26.702 179.964 26.3829L174.007 19.5034Z" fill="#0053F1"/>
</g>
<defs>
<clipPath id="clip0_41_965">
<rect width="180" height="29" fill="white"/>
</clipPath>
</defs>
</svg>
