<svg width="168" height="47" viewBox="0 0 168 47" fill="none" xmlns="http://www.w3.org/2000/svg">
<path d="M148.763 13.0155C149.425 13.0155 150.018 13.4266 150.249 14.0471L155.714 28.6917L161.538 14.0171C161.776 13.4162 162.355 13.02 163.002 13.0155H166.343C166.877 13.0162 167.374 13.2855 167.666 13.732C167.958 14.1784 168.005 14.7418 167.792 15.2309L157.341 38.9655C155.172 43.8878 152.324 46.154 147.838 46.154C146.863 46.1447 145.892 46.049 144.935 45.8678C144.184 45.7276 143.64 45.0714 143.642 44.3078V41.8501C143.642 41.4095 143.826 40.9888 144.148 40.6886C144.471 40.3883 144.904 40.2357 145.343 40.2671C145.747 40.2971 146.102 40.3155 146.439 40.3155C148.514 40.3155 150.203 39.787 151.408 37.0847L152.132 35.4924L143.857 15.2009C143.658 14.7115 143.716 14.1553 144.01 13.7171C144.305 13.2788 144.799 13.0155 145.327 13.0155H148.763ZM16.98 4.47705C22.5323 4.47705 27.2515 6.97397 30.1708 11.0771C30.658 11.7933 30.4791 12.7682 29.7692 13.2647L27.3969 14.954C26.7177 15.4417 25.7758 15.3141 25.2508 14.6632C23.2108 12.0186 20.4785 10.5094 16.98 10.5094C11.0469 10.5094 6.70385 14.8501 6.70385 21.0255C6.70385 27.1501 11.0469 31.4447 16.98 31.4447C20.4785 31.4447 23.2038 29.924 25.2508 27.2909C25.7751 26.6389 26.718 26.5112 27.3969 27.0001L29.7808 28.6871C30.4935 29.1838 30.6727 30.1622 30.1823 30.8794C27.2931 34.9732 22.5277 37.4724 16.9315 37.4724C7.47692 37.4724 0 30.3347 0 20.9747C0 11.6147 7.47692 4.47705 16.98 4.47705ZM64.1538 12.4847C71.1854 12.4847 76.9731 17.8871 76.9731 24.9232C76.9731 32.0147 71.1831 37.4171 64.0938 37.4171C57.0046 37.4171 51.36 32.0147 51.36 24.9232C51.36 17.8871 57 12.4847 64.1538 12.4847ZM83.5592 13.0155C84.0242 13.0223 84.4374 13.3137 84.6 13.7494C84.6 13.7494 89.1808 25.4032 90.3346 25.4032C91.1515 25.4032 95.1808 15.5886 95.1808 15.5886C95.3537 15.1742 95.7564 14.9021 96.2054 14.8963H96.8215C97.2706 14.9021 97.6732 15.1742 97.8462 15.5886C97.8462 15.5886 101.875 25.4032 102.692 25.4032C103.846 25.4032 108.434 13.7494 108.434 13.7494C108.596 13.3137 109.01 13.0223 109.475 13.0155H113.268C114.088 13.0155 114.635 13.9155 114.295 14.7071C114.295 14.7071 112.689 22.6386 104.536 36.1894C104.342 36.5888 103.952 36.8563 103.509 36.8932H102.985C102.556 36.8932 102.48 36.8932 101.975 36.224C101.704 35.8415 101.433 35.4491 101.164 35.0529L100.842 34.5762L100.523 34.0982C98.4664 30.9926 96.6946 27.9624 96.6946 27.9624C96.6711 27.886 96.6004 27.8338 96.5204 27.8338C96.4404 27.8338 96.3697 27.886 96.3462 27.9624C96.3462 27.9624 93.6623 32.5524 91.0662 36.224C90.5608 36.8932 90.4823 36.8932 90.0531 36.8932H89.5292C89.0873 36.856 88.6979 36.5885 88.5046 36.1894C80.3608 22.6386 78.7454 14.7071 78.7454 14.7071C78.4062 13.9155 78.9531 13.0155 79.7723 13.0155H83.5592ZM47.8685 12.7247C48.0969 12.7247 48.3092 12.7317 48.51 12.7455C49.343 12.8014 49.9899 13.4937 49.9892 14.3286V17.1647C49.9892 18.0391 49.2805 18.7478 48.4062 18.7478H48.2538C44.49 18.7478 41.8385 20.684 41.8385 24.9786V35.3078C41.8372 36.1829 41.1281 36.8919 40.2531 36.8932H36.9092C36.0345 36.8919 35.3262 36.1825 35.3262 35.3078V14.5986C35.3262 13.7243 36.0349 13.0155 36.9092 13.0155H39.7223C40.597 13.0155 41.3064 13.7239 41.3077 14.5986V15.9094C42.8672 13.8691 45.3007 12.6879 47.8685 12.7247ZM131.142 12.4847C136.738 12.4847 140.114 16.3432 140.114 22.0824V35.3078C140.113 36.1829 139.404 36.8919 138.528 36.8932H135.235C134.36 36.8932 133.65 36.1834 133.65 35.3078V22.9524C133.65 20.2017 131.866 18.3209 129.212 18.3209C126.558 18.3209 124.678 20.2017 124.678 22.9524V35.3078C124.676 36.1829 123.967 36.8919 123.092 36.8932H119.751C118.876 36.8919 118.167 36.1829 118.165 35.3078V14.6009C118.165 13.7253 118.875 13.0155 119.751 13.0155H122.562C123.437 13.0155 124.147 13.7253 124.147 14.6009V15.1847C125.788 13.5463 128.199 12.4847 131.142 12.4847ZM64.1538 18.4178C60.5262 18.4178 57.9808 21.2217 57.9808 24.9809C57.9808 28.7401 60.5377 31.4424 64.1538 31.4424C67.6638 31.4424 70.3177 28.6917 70.3292 24.9786C70.3292 21.2147 67.6754 18.4178 64.1538 18.4178Z" fill="white"/>
<path fill-rule="evenodd" clip-rule="evenodd" d="M97.6892 2.57833e-07C97.9748 -0.000216432 98.2433 0.136162 98.4115 0.366924L99.8261 2.31923C100.021 2.58939 100.048 2.94542 99.8977 3.24231L96.6923 8.22923C96.667 8.2764 96.6178 8.30582 96.5642 8.30582C96.5107 8.30582 96.4615 8.2764 96.4361 8.22923L93.2446 3.24692C93.0941 2.95003 93.1217 2.59401 93.3161 2.32385L94.7308 0.371539C94.898 0.139032 95.1667 0.000855822 95.4531 2.57833e-07H97.6892ZM78.2561 1.10077L80.4508 2.62385C80.8819 2.92355 81.0298 3.49294 80.7992 3.96462L78.6692 7.79769C78.5609 8.01777 78.3169 8.13609 78.077 8.08484C77.8371 8.0336 77.6628 7.82589 77.6538 7.58077C77.6538 7.58077 77.5385 6.30231 77.4485 4.76769C77.4147 4.19221 77.4017 3.59758 77.3987 3.0791L77.3996 2.44127C77.404 1.91329 77.4161 1.56231 77.4161 1.56231C77.408 1.35939 77.5153 1.16932 77.6933 1.07153C77.8713 0.973735 78.0893 0.98506 78.2561 1.10077ZM114.72 1.10077C114.887 0.98506 115.105 0.973735 115.283 1.07153C115.461 1.16932 115.568 1.35939 115.56 1.56231C115.56 1.56231 115.575 1.98 115.579 2.58952L115.579 3.0791C115.576 3.59758 115.564 4.19221 115.53 4.76769C115.44 6.30231 115.322 7.58077 115.322 7.58077C115.311 7.82509 115.136 8.031 114.897 8.08106C114.658 8.13111 114.415 8.01258 114.307 7.79308L112.179 3.96462C111.949 3.49294 112.097 2.92355 112.528 2.62385L114.72 1.10077Z" fill="url(#paint0_linear_41_1349)"/>
<defs>
<linearGradient id="paint0_linear_41_1349" x1="96.4889" y1="1.52673" x2="96.4889" y2="4.79877" gradientUnits="userSpaceOnUse">
<stop stop-color="#EBD19C"/>
<stop offset="1" stop-color="#DFAF6E"/>
</linearGradient>
</defs>
</svg>
