<svg width="87" height="24" viewBox="0 0 87 24" fill="none" xmlns="http://www.w3.org/2000/svg">
<g clip-path="url(#clip0_221_899)">
<path d="M76.6525 6.64608C76.9915 6.64608 77.2949 6.85598 77.4133 7.17282L80.2107 14.6509L83.1923 7.1575C83.3141 6.85069 83.6104 6.64835 83.9413 6.64608H85.6518C85.9249 6.64644 86.1794 6.78396 86.3289 7.01192C86.4784 7.23988 86.5027 7.52761 86.3937 7.77734L81.0435 19.8971C79.933 22.4107 78.4753 23.5678 76.1788 23.5678C75.6801 23.5631 75.1828 23.5142 74.6927 23.4217C74.3085 23.3501 74.0302 23.0151 74.0312 22.6251V21.3701C74.0312 21.1451 74.1251 20.9303 74.2902 20.777C74.4553 20.6237 74.6768 20.5457 74.9018 20.5618C75.1085 20.5771 75.2905 20.5865 75.4629 20.5865C76.5249 20.5865 77.3897 20.3166 78.0063 18.9367L78.3772 18.1237L74.141 7.76202C74.0392 7.51214 74.0687 7.22812 74.2196 7.00431C74.3705 6.78051 74.6231 6.64608 74.8935 6.64608H76.6525ZM9.19214 2.28601C12.0344 2.28601 14.4502 3.56104 15.9446 5.65622C16.194 6.02197 16.1024 6.51979 15.739 6.77334L14.5246 7.63593C14.1769 7.88499 13.6947 7.81982 13.426 7.48745C12.3817 6.13701 10.983 5.36634 9.19214 5.36634C6.15497 5.36634 3.93173 7.5829 3.93173 10.7363C3.93173 13.8638 6.15497 16.0567 9.19214 16.0567C10.983 16.0567 12.3782 15.2802 13.426 13.9356C13.6944 13.6027 14.1771 13.5375 14.5246 13.7872L15.7449 14.6486C16.1098 14.9022 16.2015 15.4018 15.9505 15.768C14.4715 17.8585 12.032 19.1347 9.16733 19.1347C4.32747 19.1347 0.5 15.4899 0.5 10.7104C0.5 5.93079 4.32747 2.28601 9.19214 2.28601ZM33.3407 6.37505C36.9401 6.37505 39.9029 9.13367 39.9029 12.7266C39.9029 16.3478 36.939 19.1064 33.3099 19.1064C29.6809 19.1064 26.7914 16.3478 26.7914 12.7266C26.7914 9.13367 29.6786 6.37505 33.3407 6.37505ZM43.2744 6.64608C43.5124 6.64955 43.7239 6.79832 43.8071 7.02081C43.8071 7.02081 46.1521 12.9717 46.7427 12.9717C47.1609 12.9717 49.2235 7.95999 49.2235 7.95999C49.312 7.74837 49.5181 7.60945 49.748 7.60647H50.0634C50.2933 7.60945 50.4994 7.74837 50.5879 7.95999C50.5879 7.95999 52.6505 12.9717 53.0687 12.9717C53.6593 12.9717 56.0078 7.02081 56.0078 7.02081C56.091 6.79832 56.3025 6.64955 56.5406 6.64608H58.4827C58.902 6.64608 59.182 7.10565 59.0083 7.50984C59.0083 7.50984 58.1861 11.56 54.0126 18.4795C53.9132 18.6835 53.7134 18.8201 53.4869 18.8389H53.2187C52.999 18.8389 52.96 18.8389 52.7013 18.4972C52.5629 18.3019 52.4239 18.1015 52.2861 17.8992L52.1214 17.6558L51.9584 17.4117C50.9054 15.8258 49.9984 14.2785 49.9984 14.2785C49.9864 14.2395 49.9502 14.2129 49.9092 14.2129C49.8683 14.2129 49.8321 14.2395 49.82 14.2785C49.82 14.2785 48.4462 16.6224 47.1172 18.4972C46.8585 18.8389 46.8183 18.8389 46.5986 18.8389H46.3304C46.1042 18.82 45.9049 18.6833 45.8059 18.4795C41.6371 11.56 40.8101 7.50984 40.8101 7.50984C40.6365 7.10565 40.9165 6.64608 41.3358 6.64608H43.2744ZM25.0041 6.4976C25.121 6.4976 25.2297 6.50113 25.3325 6.5082C25.7589 6.53675 26.0901 6.89027 26.0897 7.31658V8.76483C26.0897 9.21129 25.7269 9.57321 25.2793 9.57321H25.2014C23.2746 9.57321 21.9173 10.5619 21.9173 12.7549V18.0294C21.9167 18.4762 21.5537 18.8383 21.1057 18.8389H19.394C18.9463 18.8383 18.5836 18.476 18.5836 18.0294V7.45446C18.5836 7.008 18.9464 6.64608 19.394 6.64608H20.834C21.2818 6.64608 21.645 7.00781 21.6456 7.45446V8.12379C22.4439 7.08197 23.6897 6.47879 25.0041 6.4976ZM67.632 6.37505C70.4967 6.37505 72.2249 8.34532 72.2249 11.276V18.0294C72.2243 18.4762 71.8613 18.8383 71.4134 18.8389H69.7276C69.2794 18.8389 68.9161 18.4765 68.9161 18.0294V11.7202C68.9161 10.3156 68.0029 9.35521 66.6444 9.35521C65.2859 9.35521 64.3231 10.3156 64.3231 11.7202V18.0294C64.3224 18.4762 63.9595 18.8383 63.5115 18.8389H61.801C61.353 18.8383 60.9901 18.4762 60.9894 18.0294V7.45563C60.9894 7.00853 61.3528 6.64608 61.801 6.64608H63.2398C63.688 6.64608 64.0514 7.00853 64.0514 7.45563V7.75377C64.8913 6.91711 66.1258 6.37505 67.632 6.37505ZM33.3407 9.4047C31.4836 9.4047 30.1806 10.8365 30.1806 12.7561C30.1806 14.6757 31.4895 16.0556 33.3407 16.0556C35.1374 16.0556 36.496 14.6509 36.5019 12.7549C36.5019 10.8329 35.1433 9.4047 33.3407 9.4047Z" fill="#6B6B6B"/>
<path fill-rule="evenodd" clip-rule="evenodd" d="M50.5077 1.31659e-07C50.6539 -0.000110518 50.7913 0.0695293 50.8774 0.187365L51.6016 1.18429C51.7011 1.32224 51.7152 1.50404 51.6382 1.65565L49.9973 4.20216C49.9844 4.22624 49.9592 4.24127 49.9318 4.24127C49.9044 4.24127 49.8792 4.22624 49.8662 4.20216L48.2325 1.658C48.1554 1.5064 48.1695 1.3246 48.2691 1.18665L48.9932 0.189722C49.0788 0.0709953 49.2164 0.000437015 49.363 1.31659e-07H50.5077ZM40.5598 0.562095L41.6832 1.33984C41.9039 1.49288 41.9797 1.78363 41.8616 2.02448L40.7712 3.9818C40.7158 4.09418 40.5909 4.1546 40.4681 4.12843C40.3453 4.10226 40.256 3.9962 40.2515 3.87103C40.2515 3.87103 40.1924 3.2182 40.1463 2.43457C40.1291 2.1407 40.1224 1.83706 40.1208 1.57231L40.1213 1.2466C40.1236 0.976997 40.1298 0.797774 40.1298 0.797774C40.1256 0.694158 40.1805 0.5971 40.2717 0.547163C40.3628 0.497226 40.4744 0.503009 40.5598 0.562095ZM59.2258 0.562095C59.3112 0.503009 59.4228 0.497226 59.5139 0.547163C59.605 0.5971 59.66 0.694158 59.6558 0.797774C59.6558 0.797774 59.6635 1.01106 59.6654 1.32231L59.6655 1.57231C59.6642 1.83706 59.6577 2.1407 59.6404 2.43457C59.5944 3.2182 59.5341 3.87103 59.5341 3.87103C59.5286 3.99579 59.439 4.10094 59.3164 4.1265C59.1939 4.15206 59.0695 4.09153 59.0143 3.97944L57.9252 2.02448C57.8071 1.78363 57.8829 1.49288 58.1035 1.33984L59.2258 0.562095Z" fill="#6B6B6B"/>
</g>
<defs>
<clipPath id="clip0_221_899">
<rect width="86" height="24" fill="white" transform="translate(0.5)"/>
</clipPath>
</defs>
</svg>
