<svg width="116" height="24" viewBox="0 0 116 24" fill="none" xmlns="http://www.w3.org/2000/svg">
<g clip-path="url(#clip0_221_777)">
<path d="M0.998047 23.9557L11.819 4.15015L21.3757 0L10.5397 19.8056L0.998047 23.9557Z" fill="#6B6B6B"/>
<path d="M11.7886 19.4362L20.0058 4.38635L24.7014 8.92051L16.5745 23.9999L11.7886 19.4362Z" fill="#6B6B6B"/>
<path d="M25.6051 9.36377L31.6853 11.5496L28.6452 17.0438L21.2708 17.2949L25.6051 9.36377Z" fill="#6B6B6B"/>
<path d="M40.2206 18.8304H35.998V7.13843H40.2519C41.4449 7.13843 42.4809 7.36952 43.3443 7.83164C44.2077 8.29377 44.8826 8.97152 45.3379 9.83422C45.8087 10.7123 46.0285 11.7443 46.0285 12.9613C46.0285 14.1782 45.793 15.2257 45.3221 16.1038C44.8512 16.9818 44.1919 17.6442 43.3129 18.1218C42.4653 18.5993 41.4292 18.8304 40.2206 18.8304ZM38.5096 16.7045H40.1106C41.2252 16.7045 42.0728 16.4119 42.6536 15.8111C43.2344 15.2257 43.517 14.2706 43.517 12.9613C43.517 11.6673 43.2344 10.7277 42.6536 10.1269C42.0728 9.54152 41.2252 9.24882 40.1106 9.24882H38.5096V16.7045Z" fill="#6B6B6B"/>
<path d="M47.9115 18.8306H45.2117L49.3243 7.15405H52.5736L56.6709 18.8306H53.9707L53.0916 16.1656H48.7906L47.9115 18.8306ZM49.4342 14.2401H52.4637L51.0039 9.81904H50.9097L49.4342 14.2401Z" fill="#6B6B6B"/>
<path d="M67.0004 12.9923C67.0004 14.2709 66.7493 15.3492 66.2627 16.2427C65.7762 17.1361 65.101 17.8139 64.2692 18.2914C63.4217 18.7536 62.4796 19 61.4276 19C60.3763 19 59.4184 18.769 58.5867 18.2914C57.7392 17.8139 57.0797 17.1361 56.5932 16.2427C56.1066 15.3492 55.8555 14.2709 55.8555 13.0077C55.8555 11.7291 56.1066 10.6508 56.5932 9.7574C57.0797 8.8639 57.7392 8.18614 58.5867 7.70862C59.4342 7.24643 60.3763 7 61.4276 7C62.4796 7 63.4217 7.23103 64.2692 7.70862C65.1167 8.17074 65.7762 8.8639 66.2627 9.7574C66.765 10.62 67.0004 11.7137 67.0004 12.9923ZM64.4573 12.9923C64.4573 11.76 64.1752 10.8049 63.6256 10.1579C63.0759 9.51091 62.3382 9.172 61.4276 9.172C60.5177 9.172 59.78 9.49551 59.2303 10.1579C58.6807 10.8203 58.3986 11.76 58.3986 12.9923C58.3986 14.2247 58.6807 15.1797 59.2303 15.8267C59.78 16.4737 60.5177 16.8126 61.4276 16.8126C62.3382 16.8126 63.0759 16.4891 63.6256 15.8267C64.1752 15.1643 64.4573 14.2247 64.4573 12.9923Z" fill="#6B6B6B"/>
<path d="M70.3748 7.13843H73.4833L76.7635 14.9947H76.9048L80.1856 7.13843H83.2784V18.8304H80.8293V11.2206H80.7353L77.6583 18.7688H75.9948L72.9179 11.1898H72.8238V18.8304H70.3748V7.13843Z" fill="#6B6B6B"/>
<path d="M86.9358 18.9846C86.0883 18.9846 85.3815 18.769 84.8167 18.3223C84.2513 17.891 83.9692 17.2285 83.9692 16.3659C83.9692 15.7189 84.1257 15.1952 84.44 14.8255C84.7536 14.4557 85.1619 14.1784 85.68 14.009C86.1823 13.8396 86.732 13.7163 87.3283 13.6701C88.0975 13.5931 88.6624 13.5161 88.9924 13.4237C89.3218 13.3312 89.4947 13.1618 89.4947 12.8691V12.8383C89.4947 12.484 89.3843 12.1913 89.1489 12.0064C88.9135 11.8062 88.5999 11.7137 88.1758 11.7137C87.7366 11.7137 87.375 11.8062 87.1087 12.0064C86.8418 12.1913 86.6689 12.4378 86.5906 12.7305L84.2987 12.5456C84.4716 11.7446 84.895 11.113 85.5702 10.6509C86.2448 10.1888 87.1239 9.94226 88.1916 9.94226C88.851 9.94226 89.4789 10.0501 90.0437 10.2504C90.6249 10.4506 91.0799 10.7741 91.4408 11.2054C91.8018 11.6367 91.9747 12.2067 91.9747 12.8999V18.8306H89.6203V17.6137H89.5572C89.3376 18.0142 89.0233 18.3531 88.5841 18.6149C88.1443 18.8614 87.5952 18.9846 86.9358 18.9846ZM87.6419 17.321C88.1916 17.321 88.6308 17.1669 88.9766 16.8588C89.3218 16.5507 89.4947 16.1656 89.4947 15.7035V14.7793C89.4 14.8409 89.2435 14.9025 89.0391 14.9487C88.8352 14.9949 88.6156 15.0411 88.3954 15.072C88.16 15.1028 87.9562 15.1336 87.7833 15.1644C87.3441 15.226 86.9983 15.3492 86.732 15.5187C86.465 15.7035 86.3395 15.9654 86.3395 16.3043C86.3395 16.6431 86.465 16.8896 86.7162 17.0591C86.9516 17.2285 87.2652 17.321 87.6419 17.321Z" fill="#6B6B6B"/>
<path d="M92.9163 18.8304V7.13843H95.3963V13.3772H95.5376L98.3944 10.0499H101.235L97.9236 13.8393L101.408 18.815H98.5042L96.0557 15.2874L95.3805 16.0422V18.8304H92.9163Z" fill="#6B6B6B"/>
<path d="M104.988 18.9998C104.077 18.9998 103.293 18.8149 102.617 18.4452C101.958 18.0755 101.44 17.5518 101.095 16.8894C100.734 16.2116 100.561 15.4106 100.561 14.4863C100.561 13.5928 100.734 12.7918 101.095 12.1141C101.456 11.4362 101.958 10.8971 102.602 10.5274C103.245 10.1423 104.014 9.9574 104.894 9.9574C105.678 9.9574 106.385 10.1269 107.028 10.4504C107.656 10.7738 108.159 11.2668 108.535 11.9292C108.912 12.5916 109.1 13.408 109.1 14.4093V15.0717H103.026C103.026 15.7187 103.214 16.2424 103.575 16.6121C103.936 16.9818 104.438 17.1821 105.05 17.1821C105.458 17.1821 105.819 17.0897 106.118 16.9202C106.416 16.7508 106.636 16.4889 106.761 16.1654L109.053 16.3194C108.88 17.1359 108.441 17.7829 107.735 18.2758C107.013 18.7533 106.102 18.9998 104.988 18.9998ZM103.01 13.562H106.761C106.761 13.0383 106.589 12.607 106.243 12.2681C105.898 11.9292 105.474 11.7597 104.924 11.7597C104.375 11.7597 103.92 11.9292 103.575 12.2835C103.229 12.6378 103.041 13.0691 103.01 13.562Z" fill="#6B6B6B"/>
<path d="M109.712 18.8306V10.0655H112.113V11.5905H112.207C112.365 11.0514 112.647 10.6355 113.024 10.3582C113.401 10.0809 113.856 9.94226 114.342 9.94226C114.625 9.94226 114.876 9.97307 115.127 10.0347V12.1913C115.018 12.1605 114.845 12.1297 114.641 12.0989C114.437 12.0681 114.248 12.0681 114.075 12.0681C113.526 12.0681 113.071 12.2375 112.726 12.5764C112.365 12.9153 112.192 13.3466 112.192 13.8858V18.8306H109.712Z" fill="#6B6B6B"/>
</g>
<defs>
<clipPath id="clip0_221_777">
<rect width="115" height="24" fill="white" transform="translate(0.998047)"/>
</clipPath>
</defs>
</svg>
