<svg width="115" height="24" viewBox="0 0 115 24" fill="none" xmlns="http://www.w3.org/2000/svg">
<path d="M0 23.9557L10.8209 4.15015L20.3776 0L9.54167 19.8056L0 23.9557Z" fill="url(#paint0_linear_41_990)"/>
<path d="M10.7905 19.4361L19.0078 4.38623L23.7034 8.92039L15.5764 23.9998L10.7905 19.4361Z" fill="url(#paint1_linear_41_990)"/>
<path d="M24.6071 9.36377L30.6872 11.5496L27.6472 17.0438L20.2727 17.2949L24.6071 9.36377Z" fill="url(#paint2_linear_41_990)"/>
<path d="M39.2225 18.8301H35V7.13818H39.2539C40.4469 7.13818 41.4829 7.36927 42.3463 7.8314C43.2096 8.29352 43.8846 8.97128 44.3398 9.83398C44.8107 10.712 45.0304 11.7441 45.0304 12.961C45.0304 14.178 44.795 15.2255 44.3241 16.1035C43.8532 16.9816 43.1939 17.644 42.3148 18.1215C41.4672 18.5991 40.4312 18.8301 39.2225 18.8301ZM37.5115 16.7043H39.1126C40.2272 16.7043 41.0748 16.4116 41.6556 15.8108C42.2363 15.2255 42.5189 14.2704 42.5189 12.961C42.5189 11.6671 42.2363 10.7274 41.6556 10.1266C41.0748 9.54128 40.2272 9.24858 39.1126 9.24858H37.5115V16.7043Z" fill="#2B2D42"/>
<path d="M46.9135 18.8304H44.2136L48.3263 7.15381H51.5756L55.6728 18.8304H52.9726L52.0936 16.1654H47.7925L46.9135 18.8304ZM48.4362 14.2399H51.4657L50.0058 9.8188H49.9117L48.4362 14.2399Z" fill="#2B2D42"/>
<path d="M66.0024 12.9923C66.0024 14.2709 65.7512 15.3492 65.2647 16.2427C64.7781 17.1361 64.1029 17.8139 63.2712 18.2914C62.4237 18.7536 61.4815 19 60.4296 19C59.3783 19 58.4203 18.769 57.5886 18.2914C56.7411 17.8139 56.0817 17.1361 55.5951 16.2427C55.1086 15.3492 54.8574 14.2709 54.8574 13.0077C54.8574 11.7291 55.1086 10.6508 55.5951 9.7574C56.0817 8.8639 56.7411 8.18614 57.5886 7.70862C58.4361 7.24643 59.3783 7 60.4296 7C61.4815 7 62.4237 7.23103 63.2712 7.70862C64.1187 8.17074 64.7781 8.8639 65.2647 9.7574C65.767 10.62 66.0024 11.7137 66.0024 12.9923ZM63.4593 12.9923C63.4593 11.76 63.1772 10.8049 62.6275 10.1579C62.0779 9.51091 61.3402 9.172 60.4296 9.172C59.5196 9.172 58.7819 9.49551 58.2323 10.1579C57.6826 10.8203 57.4005 11.76 57.4005 12.9923C57.4005 14.2247 57.6826 15.1797 58.2323 15.8267C58.7819 16.4737 59.5196 16.8126 60.4296 16.8126C61.3402 16.8126 62.0779 16.4891 62.6275 15.8267C63.1772 15.1643 63.4593 14.2247 63.4593 12.9923Z" fill="#2B2D42"/>
<path d="M69.3767 7.13818H72.4852L75.7654 14.9944H75.9068L79.1876 7.13818H82.2803V18.8301H79.8313V11.2203H79.7372L76.6603 18.7685H74.9968L71.9198 11.1895H71.8258V18.8301H69.3767V7.13818Z" fill="#2B2D42"/>
<path d="M85.9378 18.9848C85.0903 18.9848 84.3835 18.7691 83.8187 18.3224C83.2533 17.8911 82.9712 17.2287 82.9712 16.366C82.9712 15.719 83.1277 15.1953 83.442 14.8256C83.7556 14.4559 84.1639 14.1786 84.682 14.0091C85.1843 13.8397 85.7339 13.7164 86.3303 13.6702C87.0995 13.5932 87.6643 13.5162 87.9943 13.4238C88.3237 13.3313 88.4966 13.1619 88.4966 12.8692V12.8384C88.4966 12.4841 88.3862 12.1915 88.1508 12.0066C87.9155 11.8063 87.6018 11.7139 87.1778 11.7139C86.7385 11.7139 86.377 11.8063 86.1106 12.0066C85.8437 12.1915 85.6708 12.4379 85.5926 12.7306L83.3006 12.5457C83.4735 11.7447 83.8969 11.1131 84.5722 10.651C85.2468 10.1889 86.1258 9.94238 87.1935 9.94238C87.853 9.94238 88.4809 10.0502 89.0457 10.2505C89.6268 10.4507 90.0818 10.7742 90.4428 11.2055C90.8038 11.6369 90.9767 12.2069 90.9767 12.9V18.8307H88.6222V17.6138H88.5591C88.3395 18.0143 88.0253 18.3532 87.586 18.615C87.1462 18.8615 86.5972 18.9848 85.9378 18.9848ZM86.6439 17.3211C87.1935 17.3211 87.6328 17.1671 87.9786 16.859C88.3237 16.5509 88.4966 16.1657 88.4966 15.7036V14.7794C88.402 14.841 88.2455 14.9026 88.041 14.9488C87.8372 14.995 87.6176 15.0413 87.3974 15.0721C87.162 15.1029 86.9581 15.1337 86.7852 15.1645C86.346 15.2261 86.0002 15.3493 85.7339 15.5188C85.467 15.7036 85.3414 15.9655 85.3414 16.3044C85.3414 16.6433 85.467 16.8898 85.7181 17.0592C85.9535 17.2287 86.2672 17.3211 86.6439 17.3211Z" fill="#2B2D42"/>
<path d="M91.9182 18.8301V7.13818H94.3982V13.3769H94.5396L97.3964 10.0496H100.237L96.9256 13.8391L100.41 18.8147H97.5062L95.0577 15.2871L94.3825 16.0419V18.8301H91.9182Z" fill="#2B2D42"/>
<path d="M103.99 19C103.079 19 102.295 18.8151 101.619 18.4454C100.96 18.0756 100.442 17.5519 100.097 16.8895C99.7356 16.2117 99.5627 15.4107 99.5627 14.4865C99.5627 13.593 99.7356 12.7919 100.097 12.1142C100.458 11.4364 100.96 10.8972 101.604 10.5275C102.247 10.1424 103.016 9.95752 103.895 9.95752C104.68 9.95752 105.387 10.127 106.03 10.4505C106.658 10.774 107.161 11.2669 107.537 11.9293C107.914 12.5917 108.102 13.4081 108.102 14.4094V15.0718H102.028C102.028 15.7188 102.216 16.2425 102.577 16.6123C102.938 16.982 103.44 17.1822 104.052 17.1822C104.46 17.1822 104.821 17.0898 105.12 16.9203C105.418 16.7509 105.638 16.489 105.763 16.1655L108.055 16.3196C107.882 17.136 107.443 17.783 106.736 18.2759C106.015 18.7535 105.104 19 103.99 19ZM102.012 13.5622H105.763C105.763 13.0384 105.59 12.6071 105.245 12.2682C104.9 11.9293 104.476 11.7599 103.926 11.7599C103.377 11.7599 102.922 11.9293 102.577 12.2836C102.231 12.6379 102.043 13.0692 102.012 13.5622Z" fill="#2B2D42"/>
<path d="M108.714 18.8307V10.0656H111.115V11.5907H111.209C111.367 11.0515 111.649 10.6356 112.026 10.3583C112.403 10.081 112.858 9.94238 113.344 9.94238C113.627 9.94238 113.878 9.97319 114.129 10.0348V12.1915C114.019 12.1607 113.847 12.1298 113.643 12.099C113.439 12.0682 113.25 12.0682 113.077 12.0682C112.528 12.0682 112.073 12.2377 111.728 12.5766C111.367 12.9154 111.194 13.3467 111.194 13.8859V18.8307H108.714Z" fill="#2B2D42"/>
<defs>
<linearGradient id="paint0_linear_41_990" x1="0" y1="11.9779" x2="20.3776" y2="11.9779" gradientUnits="userSpaceOnUse">
<stop stop-color="#4086FF"/>
<stop offset="1" stop-color="#48D4FF"/>
</linearGradient>
<linearGradient id="paint1_linear_41_990" x1="10.7905" y1="14.193" x2="23.7034" y2="14.193" gradientUnits="userSpaceOnUse">
<stop stop-color="#4086FF"/>
<stop offset="1" stop-color="#48D4FF"/>
</linearGradient>
<linearGradient id="paint2_linear_41_990" x1="20.2727" y1="13.3293" x2="30.6872" y2="13.3293" gradientUnits="userSpaceOnUse">
<stop stop-color="#4086FF"/>
<stop offset="1" stop-color="#48D4FF"/>
</linearGradient>
</defs>
</svg>
