<svg width="145" height="24" viewBox="0 0 145 24" fill="none" xmlns="http://www.w3.org/2000/svg">
<g clip-path="url(#clip0_221_801)">
<path d="M16.2486 14.0317C14.5872 14.0317 12.9257 14.0317 11.2394 14.0317C12.0826 12.6249 12.9009 11.2179 13.744 9.81111C14.5623 11.2179 15.4055 12.6249 16.2486 14.0317ZM20.6378 3.48041C19.8938 2.94679 19.1996 2.60721 18.8028 2.43741C16.7198 1.46719 14.3144 2.04933 13.1241 3.91701L13.0497 4.03829L12.9505 4.18383C12.9009 4.28085 12.8513 4.32936 12.8513 4.35362C12.8018 4.42638 12.7769 4.47489 12.7769 4.49915C10.9667 7.70091 9.05728 10.8542 7.17266 14.0317C7.07348 14.0317 6.97428 14.0317 6.85029 14.0317C6.72631 14.0317 6.55272 14.0074 6.37914 13.9347C6.32954 13.9104 6.25515 13.8861 6.20556 13.8619L6.18075 13.8376C5.56082 13.498 5.36244 12.7461 5.7096 12.164L7.04868 9.90814L10.5947 3.96553C11.3635 2.51019 12.7274 1.39442 14.3392 0.909309C15.3063 0.618236 16.199 0.642492 16.199 0.642492C16.323 0.642492 16.7942 0.642492 17.2653 0.666748C17.4884 0.666748 17.786 0.715259 18.1828 0.76377C16.323 0.0360987 14.8103 -0.0366685 13.8928 0.0118429C7.94139 0.2544 2.80827 5.95449 2.18834 11.3877C2.08915 12.3095 2.13874 13.0371 2.18834 13.4495C2.36192 15.681 4.07295 17.4517 6.35434 17.5002H6.50312H6.70151C6.8007 17.5002 6.89989 17.5002 6.89989 17.5002C6.99908 17.5002 7.04868 17.5002 7.07348 17.5002C10.8179 17.4517 14.5623 17.4759 18.3316 17.4759C18.3812 17.5487 18.4308 17.6457 18.4804 17.7428C18.53 17.8398 18.6044 18.0096 18.6292 18.1794C18.6292 18.2522 18.6292 18.3007 18.6292 18.3735V18.3977C18.6292 19.0768 18.0589 19.6347 17.3645 19.6347H14.6616H7.61902C5.95758 19.7318 4.27134 19.1496 3.03146 18.0096C2.28752 17.3304 1.86596 16.5785 1.86596 16.5785C1.81637 16.4815 1.56839 16.0934 1.37001 15.6567C1.27082 15.4628 1.14683 15.1959 0.998047 14.8321C1.27082 16.7726 1.96515 18.0824 2.46111 18.8343C5.66 23.7097 13.2977 25.2135 18.4308 23.0062C19.2987 22.6425 19.9186 22.2301 20.2658 21.9875C22.1504 20.702 22.8696 18.3735 21.7784 16.433L21.704 16.3117L21.6049 16.1661C21.5801 16.0691 21.5305 15.9963 21.5305 15.9963C21.4809 15.9236 21.4561 15.8751 21.4561 15.8508C19.5219 12.7218 17.6869 9.54437 15.8023 6.36684C15.8518 6.26982 15.9014 6.19705 15.9511 6.10003C16.0006 6.00301 16.1246 5.85747 16.2734 5.73619C16.323 5.68768 16.3726 5.66343 16.4222 5.63917L16.447 5.61491C17.0669 5.27534 17.8357 5.46938 18.1828 6.07577L19.5219 8.33156L23.0432 14.2742C23.9606 15.6567 24.2582 17.3547 23.8862 18.9555C23.6631 19.9258 23.192 20.6535 23.192 20.6777C23.1423 20.7747 22.8944 21.1629 22.6216 21.5751C22.4976 21.7692 22.2992 22.0118 22.076 22.2786C23.6631 21.0658 24.4566 19.8288 24.903 19.0283C27.6308 13.9104 25.151 6.70642 20.6378 3.48041Z" fill="#6B6B6B"/>
<path d="M42.9806 2.89868V19.3441H41.3688L40.5008 18.2525C39.9801 18.6891 39.3601 19.0287 38.641 19.2713C37.9467 19.5139 37.302 19.6108 36.7316 19.6108C35.0454 19.6108 33.7559 19.0287 32.8632 17.8887C31.9704 16.7487 31.4993 15.3176 31.4993 13.6197C31.4993 11.9218 31.9704 10.4907 32.9376 9.32641C33.9047 8.18643 35.2189 7.60429 36.8804 7.60429C37.302 7.60429 37.7979 7.67706 38.3435 7.84685C38.889 7.99238 39.3849 8.18643 39.8561 8.45324V3.16549L42.9806 2.89868ZM37.5747 10.1754C36.4836 10.1754 35.7396 10.5393 35.3181 11.2911C34.8966 12.0431 34.6982 12.795 34.6982 13.5955C34.6982 14.4687 34.8966 15.2691 35.2686 15.9725C35.6405 16.6759 36.4092 17.0155 37.5747 17.0155C37.9467 17.0155 38.3186 16.9427 38.7154 16.7729C39.1369 16.6032 39.5089 16.4091 39.8561 16.1908V11.0001C39.5089 10.7576 39.1369 10.5635 38.7154 10.418C38.3186 10.2724 37.9467 10.1754 37.5747 10.1754Z" fill="#6B6B6B"/>
<path d="M53.7923 12.5525C53.6436 11.8005 53.346 11.2426 52.9244 10.8789C52.5029 10.515 52.0069 10.3209 51.387 10.3209C50.7422 10.3209 50.2214 10.515 49.7999 10.9031C49.3783 11.2669 49.1056 11.8248 48.9568 12.5525H53.7923ZM52.1061 19.6109C50.0975 19.6109 48.5353 19.0773 47.3697 18.01C46.229 16.9428 45.6587 15.5117 45.6587 13.6925C45.6587 11.8976 46.1794 10.4422 47.1961 9.35075C48.2377 8.25922 49.6759 7.72559 51.4614 7.72559C53.2716 7.72559 54.5858 8.30772 55.429 9.49629C56.2969 10.6605 56.7185 12.0431 56.7185 13.644V14.5657H48.9319C49.0807 15.3177 49.428 15.8997 49.9735 16.3606C50.519 16.7973 51.2629 17.0155 52.1557 17.0155C52.6765 17.0155 53.1476 16.9428 53.5692 16.8215C53.9907 16.676 54.4867 16.4819 55.057 16.2393L55.9497 18.4224C55.4041 18.8347 54.7594 19.1258 53.9659 19.2956C53.2219 19.5139 52.5772 19.6109 52.1061 19.6109Z" fill="#6B6B6B"/>
<path d="M62.3723 2.89868V19.3441H59.2974V3.16549L62.3723 2.89868Z" fill="#6B6B6B"/>
<path d="M72.6633 19.1015C72.4154 19.2956 72.0434 19.4654 71.5722 19.5866C71.101 19.7321 70.7043 19.8049 70.3323 19.8049C68.894 19.8049 67.7781 19.4654 66.9598 18.7619C66.1415 18.0586 65.7447 17.0398 65.7447 15.73V10.3937H64.2073V8.06516H65.7447V5.39703L68.8196 4.8634V8.06516H70.9027L71.845 10.3937H68.7949V15.1963C68.7949 15.7785 68.9437 16.2636 69.2164 16.6516C69.514 17.0155 69.9108 17.2096 70.4811 17.2096C70.6795 17.2096 70.9027 17.1853 71.1011 17.1368C71.2994 17.0883 71.5226 17.0155 71.7458 16.8942L72.6633 19.1015Z" fill="#6B6B6B"/>
<path d="M78.2427 19.6109C76.8292 19.6109 75.7877 19.2713 75.0934 18.6164C74.399 17.9372 74.0767 17.0398 74.0767 15.9725C74.0767 14.8082 74.4734 13.9108 75.2917 13.3043C76.1101 12.6737 77.1516 12.3827 78.4659 12.3827H80.7224C80.6977 11.8005 80.5241 11.3639 80.2017 11.0486C79.8793 10.7333 79.4329 10.5635 78.8626 10.5635C78.3171 10.5635 77.7468 10.6362 77.102 10.806C76.4573 10.9516 75.9365 11.1214 75.5149 11.3154L74.6719 8.79277C75.1182 8.50172 75.7877 8.25917 76.7053 8.06512C77.6227 7.87108 78.3419 7.77405 78.8131 7.77405C80.2017 7.77405 81.3672 8.16215 82.3591 8.96257C83.351 9.7388 83.847 10.7333 83.847 11.946V19.3683H82.2599L81.4912 18.4223C81.0697 18.7376 80.5489 19.0287 79.9785 19.2955C79.3834 19.4896 78.8131 19.6109 78.2427 19.6109ZM76.73 15.9725C76.73 16.2878 76.8541 16.6031 77.1268 16.8457C77.3995 17.0883 77.7468 17.2095 78.1931 17.2095C78.6146 17.2095 79.061 17.1125 79.4826 16.9185C79.929 16.7244 80.3505 16.4576 80.7473 16.0695V14.3473H78.4163C77.8707 14.3473 77.4492 14.5171 77.1516 14.8325C76.8788 15.1963 76.73 15.5602 76.73 15.9725Z" fill="#6B6B6B"/>
<path d="M87.2696 15.9482C87.765 15.9482 88.1618 16.118 88.4841 16.4334C88.8064 16.7487 88.9804 17.161 88.9804 17.6462C88.9804 18.1313 88.8064 18.5194 88.4841 18.8589C88.1618 19.1743 87.765 19.3441 87.2696 19.3441C86.7733 19.3441 86.3516 19.1743 86.0045 18.8589C85.6821 18.5437 85.5085 18.1313 85.5085 17.6462C85.5085 17.161 85.6821 16.773 86.0045 16.4334C86.3516 16.0938 86.7733 15.9482 87.2696 15.9482Z" fill="#6B6B6B"/>
<path d="M97.9075 19.1015C97.6589 19.2956 97.2878 19.4654 96.8164 19.5866C96.3449 19.7321 95.9481 19.8049 95.5761 19.8049C94.1378 19.8049 93.0218 19.4654 92.2041 18.7619C91.3855 18.0586 90.9886 17.0398 90.9886 15.73V10.3937H89.4509V8.06516H90.9886V5.39703L94.0641 4.8634V8.06516H96.1469L97.0889 10.3937H94.0392V15.1963C94.0392 15.7785 94.1875 16.2636 94.4601 16.6516C94.7584 17.0155 95.1544 17.2096 95.7252 17.2096C95.9232 17.2096 96.1469 17.1853 96.3449 17.1368C96.5438 17.0883 96.7666 17.0155 96.9895 16.8942L97.9075 19.1015Z" fill="#6B6B6B"/>
<path d="M102.892 8.79283C103.387 8.40473 103.983 8.11366 104.627 7.91962C105.297 7.72557 105.892 7.62855 106.413 7.62855C107.975 7.62855 109.091 8.0894 109.736 8.98689C110.405 9.88432 110.728 11.0001 110.728 12.2856V19.3683H107.628V12.4069C107.628 11.7035 107.454 11.1456 107.107 10.7818C106.76 10.3937 106.239 10.1997 105.569 10.1997C105.124 10.1997 104.677 10.3209 104.181 10.5393C103.71 10.7576 103.264 11.0243 102.867 11.3154V19.3441H99.7922V3.16549L102.867 2.89868V8.79283H102.892Z" fill="#6B6B6B"/>
<path d="M121.291 12.5525C121.143 11.8005 120.845 11.2426 120.424 10.8789C120.002 10.515 119.506 10.3209 118.886 10.3209C118.241 10.3209 117.72 10.515 117.299 10.9031C116.878 11.2669 116.604 11.8248 116.456 12.5525H121.291ZM119.605 19.6109C117.597 19.6109 116.034 19.0773 114.869 18.01C113.728 16.9428 113.158 15.5117 113.158 13.6925C113.158 11.8976 113.679 10.4422 114.695 9.35075C115.737 8.25922 117.175 7.72559 118.961 7.72559C120.771 7.72559 122.085 8.30772 122.928 9.49629C123.796 10.6605 124.217 12.0431 124.217 13.644V14.5657H116.431C116.579 15.3177 116.927 15.8997 117.473 16.3606C118.018 16.7973 118.762 17.0155 119.655 17.0155C120.175 17.0155 120.647 16.9428 121.068 16.8215C121.49 16.676 121.985 16.4819 122.556 16.2393L123.449 18.4224C122.903 18.8347 122.259 19.1258 121.465 19.2956C120.721 19.5139 120.101 19.6109 119.605 19.6109Z" fill="#6B6B6B"/>
<path d="M133.789 19.1015C133.541 19.2956 133.169 19.4654 132.698 19.5866C132.227 19.7321 131.831 19.8049 131.459 19.8049C130.02 19.8049 128.904 19.4654 128.086 18.7619C127.268 18.0586 126.871 17.0398 126.871 15.73V10.3937H125.333V8.06516H126.871V5.39703L129.946 4.8634V8.06516H132.029L132.971 10.3937H129.946V15.1963C129.946 15.7785 130.095 16.2636 130.367 16.6516C130.665 17.0155 131.062 17.2096 131.632 17.2096C131.831 17.2096 132.053 17.1853 132.252 17.1368C132.45 17.0883 132.674 17.0155 132.897 16.8942L133.789 19.1015Z" fill="#6B6B6B"/>
<path d="M139.394 19.6109C137.981 19.6109 136.939 19.2713 136.244 18.6164C135.55 17.9372 135.228 17.0398 135.228 15.9725C135.228 14.8082 135.624 13.9108 136.443 13.3043C137.262 12.6737 138.303 12.3827 139.617 12.3827H141.874C141.849 11.8005 141.675 11.3639 141.353 11.0486C141.03 10.7333 140.584 10.5635 140.014 10.5635C139.468 10.5635 138.898 10.6362 138.253 10.806C137.609 10.9516 137.088 11.1214 136.666 11.3154L135.823 8.79277C136.269 8.50172 136.939 8.25917 137.856 8.06512C138.774 7.87108 139.493 7.77405 139.964 7.77405C141.353 7.77405 142.518 8.16215 143.51 8.96257C144.502 9.7388 144.998 10.7333 144.998 11.946V19.3683H143.411L142.643 18.4223C142.221 18.7376 141.7 19.0287 141.13 19.2955C140.534 19.4896 139.964 19.6109 139.394 19.6109ZM137.881 15.9725C137.881 16.2878 138.006 16.6031 138.278 16.8457C138.551 17.0883 138.898 17.2095 139.344 17.2095C139.766 17.2095 140.212 17.1125 140.634 16.9185C141.08 16.7244 141.502 16.4576 141.899 16.0695V14.3473H139.567C139.022 14.3473 138.6 14.5171 138.303 14.8325C138.006 15.1963 137.881 15.5602 137.881 15.9725Z" fill="#6B6B6B"/>
</g>
<defs>
<clipPath id="clip0_221_801">
<rect width="144" height="24" fill="white" transform="translate(0.998047)"/>
</clipPath>
</defs>
</svg>
