<svg width="168" height="28" viewBox="0 0 168 28" fill="none" xmlns="http://www.w3.org/2000/svg">
<g clip-path="url(#clip0_41_1002)">
<path d="M17.7923 16.3703C15.854 16.3703 13.9156 16.3703 11.9483 16.3703C12.932 14.729 13.8867 13.0876 14.8703 11.4463C15.825 13.0876 16.8087 14.729 17.7923 16.3703ZM22.913 4.06048C22.0451 3.43792 21.2351 3.04174 20.7722 2.84365C18.342 1.71172 15.5357 2.39088 14.1471 4.56985L14.0603 4.71134L13.9445 4.88113C13.8867 4.99432 13.8288 5.05092 13.8288 5.07922C13.771 5.16411 13.742 5.22071 13.742 5.24901C11.6301 8.98439 9.40244 12.6632 7.20372 16.3703C7.088 16.3703 6.97227 16.3703 6.82762 16.3703C6.68297 16.3703 6.48045 16.342 6.27794 16.2571C6.22008 16.2288 6.13329 16.2005 6.07543 16.1722L6.04649 16.1439C5.32323 15.7477 5.09179 14.8704 5.49681 14.1913L7.05907 11.5595L11.1961 4.62645C12.093 2.92855 13.6842 1.62682 15.5647 1.06086C16.693 0.721275 17.7345 0.749574 17.7345 0.749574C17.8791 0.749574 18.4288 0.749574 18.9785 0.777872C19.2388 0.777872 19.586 0.834469 20.0489 0.891065C17.8791 0.0421152 16.1143 -0.04278 15.0439 0.0138167C8.10057 0.2968 2.11193 6.94691 1.38867 13.2857C1.27295 14.3611 1.33081 15.21 1.38867 15.6911C1.59118 18.2945 3.58739 20.3603 6.24901 20.4169H6.42259H6.65404C6.76976 20.4169 6.88548 20.4169 6.88548 20.4169C7.0012 20.4169 7.05907 20.4169 7.088 20.4169C11.4565 20.3603 15.825 20.3886 20.2225 20.3886C20.2803 20.4735 20.3382 20.5867 20.3961 20.6999C20.4539 20.8131 20.5407 21.0112 20.5697 21.2093C20.5697 21.2942 20.5697 21.3508 20.5697 21.4357V21.464C20.5697 22.2563 19.9043 22.9072 19.0942 22.9072H15.9408H7.72447C5.78612 23.0204 3.81884 22.3412 2.37231 21.0112C1.50439 20.2188 1.01257 19.3416 1.01257 19.3416C0.95471 19.2284 0.665404 18.7756 0.433959 18.2662C0.318237 18.0399 0.173584 17.7286 0 17.3041C0.318237 19.568 1.12829 21.0961 1.70691 21.9733C5.43895 27.6613 14.3496 29.4158 20.3382 26.8406C21.3508 26.4162 22.074 25.9351 22.4791 25.6521C24.6778 24.1523 25.5168 21.4357 24.2438 19.1718L24.157 19.0303L24.0413 18.8605C24.0124 18.7473 23.9545 18.6624 23.9545 18.6624C23.8967 18.5775 23.8677 18.5209 23.8677 18.4926C21.6112 14.8421 19.4703 11.1351 17.2716 7.42798C17.3294 7.31479 17.3873 7.22989 17.4452 7.1167C17.503 7.00351 17.6477 6.83372 17.8212 6.69222C17.8791 6.63563 17.937 6.60733 17.9948 6.57903L18.0238 6.55073C18.747 6.15456 19.6439 6.38094 20.0489 7.0884L21.6112 9.72015L25.7193 16.6532C26.7897 18.2662 27.1369 20.2471 26.7029 22.1148C26.4426 23.2468 25.8929 24.0957 25.8929 24.124C25.835 24.2372 25.5457 24.69 25.2275 25.171C25.0828 25.3974 24.8514 25.6804 24.591 25.9917C26.4426 24.5768 27.3683 23.1336 27.8891 22.1997C31.0715 16.2288 28.1784 7.82416 22.913 4.06048Z" fill="#167EF1"/>
<path d="M48.9796 3.38184V22.5681H47.0991L46.0865 21.2946C45.479 21.804 44.7557 22.2002 43.9167 22.4832C43.1067 22.7662 42.3545 22.8793 41.6891 22.8793C39.7218 22.8793 38.2174 22.2002 37.1759 20.8702C36.1344 19.5401 35.5847 17.8705 35.5847 15.8897C35.5847 13.9088 36.1344 12.2392 37.2627 10.8808C38.391 9.55088 39.9243 8.87172 41.8627 8.87172C42.3545 8.87172 42.9331 8.95661 43.5696 9.1547C44.206 9.32449 44.7846 9.55088 45.3343 9.86216V3.69312L48.9796 3.38184ZM42.6727 11.8713C41.3998 11.8713 40.5318 12.2958 40.04 13.173C39.5482 14.0503 39.3168 14.9275 39.3168 15.8614C39.3168 16.8801 39.5482 17.8139 39.9822 18.6346C40.4161 19.4552 41.313 19.8514 42.6727 19.8514C43.1067 19.8514 43.5406 19.7665 44.0035 19.5684C44.4953 19.3704 44.9293 19.144 45.3343 18.8893V12.8334C44.9293 12.5505 44.4953 12.3241 44.0035 12.1543C43.5406 11.9845 43.1067 11.8713 42.6727 11.8713Z" fill="#172349"/>
<path d="M61.5932 14.6446C61.4197 13.7673 61.0725 13.1164 60.5807 12.692C60.0889 12.2675 59.5102 12.0411 58.787 12.0411C58.0348 12.0411 57.4272 12.2675 56.9354 12.7203C56.4436 13.1447 56.1254 13.7956 55.9518 14.6446H61.5932ZM59.626 22.8794C57.2826 22.8794 55.46 22.2568 54.1002 21.0117C52.7694 19.7666 52.104 18.097 52.104 15.9746C52.104 13.8805 52.7115 12.1826 53.8977 10.9092C55.1128 9.63575 56.7908 9.01318 58.8738 9.01318C60.9857 9.01318 62.519 9.69234 63.5027 11.079C64.5152 12.4373 65.0071 14.0503 65.0071 15.918V16.9933H55.9228C56.0964 17.8706 56.5015 18.5497 57.1379 19.0874C57.7744 19.5968 58.6423 19.8514 59.6838 19.8514C60.2914 19.8514 60.841 19.7666 61.3329 19.6251C61.8247 19.4553 62.4033 19.2289 63.0687 18.9459L64.1102 21.4928C63.4737 21.9738 62.7215 22.3134 61.7958 22.5115C60.9278 22.7662 60.1756 22.8794 59.626 22.8794Z" fill="#172349"/>
<path d="M71.6033 3.38184V22.5681H68.0159V3.69312L71.6033 3.38184Z" fill="#172349"/>
<path d="M83.6095 22.285C83.3202 22.5114 82.8862 22.7095 82.3365 22.8509C81.7868 23.0207 81.324 23.1056 80.89 23.1056C79.212 23.1056 77.9101 22.7095 76.9554 21.8888C76.0007 21.0682 75.5378 19.8796 75.5378 18.3515V12.1259H73.7441V9.40921H75.5378V6.29639L79.1252 5.67383V9.40921H81.5554L82.6548 12.1259H79.0963V17.7289C79.0963 18.4081 79.2699 18.9741 79.5881 19.4268C79.9353 19.8513 80.3982 20.0777 81.0636 20.0777C81.295 20.0777 81.5554 20.0494 81.7869 19.9928C82.0183 19.9362 82.2787 19.8513 82.539 19.7098L83.6095 22.285Z" fill="#172349"/>
<path d="M90.1189 22.8794C88.4698 22.8794 87.2547 22.4832 86.4447 21.7192C85.6346 20.9268 85.2585 19.8798 85.2585 18.6346C85.2585 17.2763 85.7214 16.2293 86.6761 15.5218C87.6309 14.7861 88.8459 14.4465 90.3793 14.4465H93.0119C92.983 13.7673 92.7805 13.2579 92.4044 12.8901C92.0283 12.5222 91.5075 12.3241 90.8421 12.3241C90.2057 12.3241 89.5403 12.409 88.7881 12.6071C88.0359 12.7769 87.4283 12.975 86.9365 13.2014L85.9529 10.2583C86.4736 9.91877 87.2547 9.63579 88.3252 9.4094C89.3956 9.18302 90.2346 9.06982 90.7843 9.06982C92.4044 9.06982 93.7641 9.5226 94.9214 10.4564C96.0786 11.362 96.6572 12.5222 96.6572 13.9371V22.5964H94.8056L93.9088 21.4928C93.417 21.8606 92.8094 22.2002 92.144 22.5115C91.4497 22.7379 90.7843 22.8794 90.1189 22.8794ZM88.3541 18.6346C88.3541 19.0025 88.4988 19.3704 88.817 19.6534C89.1352 19.9364 89.5403 20.0778 90.061 20.0778C90.5528 20.0778 91.0736 19.9647 91.5654 19.7383C92.0862 19.5119 92.578 19.2006 93.0409 18.7478V16.7386H90.3214C89.6849 16.7386 89.1931 16.9367 88.8459 17.3046C88.5277 17.7291 88.3541 18.1536 88.3541 18.6346Z" fill="#172349"/>
<path d="M100.65 18.6064C101.228 18.6064 101.691 18.8045 102.067 19.1724C102.443 19.5403 102.646 20.0213 102.646 20.5873C102.646 21.1533 102.443 21.6061 102.067 22.0022C101.691 22.3701 101.228 22.5682 100.65 22.5682C100.071 22.5682 99.5791 22.3701 99.1741 22.0022C98.798 21.6344 98.5955 21.1533 98.5955 20.5873C98.5955 20.0213 98.798 19.5686 99.1741 19.1724C99.5791 18.7762 100.071 18.6064 100.65 18.6064Z" fill="#172349"/>
<path d="M113.061 22.285C112.771 22.5114 112.338 22.7095 111.788 22.8509C111.238 23.0207 110.775 23.1056 110.341 23.1056C108.663 23.1056 107.361 22.7095 106.407 21.8888C105.452 21.0682 104.989 19.8796 104.989 18.3515V12.1259H103.195V9.40921H104.989V6.29639L108.577 5.67383V9.40921H111.007L112.106 12.1259H108.548V17.7289C108.548 18.4081 108.721 18.9741 109.039 19.4268C109.387 19.8513 109.849 20.0777 110.515 20.0777C110.746 20.0777 111.007 20.0494 111.238 19.9928C111.47 19.9362 111.73 19.8513 111.99 19.7098L113.061 22.285Z" fill="#172349"/>
<path d="M118.876 10.2583C119.454 9.80556 120.149 9.46598 120.901 9.2396C121.682 9.01321 122.376 8.90002 122.984 8.90002C124.807 8.90002 126.108 9.43768 126.861 10.4847C127.642 11.5317 128.018 12.8334 128.018 14.3332V22.5964H124.402V14.4747C124.402 13.6541 124.199 13.0032 123.794 12.5788C123.389 12.126 122.781 11.8996 122 11.8996C121.48 11.8996 120.959 12.0411 120.38 12.2958C119.831 12.5505 119.31 12.8617 118.847 13.2013V22.5681H115.26V3.69312L118.847 3.38184V10.2583H118.876Z" fill="#172349"/>
<path d="M140.342 14.6446C140.169 13.7673 139.822 13.1164 139.33 12.692C138.838 12.2675 138.259 12.0411 137.536 12.0411C136.784 12.0411 136.176 12.2675 135.684 12.7203C135.193 13.1447 134.874 13.7956 134.701 14.6446H140.342ZM138.375 22.8794C136.032 22.8794 134.209 22.2568 132.849 21.0117C131.518 19.7666 130.853 18.097 130.853 15.9746C130.853 13.8805 131.461 12.1826 132.647 10.9092C133.862 9.63575 135.54 9.01318 137.623 9.01318C139.735 9.01318 141.268 9.69234 142.252 11.079C143.264 12.4373 143.756 14.0503 143.756 15.918V16.9933H134.672C134.845 17.8706 135.25 18.5497 135.887 19.0874C136.523 19.5968 137.391 19.8514 138.433 19.8514C139.04 19.8514 139.59 19.7666 140.082 19.6251C140.574 19.4553 141.152 19.2289 141.818 18.9459L142.859 21.4928C142.223 21.9738 141.471 22.3134 140.545 22.5115C139.677 22.7662 138.954 22.8794 138.375 22.8794Z" fill="#172349"/>
<path d="M154.923 22.285C154.634 22.5114 154.2 22.7095 153.65 22.8509C153.101 23.0207 152.638 23.1056 152.204 23.1056C150.526 23.1056 149.224 22.7095 148.269 21.8888C147.315 21.0682 146.852 19.8796 146.852 18.3515V12.1259H145.058V9.40921H146.852V6.29639L150.439 5.67383V9.40921H152.869L153.969 12.1259H150.439V17.7289C150.439 18.4081 150.613 18.9741 150.931 19.4268C151.278 19.8513 151.741 20.0777 152.406 20.0777C152.638 20.0777 152.898 20.0494 153.13 19.9928C153.361 19.9362 153.622 19.8513 153.882 19.7098L154.923 22.285Z" fill="#172349"/>
<path d="M161.462 22.8794C159.813 22.8794 158.598 22.4832 157.787 21.7192C156.977 20.9268 156.601 19.8798 156.601 18.6346C156.601 17.2763 157.064 16.2293 158.019 15.5218C158.974 14.7861 160.189 14.4465 161.722 14.4465H164.355C164.326 13.7673 164.123 13.2579 163.747 12.8901C163.371 12.5222 162.85 12.3241 162.185 12.3241C161.548 12.3241 160.883 12.409 160.131 12.6071C159.379 12.7769 158.771 12.975 158.279 13.2014L157.296 10.2583C157.816 9.91877 158.598 9.63579 159.668 9.4094C160.738 9.18302 161.577 9.06982 162.127 9.06982C163.747 9.06982 165.107 9.5226 166.264 10.4564C167.421 11.362 168 12.5222 168 13.9371V22.5964H166.148L165.252 21.4928C164.76 21.8606 164.152 22.2002 163.487 22.5115C162.792 22.7379 162.127 22.8794 161.462 22.8794ZM159.697 18.6346C159.697 19.0025 159.842 19.3704 160.16 19.6534C160.478 19.9364 160.883 20.0778 161.404 20.0778C161.896 20.0778 162.416 19.9647 162.908 19.7383C163.429 19.5119 163.921 19.2006 164.384 18.7478V16.7386H161.664C161.028 16.7386 160.536 16.9367 160.189 17.3046C159.842 17.7291 159.697 18.1536 159.697 18.6346Z" fill="#172349"/>
</g>
<defs>
<clipPath id="clip0_41_1002">
<rect width="168" height="28" fill="white"/>
</clipPath>
</defs>
</svg>
