<svg width="86" height="24" viewBox="0 0 86 24" fill="none" xmlns="http://www.w3.org/2000/svg">
<g clip-path="url(#clip0_221_922)">
<path fill-rule="evenodd" clip-rule="evenodd" d="M17.6016 3.99868H17.4262H16.7165V0H12.6817V3.99868H8.64685V0H4.62002V3.99868H0.585205V7.99736H4.62002V16.0026H0.585205V20.0014H4.62002V24H8.65482V20.0014H12.6896V24H16.7245V20.0014H17.4341C21.8278 20.0488 25.432 16.4057 25.4798 12.0593C25.5197 7.70497 21.9952 4.04609 17.6016 3.99868ZM17.5537 16.0026C17.5139 16.0026 17.474 16.0026 17.4341 16.0026H8.6628V8.00527H17.4341C19.6349 7.97366 21.445 9.72803 21.477 11.9091C21.5009 14.0823 19.7466 15.971 17.5537 16.0026Z" fill="#6B6B6B"/>
<path d="M30.3354 18.3577V5.68201H34.9842C36.0289 5.68201 36.9459 5.84796 37.7273 6.17987C38.5167 6.51178 39.1706 6.96222 39.6969 7.5391C40.2232 8.10808 40.6218 8.77981 40.885 9.54632C41.1481 10.3129 41.2837 11.1348 41.2837 12.004C41.2837 12.9681 41.1402 13.8374 40.8451 14.6198C40.5501 15.4022 40.1274 16.066 39.5773 16.6191C39.0271 17.1723 38.3653 17.5991 37.5838 17.9073C36.8024 18.2155 35.9412 18.3656 34.9842 18.3656H30.3354V18.3577ZM38.7799 12.004C38.7799 11.3956 38.6922 10.8345 38.5247 10.3287C38.3572 9.81504 38.11 9.38039 37.7831 9.00897C37.4562 8.63755 37.0575 8.35303 36.587 8.15551C36.1166 7.95004 35.5744 7.85521 34.9763 7.85521H32.8154V16.2003H34.9763C35.5903 16.2003 36.1325 16.0896 36.603 15.8763C37.0735 15.6629 37.4721 15.3705 37.7911 14.9912C38.11 14.6198 38.3493 14.1772 38.5167 13.6636C38.6922 13.1499 38.7799 12.5967 38.7799 12.004Z" fill="#6B6B6B"/>
<path d="M52.0405 16.0898C51.4344 17.1803 50.5574 17.7414 50.3739 17.8441C49.2656 18.5159 48.1811 18.5317 47.6468 18.5317C46.8893 18.5317 46.2036 18.4052 45.5975 18.1445C44.9915 17.8837 44.4652 17.5439 44.0347 17.1013C43.6041 16.6588 43.2691 16.153 43.0379 15.5683C42.8067 14.9834 42.687 14.375 42.687 13.727C42.687 13.0632 42.7987 12.4309 43.03 11.8461C43.2612 11.2535 43.5881 10.7398 44.0187 10.2972C44.4493 9.8547 44.9755 9.49908 45.5975 9.23831C46.2195 8.97754 46.9052 8.84314 47.6788 8.84314C48.4442 8.84314 49.138 8.97754 49.744 9.23831C50.35 9.49908 50.8683 9.8547 51.2909 10.2893C51.7136 10.7319 52.0405 11.2377 52.2638 11.8225C52.487 12.4072 52.5987 13.0157 52.5987 13.64C52.5987 13.7981 52.5987 13.9403 52.5906 14.0826C52.5827 14.2248 52.5667 14.3434 52.5428 14.4382H45.2467C45.2865 14.8096 45.3743 15.1336 45.5178 15.4181C45.6614 15.7026 45.8447 15.9476 46.076 16.153C46.3072 16.3585 46.5623 16.5087 46.8494 16.6193C47.1365 16.7299 47.4395 16.7773 47.7505 16.7773C48.2289 16.7773 48.6834 16.6588 49.114 16.4296C49.5367 16.2005 49.8317 15.8923 49.9912 15.5129C50.7726 15.5129 51.5461 15.5129 52.3276 15.5209C52.2478 15.671 52.1681 15.8685 52.0405 16.0898ZM50.0948 12.8972C50.031 12.1939 49.7759 11.6328 49.3134 11.2139C48.8509 10.7951 48.2927 10.5817 47.6308 10.5817C47.3039 10.5817 47.001 10.637 46.7218 10.7477C46.4428 10.8583 46.1876 11.0164 45.9723 11.2219C45.757 11.4273 45.5816 11.6644 45.4381 11.9568C45.3025 12.2413 45.2227 12.5573 45.1988 12.9051H50.0948V12.8972Z" fill="#6B6B6B"/>
<path d="M59.6314 11.0717C58.8977 11.0875 58.2439 11.2219 57.6698 11.4905C57.0957 11.7592 56.681 12.1623 56.4258 12.6917V18.35H54.0098V9.00121H56.2265V11.0006C56.394 10.6766 56.5933 10.3921 56.8245 10.1313C57.0558 9.87837 57.295 9.64921 57.5661 9.45961C57.8292 9.26993 58.1003 9.11972 58.3635 9.02496C58.6346 8.92218 58.8977 8.87476 59.1449 8.87476C59.2805 8.87476 59.3762 8.87476 59.44 8.87476C59.5038 8.87476 59.5676 8.8827 59.6314 8.89056V11.0717Z" fill="#6B6B6B"/>
<path d="M61.0669 18.3578V9.00122H63.483V18.3499H61.0669V18.3578Z" fill="#6B6B6B"/>
<path d="M76.1138 18.3578V9.00122H78.5298V18.3499H76.1138V18.3578Z" fill="#6B6B6B"/>
<path d="M83.5615 18.5235C82.0706 18.5235 81.329 17.7174 81.329 16.1132V11.0635H80.0133V9.03249H81.329V5.67395H83.6732V9.04044H85.7223V11.0714H83.6732V15.7813C83.6732 16.2554 83.8884 16.4925 84.3196 16.4925C84.8136 16.4925 85.316 16.3582 85.834 16.0974V18.0967C85.2523 18.3654 84.3113 18.5235 83.5615 18.5235Z" fill="#6B6B6B"/>
<path d="M62.2717 8.06051C62.9366 8.06051 63.4757 7.52626 63.4757 6.86723C63.4757 6.2082 62.9366 5.67395 62.2717 5.67395C61.6067 5.67395 61.0676 6.2082 61.0676 6.86723C61.0676 7.52626 61.6067 8.06051 62.2717 8.06051Z" fill="#6B6B6B"/>
<path d="M77.3186 8.05283C77.9836 8.05283 78.5227 7.51857 78.5227 6.85954C78.5227 6.20051 77.9836 5.66626 77.3186 5.66626C76.6536 5.66626 76.1145 6.20051 76.1145 6.85954C76.1145 7.51857 76.6536 8.05283 77.3186 8.05283Z" fill="#6B6B6B"/>
<path d="M70.3253 18.5395C69.5918 18.5395 68.9458 18.3735 68.3717 18.0495C67.7976 17.7255 67.5504 17.4094 67.3431 16.9511V18.3577H64.8871V5.66626H67.3271V10.5421C67.67 9.96526 68.1166 9.5148 68.6668 9.1908C69.2169 8.87466 69.8708 8.70873 70.6124 8.70873C71.2343 8.70873 71.8005 8.84305 72.3109 9.10382C72.8212 9.37254 73.2598 9.72815 73.6345 10.1707C74.0093 10.6133 74.2884 11.1427 74.4957 11.7433C74.6951 12.3439 74.7988 12.984 74.7988 13.6399C74.7988 14.3275 74.6871 14.9675 74.4638 15.5602C74.2406 16.153 73.9216 16.6666 73.5229 17.1091C73.1242 17.5517 72.6458 17.8994 72.0955 18.1522C71.5454 18.4131 70.9553 18.5395 70.3253 18.5395ZM69.6475 16.477C70.0383 16.477 70.3971 16.3979 70.7241 16.2478C71.051 16.0976 71.3301 15.8922 71.5613 15.6393C71.7926 15.3864 71.9759 15.094 72.1036 14.7542C72.2311 14.4144 72.2949 14.0509 72.2949 13.6715C72.2949 13.2843 72.2311 12.9208 72.1115 12.5652C71.9919 12.2174 71.8165 11.9093 71.5932 11.6405C71.3699 11.3719 71.1068 11.1664 70.7958 11.0083C70.4928 10.8504 70.1579 10.7713 69.7911 10.7713C69.2409 10.7713 68.7545 10.9531 68.3239 11.3087C67.8933 11.6643 67.5584 12.0989 67.3271 12.6205V14.8806C67.4149 15.1256 67.5345 15.3389 67.702 15.5286C67.8694 15.7183 68.0528 15.8842 68.2601 16.0265C68.4674 16.1688 68.6907 16.2715 68.9379 16.3505C69.1771 16.4374 69.4163 16.477 69.6475 16.477Z" fill="#6B6B6B"/>
</g>
<defs>
<clipPath id="clip0_221_922">
<rect width="85.2414" height="24" fill="white" transform="translate(0.585205)"/>
</clipPath>
</defs>
</svg>
