<svg width="103" height="29" viewBox="0 0 103 29" fill="none" xmlns="http://www.w3.org/2000/svg">
<path fill-rule="evenodd" clip-rule="evenodd" d="M20.5615 4.83174H20.3495H19.492V0H14.6166V4.83174H9.74116V0H4.8754V4.83174H0V9.66348H4.8754V19.3365H0V24.1683H4.8754V29H9.75079V24.1683H14.6262V29H19.5016V24.1683H20.3591C25.6681 24.2256 30.0232 19.8235 30.081 14.5716C30.1292 9.31017 25.8704 4.88903 20.5615 4.83174ZM20.5036 19.3365C20.4555 19.3365 20.4073 19.3365 20.3591 19.3365H9.76043V9.67303H20.3591C23.0184 9.63484 25.2056 11.7547 25.2442 14.3902C25.2731 17.0161 23.1533 19.2983 20.5036 19.3365Z" fill="#00CFBE"/>
<path d="M35.9482 22.1822V6.86572H41.5655C42.8278 6.86572 43.9358 7.06625 44.88 7.4673C45.8339 7.86836 46.624 8.41264 47.2599 9.10971C47.8959 9.79723 48.3776 10.6089 48.6956 11.5351C49.0135 12.4614 49.1773 13.4545 49.1773 14.5048C49.1773 15.6698 49.0039 16.7202 48.6474 17.6655C48.2909 18.6109 47.7802 19.413 47.1154 20.0814C46.4506 20.7498 45.6509 21.2655 44.7066 21.6379C43.7624 22.0103 42.7218 22.1917 41.5655 22.1917H35.9482V22.1822ZM46.1519 14.5048C46.1519 13.7696 46.0459 13.0916 45.8436 12.4805C45.6412 11.8598 45.3425 11.3346 44.9475 10.8858C44.5525 10.437 44.0707 10.0932 43.5022 9.85453C42.9337 9.60626 42.2786 9.49167 41.5559 9.49167H38.9448V19.5753H41.5559C42.2978 19.5753 42.953 19.4416 43.5215 19.1838C44.09 18.926 44.5717 18.5727 44.9571 18.1143C45.3425 17.6655 45.6316 17.1308 45.8339 16.5101C46.0459 15.8894 46.1519 15.221 46.1519 14.5048Z" fill="white"/>
<path d="M62.1751 19.4419C61.4428 20.7596 60.383 21.4376 60.1613 21.5617C58.8221 22.3734 57.5117 22.3925 56.8661 22.3925C55.9508 22.3925 55.1222 22.2397 54.3899 21.9246C53.6576 21.6095 53.0217 21.1989 52.5014 20.6641C51.9811 20.1294 51.5764 19.5183 51.297 18.8117C51.0176 18.105 50.873 17.3698 50.873 16.5868C50.873 15.7847 51.0079 15.0207 51.2874 14.3141C51.5668 13.598 51.9618 12.9773 52.4821 12.4425C53.0024 11.9078 53.6383 11.4781 54.3899 11.163C55.1414 10.8479 55.97 10.6855 56.9047 10.6855C57.8296 10.6855 58.6679 10.8479 59.4002 11.163C60.1324 11.4781 60.7587 11.9078 61.2694 12.433C61.7801 12.9677 62.1751 13.5789 62.4449 14.2855C62.7147 14.9921 62.8496 15.7274 62.8496 16.4817C62.8496 16.6727 62.8496 16.8446 62.8399 17.0165C62.8303 17.1883 62.811 17.3316 62.7821 17.4462H53.9659C54.0141 17.895 54.1201 18.2865 54.2935 18.6302C54.467 18.974 54.6886 19.27 54.968 19.5183C55.2474 19.7666 55.5557 19.948 55.9026 20.0817C56.2495 20.2153 56.6156 20.2726 56.9914 20.2726C57.5695 20.2726 58.1187 20.1294 58.639 19.8525C59.1497 19.5756 59.5062 19.2032 59.6989 18.7448C60.6431 18.7448 61.5777 18.7448 62.522 18.7544C62.4256 18.9358 62.3293 19.1745 62.1751 19.4419ZM59.8241 15.5841C59.747 14.7343 59.4387 14.0563 58.8799 13.5502C58.321 13.0441 57.6466 12.7863 56.8468 12.7863C56.4518 12.7863 56.0857 12.8531 55.7484 12.9868C55.4112 13.1205 55.1029 13.3115 54.8427 13.5598C54.5826 13.808 54.3706 14.0945 54.1972 14.4478C54.0334 14.7916 53.937 15.1735 53.9081 15.5937H59.8241V15.5841Z" fill="white"/>
<path d="M71.3475 13.3782C70.461 13.3973 69.671 13.5597 68.9772 13.8843C68.2835 14.209 67.7825 14.696 67.4741 15.3358V22.1728H64.5547V10.8764H67.2333V13.2923C67.4356 12.9008 67.6765 12.557 67.9559 12.2419C68.2353 11.9363 68.5244 11.6594 68.852 11.4303C69.1699 11.2011 69.4975 11.0196 69.8155 10.9051C70.1431 10.7809 70.461 10.7236 70.7597 10.7236C70.9235 10.7236 71.0392 10.7236 71.1162 10.7236C71.1933 10.7236 71.2704 10.7332 71.3475 10.7427V13.3782Z" fill="white"/>
<path d="M73.082 22.1824V10.8765H76.0015V22.1728H73.082V22.1824Z" fill="white"/>
<path d="M91.2637 22.1824V10.8765H94.1831V22.1728H91.2637V22.1824Z" fill="white"/>
<path d="M100.263 22.3825C98.4615 22.3825 97.5654 21.4085 97.5654 19.47V13.3683H95.9756V10.9142H97.5654V6.85596H100.398V10.9238H102.874V13.3779H100.398V19.069C100.398 19.6419 100.658 19.9284 101.179 19.9284C101.776 19.9284 102.383 19.7661 103.009 19.4509V21.8668C102.306 22.1915 101.169 22.3825 100.263 22.3825Z" fill="white"/>
<path d="M74.5379 9.73972C75.3414 9.73972 75.9928 9.09417 75.9928 8.29784C75.9928 7.50151 75.3414 6.85596 74.5379 6.85596C73.7344 6.85596 73.083 7.50151 73.083 8.29784C73.083 9.09417 73.7344 9.73972 74.5379 9.73972Z" fill="white"/>
<path d="M92.7196 9.73045C93.5231 9.73045 94.1745 9.08489 94.1745 8.28856C94.1745 7.49223 93.5231 6.84668 92.7196 6.84668C91.916 6.84668 91.2646 7.49223 91.2646 8.28856C91.2646 9.08489 91.916 9.73045 92.7196 9.73045Z" fill="white"/>
<path d="M84.2694 22.4018C83.383 22.4018 82.6025 22.2013 81.9088 21.8098C81.2151 21.4183 80.9164 21.0363 80.6659 20.4825V22.1822H77.6982V6.84668H80.6466V12.7383C81.0609 12.0413 81.6005 11.497 82.2653 11.1055C82.9301 10.7235 83.7202 10.523 84.6163 10.523C85.3678 10.523 86.0519 10.6853 86.6686 11.0004C87.2852 11.3251 87.8152 11.7548 88.268 12.2896C88.7209 12.8243 89.0581 13.4641 89.3086 14.1898C89.5495 14.9155 89.6748 15.689 89.6748 16.4815C89.6748 17.3123 89.5399 18.0857 89.2701 18.8019C89.0003 19.5181 88.6149 20.1387 88.1331 20.6735C87.6514 21.2082 87.0733 21.6284 86.4084 21.9339C85.7436 22.2491 85.0306 22.4018 84.2694 22.4018ZM83.4504 19.9096C83.9226 19.9096 84.3561 19.8141 84.7512 19.6327C85.1462 19.4512 85.4835 19.203 85.7629 18.8974C86.0423 18.5918 86.2639 18.2385 86.4181 17.8279C86.5722 17.4173 86.6493 16.9781 86.6493 16.5197C86.6493 16.0518 86.5722 15.6126 86.4277 15.1829C86.2832 14.7627 86.0712 14.3903 85.8014 14.0656C85.5316 13.741 85.2137 13.4927 84.8379 13.3017C84.4718 13.1108 84.0671 13.0153 83.6239 13.0153C82.959 13.0153 82.3713 13.2349 81.851 13.6646C81.3307 14.0943 80.926 14.6195 80.6466 15.2497V17.9807C80.7526 18.2767 80.8971 18.5345 81.0995 18.7637C81.3018 18.9929 81.5234 19.1934 81.7739 19.3653C82.0244 19.5372 82.2942 19.6613 82.5929 19.7568C82.882 19.8618 83.171 19.9096 83.4504 19.9096Z" fill="white"/>
</svg>
