<svg width="65" height="20" viewBox="0 0 65 20" fill="none" xmlns="http://www.w3.org/2000/svg">
<g clip-path="url(#clip0_221_891)">
<path d="M59.7696 0L45.9875 19.8214H50.219L64.0726 0H59.7696Z" fill="#6B6B6B"/>
<path d="M50.6599 0L54.715 5.84071L52.5993 9.02655L46.3403 0H50.6599Z" fill="#6B6B6B"/>
<path d="M60.1804 19.823L55.6846 13.3628L57.8003 10.2655L64.4118 19.823H60.1804Z" fill="#6B6B6B"/>
<path fill-rule="evenodd" clip-rule="evenodd" d="M41.051 0H44.7535V19.8214H41.051V19.0811C39.9817 19.6669 38.7541 20 37.4485 20C33.3037 20 29.9436 16.6421 29.9436 12.5C29.9436 8.35786 33.3037 5 37.4485 5C38.7541 5 39.9817 5.33311 41.051 5.91892V0ZM37.409 16.7083C39.7566 16.7083 41.6597 14.8065 41.6597 12.4605C41.6597 10.1145 39.7566 8.21271 37.409 8.21271C35.0615 8.21271 33.1584 10.1145 33.1584 12.4605C33.1584 14.8065 35.0615 16.7083 37.409 16.7083Z" fill="#6B6B6B"/>
<path d="M30.312 0L16.5442 19.8214H20.8604L34.6149 0H30.312Z" fill="#6B6B6B"/>
<path d="M20.8635 0L25.1831 6.0177L22.8029 9.38053L16.3677 0H20.8635Z" fill="#6B6B6B"/>
<path fill-rule="evenodd" clip-rule="evenodd" d="M11.6074 0H15.3099V19.8214H11.6074V19.0811C10.5381 19.6669 9.31047 20 8.00498 20C3.86009 20 0.5 16.6421 0.5 12.5C0.5 8.35786 3.86009 5 8.00498 5C9.31047 5 10.5381 5.33311 11.6074 5.91892V0ZM7.96545 16.7083C10.313 16.7083 12.2161 14.8065 12.2161 12.4605C12.2161 10.1145 10.313 8.21271 7.96545 8.21271C5.6179 8.21271 3.71485 10.1145 3.71485 12.4605C3.71485 14.8065 5.6179 16.7083 7.96545 16.7083Z" fill="#6B6B6B"/>
</g>
<defs>
<clipPath id="clip0_221_891">
<rect width="64" height="20" fill="white" transform="translate(0.5)"/>
</clipPath>
</defs>
</svg>
