<svg width="78" height="24" viewBox="0 0 78 24" fill="none" xmlns="http://www.w3.org/2000/svg">
<g clip-path="url(#clip0_221_770)">
<path d="M15.1584 17.6062H8.80688V23.9943H15.1584V17.6062Z" fill="#6B6B6B"/>
<path d="M20.7814 8.81409H8.80688V15.1789H22.9441V8.81409H20.7814Z" fill="#6B6B6B"/>
<path d="M28.4534 0H8.80688V6.38806H28.4534V0Z" fill="#6B6B6B"/>
<path d="M7.34958 8.81409H0.998047V15.2012H7.34958V8.81409Z" fill="#6B6B6B"/>
<path d="M40.5423 8.6777V11.8829H46.9622V15.088H40.5423V20.1019H36.4209V5.47253H47.8265V8.65447H40.5423V8.6777ZM53.769 8.74641H49.3069V5.47253H62.3285V8.74641H57.8895V20.0787H53.769V8.74641ZM73.2577 20.0787L70.2518 15.5458L67.2931 20.0787H62.6028L67.8619 12.7064L62.8078 5.49479H67.4288L70.3433 9.70738L73.2115 5.49479H77.6515L72.5965 12.5458L77.9923 20.1009H73.2577V20.0787Z" fill="#6B6B6B"/>
</g>
<defs>
<clipPath id="clip0_221_770">
<rect width="77" height="24" fill="white" transform="translate(0.998047)"/>
</clipPath>
</defs>
</svg>
