<svg width="1182" height="367" viewBox="0 0 1182 367" fill="none" xmlns="http://www.w3.org/2000/svg">
<path d="M217.37 269.227H119.87V366.911H217.37V269.227Z" fill="#ABEBF4"/>
<path d="M303.685 134.784H119.87V232.113H336.885V134.784H303.685Z" fill="#00B3C8"/>
<path d="M421.457 0H119.87V97.6841H421.457V0Z" fill="#009BB5"/>
<path d="M97.5002 134.784H0V232.453H97.5002V134.784Z" fill="#00B3C8"/>
<path d="M607.031 132.697V181.71H705.58V230.722H607.031V307.392H543.764V83.6851H718.848V132.342H607.031V132.697ZM810.069 133.748H741.572V83.6851H941.463V133.748H873.321V307.037H810.069V133.748ZM1109.23 307.037L1063.09 237.721L1017.67 307.037H945.674L1026.4 194.303L948.821 84.0254H1019.76L1064.49 148.443L1108.52 84.0254H1176.68L1099.08 191.846L1181.91 307.377H1109.23V307.037Z" fill="white"/>
</svg>
