<svg width="113" height="24" viewBox="0 0 113 24" fill="none" xmlns="http://www.w3.org/2000/svg">
<path d="M23.9375 0H0V24H23.9375V0Z" fill="#D01F2A"/>
<path d="M17.5399 12.9077H5.08168L2.8811 15.9416H6.72032L3.51458 20.3595H8.20454L11.4417 15.9416H15.3376L17.5399 12.9077Z" fill="white"/>
<path d="M6.40015 11.0909H18.8619L21.0564 8.05704H17.1343L20.3234 3.63916H15.6361L12.4443 8.05617H8.59025L6.40015 11.0909Z" fill="white"/>
<path d="M28.7076 16V8.00207H30.8159V10.97H31.7277L33.6647 8H36.0577L33.5502 11.7704L36.232 15.9979H33.839L31.8442 12.9131H30.819V15.9979L28.7076 16Z" fill="white"/>
<path d="M41.2319 15.9979L43.3979 8H47.273L49.4391 15.9979H47.273L46.8739 14.3981H43.8002L43.401 15.9979H41.2319ZM44.252 12.5708H46.418L45.7341 9.94312H44.9358L44.252 12.5708Z" fill="white"/>
<path d="M54.4391 9.94208V8H61.556V9.94208H59.0486V15.9979H56.9403V9.94208H54.4391Z" fill="white"/>
<path d="M66.556 9.94208V8H73.6791V9.94208H71.1717V15.9979H69.0635V9.94208H66.556Z" fill="white"/>
<path d="M78.6791 15.9979L80.8451 8H84.7202L86.8862 15.9979H84.7202L84.321 14.3981H81.2443L80.8451 15.9979H78.6791ZM81.6991 12.5708H83.8651L83.1813 9.94312H82.383L81.6991 12.5708Z" fill="white"/>
<path d="M91.8862 15.9979V8H94.4504L97.2425 13.0269H97.357L97.1857 11.999V8H99.294V15.9979H96.7299L93.9378 10.97H93.8233L93.9945 11.999V15.9979H91.8862Z" fill="white"/>
<path d="M104.294 15.9979L106.46 8H110.334L112.5 15.9979H110.334L109.935 14.3981H106.858L106.459 15.9979H104.294ZM107.314 12.5708H109.48L108.796 9.94312H107.998L107.314 12.5708Z" fill="white"/>
</svg>
