<svg width="114" height="24" viewBox="0 0 114 24" fill="none" xmlns="http://www.w3.org/2000/svg">
<path d="M17.5399 12.9081H5.08168L2.8811 15.942H6.72032L3.51458 20.3599H8.20454L11.4417 15.942H15.3376L17.5399 12.9081Z" fill="#6B6B6B"/>
<path d="M6.40015 11.0911H18.8619L21.0564 8.05716H17.1343L20.3234 3.63928H15.6361L12.4443 8.05629H8.59025L6.40015 11.0911Z" fill="#6B6B6B"/>
<path d="M28.7075 16V8.00207H30.8158V10.97H31.7276L33.6646 8H36.0575L33.5501 11.7704L36.2318 15.9979H33.8389L31.8441 12.9131H30.8189V15.9979L28.7075 16Z" fill="#6B6B6B"/>
<path d="M41.2319 15.9979L43.3979 8H47.273L49.4391 15.9979H47.273L46.8739 14.3981H43.8002L43.401 15.9979H41.2319ZM44.252 12.5708H46.418L45.7341 9.94312H44.9358L44.252 12.5708Z" fill="#6B6B6B"/>
<path d="M54.439 9.94208V8H61.5559V9.94208H59.0485V15.9979H56.9402V9.94208H54.439Z" fill="#6B6B6B"/>
<path d="M66.5559 9.94208V8H73.679V9.94208H71.1716V15.9979H69.0633V9.94208H66.5559Z" fill="#6B6B6B"/>
<path d="M78.679 15.9979L80.845 8H84.7201L86.8861 15.9979H84.7201L84.3209 14.3981H81.2441L80.845 15.9979H78.679ZM81.699 12.5708H83.865L83.1812 9.94312H82.3828L81.699 12.5708Z" fill="#6B6B6B"/>
<path d="M91.8862 15.9979V8H94.4504L97.2425 13.0269H97.357L97.1857 11.999V8H99.294V15.9979H96.7299L93.9378 10.97H93.8233L93.9945 11.999V15.9979H91.8862Z" fill="#6B6B6B"/>
<path d="M104.294 15.9979L106.46 8H110.334L112.5 15.9979H110.334L109.935 14.3981H106.858L106.459 15.9979H104.294ZM107.314 12.5708H109.48L108.796 9.94312H107.998L107.314 12.5708Z" fill="#6B6B6B"/>
</svg>
