<svg width="111" height="24" viewBox="0 0 111 24" fill="none" xmlns="http://www.w3.org/2000/svg">
<g clip-path="url(#clip0_221_814)">
<path d="M3.41378 9.50096L2.77734 10.1485L3.41378 10.796L9.27268 16.757L9.85384 17.3483L9.92961 17.4253L10.4903 17.9958L14.0039 21.5706L14.6609 22.2389L15.3178 21.5706L22.5896 14.1721L24.2238 15.8347L24.8808 16.5031L25.5377 15.8347L26.8506 14.499L27.487 13.8514L26.8506 13.2039L21.0459 7.29813L20.3889 6.62969V6.62976L19.8103 6.04102L16.2604 2.42938L15.6035 1.76099L14.9465 2.42938L7.67473 9.82785L6.04056 8.16526L5.38361 7.49683L4.72665 8.16526L3.41378 9.50096ZM12.5359 14.7737L12.4601 14.6966L11.8995 14.1262L10.5127 12.7152L15.8352 7.30003L17.1835 8.67179L17.8405 9.34022V9.34016L18.4191 9.92889L19.7517 11.2847L14.4292 16.6999L13.117 15.365L12.5359 14.7737Z" stroke="white" stroke-width="3"/>
<path d="M43.7534 17.883V16.1342H40.7174V5.57312H35.6348V7.32186H38.6707V16.1342H35.6348V17.883H43.7534Z" fill="white"/>
<path d="M49.2048 8.71069C47.9256 8.71069 46.9022 9.13931 46.1006 10.0137C45.299 10.888 44.8896 12.0024 44.8896 13.3912C44.8896 14.7799 45.299 15.8943 46.1006 16.7687C46.9022 17.6431 47.9256 18.0717 49.2048 18.0717C50.484 18.0717 51.5244 17.6431 52.326 16.7687C53.1277 15.8943 53.52 14.7799 53.52 13.3912C53.52 12.0024 53.1277 10.888 52.326 10.0137C51.5244 9.13931 50.484 8.71069 49.2048 8.71069ZM49.2048 10.4423C49.9041 10.4423 50.4499 10.6995 50.8592 11.2309C51.2515 11.7624 51.4562 12.4825 51.4562 13.3912C51.4562 14.2999 51.2515 15.0199 50.8592 15.5514C50.4499 16.0829 49.9041 16.34 49.2048 16.34C48.5055 16.34 47.9597 16.0829 47.5674 15.5514C47.158 15.0199 46.9534 14.2999 46.9534 13.3912C46.9534 12.4825 47.158 11.7624 47.5674 11.2309C47.9597 10.6995 48.5055 10.4423 49.2048 10.4423Z" fill="white"/>
<path d="M59.1168 18.0717C60.2766 18.0717 61.2317 17.7973 61.9993 17.2316C62.767 16.6829 63.1418 15.9629 63.1418 15.0885C63.1418 14.6256 63.0398 14.2141 62.818 13.8884C62.5961 13.5626 62.2551 13.2883 61.8116 13.0655C61.5899 12.9626 61.334 12.8768 61.0441 12.7911C60.7542 12.7054 60.1913 12.5854 59.3215 12.414C58.3834 12.2253 57.8035 12.0711 57.5817 11.9167C57.3429 11.7796 57.2235 11.591 57.2235 11.3681C57.2235 11.0767 57.377 10.8366 57.667 10.648C57.957 10.4766 58.3663 10.3909 58.8609 10.3909C59.4409 10.3909 59.9525 10.4937 60.413 10.7166C60.8736 10.9395 61.2317 11.2481 61.5216 11.6596L63.0226 10.4423C62.6306 9.91082 62.0845 9.4822 61.3852 9.17359C60.6859 8.86497 59.9013 8.71069 59.0656 8.71069C57.9229 8.71069 57.0018 8.96786 56.2855 9.49937C55.5691 10.0308 55.211 10.7166 55.211 11.5567C55.211 12.2596 55.4497 12.8082 55.9273 13.2026C56.4049 13.6141 57.2747 13.9227 58.5539 14.1284C59.0997 14.2141 59.4579 14.2827 59.6285 14.2999C59.799 14.3341 59.9354 14.3684 60.0548 14.4027C60.4301 14.4884 60.703 14.6085 60.8565 14.7456C61.01 14.8999 61.0782 15.0885 61.0782 15.3456C61.0782 15.6714 60.9077 15.9114 60.5666 16.1C60.2254 16.2886 59.7819 16.3915 59.2532 16.3915C58.6392 16.3915 58.0593 16.2543 57.5135 15.98C56.9677 15.7229 56.5413 15.3628 56.2343 14.917L54.614 16.1C55.0404 16.7001 55.6715 17.1802 56.4731 17.5402C57.2747 17.9002 58.1616 18.0717 59.1168 18.0717Z" fill="white"/>
<path d="M68.79 18.0717C69.9496 18.0717 70.9052 17.7973 71.6721 17.2316C72.4397 16.6829 72.8151 15.9629 72.8151 15.0885C72.8151 14.6256 72.7131 14.2141 72.4913 13.8884C72.2694 13.5626 71.9284 13.2883 71.4847 13.0655C71.2628 12.9626 71.0072 12.8768 70.7171 12.7911C70.4271 12.7054 69.8648 12.5854 68.9946 12.414C68.0569 12.2253 67.4767 12.0711 67.2549 11.9167C67.0158 11.7796 66.8966 11.591 66.8966 11.3681C66.8966 11.0767 67.0503 10.8366 67.3403 10.648C67.6304 10.4766 68.0397 10.3909 68.5343 10.3909C69.1138 10.3909 69.6257 10.4937 70.086 10.7166C70.5469 10.9395 70.9052 11.2481 71.1946 11.6596L72.6959 10.4423C72.3032 9.91082 71.7575 9.4822 71.0582 9.17359C70.3589 8.86497 69.5747 8.71069 68.739 8.71069C67.596 8.71069 66.6748 8.96786 65.9589 9.49937C65.2423 10.0308 64.8841 10.7166 64.8841 11.5567C64.8841 12.2596 65.1231 12.8082 65.6006 13.2026C66.0781 13.6141 66.9476 13.9227 68.2271 14.1284C68.7728 14.2141 69.131 14.2827 69.3019 14.2999C69.4721 14.3341 69.6085 14.3684 69.7278 14.4027C70.1032 14.4884 70.3761 14.6085 70.5297 14.7456C70.6833 14.8999 70.7516 15.0885 70.7516 15.3456C70.7516 15.6714 70.5807 15.9114 70.2397 16.1C69.8986 16.2886 69.4549 16.3915 68.9264 16.3915C68.3125 16.3915 67.7324 16.2543 67.1867 15.98C66.641 15.7229 66.2145 15.3628 65.9072 14.917L64.2874 16.1C64.7138 16.7001 65.345 17.1802 66.1463 17.5402C66.9476 17.9002 67.835 18.0717 68.79 18.0717Z" fill="white"/>
<path d="M82.0374 17.7663V16.0175H79.0017V5.45642H73.9189V7.20516H76.9547V16.0175H73.9189V17.7663H82.0374Z" fill="white"/>
<path d="M87.6564 18.0717C88.5942 18.0717 89.4127 17.8488 90.1121 17.4031C90.8114 16.9573 91.3405 16.34 91.6644 15.5514L89.9418 14.8828C89.7882 15.3456 89.5154 15.6885 89.1233 15.9457C88.7306 16.2029 88.2359 16.3229 87.673 16.3229C86.9737 16.3229 86.3942 16.1 85.9333 15.6543C85.473 15.2085 85.2002 14.6085 85.1147 13.837H91.7154V13.1512C91.7154 11.8139 91.3405 10.7338 90.6068 9.92799C89.8564 9.12214 88.8498 8.71069 87.571 8.71069C86.2916 8.71069 85.2174 9.15642 84.3816 10.048C83.5459 10.9395 83.1194 12.0539 83.1194 13.3912C83.1194 14.7799 83.5459 15.8943 84.3816 16.7687C85.2174 17.6431 86.3088 18.0717 87.6564 18.0717ZM87.571 10.4423C88.2021 10.4423 88.7134 10.6138 89.0889 10.9395C89.4472 11.2824 89.6346 11.7282 89.6518 12.2939H85.234C85.3876 11.6938 85.6604 11.2481 86.0697 10.9223C86.4796 10.5966 86.9737 10.4423 87.571 10.4423Z" fill="white"/>
<path d="M97.3476 18.0717C98.5078 18.0717 99.4628 17.7973 100.23 17.2316C100.998 16.6829 101.373 15.9629 101.373 15.0885C101.373 14.6256 101.271 14.2141 101.049 13.8884C100.827 13.5626 100.486 13.2883 100.043 13.0655C99.8211 12.9626 99.5654 12.8768 99.2754 12.7911C98.9853 12.7054 98.4224 12.5854 97.5522 12.414C96.6145 12.2253 96.0344 12.0711 95.8125 11.9167C95.5741 11.7796 95.4549 11.591 95.4549 11.3681C95.4549 11.0767 95.6079 10.8366 95.8979 10.648C96.188 10.4766 96.5973 10.3909 97.092 10.3909C97.6721 10.3909 98.1834 10.4937 98.6442 10.7166C99.1045 10.9395 99.4628 11.2481 99.7529 11.6596L101.254 10.4423C100.861 9.91082 100.316 9.4822 99.6164 9.17359C98.9171 8.86497 98.1323 8.71069 97.2966 8.71069C96.1542 8.71069 95.233 8.96786 94.5165 9.49937C93.7999 10.0308 93.4423 10.7166 93.4423 11.5567C93.4423 12.2596 93.6807 12.8082 94.1582 13.2026C94.6357 13.6141 95.5059 13.9227 96.7847 14.1284C97.331 14.2141 97.6887 14.2827 97.8595 14.2999C98.0303 14.3341 98.1668 14.3684 98.286 14.4027C98.6614 14.4884 98.9343 14.6085 99.0873 14.7456C99.2409 14.8999 99.3092 15.0885 99.3092 15.3456C99.3092 15.6714 99.1389 15.9114 98.7979 16.1C98.4562 16.2886 98.0131 16.3915 97.484 16.3915C96.8701 16.3915 96.2906 16.2543 95.7443 15.98C95.1986 15.7229 94.7721 15.3628 94.4655 14.917L92.845 16.1C93.2715 16.7001 93.9026 17.1802 94.7039 17.5402C95.5059 17.9002 96.3926 18.0717 97.3476 18.0717Z" fill="white"/>
<path d="M106.972 18.0717C108.133 18.0717 109.088 17.7973 109.855 17.2316C110.623 16.6829 110.998 15.9629 110.998 15.0885C110.998 14.6256 110.896 14.2141 110.674 13.8884C110.452 13.5626 110.111 13.2883 109.668 13.0655C109.446 12.9626 109.19 12.8768 108.9 12.7911C108.61 12.7054 108.047 12.5854 107.177 12.414C106.239 12.2253 105.659 12.0711 105.437 11.9167C105.199 11.7796 105.08 11.591 105.08 11.3681C105.08 11.0767 105.233 10.8366 105.523 10.648C105.813 10.4766 106.222 10.3909 106.717 10.3909C107.297 10.3909 107.808 10.4937 108.269 10.7166C108.729 10.9395 109.088 11.2481 109.378 11.6596L110.878 10.4423C110.486 9.91082 109.941 9.4822 109.241 9.17359C108.542 8.86497 107.757 8.71069 106.921 8.71069C105.779 8.71069 104.858 8.96786 104.141 9.49937C103.425 10.0308 103.067 10.7166 103.067 11.5567C103.067 12.2596 103.305 12.8082 103.783 13.2026C104.26 13.6141 105.131 13.9227 106.409 14.1284C106.956 14.2141 107.313 14.2827 107.484 14.2999C107.655 14.3341 107.792 14.3684 107.911 14.4027C108.286 14.4884 108.559 14.6085 108.712 14.7456C108.866 14.8999 108.934 15.0885 108.934 15.3456C108.934 15.6714 108.764 15.9114 108.423 16.1C108.081 16.2886 107.638 16.3915 107.109 16.3915C106.495 16.3915 105.915 16.2543 105.369 15.98C104.823 15.7229 104.397 15.3628 104.09 14.917L102.47 16.1C102.896 16.7001 103.527 17.1802 104.329 17.5402C105.131 17.9002 106.017 18.0717 106.972 18.0717Z" fill="white"/>
</g>
<defs>
<clipPath id="clip0_221_814">
<rect width="110" height="24" fill="white" transform="translate(0.998047)"/>
</clipPath>
</defs>
</svg>
