<svg width="144" height="25" viewBox="0 0 144 25" fill="none" xmlns="http://www.w3.org/2000/svg">
<g clip-path="url(#clip0_41_1073)">
<path d="M39.99 9.45499C39.9941 9.23111 40.0849 9.01753 40.2432 8.8592C40.4015 8.70086 40.6151 8.6101 40.839 8.60599H41.039C41.2013 8.60645 41.3607 8.64875 41.5019 8.7288C41.6431 8.80885 41.7613 8.92396 41.845 9.06299L47.287 17.248L52.729 9.06299C52.8113 8.92267 52.9291 8.80654 53.0706 8.7263C53.2122 8.64606 53.3723 8.60457 53.535 8.60599H53.735C53.9589 8.6101 54.1724 8.70086 54.3308 8.8592C54.4891 9.01753 54.5799 9.23111 54.584 9.45499V23.148C54.5846 23.3753 54.496 23.5938 54.3372 23.7564C54.1785 23.9191 53.9622 24.013 53.735 24.018C53.5055 24.0139 53.2864 23.9209 53.124 23.7587C52.9616 23.5964 52.8684 23.3775 52.864 23.148V11.783L47.988 18.945C47.9167 19.0742 47.8128 19.1824 47.6867 19.2589C47.5605 19.3354 47.4165 19.3775 47.269 19.381C47.1186 19.3779 46.9716 19.3361 46.842 19.2598C46.7124 19.1834 46.6046 19.075 46.529 18.945L41.675 11.805V23.169C41.6789 23.2815 41.6601 23.3937 41.6197 23.4988C41.5793 23.604 41.5182 23.6999 41.4399 23.7809C41.3617 23.8619 41.2679 23.9263 41.1642 23.9703C41.0606 24.0143 40.9491 24.037 40.8365 24.037C40.7239 24.037 40.6124 24.0143 40.5087 23.9703C40.4051 23.9263 40.3113 23.8619 40.2331 23.7809C40.1548 23.6999 40.0937 23.604 40.0533 23.4988C40.0129 23.3937 39.9941 23.2815 39.998 23.169L39.99 9.45499Z" fill="#001C32"/>
<path d="M63.3929 9.43275C63.3929 9.20467 63.4836 8.98592 63.6448 8.82464C63.8061 8.66336 64.0249 8.57275 64.2529 8.57275C64.481 8.57275 64.6998 8.66336 64.8611 8.82464C65.0223 8.98592 65.1129 9.20467 65.1129 9.43275V23.1478C65.1129 23.3758 65.0223 23.5946 64.8611 23.7559C64.6998 23.9171 64.481 24.0078 64.2529 24.0078C64.0249 24.0078 63.8061 23.9171 63.6448 23.7559C63.4836 23.5946 63.3929 23.3758 63.3929 23.1478V9.43275Z" fill="#001C32"/>
<path d="M73.929 9.45493C73.9331 9.23104 74.0238 9.01747 74.1822 8.85913C74.3405 8.70079 74.5541 8.61003 74.778 8.60593H75.0179C75.1931 8.61012 75.3645 8.65807 75.5165 8.74539C75.6684 8.83272 75.7961 8.95666 75.888 9.10593L85.14 20.9059V9.41093C85.1361 9.29838 85.1549 9.1862 85.1953 9.08107C85.2357 8.97594 85.2968 8.88003 85.375 8.79903C85.4533 8.71804 85.547 8.65363 85.6507 8.60963C85.7544 8.56564 85.8658 8.54297 85.9785 8.54297C86.0911 8.54297 86.2025 8.56564 86.3062 8.60963C86.4099 8.65363 86.5036 8.71804 86.5819 8.79903C86.6601 8.88003 86.7213 8.97594 86.7616 9.08107C86.802 9.1862 86.8208 9.29838 86.817 9.41093V23.1689C86.8215 23.2741 86.8044 23.3791 86.7669 23.4775C86.7294 23.5759 86.6722 23.6655 86.5988 23.741C86.5253 23.8165 86.4373 23.8761 86.34 23.9164C86.2427 23.9566 86.1382 23.9765 86.0329 23.9749H85.946C85.7672 23.9613 85.5938 23.9071 85.4391 23.8165C85.2844 23.7258 85.1523 23.6012 85.0529 23.4519L75.6049 11.3699V23.1699C75.6049 23.28 75.5833 23.3889 75.5412 23.4906C75.499 23.5923 75.4373 23.6847 75.3595 23.7625C75.2817 23.8403 75.1893 23.902 75.0876 23.9441C74.986 23.9863 74.877 24.0079 74.767 24.0079C74.6569 24.0079 74.5479 23.9863 74.4463 23.9441C74.3446 23.902 74.2522 23.8403 74.1744 23.7625C74.0966 23.6847 74.0349 23.5923 73.9927 23.4906C73.9506 23.3889 73.929 23.28 73.929 23.1699V9.45493Z" fill="#001C32"/>
<path d="M95.634 9.43279C95.6301 9.31745 95.6494 9.20249 95.6909 9.09478C95.7323 8.98707 95.795 8.88879 95.8752 8.80581C95.9554 8.72283 96.0514 8.65683 96.1577 8.61176C96.2639 8.56668 96.3782 8.54346 96.4936 8.54346C96.609 8.54346 96.7232 8.56668 96.8294 8.61176C96.9357 8.65683 97.0317 8.72283 97.112 8.80581C97.1922 8.88879 97.2548 8.98707 97.2962 9.09478C97.3377 9.20249 97.357 9.31745 97.3531 9.43279V23.1478C97.357 23.2631 97.3377 23.3781 97.2962 23.4858C97.2548 23.5935 97.1922 23.6918 97.112 23.7748C97.0317 23.8577 96.9357 23.9237 96.8294 23.9688C96.7232 24.0139 96.609 24.0371 96.4936 24.0371C96.3782 24.0371 96.2639 24.0139 96.1577 23.9688C96.0514 23.9237 95.9554 23.8577 95.8752 23.7748C95.795 23.6918 95.7323 23.5935 95.6909 23.4858C95.6494 23.3781 95.6301 23.2631 95.634 23.1478V9.43279Z" fill="#001C32"/>
<path d="M106.175 9.45496C106.179 9.23108 106.27 9.01751 106.428 8.85917C106.587 8.70083 106.8 8.61007 107.024 8.60597H107.224C107.385 8.60726 107.544 8.64997 107.684 8.72999C107.824 8.81001 107.941 8.92466 108.024 9.06297L113.467 17.248L118.909 9.06297C118.991 8.92332 119.107 8.80759 119.248 8.72738C119.388 8.64717 119.547 8.60529 119.709 8.60597H119.909C120.133 8.60982 120.347 8.7005 120.505 8.85889C120.663 9.01729 120.754 9.231 120.758 9.45496V23.148C120.759 23.3753 120.67 23.5937 120.511 23.7564C120.352 23.9191 120.136 24.013 119.909 24.018C119.68 24.0136 119.461 23.9206 119.299 23.7583C119.136 23.5961 119.043 23.3773 119.039 23.148V11.783L114.162 18.945C114.091 19.0741 113.987 19.1824 113.861 19.2589C113.735 19.3354 113.591 19.3775 113.444 19.381C113.294 19.3779 113.147 19.3361 113.017 19.2598C112.887 19.1834 112.78 19.075 112.704 18.945L107.849 11.805V23.169C107.849 23.3912 107.761 23.6044 107.604 23.7615C107.446 23.9187 107.233 24.007 107.011 24.007C106.789 24.007 106.576 23.9187 106.418 23.7615C106.261 23.6044 106.173 23.3912 106.173 23.169L106.175 9.45496Z" fill="#001C32"/>
<path d="M128.484 22.7778L134.667 9.25885C134.744 9.03263 134.891 8.83678 135.086 8.69975C135.282 8.56271 135.516 8.49164 135.755 8.49685H135.842C136.078 8.49252 136.309 8.56428 136.501 8.7015C136.694 8.83873 136.836 9.03414 136.909 9.25885L143.091 22.7589C143.156 22.8953 143.193 23.0431 143.2 23.1938C143.2 23.4132 143.113 23.6235 142.958 23.7786C142.803 23.9337 142.592 24.0209 142.373 24.0209C142.184 24.0133 142.003 23.949 141.851 23.8364C141.7 23.7239 141.586 23.5682 141.524 23.3899L139.935 19.8899H131.575L129.986 23.4389C129.928 23.6116 129.817 23.7615 129.668 23.867C129.519 23.9725 129.341 24.0281 129.159 24.0258C129.056 24.0262 128.954 24.0063 128.859 23.9671C128.763 23.9279 128.677 23.8702 128.604 23.7975C128.531 23.7247 128.473 23.6382 128.434 23.543C128.395 23.4479 128.375 23.3458 128.375 23.2429C128.373 23.0813 128.41 22.9216 128.484 22.7778ZM139.26 18.3149L135.76 10.5209L132.255 18.3149H139.26Z" fill="#001C32"/>
<path d="M12.91 5.34717H18.675L23.139 24.0182H17.375L12.91 5.34717Z" fill="#001C32"/>
<path d="M10.712 2.13184L14.448 24.0178H8.68597L4.94897 2.13184H10.712Z" fill="#001C32"/>
<path d="M0 24.018H5.76199L10.713 2.132L5.433 0L0 24.018Z" fill="#FF512F"/>
<path d="M8.68701 24.0178H14.449L18.675 5.34684L13.395 3.21484L8.68701 24.0178Z" fill="#317AFF"/>
<path d="M21.352 6.43018L17.375 24.0182H23.137L26.637 8.56218L21.352 6.43018Z" fill="#91919D"/>
</g>
<defs>
<clipPath id="clip0_41_1073">
<rect width="143.2" height="24.019" fill="white"/>
</clipPath>
</defs>
</svg>
