<svg width="145" height="24" viewBox="0 0 145 24" fill="none" xmlns="http://www.w3.org/2000/svg">
<g clip-path="url(#clip0_221_824)">
<path d="M40.988 9.44761C40.9921 9.2239 41.0829 9.01049 41.2412 8.85228C41.3996 8.69407 41.6132 8.60338 41.837 8.59928H42.037C42.1993 8.59974 42.3588 8.642 42.5 8.72199C42.6412 8.80198 42.7593 8.91699 42.843 9.05592L48.285 17.2344L53.727 9.05592C53.8093 8.91571 53.9272 8.79966 54.0687 8.71949C54.2102 8.63932 54.3704 8.59785 54.533 8.59928H54.733C54.9569 8.60338 55.1705 8.69407 55.3288 8.85228C55.4872 9.01049 55.5779 9.2239 55.582 9.44761V23.1298C55.5826 23.3569 55.494 23.5752 55.3353 23.7377C55.1765 23.9003 54.9603 23.9941 54.733 23.9991C54.5035 23.995 54.2845 23.9021 54.122 23.74C53.9596 23.5779 53.8664 23.3591 53.862 23.1298V11.7738L48.986 18.9301C48.9148 19.0592 48.8109 19.1673 48.6847 19.2438C48.5586 19.3202 48.4145 19.3623 48.267 19.3658C48.1167 19.3626 47.9696 19.3209 47.84 19.2446C47.7104 19.1684 47.6026 19.06 47.527 18.9301L42.673 11.7957V23.1508C42.6769 23.2632 42.6581 23.3753 42.6177 23.4804C42.5773 23.5854 42.5162 23.6812 42.438 23.7622C42.3597 23.8431 42.266 23.9075 42.1623 23.9514C42.0586 23.9954 41.9472 24.018 41.8345 24.018C41.7219 24.018 41.6105 23.9954 41.5068 23.9514C41.4031 23.9075 41.3094 23.8431 41.2311 23.7622C41.1529 23.6812 41.0917 23.5854 41.0513 23.4804C41.011 23.3753 40.9922 23.2632 40.996 23.1508L40.988 9.44761Z" fill="#6B6B6B"/>
<path d="M64.391 9.4256C64.391 9.1977 64.4816 8.97912 64.6429 8.81797C64.8042 8.65682 65.0229 8.56628 65.251 8.56628C65.4791 8.56628 65.6978 8.65682 65.8591 8.81797C66.0204 8.97912 66.111 9.1977 66.111 9.4256V23.1298C66.111 23.3577 66.0204 23.5762 65.8591 23.7374C65.6978 23.8985 65.4791 23.9891 65.251 23.9891C65.0229 23.9891 64.8042 23.8985 64.6429 23.7374C64.4816 23.5762 64.391 23.3577 64.391 23.1298V9.4256Z" fill="#6B6B6B"/>
<path d="M74.927 9.44749C74.9311 9.22378 75.0219 9.01038 75.1802 8.85217C75.3385 8.69395 75.5521 8.60326 75.776 8.59916H76.016C76.1912 8.60336 76.3626 8.65126 76.5145 8.73852C76.6665 8.82578 76.7942 8.94962 76.886 9.09877L86.138 20.8894V9.40353C86.1341 9.29107 86.1529 9.17897 86.1933 9.07393C86.2337 8.96889 86.2948 8.87305 86.3731 8.79212C86.4513 8.71119 86.5451 8.64683 86.6487 8.60287C86.7524 8.55891 86.8639 8.53625 86.9765 8.53625C87.0891 8.53625 87.2006 8.55891 87.3042 8.60287C87.4079 8.64683 87.5017 8.71119 87.5799 8.79212C87.6582 8.87305 87.7193 8.96889 87.7597 9.07393C87.8001 9.17897 87.8189 9.29107 87.815 9.40353V23.1506C87.8195 23.2558 87.8025 23.3607 87.765 23.459C87.7274 23.5573 87.6702 23.6469 87.5968 23.7223C87.5234 23.7977 87.4353 23.8573 87.338 23.8975C87.2407 23.9377 87.1363 23.9576 87.031 23.956H86.944C86.7652 23.9424 86.5919 23.8882 86.4372 23.7977C86.2824 23.7071 86.1504 23.5825 86.051 23.4334L76.603 11.361V23.1516C76.603 23.2616 76.5813 23.3705 76.5392 23.4721C76.4971 23.5737 76.4354 23.666 76.3575 23.7437C76.2797 23.8215 76.1873 23.8832 76.0857 23.9252C75.984 23.9673 75.875 23.989 75.765 23.989C75.655 23.989 75.546 23.9673 75.4443 23.9252C75.3426 23.8832 75.2503 23.8215 75.1724 23.7437C75.0946 23.666 75.0329 23.5737 74.9908 23.4721C74.9487 23.3705 74.927 23.2616 74.927 23.1516V9.44749Z" fill="#6B6B6B"/>
<path d="M96.6321 9.42561C96.6282 9.31037 96.6475 9.1955 96.6889 9.08787C96.7303 8.98024 96.793 8.88205 96.8732 8.79913C96.9534 8.71621 97.0495 8.65027 97.1557 8.60523C97.262 8.5602 97.3762 8.53699 97.4916 8.53699C97.607 8.53699 97.7212 8.5602 97.8275 8.60523C97.9337 8.65027 98.0298 8.71621 98.11 8.79913C98.1902 8.88205 98.2529 8.98024 98.2943 9.08787C98.3357 9.1955 98.355 9.31037 98.3511 9.42561V23.1298C98.355 23.245 98.3357 23.3599 98.2943 23.4675C98.2529 23.5751 98.1902 23.6733 98.11 23.7562C98.0298 23.8392 97.9337 23.9051 97.8275 23.9501C97.7212 23.9952 97.607 24.0184 97.4916 24.0184C97.3762 24.0184 97.262 23.9952 97.1557 23.9501C97.0495 23.9051 96.9534 23.8392 96.8732 23.7562C96.793 23.6733 96.7303 23.5751 96.6889 23.4675C96.6475 23.3599 96.6282 23.245 96.6321 23.1298V9.42561Z" fill="#6B6B6B"/>
<path d="M107.173 9.44758C107.177 9.22387 107.268 9.01047 107.426 8.85226C107.585 8.69404 107.798 8.60335 108.022 8.59925H108.222C108.383 8.60055 108.542 8.64322 108.682 8.72318C108.822 8.80313 108.939 8.9177 109.022 9.05589L114.465 17.2344L119.907 9.05589C119.989 8.91636 120.105 8.80072 120.246 8.72057C120.386 8.64042 120.545 8.59858 120.707 8.59925H120.907C121.131 8.6031 121.345 8.69372 121.503 8.85198C121.661 9.01025 121.752 9.22379 121.756 9.44758V23.1297C121.757 23.3569 121.668 23.5752 121.509 23.7377C121.351 23.9003 121.134 23.9941 120.907 23.9991C120.678 23.9947 120.459 23.9017 120.297 23.7396C120.134 23.5775 120.041 23.3589 120.037 23.1297V11.7737L115.16 18.9301C115.089 19.0591 114.985 19.1673 114.859 19.2438C114.733 19.3202 114.589 19.3623 114.442 19.3657C114.292 19.3626 114.145 19.3209 114.015 19.2446C113.885 19.1683 113.778 19.06 113.702 18.9301L108.847 11.7957V23.1507C108.847 23.3728 108.759 23.5858 108.602 23.7428C108.444 23.8998 108.231 23.9881 108.009 23.9881C107.787 23.9881 107.574 23.8998 107.416 23.7428C107.259 23.5858 107.171 23.3728 107.171 23.1507L107.173 9.44758Z" fill="#6B6B6B"/>
<path d="M129.482 22.76L135.665 9.25166C135.742 9.02562 135.889 8.82992 136.084 8.69299C136.28 8.55607 136.514 8.48505 136.753 8.49026H136.84C137.076 8.48593 137.307 8.55763 137.499 8.69475C137.692 8.83186 137.834 9.02712 137.907 9.25166L144.089 22.741C144.154 22.8773 144.191 23.025 144.198 23.1756C144.198 23.3948 144.111 23.605 143.956 23.7599C143.801 23.9149 143.59 24.002 143.371 24.002C143.182 23.9944 143.001 23.9302 142.849 23.8177C142.698 23.7052 142.584 23.5497 142.522 23.3715L140.933 19.8743H132.573L130.984 23.4204C130.926 23.5931 130.815 23.7429 130.666 23.8483C130.517 23.9537 130.339 24.0092 130.157 24.007C130.054 24.0074 129.952 23.9874 129.857 23.9482C129.762 23.9091 129.675 23.8515 129.602 23.7788C129.529 23.7061 129.471 23.6197 129.432 23.5245C129.393 23.4294 129.373 23.3275 129.373 23.2246C129.371 23.0632 129.408 22.9036 129.482 22.76ZM140.258 18.3005L136.758 10.5127L133.253 18.3005H140.258Z" fill="#6B6B6B"/>
<path d="M13.9081 5.34277H19.6731L24.1371 23.999H18.3731L13.9081 5.34277Z" fill="#4D4D4D"/>
<path d="M11.71 2.13037L15.446 23.9991H9.68402L5.94702 2.13037H11.71Z" fill="#4D4D4D"/>
<path d="M0.998047 23.999H6.76004L11.711 2.13031L6.43105 0L0.998047 23.999Z" fill="#6B6B6B"/>
<path d="M9.68506 23.9989H15.4471L19.673 5.34271L14.3931 3.2124L9.68506 23.9989Z" fill="#6B6B6B"/>
<path d="M22.35 6.42493L18.373 23.999H24.135L27.635 8.55524L22.35 6.42493Z" fill="#6B6B6B"/>
</g>
<defs>
<clipPath id="clip0_221_824">
<rect width="143.2" height="24" fill="white" transform="translate(0.998047)"/>
</clipPath>
</defs>
</svg>
