<svg width="83" height="24" viewBox="0 0 83 24" fill="none" xmlns="http://www.w3.org/2000/svg">
<path fill-rule="evenodd" clip-rule="evenodd" d="M25.0001 11.9999C25.0001 17.3156 21.5456 21.8239 16.7603 23.4004C16.8215 23.0433 16.8534 22.6763 16.8534 22.3018C16.8534 18.738 13.9659 15.8489 10.4039 15.8489C7.99337 15.8489 5.89744 17.5683 4.79057 19.5282C4.71541 19.4906 4.69018 19.478 4.66512 19.465C4.65246 19.4585 4.63984 19.4518 4.62085 19.4418C5.44264 11.0512 11.2134 4.11319 18.9739 1.58838C22.575 3.65903 25.0001 7.5461 25.0001 11.9999ZM10.6583 11.0942C11.4503 10.3584 13.487 8.9999 14.8448 8.37728C14.8739 9.65382 13.6567 12.7358 10.6583 11.0942Z" fill="#6B6B6B"/>
<mask id="mask0_221_905" style="mask-type:alpha" maskUnits="userSpaceOnUse" x="4" y="1" width="21" height="23">
<path d="M16.7603 23.4004C21.5456 21.8239 25.0001 17.3156 25.0001 11.9999C25.0001 7.5461 22.575 3.65903 18.9739 1.58838C11.2134 4.11319 5.44264 11.0512 4.62085 19.4418C4.67742 19.4716 4.67742 19.4716 4.79057 19.5282C5.89744 17.5683 7.99337 15.8489 10.4039 15.8489C13.9659 15.8489 16.8534 18.738 16.8534 22.3018C16.8534 22.6763 16.8215 23.0433 16.7603 23.4004Z" fill="#C2C2C2"/>
</mask>
<g mask="url(#mask0_221_905)">
<path opacity="0.08" fill-rule="evenodd" clip-rule="evenodd" d="M24.0259 48.0001C35.5554 48.0001 44.902 38.6488 44.902 27.1134C44.902 15.5779 35.5554 6.22656 24.0259 6.22656C12.4964 6.22656 3.1499 15.5779 3.1499 27.1134C3.1499 38.6488 12.4964 48.0001 24.0259 48.0001ZM10.6583 11.0945C11.4503 10.3586 13.487 9.00015 14.8448 8.37752C14.8739 9.65406 13.6567 12.736 10.6583 11.0945Z" fill="#6B6B6B"/>
</g>
<path fill-rule="evenodd" clip-rule="evenodd" d="M12.9938 22.8C18.9544 22.8 23.7876 17.9652 23.7876 12C23.7876 6.03476 18.9544 1.2 12.9938 1.2C7.03313 1.2 2.2 6.03476 2.2 12C2.2 17.9652 7.03313 22.8 12.9938 22.8ZM12.9938 24C19.6177 24 24.9876 18.6274 24.9876 12C24.9876 5.37257 19.6177 0 12.9938 0C6.36979 0 1 5.37257 1 12C1 18.6274 6.36979 24 12.9938 24Z" fill="#6B6B6B"/>
<path d="M31 12C31 10.3047 31.5651 8.88091 32.6953 7.72854C33.8477 6.57618 35.2992 6 37.0499 6C38.8005 6 40.2465 6.55401 41.3878 7.66204C42.5402 8.78115 43.1164 10.2271 43.1164 12C43.1164 13.7396 42.5402 15.1745 41.3878 16.3047C40.2354 17.4349 38.7895 18 37.0499 18C35.2992 18 33.8532 17.446 32.7119 16.338C31.5706 15.2299 31 13.7839 31 12ZM33.1606 12C33.1606 13.1745 33.5319 14.1496 34.2742 14.9252C35.0166 15.7008 35.9418 16.0887 37.0499 16.0887C38.2465 16.0887 39.1939 15.7008 39.892 14.9252C40.6011 14.1496 40.9557 13.1745 40.9557 12C40.9557 10.8144 40.5789 9.83377 39.8255 9.05819C39.072 8.29364 38.1468 7.91134 37.0499 7.91134C35.9308 7.91134 35 8.29364 34.2576 9.05819C33.5263 9.82273 33.1606 10.8033 33.1606 12Z" fill="#6B6B6B"/>
<path d="M48.3572 13.463V17.8176H46.313V6.18327C46.8893 6.18327 47.5153 6.17771 48.1912 6.16662C48.8671 6.15554 49.4208 6.15002 49.8532 6.15002C52.6677 6.15002 54.0748 7.34667 54.0748 9.74001C54.0748 10.6265 53.8474 11.3578 53.3931 11.9339C52.9388 12.488 52.4185 12.8647 51.831 13.0641L55.4708 17.8176H52.9945L49.7866 13.463H48.3572ZM49.7533 8.06137C49.6981 8.06137 49.6091 8.06688 49.4874 8.07796C49.3656 8.07796 49.1939 8.08353 48.9722 8.09462C48.7506 8.09462 48.5455 8.09462 48.3572 8.09462V11.5517H49.6872C50.3407 11.5517 50.8725 11.391 51.2826 11.0697C51.7035 10.7483 51.9143 10.3107 51.9143 9.75666C51.9143 8.62646 51.1941 8.06137 49.7533 8.06137Z" fill="#6B6B6B"/>
<path d="M59.5921 17.8176H57.531L62.4509 6.15002H64.2461L69.1655 17.8176H66.9883L65.7749 14.8425H60.8056L59.5921 17.8176ZM64.9938 12.9311L63.2985 8.79266L61.5866 12.9311H64.9938Z" fill="#6B6B6B"/>
<path d="M70.469 12C70.469 10.3047 71.0341 8.88091 72.1643 7.72854C73.3169 6.57618 74.7681 6 76.5191 6C78.2695 6 79.7156 6.55401 80.8572 7.66204C82.0093 8.78115 82.5853 10.2271 82.5853 12C82.5853 13.7396 82.0093 15.1745 80.8572 16.3047C79.7046 17.4349 78.2586 18 76.5191 18C74.7681 18 73.3226 17.446 72.1809 16.338C71.0398 15.2299 70.469 13.7839 70.469 12ZM72.63 12C72.63 13.1745 73.001 14.1496 73.7435 14.9252C74.4856 15.7008 75.4113 16.0887 76.5191 16.0887C77.7159 16.0887 78.6629 15.7008 79.3612 14.9252C80.0705 14.1496 80.4248 13.1745 80.4248 12C80.4248 10.8144 80.0481 9.83377 79.2946 9.05819C78.5411 8.29364 77.616 7.91134 76.5191 7.91134C75.3998 7.91134 74.4694 8.29364 73.7269 9.05819C72.9953 9.82273 72.63 10.8033 72.63 12Z" fill="#6B6B6B"/>
</svg>
