<svg width="83" height="24" viewBox="0 0 83 24" fill="none" xmlns="http://www.w3.org/2000/svg">
<path fill-rule="evenodd" clip-rule="evenodd" d="M24.5001 11.9999C24.5001 17.3156 21.0456 21.8239 16.2603 23.4004C16.3215 23.0433 16.3534 22.6763 16.3534 22.3018C16.3534 18.738 13.4659 15.8489 9.90387 15.8489C7.49337 15.8489 5.39744 17.5683 4.29057 19.5282C4.21541 19.4906 4.19018 19.478 4.16512 19.465C4.15246 19.4585 4.13984 19.4518 4.12085 19.4418C4.94264 11.0512 10.7134 4.11319 18.4739 1.58838C22.075 3.65903 24.5001 7.5461 24.5001 11.9999ZM10.1583 11.0942C10.9503 10.3584 12.987 8.9999 14.3448 8.37728C14.3739 9.65382 13.1567 12.7358 10.1583 11.0942Z" fill="white"/>
<mask id="mask0_41_2358" style="mask-type:alpha" maskUnits="userSpaceOnUse" x="4" y="1" width="21" height="23">
<path d="M16.2603 23.4004C21.0456 21.8239 24.5001 17.3156 24.5001 11.9999C24.5001 7.5461 22.075 3.65903 18.4739 1.58838C10.7134 4.11319 4.94264 11.0512 4.12085 19.4418C4.17742 19.4716 4.17742 19.4716 4.29057 19.5282C5.39744 17.5683 7.49337 15.8489 9.90387 15.8489C13.4659 15.8489 16.3534 18.738 16.3534 22.3018C16.3534 22.6763 16.3215 23.0433 16.2603 23.4004Z" fill="#C2C2C2"/>
</mask>
<g mask="url(#mask0_41_2358)">
<path opacity="0.08" fill-rule="evenodd" clip-rule="evenodd" d="M23.5259 48.0001C35.0554 48.0001 44.402 38.6488 44.402 27.1134C44.402 15.5779 35.0554 6.22656 23.5259 6.22656C11.9964 6.22656 2.6499 15.5779 2.6499 27.1134C2.6499 38.6488 11.9964 48.0001 23.5259 48.0001ZM10.1583 11.0945C10.9503 10.3586 12.987 9.00015 14.3448 8.37752C14.3739 9.65406 13.1567 12.736 10.1583 11.0945Z" fill="white"/>
</g>
<path fill-rule="evenodd" clip-rule="evenodd" d="M12.4938 22.8C18.4544 22.8 23.2876 17.9652 23.2876 12C23.2876 6.03476 18.4544 1.2 12.4938 1.2C6.53313 1.2 1.7 6.03476 1.7 12C1.7 17.9652 6.53313 22.8 12.4938 22.8ZM12.4938 24C19.1177 24 24.4876 18.6274 24.4876 12C24.4876 5.37257 19.1177 0 12.4938 0C5.86979 0 0.5 5.37257 0.5 12C0.5 18.6274 5.86979 24 12.4938 24Z" fill="white"/>
<path d="M30.5 12C30.5 10.3047 31.0651 8.88091 32.1953 7.72854C33.3477 6.57618 34.7992 6 36.5499 6C38.3005 6 39.7465 6.55401 40.8878 7.66204C42.0402 8.78115 42.6164 10.2271 42.6164 12C42.6164 13.7396 42.0402 15.1745 40.8878 16.3047C39.7354 17.4349 38.2895 18 36.5499 18C34.7992 18 33.3532 17.446 32.2119 16.338C31.0706 15.2299 30.5 13.7839 30.5 12ZM32.6606 12C32.6606 13.1745 33.0319 14.1496 33.7742 14.9252C34.5166 15.7008 35.4418 16.0887 36.5499 16.0887C37.7465 16.0887 38.6939 15.7008 39.392 14.9252C40.1011 14.1496 40.4557 13.1745 40.4557 12C40.4557 10.8144 40.0789 9.83377 39.3255 9.05819C38.572 8.29364 37.6468 7.91134 36.5499 7.91134C35.4308 7.91134 34.5 8.29364 33.7576 9.05819C33.0263 9.82273 32.6606 10.8033 32.6606 12Z" fill="white"/>
<path d="M47.8573 13.4629V17.8175H45.8131V6.18315C46.3894 6.18315 47.0154 6.17759 47.6913 6.1665C48.3672 6.15542 48.9209 6.1499 49.3533 6.1499C52.1679 6.1499 53.5749 7.34655 53.5749 9.73989C53.5749 10.6264 53.3475 11.3576 52.8932 11.9338C52.439 12.4878 51.9186 12.8646 51.3311 13.064L54.971 17.8175H52.4946L49.2867 13.4629H47.8573ZM49.2534 8.06124C49.1982 8.06124 49.1093 8.06676 48.9875 8.07784C48.8657 8.07784 48.694 8.08341 48.4723 8.09449C48.2507 8.09449 48.0457 8.09449 47.8573 8.09449V11.5515H49.1873C49.8409 11.5515 50.3727 11.3909 50.7827 11.0695C51.2037 10.7482 51.4144 10.3106 51.4144 9.75654C51.4144 8.62634 50.6942 8.06124 49.2534 8.06124Z" fill="white"/>
<path d="M59.0921 17.8175H57.031L61.9509 6.1499H63.7461L68.6655 17.8175H66.4883L65.2749 14.8424H60.3056L59.0921 17.8175ZM64.4938 12.931L62.7985 8.79254L61.0866 12.931H64.4938Z" fill="white"/>
<path d="M69.9689 12C69.9689 10.3047 70.534 8.88091 71.6642 7.72854C72.8167 6.57618 74.268 6 76.019 6C77.7694 6 79.2155 6.55401 80.3571 7.66204C81.5091 8.78115 82.0852 10.2271 82.0852 12C82.0852 13.7396 81.5091 15.1745 80.3571 16.3047C79.2045 17.4349 77.7585 18 76.019 18C74.268 18 72.8225 17.446 71.6808 16.338C70.5397 15.2299 69.9689 13.7839 69.9689 12ZM72.1299 12C72.1299 13.1745 72.5009 14.1496 73.2434 14.9252C73.9854 15.7008 74.9111 16.0887 76.019 16.0887C77.2158 16.0887 78.1628 15.7008 78.8611 14.9252C79.5703 14.1496 79.9247 13.1745 79.9247 12C79.9247 10.8144 79.548 9.83377 78.7945 9.05819C78.041 8.29364 77.1158 7.91134 76.019 7.91134C74.8997 7.91134 73.9693 8.29364 73.2268 9.05819C72.4952 9.82273 72.1299 10.8033 72.1299 12Z" fill="white"/>
</svg>
