<svg width="138" height="24" viewBox="0 0 138 24" fill="none" xmlns="http://www.w3.org/2000/svg">
<g clip-path="url(#clip0_41_1125)">
<path d="M-0.641846 4.50098H10.1252C12.2166 4.50098 13.5077 5.80566 13.5077 7.91922V11.3374C13.5077 13.451 12.2166 14.7556 10.1252 14.7556H3.7476V18.5914H-0.641846V4.50098ZM9.11819 10.946V8.33671H3.7476V10.946H9.11819Z" fill="white"/>
<path d="M20.2983 4.50098H31.2719C33.3633 4.50098 34.6543 5.80566 34.6543 7.91922V10.5286C34.6543 11.8332 34.0863 12.616 33.4666 13.0335C33.1309 13.2683 32.7178 13.451 32.2789 13.5554L34.9642 16.4778V18.5914H30.9879L27.1923 13.9468H24.6619V18.5914H20.2725V4.50098H20.2983ZM30.2649 10.1371V8.33671H24.6619V10.1371H30.2649Z" fill="white"/>
<path d="M62.6437 14.6774H72.0167V13.8685L66.0264 13.0596C63.7024 12.7465 62.6437 11.6505 62.6437 9.53698V7.91922C62.6437 5.80566 63.9347 4.50098 66.0264 4.50098H76.1992V7.00593L74.8052 8.415H67.2399V9.22387L73.2301 10.0327C75.5537 10.3459 76.6125 11.4418 76.6125 13.5554V15.1732C76.6125 17.2867 75.3214 18.5914 73.2301 18.5914H62.6695V14.6774H62.6437Z" fill="white"/>
<path d="M83.1969 4.50098H93.9639C96.0556 4.50098 97.3467 5.80566 97.3467 7.91922V11.3374C97.3467 13.451 96.0556 14.7556 93.9639 14.7556H87.5863V18.5914H83.1969V4.50098ZM92.9569 10.946V8.33671H87.5863V10.946H92.9569Z" fill="white"/>
<path d="M104.111 4.50098H117.073V6.92768L115.679 8.33671H108.501V9.74574H114.672V13.3727H108.501V14.7817H117.073V18.6175H104.111V4.50098Z" fill="white"/>
<path d="M123.76 4.50098H134.733C136.825 4.50098 138.116 5.80566 138.116 7.91922V10.5286C138.116 11.8332 137.548 12.616 136.928 13.0335C136.592 13.2683 136.179 13.451 135.74 13.5554L138.425 16.4778V18.5914H134.449L130.654 13.9468H128.175V18.5914H123.786V4.50098H123.76ZM133.726 10.1371V8.33671H128.149V10.1371H133.726Z" fill="white"/>
<path d="M52.9346 6.84946L52.8829 6.79727C52.857 6.77121 52.857 6.77121 52.8315 6.74512L50.1978 9.4066C50.2236 9.4327 50.2236 9.4327 50.2495 9.45879L50.3012 9.51098C53.2703 12.5378 53.8641 15.7473 52.9863 16.6345C52.6764 16.9476 52.1343 17.0259 51.7469 16.9998C50.0685 16.9737 47.7963 15.7734 45.9372 13.9208L45.8855 13.8686C45.8601 13.8425 45.8601 13.8425 45.8342 13.8164L43.2004 16.4779C43.2263 16.504 43.2263 16.504 43.2521 16.5301L43.3038 16.5823C45.8855 19.1655 49.0101 20.7311 51.6694 20.7572C51.6952 20.7572 51.7469 20.7572 51.7728 20.7572C53.322 20.7572 54.6389 20.2353 55.5942 19.2699C57.0141 17.8348 57.4274 15.6429 56.7301 13.1119C56.1622 10.9722 54.7936 8.7282 52.9346 6.84946Z" fill="url(#paint0_linear_41_1125)"/>
<path d="M42.7883 7.9452C42.7883 7.55381 42.84 7.00585 43.1499 6.6927C43.408 6.43179 43.8208 6.32741 44.3375 6.32741C44.7249 6.32741 45.1636 6.40569 45.6285 6.53617C47.126 6.95366 48.7786 7.99739 50.1985 9.43251L52.8323 6.77099C50.9474 4.89228 48.7527 3.53542 46.6356 2.93528C44.1307 2.23076 41.9618 2.62216 40.5161 4.08337C39.5349 5.07491 39.0441 6.43179 39.0441 8.04958C39.0958 10.7633 40.6195 13.9206 43.1753 16.5299L45.835 13.7901C44.0018 11.9375 42.8142 9.64128 42.7883 7.9452Z" fill="url(#paint1_linear_41_1125)"/>
</g>
<defs>
<linearGradient id="paint0_linear_41_1125" x1="48.4273" y1="18.4612" x2="58.6653" y2="9.01049" gradientUnits="userSpaceOnUse">
<stop stop-color="#00FFFF"/>
<stop offset="1" stop-color="#5900F7" stop-opacity="0"/>
</linearGradient>
<linearGradient id="paint1_linear_41_1125" x1="35.9073" y1="15.2699" x2="48.7367" y2="4.648" gradientUnits="userSpaceOnUse">
<stop stop-color="#5900F7" stop-opacity="0"/>
<stop offset="1" stop-color="white"/>
</linearGradient>
<clipPath id="clip0_41_1125">
<rect width="138" height="24" fill="white"/>
</clipPath>
</defs>
</svg>
