<svg width="127" height="22" viewBox="0 0 127 22" fill="none" xmlns="http://www.w3.org/2000/svg">
<g clip-path="url(#clip0_221_868)">
<path d="M-0.588379 4.12585H9.28143C11.1985 4.12585 12.382 5.32182 12.382 7.25925V10.3926C12.382 12.33 11.1985 13.526 9.28143 13.526H3.43528V17.0421H-0.588379V4.12585ZM8.35833 10.0338V7.64194H3.43528V10.0338H8.35833Z" fill="#6B6B6B"/>
<path d="M18.6067 4.12585H28.6658C30.583 4.12585 31.7664 5.32182 31.7664 7.25925V9.65114C31.7664 10.8471 31.2457 11.5646 30.6777 11.9473C30.3699 12.1626 29.9913 12.33 29.5889 12.4257L32.0504 15.1046V17.0421H28.4055L24.9262 12.7845H22.6066V17.0421H18.583V4.12585H18.6067ZM27.7428 9.29233V7.64194H22.6066V9.29233H27.7428Z" fill="#6B6B6B"/>
<path d="M57.4233 13.4542H66.0152V12.7127L60.5242 11.9713C58.3939 11.6842 57.4233 10.6796 57.4233 8.74219V7.25925C57.4233 5.32182 58.6068 4.12585 60.5242 4.12585H69.8493V6.42206L68.5714 7.7137H61.6365V8.45517L67.1276 9.19664C69.2576 9.48369 70.2281 10.4883 70.2281 12.4257V13.9087C70.2281 15.8461 69.0446 17.0421 67.1276 17.0421H57.447V13.4542H57.4233Z" fill="#6B6B6B"/>
<path d="M76.2639 4.12585H86.1337C88.0511 4.12585 89.2345 5.32182 89.2345 7.25925V10.3926C89.2345 12.33 88.0511 13.526 86.1337 13.526H80.2875V17.0421H76.2639V4.12585ZM85.2106 10.0338V7.64194H80.2875V10.0338H85.2106Z" fill="#6B6B6B"/>
<path d="M95.4353 4.12585H107.317V6.35033L106.039 7.64194H99.4589V8.93355H105.116V12.2583H99.4589V13.5499H107.317V17.066H95.4353V4.12585Z" fill="#6B6B6B"/>
<path d="M113.447 4.12585H123.506C125.423 4.12585 126.606 5.32182 126.606 7.25925V9.65114C126.606 10.8471 126.085 11.5646 125.517 11.9473C125.21 12.1626 124.831 12.33 124.429 12.4257L126.89 15.1046V17.0421H123.245L119.766 12.7845H117.494V17.0421H113.47V4.12585H113.447ZM122.582 9.29233V7.64194H117.47V9.29233H122.582Z" fill="#6B6B6B"/>
<path d="M48.5233 6.27839L48.4759 6.23055C48.4522 6.20666 48.4522 6.20666 48.4289 6.18274L46.0146 8.62243C46.0383 8.64636 46.0382 8.64636 46.0619 8.67028L46.1093 8.71812C48.831 11.4927 49.3753 14.4347 48.5707 15.248C48.2867 15.535 47.7897 15.6068 47.4346 15.5829C45.8961 15.5589 43.8132 14.4587 42.1091 12.7604L42.0617 12.7126C42.0383 12.6887 42.0383 12.6887 42.0146 12.6647L39.6003 15.1045C39.624 15.1284 39.624 15.1284 39.6477 15.1523L39.6951 15.2002C42.0617 17.5681 44.9259 19.0033 47.3635 19.0272C47.3872 19.0272 47.4346 19.0272 47.4583 19.0272C48.8784 19.0272 50.0856 18.5488 50.9613 17.6638C52.2629 16.3482 52.6417 14.339 52.0026 12.0189C51.4819 10.0576 50.2274 8.00057 48.5233 6.27839Z" fill="#6B6B6B"/>
<path d="M39.2228 7.28302C39.2228 6.92424 39.2701 6.42194 39.5542 6.1349C39.7908 5.89573 40.1692 5.80004 40.6428 5.80004C40.9979 5.80004 41.4001 5.8718 41.8263 5.99141C43.199 6.3741 44.7138 7.33086 46.0154 8.64639L48.4297 6.20666C46.7019 4.48451 44.6901 3.24072 42.7494 2.69059C40.4533 2.04478 38.4651 2.40356 37.1399 3.74301C36.2404 4.65192 35.7905 5.89573 35.7905 7.3787C35.8379 9.86624 37.2346 12.7604 39.5775 15.1523L42.0155 12.6409C40.3351 10.9426 39.2465 8.83775 39.2228 7.28302Z" fill="#6B6B6B"/>
</g>
<defs>
<clipPath id="clip0_221_868">
<rect width="126.5" height="22" fill="white"/>
</clipPath>
</defs>
</svg>
