<svg width="1219" height="80" viewBox="0 0 1219 80" fill="none" xmlns="http://www.w3.org/2000/svg">
<g clip-path="url(#clip0_305_201)">
<path d="M7.33978 10.0845L12.001 5.42516L16.6642 10.0883L19.3748 7.37572L12.001 0L4.6272 7.37382L7.33978 10.0845Z" fill="#6B6B6B"/>
<path d="M-0.000976562 12.0005L2.71061 9.2889L5.4222 12.0005L2.71061 14.7121L-0.000976562 12.0005Z" fill="#6B6B6B"/>
<path d="M7.33966 13.9156L12.0009 18.5768L16.664 13.9137L19.3766 16.6225L19.3747 16.6244L12.0009 24.0001L4.62708 16.6282L4.62329 16.6244L7.33966 13.9156Z" fill="#6B6B6B"/>
<path d="M18.5752 12.0011L21.2868 9.28951L23.9984 12.0011L21.2868 14.7127L18.5752 12.0011Z" fill="#6B6B6B"/>
<path d="M14.7514 11.9992L12.0009 9.24683L9.9669 11.2808L9.73185 11.5139L9.25037 11.9954L9.24658 11.9992L9.25037 12.0049L12.0009 14.7535L14.7514 12.0011L14.7533 11.9992H14.7514Z" fill="#6B6B6B"/>
<path d="M28.229 5.81555H34.1281C35.5915 5.81555 36.6985 6.19467 37.4491 6.9529C37.7319 7.23299 37.9549 7.56762 38.1045 7.93648C38.254 8.30534 38.3271 8.70075 38.3192 9.09871V9.13472C38.3243 9.46073 38.2789 9.78556 38.1846 10.0977C38.1006 10.3664 37.9787 10.6217 37.8226 10.8559C37.677 11.0768 37.5008 11.2759 37.2994 11.4473C37.1026 11.6168 36.8869 11.763 36.6568 11.8833C37.3205 12.1145 37.9174 12.5051 38.395 13.0207C38.8171 13.5009 39.0282 14.1643 39.0282 15.011V15.0471C39.0401 15.5758 38.9251 16.0998 38.6926 16.5749C38.4674 17.0126 38.1372 17.3878 37.7316 17.6668C37.273 17.9742 36.7624 18.1958 36.2246 18.3207C35.5856 18.4722 34.9306 18.5454 34.274 18.5387H28.229V5.81555ZM33.5366 10.9602C34.047 10.9848 34.5549 10.875 35.0095 10.6417C35.1868 10.5382 35.3315 10.387 35.4274 10.2055C35.5232 10.0239 35.5662 9.8191 35.5517 9.61431V9.57829C35.561 9.38959 35.5227 9.20158 35.4402 9.03161C35.3577 8.86165 35.2337 8.71522 35.0797 8.60585C34.765 8.38217 34.3107 8.27034 33.7167 8.27034H30.9568V10.9602H33.5366ZM34.2816 16.0877C34.7901 16.1162 35.2962 15.9999 35.7412 15.7522C35.9146 15.6408 36.0549 15.485 36.1476 15.301C36.2403 15.117 36.2819 14.9114 36.2682 14.7058V14.6698C36.275 14.4744 36.2338 14.2803 36.1482 14.1045C36.0626 13.9287 35.9353 13.7765 35.7772 13.6614C35.4512 13.4086 34.9242 13.2823 34.1963 13.2823H30.9568V16.0877H34.2816Z" fill="#6B6B6B"/>
<path d="M42.5425 5.81555H45.3422V18.5425H42.5425V5.81555Z" fill="#6B6B6B"/>
<path d="M49.5791 5.81555H52.1609L58.1282 13.6481V5.81555H60.892V18.5425H58.5092L52.3467 10.4522V18.5425H49.5791V5.81555Z" fill="#6B6B6B"/>
<path d="M69.3688 5.72449H71.9468L77.4004 18.5424H74.4774L73.3135 15.6877H67.932L66.7681 18.5424H63.9133L69.3688 5.72449ZM72.3145 13.2158L70.6199 9.08725L68.9328 13.2158H72.3145Z" fill="#6B6B6B"/>
<path d="M80.4277 5.81555H83.0095L88.973 13.6481V5.81555H91.7368V18.5425H89.354L83.1915 10.4522V18.5425H80.4277V5.81555Z" fill="#6B6B6B"/>
<path d="M101.814 18.7663C100.921 18.7739 100.037 18.6011 99.213 18.2582C98.4375 17.938 97.7338 17.4658 97.1436 16.8693C96.5534 16.2729 96.0885 15.5644 95.7763 14.7855C95.447 13.9708 95.2802 13.0996 95.2854 12.2208V12.1848C95.2707 10.4527 95.9372 8.7841 97.1412 7.53871C97.7335 6.93037 98.4428 6.44808 99.2263 6.12082C100.079 5.76779 100.994 5.59172 101.916 5.60332C102.462 5.59925 103.006 5.64813 103.543 5.74928C104.001 5.83603 104.45 5.97007 104.881 6.14925C105.272 6.31391 105.644 6.52114 105.99 6.76721C106.327 7.0072 106.644 7.27476 106.938 7.56715L105.158 9.62196C104.703 9.20235 104.192 8.84709 103.641 8.56612C103.099 8.30711 102.505 8.17734 101.905 8.187C101.405 8.18167 100.91 8.2827 100.453 8.48337C99.9951 8.68404 99.5854 8.97976 99.2509 9.35089C98.9193 9.72108 98.6596 10.1499 98.4851 10.6152C98.3025 11.1071 98.2107 11.6279 98.2141 12.1526V12.1886C98.2123 12.7124 98.3041 13.2324 98.4851 13.724C98.6574 14.1911 98.9144 14.6223 99.2434 14.9959C99.5752 15.3717 99.9838 15.6717 100.442 15.8758C100.9 16.0799 101.396 16.1832 101.897 16.1788C102.535 16.1989 103.169 16.0615 103.742 15.7788C104.287 15.4817 104.791 15.1146 105.241 14.687L107.023 16.4878C106.708 16.8292 106.368 17.1461 106.005 17.4356C105.648 17.7175 105.261 17.9585 104.85 18.154C104.413 18.3599 103.952 18.512 103.478 18.607C102.93 18.7169 102.373 18.7702 101.814 18.7663Z" fill="#6B6B6B"/>
<path d="M110.327 5.81555H119.905V8.30635H113.081V10.8881H119.09V13.3789H113.091V16.0517H120V18.5425H110.333L110.327 5.81555Z" fill="#6B6B6B"/>
</g>
<g clip-path="url(#clip1_305_201)">
<path d="M198.158 17.6062H191.807V23.9943H198.158V17.6062Z" fill="#ABEBF4"/>
<path d="M203.781 8.81409H191.807V15.1789H205.944V8.81409H203.781Z" fill="#00B3C8"/>
<path d="M211.453 0H191.807V6.38806H211.453V0Z" fill="#009BB5"/>
<path d="M190.35 8.81409H183.998V15.2012H190.35V8.81409Z" fill="#00B3C8"/>
<path d="M223.542 8.6777V11.8829H229.962V15.088H223.542V20.1019H219.421V5.47253H230.827V8.65447H223.542V8.6777ZM236.769 8.74641H232.307V5.47253H245.329V8.74641H240.889V20.0787H236.769V8.74641ZM256.258 20.0787L253.252 15.5458L250.293 20.0787H245.603L250.862 12.7064L245.808 5.49479H250.429L253.343 9.70738L256.212 5.49479H260.652L255.596 12.5458L260.992 20.1009H256.258V20.0787Z" fill="white"/>
</g>
<g clip-path="url(#clip2_305_201)">
<path d="M324.998 23.9557L335.819 4.15015L345.376 0L334.54 19.8056L324.998 23.9557Z" fill="#6B6B6B"/>
<path d="M335.789 19.4362L344.006 4.38635L348.701 8.92051L340.574 23.9999L335.789 19.4362Z" fill="#6B6B6B"/>
<path d="M349.605 9.36377L355.685 11.5496L352.645 17.0438L345.271 17.2949L349.605 9.36377Z" fill="#6B6B6B"/>
<path d="M364.221 18.8304H359.998V7.13843H364.252C365.445 7.13843 366.481 7.36952 367.344 7.83164C368.208 8.29377 368.883 8.97152 369.338 9.83422C369.809 10.7123 370.028 11.7443 370.028 12.9613C370.028 14.1782 369.793 15.2257 369.322 16.1038C368.851 16.9818 368.192 17.6442 367.313 18.1218C366.465 18.5993 365.429 18.8304 364.221 18.8304ZM362.51 16.7045H364.111C365.225 16.7045 366.073 16.4119 366.654 15.8111C367.234 15.2257 367.517 14.2706 367.517 12.9613C367.517 11.6673 367.234 10.7277 366.654 10.1269C366.073 9.54152 365.225 9.24882 364.111 9.24882H362.51V16.7045Z" fill="#6B6B6B"/>
<path d="M371.912 18.8306H369.212L373.324 7.15405H376.574L380.671 18.8306H377.971L377.092 16.1656H372.791L371.912 18.8306ZM373.434 14.2401H376.464L375.004 9.81904H374.91L373.434 14.2401Z" fill="#6B6B6B"/>
<path d="M391 12.9923C391 14.2709 390.749 15.3492 390.263 16.2427C389.776 17.1361 389.101 17.8139 388.269 18.2914C387.422 18.7536 386.48 19 385.428 19C384.376 19 383.418 18.769 382.587 18.2914C381.739 17.8139 381.08 17.1361 380.593 16.2427C380.107 15.3492 379.855 14.2709 379.855 13.0077C379.855 11.7291 380.107 10.6508 380.593 9.7574C381.08 8.8639 381.739 8.18614 382.587 7.70862C383.434 7.24643 384.376 7 385.428 7C386.48 7 387.422 7.23103 388.269 7.70862C389.117 8.17074 389.776 8.8639 390.263 9.7574C390.765 10.62 391 11.7137 391 12.9923ZM388.457 12.9923C388.457 11.76 388.175 10.8049 387.626 10.1579C387.076 9.51091 386.338 9.172 385.428 9.172C384.518 9.172 383.78 9.49551 383.23 10.1579C382.681 10.8203 382.399 11.76 382.399 12.9923C382.399 14.2247 382.681 15.1797 383.23 15.8267C383.78 16.4737 384.518 16.8126 385.428 16.8126C386.338 16.8126 387.076 16.4891 387.626 15.8267C388.175 15.1643 388.457 14.2247 388.457 12.9923Z" fill="#6B6B6B"/>
<path d="M394.375 7.13843H397.483L400.763 14.9947H400.905L404.186 7.13843H407.278V18.8304H404.829V11.2206H404.735L401.658 18.7688H399.995L396.918 11.1898H396.824V18.8304H394.375V7.13843Z" fill="#6B6B6B"/>
<path d="M410.936 18.9846C410.088 18.9846 409.382 18.769 408.817 18.3223C408.251 17.891 407.969 17.2285 407.969 16.3659C407.969 15.7189 408.126 15.1952 408.44 14.8255C408.754 14.4557 409.162 14.1784 409.68 14.009C410.182 13.8396 410.732 13.7163 411.328 13.6701C412.098 13.5931 412.662 13.5161 412.992 13.4237C413.322 13.3312 413.495 13.1618 413.495 12.8691V12.8383C413.495 12.484 413.384 12.1913 413.149 12.0064C412.914 11.8062 412.6 11.7137 412.176 11.7137C411.737 11.7137 411.375 11.8062 411.109 12.0064C410.842 12.1913 410.669 12.4378 410.591 12.7305L408.299 12.5456C408.472 11.7446 408.895 11.113 409.57 10.6509C410.245 10.1888 411.124 9.94226 412.192 9.94226C412.851 9.94226 413.479 10.0501 414.044 10.2504C414.625 10.4506 415.08 10.7741 415.441 11.2054C415.802 11.6367 415.975 12.2067 415.975 12.8999V18.8306H413.62V17.6137H413.557C413.338 18.0142 413.023 18.3531 412.584 18.6149C412.144 18.8614 411.595 18.9846 410.936 18.9846ZM411.642 17.321C412.192 17.321 412.631 17.1669 412.977 16.8588C413.322 16.5507 413.495 16.1656 413.495 15.7035V14.7793C413.4 14.8409 413.244 14.9025 413.039 14.9487C412.835 14.9949 412.616 15.0411 412.395 15.072C412.16 15.1028 411.956 15.1336 411.783 15.1644C411.344 15.226 410.998 15.3492 410.732 15.5187C410.465 15.7035 410.339 15.9654 410.339 16.3043C410.339 16.6431 410.465 16.8896 410.716 17.0591C410.952 17.2285 411.265 17.321 411.642 17.321Z" fill="#6B6B6B"/>
<path d="M416.916 18.8304V7.13843H419.396V13.3772H419.538L422.394 10.0499H425.235L421.924 13.8393L425.408 18.815H422.504L420.056 15.2874L419.381 16.0422V18.8304H416.916Z" fill="#6B6B6B"/>
<path d="M428.988 18.9998C428.077 18.9998 427.293 18.8149 426.617 18.4452C425.958 18.0755 425.44 17.5518 425.095 16.8894C424.734 16.2116 424.561 15.4106 424.561 14.4863C424.561 13.5928 424.734 12.7918 425.095 12.1141C425.456 11.4362 425.958 10.8971 426.602 10.5274C427.245 10.1423 428.014 9.9574 428.894 9.9574C429.678 9.9574 430.385 10.1269 431.028 10.4504C431.656 10.7738 432.159 11.2668 432.535 11.9292C432.912 12.5916 433.1 13.408 433.1 14.4093V15.0717H427.026C427.026 15.7187 427.214 16.2424 427.575 16.6121C427.936 16.9818 428.438 17.1821 429.05 17.1821C429.458 17.1821 429.819 17.0897 430.118 16.9202C430.416 16.7508 430.636 16.4889 430.761 16.1654L433.053 16.3194C432.88 17.1359 432.441 17.7829 431.735 18.2758C431.013 18.7533 430.102 18.9998 428.988 18.9998ZM427.01 13.562H430.761C430.761 13.0383 430.589 12.607 430.243 12.2681C429.898 11.9292 429.474 11.7597 428.924 11.7597C428.375 11.7597 427.92 11.9292 427.575 12.2835C427.229 12.6378 427.041 13.0691 427.01 13.562Z" fill="#6B6B6B"/>
<path d="M433.712 18.8306V10.0655H436.113V11.5905H436.207C436.365 11.0514 436.647 10.6355 437.024 10.3582C437.401 10.0809 437.856 9.94226 438.342 9.94226C438.625 9.94226 438.876 9.97307 439.127 10.0347V12.1913C439.018 12.1605 438.845 12.1297 438.641 12.0989C438.437 12.0681 438.248 12.0681 438.075 12.0681C437.526 12.0681 437.071 12.2375 436.726 12.5764C436.365 12.9153 436.192 13.3466 436.192 13.8858V18.8306H433.712Z" fill="#6B6B6B"/>
</g>
<g clip-path="url(#clip3_305_201)">
<path d="M535.066 19.2414C534.676 18.8501 534.334 18.63 534.138 18.63C533.454 19.2169 532.526 19.5104 531.256 19.5104C528.861 19.5104 527.493 17.9208 527.493 15.6463C527.493 13.2986 528.886 11.709 531.158 11.709C532.062 11.709 532.746 11.9291 533.21 12.3203V13.5921C533.21 13.7877 533.332 13.9834 533.65 14.3013C533.943 14.5703 534.162 14.6926 534.309 14.6926C534.505 14.6926 534.7 14.5703 534.969 14.3013C535.262 14.0078 535.408 13.7877 535.408 13.5921V11.2443C535.408 10.853 534.969 10.4128 534.138 9.97262C533.308 9.50793 532.306 9.31228 531.133 9.31228C529.228 9.31228 527.64 9.89924 526.443 11.0976C525.246 12.2714 524.611 13.7877 524.611 15.6219C524.611 15.9154 524.635 16.1844 524.66 16.4534L514.009 10.3883L518.333 7.91832C518.919 7.57594 519.139 6.81781 518.797 6.20641C518.455 5.61947 517.698 5.39937 517.087 5.74174L512.714 8.23624V3.24725C512.714 2.56248 512.152 2 511.468 2C510.784 2 510.222 2.56248 510.222 3.24725V8.23624L505.85 5.74174C505.239 5.39937 504.482 5.61947 504.14 6.20641C503.798 6.79335 504.018 7.57594 504.604 7.91832L508.952 10.3883L504.628 12.8584C504.042 13.2008 503.822 13.9589 504.164 14.5703C504.384 14.9616 504.824 15.2061 505.239 15.2061C505.459 15.2061 505.654 15.1572 505.85 15.035L510.222 12.5405V17.5539C510.222 18.2387 510.784 18.8012 511.468 18.8012C512.152 18.8012 512.714 18.2387 512.714 17.5539V12.516L527.103 20.7088L528.226 21.3446L528.251 21.369C528.324 21.4179 528.422 21.4424 528.495 21.4668C529.277 21.7603 530.156 21.907 531.133 21.907C533.014 21.907 534.553 21.3201 535.702 20.1707C535.726 19.975 535.506 19.6327 535.066 19.2414Z" fill="#6B6B6B"/>
<path d="M543.255 9.31238C541.399 9.31238 539.859 9.89934 538.662 11.1221C537.465 12.296 536.855 13.8123 536.855 15.6464C536.855 17.4562 537.441 18.948 538.662 20.1708C539.859 21.3447 541.399 21.9561 543.255 21.9561C545.112 21.9561 546.651 21.3691 547.848 20.1708C549.045 18.9724 549.68 17.4562 549.68 15.6464C549.68 13.8123 549.069 12.3204 547.848 11.1221C546.626 9.89934 545.112 9.31238 543.255 9.31238ZM545.747 18.4589C545.136 19.1926 544.305 19.5349 543.255 19.5349C542.205 19.5349 541.374 19.1926 540.763 18.4589C540.153 17.7252 539.835 16.7959 539.835 15.6464C539.835 14.4971 540.153 13.5433 540.763 12.834C541.374 12.1004 542.205 11.758 543.255 11.758C544.305 11.758 545.136 12.1004 545.747 12.834C546.382 13.5677 546.724 14.4971 546.724 15.6464C546.724 16.7959 546.406 17.7252 545.747 18.4589Z" fill="#6B6B6B"/>
<path d="M554.565 2.48903C554.297 2.19556 554.077 2.04883 553.906 2.04883H550.486C550.29 2.04883 550.095 2.17111 549.777 2.48903C549.509 2.75805 549.386 2.97815 549.386 3.14934C549.386 3.32053 549.509 3.54063 549.777 3.85856C550.07 4.12758 550.29 4.24986 550.486 4.24986H552.22V21.6869H554.981V3.14934C555.005 2.9537 554.859 2.75805 554.565 2.48903Z" fill="#6B6B6B"/>
<path d="M569.198 18.6299V3.14934C569.198 2.9537 569.052 2.75805 568.759 2.48903C568.49 2.19556 568.27 2.04883 568.099 2.04883H565.461C565.265 2.04883 565.07 2.17111 564.752 2.48903C564.484 2.75805 564.362 2.97815 564.362 3.14934C564.362 3.32053 564.484 3.54063 564.752 3.85857C565.046 4.12758 565.265 4.24986 565.461 4.24986H566.438V9.70352C565.632 9.43448 564.85 9.31221 564.068 9.31221C562.163 9.31221 560.6 9.89917 559.378 11.1219C558.132 12.2959 557.521 13.8366 557.521 15.7197C557.521 17.505 558.059 18.9723 559.158 20.1461C560.257 21.3201 561.65 21.9314 563.311 21.9314C564.581 21.9314 565.681 21.5401 566.609 20.7576C566.927 21.1978 567.513 21.6869 567.806 21.6869H569.467V21.369L569.394 21.1488C569.296 20.9043 569.198 19.9016 569.198 18.6299ZM566.414 18.7766C565.754 19.2902 564.948 19.5348 563.995 19.5348C561.821 19.5348 560.453 17.9452 560.453 15.6708C560.453 13.2986 561.845 11.7089 564.191 11.7089C565.021 11.7089 565.778 11.8801 566.414 12.2225V18.7766Z" fill="#6B6B6B"/>
<path d="M576.771 14.4724C576.039 14.1789 575.598 13.9588 575.403 13.861C574.768 13.5431 574.426 13.1518 574.426 12.7605C574.426 12.0268 575.11 11.5866 576.258 11.5866C577.26 11.5866 578.041 11.8556 578.603 12.4181C578.799 12.4181 579.117 12.198 579.507 11.8067C579.898 11.4154 580.118 11.073 580.118 10.9018C579.117 9.85026 577.797 9.33667 576.185 9.33667C573.302 9.33667 571.837 10.6573 571.837 12.9072C571.837 14.7169 572.765 15.5974 575.355 16.6734L576.771 17.2848C577.553 17.6272 577.919 18.0429 577.919 18.4343C577.919 19.2168 577.088 19.7059 575.867 19.7059C574.743 19.7059 573.791 19.3391 573.083 18.6054C572.887 18.6054 572.569 18.8255 572.154 19.2413C571.739 19.6815 571.543 19.9994 571.543 20.1706C572.692 21.32 574.182 21.9069 575.965 21.9069C578.872 21.9069 580.533 20.5374 580.533 18.312C580.533 17.4071 580.24 16.6734 579.678 16.1598C579.141 15.6463 578.139 15.0594 576.771 14.4724Z" fill="#6B6B6B"/>
<path d="M590.305 19.4617C589.962 19.0949 589.67 18.8992 589.474 18.8992C589.01 19.3638 588.423 19.5595 587.642 19.5595C586.763 19.5595 586.298 19.0704 586.298 18.1411V11.7825H590.182V9.58151H586.298V5.15503H585.516L583.685 6.15772V9.58151H582.365C582.17 9.58151 581.926 9.70385 581.656 9.97282C581.388 10.2419 581.266 10.4864 581.266 10.6821C581.266 10.8777 581.388 11.0734 581.656 11.3913C581.95 11.6603 582.17 11.7825 582.365 11.7825H583.514V18.6302C583.514 20.8312 584.686 21.9317 587.031 21.9317C588.472 21.9317 589.743 21.3937 590.842 20.2932C590.866 20.0976 590.671 19.8041 590.305 19.4617Z" fill="#6B6B6B"/>
<path d="M601.859 18.6301V13.5433C601.859 10.7798 600.223 9.31238 597.022 9.31238C595.093 9.31238 593.505 9.89934 592.283 11.1221C592.283 11.3667 592.503 11.6846 592.918 12.1248C593.358 12.5161 593.675 12.7362 593.895 12.7362C594.677 11.9781 595.63 11.6113 596.778 11.6113C598.195 11.6113 599.099 12.3204 599.099 13.6167V14.546C598.488 14.4726 597.926 14.4481 597.389 14.4481C593.871 14.4481 591.99 15.8666 591.99 18.3855C591.99 20.6599 593.627 21.9316 595.996 21.9316C597.291 21.9316 598.39 21.5403 599.27 20.7333C599.612 21.198 600.198 21.7115 600.515 21.7115H602.177V21.3936L602.103 21.1735C601.957 20.9044 601.859 19.9018 601.859 18.6301ZM599.099 18.7279C598.464 19.3638 597.657 19.7061 596.68 19.7061C595.386 19.7061 594.751 19.1926 594.751 18.1654C594.751 17.016 595.63 16.4535 597.413 16.4535C597.975 16.4535 598.537 16.5024 599.099 16.5758V18.7279Z" fill="#6B6B6B"/>
<path d="M614.708 19.2415C614.293 18.8502 613.976 18.6301 613.781 18.6301C613.096 19.217 612.168 19.5105 610.898 19.5105C608.504 19.5105 607.136 17.9209 607.136 15.6464C607.136 13.2987 608.528 11.7091 610.8 11.7091C611.704 11.7091 612.388 11.9292 612.852 12.3204V13.5922C612.852 13.7878 612.974 13.9835 613.291 14.3014C613.585 14.5704 613.805 14.6927 613.976 14.6927C614.171 14.6927 614.367 14.5704 614.635 14.3014C614.928 14.0079 615.075 13.7878 615.075 13.5922V11.2444C615.075 10.8531 614.635 10.4129 613.805 9.97272C612.974 9.50803 611.973 9.31238 610.8 9.31238C608.895 9.31238 607.307 9.89934 606.11 11.0977C604.888 12.2716 604.277 13.7878 604.277 15.622C604.277 17.4807 604.888 18.9724 606.11 20.1708C607.307 21.3447 608.895 21.9561 610.849 21.9561C612.73 21.9561 614.269 21.3691 615.417 20.2197C615.344 19.9751 615.124 19.6328 614.708 19.2415Z" fill="#6B6B6B"/>
<path d="M623.869 15.4506L627.729 10.9752C627.729 10.7551 627.461 10.4372 626.923 9.97255C626.41 9.50786 626.044 9.31221 625.824 9.31221L621.573 14.2034L620.498 14.3501V3.14934C620.498 2.9537 620.376 2.75805 620.058 2.48903C619.79 2.19556 619.57 2.04883 619.374 2.04883H616.736C616.541 2.04883 616.345 2.17111 616.028 2.48903C615.759 2.75805 615.637 2.97815 615.637 3.14934C615.637 3.32053 615.759 3.54063 616.028 3.85856C616.321 4.12758 616.541 4.24985 616.736 4.24985H617.714V21.6869H620.474V16.7712L621.476 16.649L626.092 21.9559C626.312 21.9559 626.679 21.7113 627.192 21.2467C627.704 20.7576 627.973 20.4152 627.973 20.1951L623.869 15.4506Z" fill="#6B6B6B"/>
</g>
<g clip-path="url(#clip4_305_201)">
<path d="M707.249 14.0317C705.587 14.0317 703.926 14.0317 702.239 14.0317C703.083 12.6249 703.901 11.2179 704.744 9.81111C705.562 11.2179 706.406 12.6249 707.249 14.0317ZM711.638 3.48041C710.894 2.94679 710.2 2.60721 709.803 2.43741C707.72 1.46719 705.314 2.04933 704.124 3.91701L704.05 4.03829L703.95 4.18383C703.901 4.28085 703.851 4.32936 703.851 4.35362C703.802 4.42638 703.777 4.47489 703.777 4.49915C701.967 7.70091 700.057 10.8542 698.173 14.0317C698.073 14.0317 697.974 14.0317 697.85 14.0317C697.726 14.0317 697.553 14.0074 697.379 13.9347C697.33 13.9104 697.255 13.8861 697.206 13.8619L697.181 13.8376C696.561 13.498 696.362 12.7461 696.71 12.164L698.049 9.90814L701.595 3.96553C702.363 2.51019 703.727 1.39442 705.339 0.909309C706.306 0.618236 707.199 0.642492 707.199 0.642492C707.323 0.642492 707.794 0.642492 708.265 0.666748C708.488 0.666748 708.786 0.715259 709.183 0.76377C707.323 0.0360987 705.81 -0.0366685 704.893 0.0118429C698.941 0.2544 693.808 5.95449 693.188 11.3877C693.089 12.3095 693.139 13.0371 693.188 13.4495C693.362 15.681 695.073 17.4517 697.354 17.5002H697.503H697.702C697.801 17.5002 697.9 17.5002 697.9 17.5002C697.999 17.5002 698.049 17.5002 698.073 17.5002C701.818 17.4517 705.562 17.4759 709.332 17.4759C709.381 17.5487 709.431 17.6457 709.48 17.7428C709.53 17.8398 709.604 18.0096 709.629 18.1794C709.629 18.2522 709.629 18.3007 709.629 18.3735V18.3977C709.629 19.0768 709.059 19.6347 708.365 19.6347H705.662H698.619C696.958 19.7318 695.271 19.1496 694.031 18.0096C693.288 17.3304 692.866 16.5785 692.866 16.5785C692.816 16.4815 692.568 16.0934 692.37 15.6567C692.271 15.4628 692.147 15.1959 691.998 14.8321C692.271 16.7726 692.965 18.0824 693.461 18.8343C696.66 23.7097 704.298 25.2135 709.431 23.0062C710.299 22.6425 710.919 22.2301 711.266 21.9875C713.15 20.702 713.87 18.3735 712.778 16.433L712.704 16.3117L712.605 16.1661C712.58 16.0691 712.53 15.9963 712.53 15.9963C712.481 15.9236 712.456 15.8751 712.456 15.8508C710.522 12.7218 708.687 9.54437 706.802 6.36684C706.852 6.26982 706.901 6.19705 706.951 6.10003C707.001 6.00301 707.125 5.85747 707.273 5.73619C707.323 5.68768 707.373 5.66343 707.422 5.63917L707.447 5.61491C708.067 5.27534 708.836 5.46938 709.183 6.07577L710.522 8.33156L714.043 14.2742C714.961 15.6567 715.258 17.3547 714.886 18.9555C714.663 19.9258 714.192 20.6535 714.192 20.6777C714.142 20.7747 713.894 21.1629 713.622 21.5751C713.498 21.7692 713.299 22.0118 713.076 22.2786C714.663 21.0658 715.457 19.8288 715.903 19.0283C718.631 13.9104 716.151 6.70642 711.638 3.48041Z" fill="#6B6B6B"/>
<path d="M733.981 2.89868V19.3441H732.369L731.501 18.2525C730.98 18.6891 730.36 19.0287 729.641 19.2713C728.947 19.5139 728.302 19.6108 727.732 19.6108C726.045 19.6108 724.756 19.0287 723.863 17.8887C722.97 16.7487 722.499 15.3176 722.499 13.6197C722.499 11.9218 722.97 10.4907 723.938 9.32641C724.905 8.18643 726.219 7.60429 727.88 7.60429C728.302 7.60429 728.798 7.67706 729.343 7.84685C729.889 7.99238 730.385 8.18643 730.856 8.45324V3.16549L733.981 2.89868ZM728.575 10.1754C727.484 10.1754 726.74 10.5393 726.318 11.2911C725.897 12.0431 725.698 12.795 725.698 13.5955C725.698 14.4687 725.897 15.2691 726.269 15.9725C726.64 16.6759 727.409 17.0155 728.575 17.0155C728.947 17.0155 729.319 16.9427 729.715 16.7729C730.137 16.6032 730.509 16.4091 730.856 16.1908V11.0001C730.509 10.7576 730.137 10.5635 729.715 10.418C729.319 10.2724 728.947 10.1754 728.575 10.1754Z" fill="#6B6B6B"/>
<path d="M744.792 12.5525C744.644 11.8005 744.346 11.2426 743.924 10.8789C743.503 10.515 743.007 10.3209 742.387 10.3209C741.742 10.3209 741.221 10.515 740.8 10.9031C740.378 11.2669 740.106 11.8248 739.957 12.5525H744.792ZM743.106 19.6109C741.097 19.6109 739.535 19.0773 738.37 18.01C737.229 16.9428 736.659 15.5117 736.659 13.6925C736.659 11.8976 737.179 10.4422 738.196 9.35075C739.238 8.25922 740.676 7.72559 742.461 7.72559C744.272 7.72559 745.586 8.30772 746.429 9.49629C747.297 10.6605 747.718 12.0431 747.718 13.644V14.5657H739.932C740.081 15.3177 740.428 15.8997 740.973 16.3606C741.519 16.7973 742.263 17.0155 743.156 17.0155C743.676 17.0155 744.148 16.9428 744.569 16.8215C744.991 16.676 745.487 16.4819 746.057 16.2393L746.95 18.4224C746.404 18.8347 745.759 19.1258 744.966 19.2956C744.222 19.5139 743.577 19.6109 743.106 19.6109Z" fill="#6B6B6B"/>
<path d="M753.372 2.89868V19.3441H750.297V3.16549L753.372 2.89868Z" fill="#6B6B6B"/>
<path d="M763.663 19.1015C763.415 19.2956 763.043 19.4654 762.572 19.5866C762.101 19.7321 761.704 19.8049 761.332 19.8049C759.894 19.8049 758.778 19.4654 757.96 18.7619C757.142 18.0586 756.745 17.0398 756.745 15.73V10.3937H755.207V8.06516H756.745V5.39703L759.82 4.8634V8.06516H761.903L762.845 10.3937H759.795V15.1963C759.795 15.7785 759.944 16.2636 760.216 16.6516C760.514 17.0155 760.911 17.2096 761.481 17.2096C761.679 17.2096 761.903 17.1853 762.101 17.1368C762.299 17.0883 762.523 17.0155 762.746 16.8942L763.663 19.1015Z" fill="#6B6B6B"/>
<path d="M769.243 19.6109C767.829 19.6109 766.788 19.2713 766.093 18.6164C765.399 17.9372 765.077 17.0398 765.077 15.9725C765.077 14.8082 765.473 13.9108 766.292 13.3043C767.11 12.6737 768.152 12.3827 769.466 12.3827H771.722C771.698 11.8005 771.524 11.3639 771.202 11.0486C770.879 10.7333 770.433 10.5635 769.863 10.5635C769.317 10.5635 768.747 10.6362 768.102 10.806C767.457 10.9516 766.936 11.1214 766.515 11.3154L765.672 8.79277C766.118 8.50172 766.788 8.25917 767.705 8.06512C768.623 7.87108 769.342 7.77405 769.813 7.77405C771.202 7.77405 772.367 8.16215 773.359 8.96257C774.351 9.7388 774.847 10.7333 774.847 11.946V19.3683H773.26L772.491 18.4223C772.07 18.7376 771.549 19.0287 770.979 19.2955C770.383 19.4896 769.813 19.6109 769.243 19.6109ZM767.73 15.9725C767.73 16.2878 767.854 16.6031 768.127 16.8457C768.4 17.0883 768.747 17.2095 769.193 17.2095C769.615 17.2095 770.061 17.1125 770.483 16.9185C770.929 16.7244 771.351 16.4576 771.747 16.0695V14.3473H769.416C768.871 14.3473 768.449 14.5171 768.152 14.8325C767.879 15.1963 767.73 15.5602 767.73 15.9725Z" fill="#6B6B6B"/>
<path d="M778.27 15.9482C778.765 15.9482 779.162 16.118 779.484 16.4334C779.806 16.7487 779.98 17.161 779.98 17.6462C779.98 18.1313 779.806 18.5194 779.484 18.8589C779.162 19.1743 778.765 19.3441 778.27 19.3441C777.773 19.3441 777.352 19.1743 777.004 18.8589C776.682 18.5437 776.509 18.1313 776.509 17.6462C776.509 17.161 776.682 16.773 777.004 16.4334C777.352 16.0938 777.773 15.9482 778.27 15.9482Z" fill="#6B6B6B"/>
<path d="M788.908 19.1015C788.659 19.2956 788.288 19.4654 787.816 19.5866C787.345 19.7321 786.948 19.8049 786.576 19.8049C785.138 19.8049 784.022 19.4654 783.204 18.7619C782.385 18.0586 781.989 17.0398 781.989 15.73V10.3937H780.451V8.06516H781.989V5.39703L785.064 4.8634V8.06516H787.147L788.089 10.3937H785.039V15.1963C785.039 15.7785 785.188 16.2636 785.46 16.6516C785.758 17.0155 786.154 17.2096 786.725 17.2096C786.923 17.2096 787.147 17.1853 787.345 17.1368C787.544 17.0883 787.767 17.0155 787.99 16.8942L788.908 19.1015Z" fill="#6B6B6B"/>
<path d="M793.892 8.79283C794.387 8.40473 794.983 8.11366 795.627 7.91962C796.297 7.72557 796.892 7.62855 797.413 7.62855C798.975 7.62855 800.091 8.0894 800.736 8.98689C801.405 9.88432 801.728 11.0001 801.728 12.2856V19.3683H798.628V12.4069C798.628 11.7035 798.454 11.1456 798.107 10.7818C797.76 10.3937 797.239 10.1997 796.569 10.1997C796.124 10.1997 795.677 10.3209 795.181 10.5393C794.71 10.7576 794.264 11.0243 793.867 11.3154V19.3441H790.792V3.16549L793.867 2.89868V8.79283H793.892Z" fill="#6B6B6B"/>
<path d="M812.291 12.5525C812.143 11.8005 811.845 11.2426 811.424 10.8789C811.002 10.515 810.506 10.3209 809.886 10.3209C809.241 10.3209 808.72 10.515 808.299 10.9031C807.878 11.2669 807.604 11.8248 807.456 12.5525H812.291ZM810.605 19.6109C808.597 19.6109 807.034 19.0773 805.869 18.01C804.728 16.9428 804.158 15.5117 804.158 13.6925C804.158 11.8976 804.679 10.4422 805.695 9.35075C806.737 8.25922 808.175 7.72559 809.961 7.72559C811.771 7.72559 813.085 8.30772 813.928 9.49629C814.796 10.6605 815.217 12.0431 815.217 13.644V14.5657H807.431C807.579 15.3177 807.927 15.8997 808.473 16.3606C809.018 16.7973 809.762 17.0155 810.655 17.0155C811.175 17.0155 811.647 16.9428 812.068 16.8215C812.49 16.676 812.985 16.4819 813.556 16.2393L814.449 18.4224C813.903 18.8347 813.259 19.1258 812.465 19.2956C811.721 19.5139 811.101 19.6109 810.605 19.6109Z" fill="#6B6B6B"/>
<path d="M824.789 19.1015C824.541 19.2956 824.169 19.4654 823.698 19.5866C823.227 19.7321 822.831 19.8049 822.459 19.8049C821.02 19.8049 819.904 19.4654 819.086 18.7619C818.268 18.0586 817.871 17.0398 817.871 15.73V10.3937H816.333V8.06516H817.871V5.39703L820.946 4.8634V8.06516H823.029L823.971 10.3937H820.946V15.1963C820.946 15.7785 821.095 16.2636 821.367 16.6516C821.665 17.0155 822.062 17.2096 822.632 17.2096C822.831 17.2096 823.053 17.1853 823.252 17.1368C823.45 17.0883 823.674 17.0155 823.897 16.8942L824.789 19.1015Z" fill="#6B6B6B"/>
<path d="M830.394 19.6109C828.981 19.6109 827.939 19.2713 827.244 18.6164C826.55 17.9372 826.228 17.0398 826.228 15.9725C826.228 14.8082 826.624 13.9108 827.443 13.3043C828.262 12.6737 829.303 12.3827 830.617 12.3827H832.874C832.849 11.8005 832.675 11.3639 832.353 11.0486C832.03 10.7333 831.584 10.5635 831.014 10.5635C830.468 10.5635 829.898 10.6362 829.253 10.806C828.609 10.9516 828.088 11.1214 827.666 11.3154L826.823 8.79277C827.269 8.50172 827.939 8.25917 828.856 8.06512C829.774 7.87108 830.493 7.77405 830.964 7.77405C832.353 7.77405 833.518 8.16215 834.51 8.96257C835.502 9.7388 835.998 10.7333 835.998 11.946V19.3683H834.411L833.643 18.4223C833.221 18.7376 832.7 19.0287 832.13 19.2955C831.534 19.4896 830.964 19.6109 830.394 19.6109ZM828.881 15.9725C828.881 16.2878 829.006 16.6031 829.278 16.8457C829.551 17.0883 829.898 17.2095 830.344 17.2095C830.766 17.2095 831.212 17.1125 831.634 16.9185C832.08 16.7244 832.502 16.4576 832.899 16.0695V14.3473H830.567C830.022 14.3473 829.6 14.5171 829.303 14.8325C829.006 15.1963 828.881 15.5602 828.881 15.9725Z" fill="#6B6B6B"/>
</g>
<g clip-path="url(#clip5_305_201)">
<path d="M902.414 9.50096L901.777 10.1485L902.414 10.796L908.273 16.757L908.854 17.3483L908.93 17.4253L909.49 17.9958L913.004 21.5706L913.661 22.2389L914.318 21.5706L921.59 14.1721L923.224 15.8347L923.881 16.5031L924.538 15.8347L925.851 14.499L926.487 13.8514L925.851 13.2039L920.046 7.29813L919.389 6.62969V6.62976L918.81 6.04102L915.26 2.42938L914.603 1.76099L913.947 2.42938L906.675 9.82785L905.041 8.16526L904.384 7.49683L903.727 8.16526L902.414 9.50096ZM911.536 14.7737L911.46 14.6966L910.899 14.1262L909.513 12.7152L914.835 7.30003L916.183 8.67179L916.84 9.34022V9.34016L917.419 9.92889L918.752 11.2847L913.429 16.6999L912.117 15.365L911.536 14.7737Z" stroke="#6B6B6B" stroke-width="3"/>
<path d="M942.753 17.883V16.1342H939.717V5.57312H934.635V7.32186H937.671V16.1342H934.635V17.883H942.753Z" fill="#6B6B6B"/>
<path d="M948.205 8.71069C946.926 8.71069 945.902 9.13931 945.101 10.0137C944.299 10.888 943.89 12.0024 943.89 13.3912C943.89 14.7799 944.299 15.8943 945.101 16.7687C945.902 17.6431 946.926 18.0717 948.205 18.0717C949.484 18.0717 950.524 17.6431 951.326 16.7687C952.128 15.8943 952.52 14.7799 952.52 13.3912C952.52 12.0024 952.128 10.888 951.326 10.0137C950.524 9.13931 949.484 8.71069 948.205 8.71069ZM948.205 10.4423C948.904 10.4423 949.45 10.6995 949.859 11.2309C950.252 11.7624 950.456 12.4825 950.456 13.3912C950.456 14.2999 950.252 15.0199 949.859 15.5514C949.45 16.0829 948.904 16.34 948.205 16.34C947.506 16.34 946.96 16.0829 946.567 15.5514C946.158 15.0199 945.953 14.2999 945.953 13.3912C945.953 12.4825 946.158 11.7624 946.567 11.2309C946.96 10.6995 947.506 10.4423 948.205 10.4423Z" fill="#6B6B6B"/>
<path d="M958.117 18.0717C959.277 18.0717 960.232 17.7973 960.999 17.2316C961.767 16.6829 962.142 15.9629 962.142 15.0885C962.142 14.6256 962.04 14.2141 961.818 13.8884C961.596 13.5626 961.255 13.2883 960.812 13.0655C960.59 12.9626 960.334 12.8768 960.044 12.7911C959.754 12.7054 959.191 12.5854 958.321 12.414C957.383 12.2253 956.803 12.0711 956.582 11.9167C956.343 11.7796 956.224 11.591 956.224 11.3681C956.224 11.0767 956.377 10.8366 956.667 10.648C956.957 10.4766 957.366 10.3909 957.861 10.3909C958.441 10.3909 958.953 10.4937 959.413 10.7166C959.874 10.9395 960.232 11.2481 960.522 11.6596L962.023 10.4423C961.631 9.91082 961.084 9.4822 960.385 9.17359C959.686 8.86497 958.901 8.71069 958.066 8.71069C956.923 8.71069 956.002 8.96786 955.285 9.49937C954.569 10.0308 954.211 10.7166 954.211 11.5567C954.211 12.2596 954.45 12.8082 954.927 13.2026C955.405 13.6141 956.275 13.9227 957.554 14.1284C958.1 14.2141 958.458 14.2827 958.628 14.2999C958.799 14.3341 958.935 14.3684 959.055 14.4027C959.43 14.4884 959.703 14.6085 959.856 14.7456C960.01 14.8999 960.078 15.0885 960.078 15.3456C960.078 15.6714 959.908 15.9114 959.567 16.1C959.225 16.2886 958.782 16.3915 958.253 16.3915C957.639 16.3915 957.059 16.2543 956.514 15.98C955.968 15.7229 955.541 15.3628 955.234 14.917L953.614 16.1C954.04 16.7001 954.671 17.1802 955.473 17.5402C956.275 17.9002 957.162 18.0717 958.117 18.0717Z" fill="#6B6B6B"/>
<path d="M967.79 18.0717C968.95 18.0717 969.905 17.7973 970.672 17.2316C971.44 16.6829 971.815 15.9629 971.815 15.0885C971.815 14.6256 971.713 14.2141 971.491 13.8884C971.269 13.5626 970.928 13.2883 970.485 13.0655C970.263 12.9626 970.007 12.8768 969.717 12.7911C969.427 12.7054 968.865 12.5854 967.995 12.414C967.057 12.2253 966.477 12.0711 966.255 11.9167C966.016 11.7796 965.897 11.591 965.897 11.3681C965.897 11.0767 966.05 10.8366 966.34 10.648C966.63 10.4766 967.04 10.3909 967.534 10.3909C968.114 10.3909 968.626 10.4937 969.086 10.7166C969.547 10.9395 969.905 11.2481 970.195 11.6596L971.696 10.4423C971.303 9.91082 970.758 9.4822 970.058 9.17359C969.359 8.86497 968.575 8.71069 967.739 8.71069C966.596 8.71069 965.675 8.96786 964.959 9.49937C964.242 10.0308 963.884 10.7166 963.884 11.5567C963.884 12.2596 964.123 12.8082 964.601 13.2026C965.078 13.6141 965.948 13.9227 967.227 14.1284C967.773 14.2141 968.131 14.2827 968.302 14.2999C968.472 14.3341 968.609 14.3684 968.728 14.4027C969.103 14.4884 969.376 14.6085 969.53 14.7456C969.683 14.8999 969.752 15.0885 969.752 15.3456C969.752 15.6714 969.581 15.9114 969.24 16.1C968.899 16.2886 968.455 16.3915 967.926 16.3915C967.312 16.3915 966.732 16.2543 966.187 15.98C965.641 15.7229 965.215 15.3628 964.907 14.917L963.287 16.1C963.714 16.7001 964.345 17.1802 965.146 17.5402C965.948 17.9002 966.835 18.0717 967.79 18.0717Z" fill="#6B6B6B"/>
<path d="M981.037 17.7663V16.0175H978.002V5.45642H972.919V7.20516H975.955V16.0175H972.919V17.7663H981.037Z" fill="#6B6B6B"/>
<path d="M986.656 18.0717C987.594 18.0717 988.413 17.8488 989.112 17.4031C989.811 16.9573 990.34 16.34 990.664 15.5514L988.942 14.8828C988.788 15.3456 988.515 15.6885 988.123 15.9457C987.731 16.2029 987.236 16.3229 986.673 16.3229C985.974 16.3229 985.394 16.1 984.933 15.6543C984.473 15.2085 984.2 14.6085 984.115 13.837H990.715V13.1512C990.715 11.8139 990.34 10.7338 989.607 9.92799C988.856 9.12214 987.85 8.71069 986.571 8.71069C985.292 8.71069 984.217 9.15642 983.382 10.048C982.546 10.9395 982.119 12.0539 982.119 13.3912C982.119 14.7799 982.546 15.8943 983.382 16.7687C984.217 17.6431 985.309 18.0717 986.656 18.0717ZM986.571 10.4423C987.202 10.4423 987.713 10.6138 988.089 10.9395C988.447 11.2824 988.635 11.7282 988.652 12.2939H984.234C984.388 11.6938 984.66 11.2481 985.07 10.9223C985.48 10.5966 985.974 10.4423 986.571 10.4423Z" fill="#6B6B6B"/>
<path d="M996.348 18.0717C997.508 18.0717 998.463 17.7973 999.23 17.2316C999.998 16.6829 1000.37 15.9629 1000.37 15.0885C1000.37 14.6256 1000.27 14.2141 1000.05 13.8884C999.827 13.5626 999.486 13.2883 999.043 13.0655C998.821 12.9626 998.565 12.8768 998.275 12.7911C997.985 12.7054 997.422 12.5854 996.552 12.414C995.614 12.2253 995.034 12.0711 994.813 11.9167C994.574 11.7796 994.455 11.591 994.455 11.3681C994.455 11.0767 994.608 10.8366 994.898 10.648C995.188 10.4766 995.597 10.3909 996.092 10.3909C996.672 10.3909 997.183 10.4937 997.644 10.7166C998.105 10.9395 998.463 11.2481 998.753 11.6596L1000.25 10.4423C999.861 9.91082 999.316 9.4822 998.616 9.17359C997.917 8.86497 997.132 8.71069 996.297 8.71069C995.154 8.71069 994.233 8.96786 993.516 9.49937C992.8 10.0308 992.442 10.7166 992.442 11.5567C992.442 12.2596 992.681 12.8082 993.158 13.2026C993.636 13.6141 994.506 13.9227 995.785 14.1284C996.331 14.2141 996.689 14.2827 996.859 14.2999C997.03 14.3341 997.167 14.3684 997.286 14.4027C997.661 14.4884 997.934 14.6085 998.087 14.7456C998.241 14.8999 998.309 15.0885 998.309 15.3456C998.309 15.6714 998.139 15.9114 997.798 16.1C997.456 16.2886 997.013 16.3915 996.484 16.3915C995.87 16.3915 995.291 16.2543 994.744 15.98C994.199 15.7229 993.772 15.3628 993.465 14.917L991.845 16.1C992.271 16.7001 992.903 17.1802 993.704 17.5402C994.506 17.9002 995.393 18.0717 996.348 18.0717Z" fill="#6B6B6B"/>
<path d="M1005.97 18.0717C1007.13 18.0717 1008.09 17.7973 1008.86 17.2316C1009.62 16.6829 1010 15.9629 1010 15.0885C1010 14.6256 1009.9 14.2141 1009.67 13.8884C1009.45 13.5626 1009.11 13.2883 1008.67 13.0655C1008.45 12.9626 1008.19 12.8768 1007.9 12.7911C1007.61 12.7054 1007.05 12.5854 1006.18 12.414C1005.24 12.2253 1004.66 12.0711 1004.44 11.9167C1004.2 11.7796 1004.08 11.591 1004.08 11.3681C1004.08 11.0767 1004.23 10.8366 1004.52 10.648C1004.81 10.4766 1005.22 10.3909 1005.72 10.3909C1006.3 10.3909 1006.81 10.4937 1007.27 10.7166C1007.73 10.9395 1008.09 11.2481 1008.38 11.6596L1009.88 10.4423C1009.49 9.91082 1008.94 9.4822 1008.24 9.17359C1007.54 8.86497 1006.76 8.71069 1005.92 8.71069C1004.78 8.71069 1003.86 8.96786 1003.14 9.49937C1002.42 10.0308 1002.07 10.7166 1002.07 11.5567C1002.07 12.2596 1002.31 12.8082 1002.78 13.2026C1003.26 13.6141 1004.13 13.9227 1005.41 14.1284C1005.96 14.2141 1006.31 14.2827 1006.48 14.2999C1006.66 14.3341 1006.79 14.3684 1006.91 14.4027C1007.29 14.4884 1007.56 14.6085 1007.71 14.7456C1007.87 14.8999 1007.93 15.0885 1007.93 15.3456C1007.93 15.6714 1007.76 15.9114 1007.42 16.1C1007.08 16.2886 1006.64 16.3915 1006.11 16.3915C1005.49 16.3915 1004.92 16.2543 1004.37 15.98C1003.82 15.7229 1003.4 15.3628 1003.09 14.917L1001.47 16.1C1001.9 16.7001 1002.53 17.1802 1003.33 17.5402C1004.13 17.9002 1005.02 18.0717 1005.97 18.0717Z" fill="#6B6B6B"/>
</g>
<g clip-path="url(#clip6_305_201)">
<path d="M1113.99 9.44761C1113.99 9.2239 1114.08 9.01049 1114.24 8.85228C1114.4 8.69407 1114.61 8.60338 1114.84 8.59928H1115.04C1115.2 8.59974 1115.36 8.642 1115.5 8.72199C1115.64 8.80198 1115.76 8.91699 1115.84 9.05592L1121.29 17.2344L1126.73 9.05592C1126.81 8.91571 1126.93 8.79966 1127.07 8.71949C1127.21 8.63932 1127.37 8.59785 1127.53 8.59928H1127.73C1127.96 8.60338 1128.17 8.69407 1128.33 8.85228C1128.49 9.01049 1128.58 9.2239 1128.58 9.44761V23.1298C1128.58 23.3569 1128.49 23.5752 1128.34 23.7377C1128.18 23.9003 1127.96 23.9941 1127.73 23.9991C1127.5 23.995 1127.28 23.9021 1127.12 23.74C1126.96 23.5779 1126.87 23.3591 1126.86 23.1298V11.7738L1121.99 18.9301C1121.91 19.0592 1121.81 19.1673 1121.68 19.2438C1121.56 19.3202 1121.41 19.3623 1121.27 19.3658C1121.12 19.3626 1120.97 19.3209 1120.84 19.2446C1120.71 19.1684 1120.6 19.06 1120.53 18.9301L1115.67 11.7957V23.1508C1115.68 23.2632 1115.66 23.3753 1115.62 23.4804C1115.58 23.5854 1115.52 23.6812 1115.44 23.7622C1115.36 23.8431 1115.27 23.9075 1115.16 23.9514C1115.06 23.9954 1114.95 24.018 1114.83 24.018C1114.72 24.018 1114.61 23.9954 1114.51 23.9514C1114.4 23.9075 1114.31 23.8431 1114.23 23.7622C1114.15 23.6812 1114.09 23.5854 1114.05 23.4804C1114.01 23.3753 1113.99 23.2632 1114 23.1508L1113.99 9.44761Z" fill="#6B6B6B"/>
<path d="M1137.39 9.4256C1137.39 9.1977 1137.48 8.97912 1137.64 8.81797C1137.8 8.65682 1138.02 8.56628 1138.25 8.56628C1138.48 8.56628 1138.7 8.65682 1138.86 8.81797C1139.02 8.97912 1139.11 9.1977 1139.11 9.4256V23.1298C1139.11 23.3577 1139.02 23.5762 1138.86 23.7374C1138.7 23.8985 1138.48 23.9891 1138.25 23.9891C1138.02 23.9891 1137.8 23.8985 1137.64 23.7374C1137.48 23.5762 1137.39 23.3577 1137.39 23.1298V9.4256Z" fill="#6B6B6B"/>
<path d="M1147.93 9.44749C1147.93 9.22378 1148.02 9.01038 1148.18 8.85217C1148.34 8.69395 1148.55 8.60326 1148.78 8.59916H1149.02C1149.19 8.60336 1149.36 8.65126 1149.51 8.73852C1149.67 8.82578 1149.79 8.94962 1149.89 9.09877L1159.14 20.8894V9.40353C1159.13 9.29107 1159.15 9.17897 1159.19 9.07393C1159.23 8.96889 1159.29 8.87305 1159.37 8.79212C1159.45 8.71119 1159.55 8.64683 1159.65 8.60287C1159.75 8.55891 1159.86 8.53625 1159.98 8.53625C1160.09 8.53625 1160.2 8.55891 1160.3 8.60287C1160.41 8.64683 1160.5 8.71119 1160.58 8.79212C1160.66 8.87305 1160.72 8.96889 1160.76 9.07393C1160.8 9.17897 1160.82 9.29107 1160.82 9.40353V23.1506C1160.82 23.2558 1160.8 23.3607 1160.76 23.459C1160.73 23.5573 1160.67 23.6469 1160.6 23.7223C1160.52 23.7977 1160.44 23.8573 1160.34 23.8975C1160.24 23.9377 1160.14 23.9576 1160.03 23.956H1159.94C1159.77 23.9424 1159.59 23.8882 1159.44 23.7977C1159.28 23.7071 1159.15 23.5825 1159.05 23.4334L1149.6 11.361V23.1516C1149.6 23.2616 1149.58 23.3705 1149.54 23.4721C1149.5 23.5737 1149.44 23.666 1149.36 23.7437C1149.28 23.8215 1149.19 23.8832 1149.09 23.9252C1148.98 23.9673 1148.88 23.989 1148.76 23.989C1148.65 23.989 1148.55 23.9673 1148.44 23.9252C1148.34 23.8832 1148.25 23.8215 1148.17 23.7437C1148.09 23.666 1148.03 23.5737 1147.99 23.4721C1147.95 23.3705 1147.93 23.2616 1147.93 23.1516V9.44749Z" fill="#6B6B6B"/>
<path d="M1169.63 9.42561C1169.63 9.31037 1169.65 9.1955 1169.69 9.08787C1169.73 8.98024 1169.79 8.88205 1169.87 8.79913C1169.95 8.71621 1170.05 8.65027 1170.16 8.60523C1170.26 8.5602 1170.38 8.53699 1170.49 8.53699C1170.61 8.53699 1170.72 8.5602 1170.83 8.60523C1170.93 8.65027 1171.03 8.71621 1171.11 8.79913C1171.19 8.88205 1171.25 8.98024 1171.29 9.08787C1171.34 9.1955 1171.36 9.31037 1171.35 9.42561V23.1298C1171.36 23.245 1171.34 23.3599 1171.29 23.4675C1171.25 23.5751 1171.19 23.6733 1171.11 23.7562C1171.03 23.8392 1170.93 23.9051 1170.83 23.9501C1170.72 23.9952 1170.61 24.0184 1170.49 24.0184C1170.38 24.0184 1170.26 23.9952 1170.16 23.9501C1170.05 23.9051 1169.95 23.8392 1169.87 23.7562C1169.79 23.6733 1169.73 23.5751 1169.69 23.4675C1169.65 23.3599 1169.63 23.245 1169.63 23.1298V9.42561Z" fill="#6B6B6B"/>
<path d="M1180.17 9.44758C1180.18 9.22387 1180.27 9.01047 1180.43 8.85226C1180.58 8.69404 1180.8 8.60335 1181.02 8.59925H1181.22C1181.38 8.60055 1181.54 8.64322 1181.68 8.72318C1181.82 8.80313 1181.94 8.9177 1182.02 9.05589L1187.47 17.2344L1192.91 9.05589C1192.99 8.91636 1193.11 8.80072 1193.25 8.72057C1193.39 8.64042 1193.55 8.59858 1193.71 8.59925H1193.91C1194.13 8.6031 1194.34 8.69372 1194.5 8.85198C1194.66 9.01025 1194.75 9.22379 1194.76 9.44758V23.1297C1194.76 23.3569 1194.67 23.5752 1194.51 23.7377C1194.35 23.9003 1194.13 23.9941 1193.91 23.9991C1193.68 23.9947 1193.46 23.9017 1193.3 23.7396C1193.13 23.5775 1193.04 23.3589 1193.04 23.1297V11.7737L1188.16 18.9301C1188.09 19.0591 1187.99 19.1673 1187.86 19.2438C1187.73 19.3202 1187.59 19.3623 1187.44 19.3657C1187.29 19.3626 1187.14 19.3209 1187.01 19.2446C1186.89 19.1683 1186.78 19.06 1186.7 18.9301L1181.85 11.7957V23.1507C1181.85 23.3728 1181.76 23.5858 1181.6 23.7428C1181.44 23.8998 1181.23 23.9881 1181.01 23.9881C1180.79 23.9881 1180.57 23.8998 1180.42 23.7428C1180.26 23.5858 1180.17 23.3728 1180.17 23.1507L1180.17 9.44758Z" fill="#6B6B6B"/>
<path d="M1202.48 22.76L1208.67 9.25166C1208.74 9.02562 1208.89 8.82992 1209.08 8.69299C1209.28 8.55607 1209.51 8.48505 1209.75 8.49026H1209.84C1210.08 8.48593 1210.31 8.55763 1210.5 8.69475C1210.69 8.83186 1210.83 9.02712 1210.91 9.25166L1217.09 22.741C1217.15 22.8773 1217.19 23.025 1217.2 23.1756C1217.2 23.3948 1217.11 23.605 1216.96 23.7599C1216.8 23.9149 1216.59 24.002 1216.37 24.002C1216.18 23.9944 1216 23.9302 1215.85 23.8177C1215.7 23.7052 1215.58 23.5497 1215.52 23.3715L1213.93 19.8743H1205.57L1203.98 23.4204C1203.93 23.5931 1203.81 23.7429 1203.67 23.8483C1203.52 23.9537 1203.34 24.0092 1203.16 24.007C1203.05 24.0074 1202.95 23.9874 1202.86 23.9482C1202.76 23.9091 1202.67 23.8515 1202.6 23.7788C1202.53 23.7061 1202.47 23.6197 1202.43 23.5245C1202.39 23.4294 1202.37 23.3275 1202.37 23.2246C1202.37 23.0632 1202.41 22.9036 1202.48 22.76ZM1213.26 18.3005L1209.76 10.5127L1206.25 18.3005H1213.26Z" fill="#6B6B6B"/>
<path d="M1086.91 5.34277H1092.67L1097.14 23.999H1091.37L1086.91 5.34277Z" fill="#4D4D4D"/>
<path d="M1084.71 2.13037L1088.45 23.9991H1082.68L1078.95 2.13037H1084.71Z" fill="#4D4D4D"/>
<path d="M1074 23.999H1079.76L1084.71 2.13031L1079.43 0L1074 23.999Z" fill="#6B6B6B"/>
<path d="M1082.69 23.9989H1088.45L1092.67 5.34271L1087.39 3.2124L1082.69 23.9989Z" fill="#6B6B6B"/>
<path d="M1095.35 6.42493L1091.37 23.999H1097.14L1100.64 8.55524L1095.35 6.42493Z" fill="#6B6B6B"/>
</g>
<path d="M17.5399 68.9081H5.08168L2.8811 71.942H6.72032L3.51458 76.3599H8.20454L11.4417 71.942H15.3376L17.5399 68.9081Z" fill="#6B6B6B"/>
<path d="M6.40015 67.0911H18.8619L21.0564 64.0572H17.1343L20.3234 59.6393H15.6361L12.4443 64.0563H8.59025L6.40015 67.0911Z" fill="#6B6B6B"/>
<path d="M28.7075 72V64.0021H30.8158V66.97H31.7276L33.6646 64H36.0575L33.5501 67.7704L36.2318 71.9979H33.8389L31.8441 68.9131H30.8189V71.9979L28.7075 72Z" fill="#6B6B6B"/>
<path d="M41.2319 71.9979L43.3979 64H47.273L49.4391 71.9979H47.273L46.8739 70.3981H43.8002L43.401 71.9979H41.2319ZM44.252 68.5708H46.418L45.7341 65.9431H44.9358L44.252 68.5708Z" fill="#6B6B6B"/>
<path d="M54.439 65.9421V64H61.5559V65.9421H59.0485V71.9979H56.9402V65.9421H54.439Z" fill="#6B6B6B"/>
<path d="M66.5559 65.9421V64H73.679V65.9421H71.1716V71.9979H69.0633V65.9421H66.5559Z" fill="#6B6B6B"/>
<path d="M78.679 71.9979L80.845 64H84.7201L86.8861 71.9979H84.7201L84.3209 70.3981H81.2441L80.845 71.9979H78.679ZM81.699 68.5708H83.865L83.1812 65.9431H82.3828L81.699 68.5708Z" fill="#6B6B6B"/>
<path d="M91.8862 71.9979V64H94.4504L97.2425 69.0269H97.357L97.1857 67.999V64H99.294V71.9979H96.7299L93.9378 66.97H93.8233L93.9945 67.999V71.9979H91.8862Z" fill="#6B6B6B"/>
<path d="M104.294 71.9979L106.46 64H110.334L112.5 71.9979H110.334L109.935 70.3981H106.858L106.459 71.9979H104.294ZM107.314 68.5708H109.48L108.796 65.9431H107.998L107.314 68.5708Z" fill="#6B6B6B"/>
<g clip-path="url(#clip7_305_201)">
<path d="M177.412 61.1259H187.281C189.199 61.1259 190.382 62.3218 190.382 64.2592V67.3926C190.382 69.33 189.199 70.526 187.281 70.526H181.435V74.0421H177.412V61.1259ZM186.358 67.0338V64.6419H181.435V67.0338H186.358Z" fill="#6B6B6B"/>
<path d="M196.607 61.1259H206.666C208.583 61.1259 209.766 62.3218 209.766 64.2592V66.6511C209.766 67.8471 209.246 68.5646 208.678 68.9473C208.37 69.1626 207.991 69.33 207.589 69.4257L210.05 72.1046V74.0421H206.405L202.926 69.7845H200.607V74.0421H196.583V61.1259H196.607ZM205.743 66.2923V64.6419H200.607V66.2923H205.743Z" fill="#6B6B6B"/>
<path d="M235.423 70.4542H244.015V69.7127L238.524 68.9713C236.394 68.6842 235.423 67.6796 235.423 65.7422V64.2592C235.423 62.3218 236.607 61.1259 238.524 61.1259H247.849V63.4221L246.571 64.7137H239.637V65.4552L245.128 66.1966C247.258 66.4837 248.228 67.4883 248.228 69.4257V70.9087C248.228 72.8461 247.045 74.0421 245.128 74.0421H235.447V70.4542H235.423Z" fill="#6B6B6B"/>
<path d="M254.264 61.1259H264.134C266.051 61.1259 267.235 62.3218 267.235 64.2592V67.3926C267.235 69.33 266.051 70.526 264.134 70.526H258.288V74.0421H254.264V61.1259ZM263.211 67.0338V64.6419H258.288V67.0338H263.211Z" fill="#6B6B6B"/>
<path d="M273.435 61.1259H285.317V63.3503L284.039 64.6419H277.459V65.9336H283.116V69.2583H277.459V70.5499H285.317V74.066H273.435V61.1259Z" fill="#6B6B6B"/>
<path d="M291.447 61.1259H301.506C303.423 61.1259 304.606 62.3218 304.606 64.2592V66.6511C304.606 67.8471 304.085 68.5646 303.517 68.9473C303.21 69.1626 302.831 69.33 302.429 69.4257L304.89 72.1046V74.0421H301.245L297.766 69.7845H295.494V74.0421H291.47V61.1259H291.447ZM300.582 66.2923V64.6419H295.47V66.2923H300.582Z" fill="#6B6B6B"/>
<path d="M226.523 63.2784L226.476 63.2305C226.452 63.2067 226.452 63.2067 226.429 63.1827L224.015 65.6224C224.038 65.6464 224.038 65.6464 224.062 65.6703L224.109 65.7181C226.831 68.4927 227.375 71.4347 226.571 72.248C226.287 72.535 225.79 72.6068 225.435 72.5829C223.896 72.5589 221.813 71.4587 220.109 69.7604L220.062 69.7126C220.038 69.6887 220.038 69.6887 220.015 69.6647L217.6 72.1045C217.624 72.1284 217.624 72.1284 217.648 72.1523L217.695 72.2002C220.062 74.5681 222.926 76.0033 225.364 76.0272C225.387 76.0272 225.435 76.0272 225.458 76.0272C226.878 76.0272 228.086 75.5488 228.961 74.6638C230.263 73.3482 230.642 71.339 230.003 69.0189C229.482 67.0576 228.227 65.0006 226.523 63.2784Z" fill="#6B6B6B"/>
<path d="M217.223 64.283C217.223 63.9242 217.27 63.4219 217.554 63.1349C217.791 62.8957 218.169 62.8 218.643 62.8C218.998 62.8 219.4 62.8718 219.826 62.9914C221.199 63.3741 222.714 64.3309 224.015 65.6464L226.43 63.2067C224.702 61.4845 222.69 60.2407 220.749 59.6906C218.453 59.0448 216.465 59.4036 215.14 60.743C214.24 61.6519 213.791 62.8957 213.791 64.3787C213.838 66.8662 215.235 69.7604 217.578 72.1523L220.016 69.6409C218.335 67.9426 217.246 65.8378 217.223 64.283Z" fill="#6B6B6B"/>
</g>
<g clip-path="url(#clip8_305_201)">
<path fill-rule="evenodd" clip-rule="evenodd" d="M418.436 71.1553V62.2377H417.024V71.1553C417.024 72.4689 418.083 73.5377 419.384 73.5377H424.235V72.1121H419.385C418.862 72.1121 418.437 71.6833 418.437 71.1553H418.436ZM440.179 69.8193C440.179 71.0833 439.16 72.1121 437.907 72.1121H436.75C435.498 72.1121 434.479 71.0841 434.479 69.8193V62.2377H433.068V69.8193C433.068 71.8697 434.72 73.5377 436.75 73.5377H437.908C439.939 73.5377 441.591 71.8697 441.591 69.8193V62.2377H440.18V69.8193H440.179ZM451.915 65.9177C451.667 66.0345 451.509 66.2857 451.509 66.5625V72.8249H452.92V68.0809L459.004 73.1825L459.906 72.0865L452.665 66.0145C452.455 65.8377 452.162 65.8001 451.915 65.9177ZM459.411 66.9817L453.326 61.8801L452.425 62.9761L459.665 69.0481C459.793 69.1569 459.954 69.2129 460.116 69.2129C460.218 69.2129 460.32 69.1905 460.415 69.1457C460.663 69.0281 460.822 68.7769 460.822 68.5001V62.2377H459.411V66.9817ZM401.106 72.1121L404.512 64.7385L407.918 72.1121H401.107H401.106ZM405.153 62.7505C405.037 62.5001 404.787 62.3393 404.512 62.3393C404.238 62.3393 403.988 62.4993 403.873 62.7505L399.358 72.5241C399.256 72.7441 399.273 73.0025 399.402 73.2081C399.532 73.4137 399.757 73.5377 399.998 73.5377H409.026C409.268 73.5377 409.492 73.4137 409.622 73.2081C409.752 73.0025 409.768 72.7441 409.666 72.5241L405.153 62.7505ZM471.754 72.1121L475.16 64.7385L478.566 72.1121H471.754H471.754ZM480.314 72.5241L475.8 62.7505C475.684 62.5001 475.435 62.3393 475.16 62.3393C474.885 62.3393 474.635 62.4993 474.52 62.7505L470.005 72.5241C469.903 72.7441 469.92 73.0025 470.05 73.2081C470.179 73.4137 470.404 73.5377 470.646 73.5377H479.675C479.915 73.5377 480.14 73.4137 480.27 73.2081C480.399 73.0025 480.416 72.7441 480.314 72.5241Z" fill="#6B6B6B"/>
</g>
<g clip-path="url(#clip9_305_201)">
<path fill-rule="evenodd" clip-rule="evenodd" d="M381.011 76.7913V75.6609C383.923 75.3624 386.202 72.9008 386.202 69.9176C386.202 69.7808 386.195 69.6456 386.187 69.5105L387.99 72.5297C386.54 74.9337 383.973 76.5937 381.011 76.7913ZM372.841 72.5297L374.644 69.5105C374.635 69.6449 374.628 69.7809 374.628 69.9185C374.628 72.9009 376.907 75.3624 379.819 75.6609V76.7913C376.857 76.5937 374.291 74.9337 372.841 72.5297ZM379.819 60.8448V64.1744C378.902 64.2688 378.048 64.5784 377.308 65.0512L379.819 60.8448ZM383.522 65.0512C382.782 64.5792 381.928 64.2688 381.011 64.1744V60.8448L383.522 65.0512ZM381.011 73.0976C382.516 72.8176 383.66 71.4992 383.66 69.9176C383.66 68.336 382.516 67.0176 381.011 66.7376V65.372C383.264 65.6648 385.011 67.5912 385.011 69.9176C385.011 72.2441 383.264 74.1705 381.011 74.4633V73.0976ZM380.415 71.9665C379.283 71.9665 378.362 71.0473 378.362 69.9185C378.362 68.7881 379.283 67.8696 380.415 67.8696C381.547 67.8696 382.468 68.788 382.468 69.9176C382.468 71.0472 381.547 71.9657 380.415 71.9657V71.9665ZM379.819 65.372V66.7376C378.314 67.0176 377.17 68.336 377.17 69.9176C377.17 71.4992 378.314 72.8176 379.819 73.0976V74.4633C377.566 74.1705 375.819 72.2441 375.819 69.9176C375.819 67.5912 377.566 65.6648 379.819 65.372ZM391.933 76.4225L389.589 72.4977C390.26 71.14 390.639 69.6137 390.639 68H389.249C389.249 69.064 389.058 70.084 388.711 71.0288L381.012 58.1384C380.887 57.9288 380.66 57.8 380.415 57.8C380.17 57.8 379.943 57.928 379.818 58.1384L372.119 71.0288C371.771 70.084 371.581 69.064 371.581 68H370.192C370.192 69.6137 370.571 71.14 371.243 72.4977L368.897 76.4225L370.091 77.1329L372.05 73.8528C373.901 76.4801 376.96 78.2001 380.415 78.2001C383.87 78.2001 386.928 76.48 388.78 73.8536L390.739 77.1329L391.933 76.4225Z" fill="#6B6B6B"/>
</g>
<g clip-path="url(#clip10_305_201)">
<path d="M603.77 58L589.988 77.8214H594.219L608.073 58H603.77Z" fill="#6B6B6B"/>
<path d="M594.66 58L598.715 63.8407L596.599 67.0265L590.34 58H594.66Z" fill="#6B6B6B"/>
<path d="M604.18 77.823L599.685 71.3628L601.8 68.2655L608.412 77.823H604.18Z" fill="#6B6B6B"/>
<path fill-rule="evenodd" clip-rule="evenodd" d="M585.051 58H588.754V77.8214H585.051V77.0811C583.982 77.6669 582.754 78 581.449 78C577.304 78 573.944 74.6421 573.944 70.5C573.944 66.3579 577.304 63 581.449 63C582.754 63 583.982 63.3331 585.051 63.9189V58ZM581.409 74.7083C583.757 74.7083 585.66 72.8065 585.66 70.4605C585.66 68.1145 583.757 66.2127 581.409 66.2127C579.061 66.2127 577.158 68.1145 577.158 70.4605C577.158 72.8065 579.061 74.7083 581.409 74.7083Z" fill="#6B6B6B"/>
<path d="M574.312 58L560.544 77.8214H564.86L578.615 58H574.312Z" fill="#6B6B6B"/>
<path d="M564.864 58L569.183 64.0177L566.803 67.3805L560.368 58H564.864Z" fill="#6B6B6B"/>
<path fill-rule="evenodd" clip-rule="evenodd" d="M555.607 58H559.31V77.8214H555.607V77.0811C554.538 77.6669 553.31 78 552.005 78C547.86 78 544.5 74.6421 544.5 70.5C544.5 66.3579 547.86 63 552.005 63C553.31 63 554.538 63.3331 555.607 63.9189V58ZM551.965 74.7083C554.313 74.7083 556.216 72.8065 556.216 70.4605C556.216 68.1145 554.313 66.2127 551.965 66.2127C549.618 66.2127 547.715 68.1145 547.715 70.4605C547.715 72.8065 549.618 74.7083 551.965 74.7083Z" fill="#6B6B6B"/>
</g>
<g clip-path="url(#clip11_305_201)">
<path d="M748.653 62.6461C748.992 62.6461 749.295 62.856 749.413 63.1728L752.211 70.6509L755.192 63.1575C755.314 62.8507 755.61 62.6483 755.941 62.6461H757.652C757.925 62.6464 758.179 62.784 758.329 63.0119C758.478 63.2399 758.503 63.5276 758.394 63.7773L753.043 75.8971C751.933 78.4107 750.475 79.5678 748.179 79.5678C747.68 79.5631 747.183 79.5142 746.693 79.4217C746.308 79.3501 746.03 79.0151 746.031 78.6251V77.3701C746.031 77.1451 746.125 76.9303 746.29 76.777C746.455 76.6237 746.677 76.5457 746.902 76.5618C747.109 76.5771 747.29 76.5865 747.463 76.5865C748.525 76.5865 749.39 76.3166 750.006 74.9367L750.377 74.1237L746.141 63.762C746.039 63.5121 746.069 63.2281 746.22 63.0043C746.371 62.7805 746.623 62.6461 746.894 62.6461H748.653ZM681.192 58.286C684.034 58.286 686.45 59.561 687.945 61.6562C688.194 62.022 688.102 62.5198 687.739 62.7733L686.525 63.6359C686.177 63.885 685.695 63.8198 685.426 63.4875C684.382 62.137 682.983 61.3663 681.192 61.3663C678.155 61.3663 675.932 63.5829 675.932 66.7363C675.932 69.8638 678.155 72.0567 681.192 72.0567C682.983 72.0567 684.378 71.2802 685.426 69.9356C685.694 69.6027 686.177 69.5375 686.525 69.7872L687.745 70.6486C688.11 70.9022 688.202 71.4018 687.95 71.768C686.471 73.8585 684.032 75.1347 681.167 75.1347C676.327 75.1347 672.5 71.4899 672.5 66.7104C672.5 61.9308 676.327 58.286 681.192 58.286ZM705.341 62.375C708.94 62.375 711.903 65.1337 711.903 68.7266C711.903 72.3478 708.939 75.1064 705.31 75.1064C701.681 75.1064 698.791 72.3478 698.791 68.7266C698.791 65.1337 701.679 62.375 705.341 62.375ZM715.274 62.6461C715.512 62.6495 715.724 62.7983 715.807 63.0208C715.807 63.0208 718.152 68.9717 718.743 68.9717C719.161 68.9717 721.223 63.96 721.223 63.96C721.312 63.7484 721.518 63.6095 721.748 63.6065H722.063C722.293 63.6095 722.499 63.7484 722.588 63.96C722.588 63.96 724.65 68.9717 725.069 68.9717C725.659 68.9717 728.008 63.0208 728.008 63.0208C728.091 62.7983 728.303 62.6495 728.541 62.6461H730.483C730.902 62.6461 731.182 63.1057 731.008 63.5098C731.008 63.5098 730.186 67.56 726.013 74.4795C725.913 74.6835 725.713 74.8201 725.487 74.8389H725.219C724.999 74.8389 724.96 74.8389 724.701 74.4972C724.563 74.3019 724.424 74.1015 724.286 73.8992L724.121 73.6558L723.958 73.4117C722.905 71.8258 721.998 70.2785 721.998 70.2785C721.986 70.2395 721.95 70.2129 721.909 70.2129C721.868 70.2129 721.832 70.2395 721.82 70.2785C721.82 70.2785 720.446 72.6224 719.117 74.4972C718.858 74.8389 718.818 74.8389 718.599 74.8389H718.33C718.104 74.82 717.905 74.6833 717.806 74.4795C713.637 67.56 712.81 63.5098 712.81 63.5098C712.636 63.1057 712.916 62.6461 713.336 62.6461H715.274ZM697.004 62.4976C697.121 62.4976 697.23 62.5011 697.332 62.5082C697.759 62.5367 698.09 62.8903 698.09 63.3166V64.7648C698.09 65.2113 697.727 65.5732 697.279 65.5732H697.201C695.275 65.5732 693.917 66.5619 693.917 68.7549V74.0294C693.917 74.4762 693.554 74.8383 693.106 74.8389H691.394C690.946 74.8383 690.584 74.476 690.584 74.0294V63.4545C690.584 63.008 690.946 62.6461 691.394 62.6461H692.834C693.282 62.6461 693.645 63.0078 693.646 63.4545V64.1238C694.444 63.082 695.69 62.4788 697.004 62.4976ZM739.632 62.375C742.497 62.375 744.225 64.3453 744.225 67.276V74.0294C744.224 74.4762 743.861 74.8383 743.413 74.8389H741.728C741.279 74.8389 740.916 74.4765 740.916 74.0294V67.7202C740.916 66.3156 740.003 65.3552 738.644 65.3552C737.286 65.3552 736.323 66.3156 736.323 67.7202V74.0294C736.322 74.4762 735.959 74.8383 735.512 74.8389H733.801C733.353 74.8383 732.99 74.4762 732.989 74.0294V63.4556C732.989 63.0085 733.353 62.6461 733.801 62.6461H735.24C735.688 62.6461 736.051 63.0085 736.051 63.4556V63.7538C736.891 62.9171 738.126 62.375 739.632 62.375ZM705.341 65.4047C703.484 65.4047 702.181 66.8365 702.181 68.7561C702.181 70.6757 703.49 72.0556 705.341 72.0556C707.137 72.0556 708.496 70.6509 708.502 68.7549C708.502 66.8329 707.143 65.4047 705.341 65.4047Z" fill="#6B6B6B"/>
<path fill-rule="evenodd" clip-rule="evenodd" d="M722.508 56C722.654 55.9999 722.791 56.0695 722.877 56.1874L723.602 57.1843C723.701 57.3222 723.715 57.504 723.638 57.6556L721.997 60.2022C721.984 60.2262 721.959 60.2413 721.932 60.2413C721.904 60.2413 721.879 60.2262 721.866 60.2022L720.232 57.658C720.155 57.5064 720.17 57.3246 720.269 57.1866L720.993 56.1897C721.079 56.071 721.216 56.0004 721.363 56H722.508ZM712.56 56.5621L713.683 57.3398C713.904 57.4929 713.98 57.7836 713.862 58.0245L712.771 59.9818C712.716 60.0942 712.591 60.1546 712.468 60.1284C712.345 60.1023 712.256 59.9962 712.251 59.871C712.251 59.871 712.192 59.2182 712.146 58.4346C712.129 58.1407 712.122 57.8371 712.121 57.5723L712.121 57.2466C712.124 56.977 712.13 56.7978 712.13 56.7978C712.126 56.6942 712.181 56.5971 712.272 56.5472C712.363 56.4972 712.474 56.503 712.56 56.5621ZM731.226 56.5621C731.311 56.503 731.423 56.4972 731.514 56.5472C731.605 56.5971 731.66 56.6942 731.656 56.7978C731.656 56.7978 731.663 57.0111 731.665 57.3223L731.666 57.5723C731.664 57.8371 731.658 58.1407 731.64 58.4346C731.594 59.2182 731.534 59.871 731.534 59.871C731.529 59.9958 731.439 60.1009 731.316 60.1265C731.194 60.1521 731.07 60.0915 731.014 59.9794L729.925 58.0245C729.807 57.7836 729.883 57.4929 730.104 57.3398L731.226 56.5621Z" fill="#6B6B6B"/>
</g>
<path fill-rule="evenodd" clip-rule="evenodd" d="M847 67.9999C847 73.3156 843.546 77.8239 838.76 79.4004C838.821 79.0433 838.853 78.6763 838.853 78.3018C838.853 74.738 835.966 71.8489 832.404 71.8489C829.993 71.8489 827.897 73.5683 826.791 75.5282C826.715 75.4906 826.69 75.478 826.665 75.465C826.652 75.4585 826.64 75.4518 826.621 75.4418C827.443 67.0512 833.213 60.1132 840.974 57.5884C844.575 59.659 847 63.5461 847 67.9999ZM832.658 67.0942C833.45 66.3584 835.487 64.9999 836.845 64.3773C836.874 65.6538 835.657 68.7358 832.658 67.0942Z" fill="#6B6B6B"/>
<mask id="mask0_305_201" style="mask-type:alpha" maskUnits="userSpaceOnUse" x="826" y="57" width="21" height="23">
<path d="M838.76 79.4004C843.546 77.8239 847 73.3156 847 67.9999C847 63.5461 844.575 59.659 840.974 57.5884C833.213 60.1132 827.443 67.0512 826.621 75.4418C826.677 75.4716 826.677 75.4716 826.791 75.5282C827.897 73.5683 829.993 71.8489 832.404 71.8489C835.966 71.8489 838.853 74.738 838.853 78.3018C838.853 78.6763 838.821 79.0433 838.76 79.4004Z" fill="#C2C2C2"/>
</mask>
<g mask="url(#mask0_305_201)">
<path opacity="0.08" fill-rule="evenodd" clip-rule="evenodd" d="M846.026 104C857.555 104 866.902 94.6488 866.902 83.1134C866.902 71.5779 857.555 62.2266 846.026 62.2266C834.496 62.2266 825.15 71.5779 825.15 83.1134C825.15 94.6488 834.496 104 846.026 104ZM832.658 67.0945C833.45 66.3586 835.487 65.0001 836.845 64.3775C836.874 65.6541 835.657 68.736 832.658 67.0945Z" fill="#6B6B6B"/>
</g>
<path fill-rule="evenodd" clip-rule="evenodd" d="M834.994 78.8C840.954 78.8 845.788 73.9652 845.788 68C845.788 62.0348 840.954 57.2 834.994 57.2C829.033 57.2 824.2 62.0348 824.2 68C824.2 73.9652 829.033 78.8 834.994 78.8ZM834.994 80C841.618 80 846.988 74.6274 846.988 68C846.988 61.3726 841.618 56 834.994 56C828.37 56 823 61.3726 823 68C823 74.6274 828.37 80 834.994 80Z" fill="#6B6B6B"/>
<path d="M853 68C853 66.3047 853.565 64.8809 854.695 63.7285C855.848 62.5762 857.299 62 859.05 62C860.801 62 862.247 62.554 863.388 63.662C864.54 64.7812 865.116 66.2271 865.116 68C865.116 69.7396 864.54 71.1745 863.388 72.3047C862.235 73.4349 860.789 74 859.05 74C857.299 74 855.853 73.446 854.712 72.338C853.571 71.2299 853 69.7839 853 68ZM855.161 68C855.161 69.1745 855.532 70.1496 856.274 70.9252C857.017 71.7008 857.942 72.0887 859.05 72.0887C860.247 72.0887 861.194 71.7008 861.892 70.9252C862.601 70.1496 862.956 69.1745 862.956 68C862.956 66.8144 862.579 65.8338 861.825 65.0582C861.072 64.2936 860.147 63.9113 859.05 63.9113C857.931 63.9113 857 64.2936 856.258 65.0582C855.526 65.8227 855.161 66.8033 855.161 68Z" fill="#6B6B6B"/>
<path d="M870.357 69.463V73.8176H868.313V62.1833C868.889 62.1833 869.515 62.1777 870.191 62.1666C870.867 62.1555 871.421 62.15 871.853 62.15C874.668 62.15 876.075 63.3467 876.075 65.74C876.075 66.6265 875.847 67.3578 875.393 67.9339C874.939 68.488 874.418 68.8647 873.831 69.0641L877.471 73.8176H874.995L871.787 69.463H870.357ZM871.753 64.0614C871.698 64.0614 871.609 64.0669 871.487 64.078C871.366 64.078 871.194 64.0835 870.972 64.0946C870.751 64.0946 870.546 64.0946 870.357 64.0946V67.5517H871.687C872.341 67.5517 872.873 67.391 873.283 67.0697C873.704 66.7483 873.914 66.3107 873.914 65.7567C873.914 64.6265 873.194 64.0614 871.753 64.0614Z" fill="#6B6B6B"/>
<path d="M881.592 73.8176H879.531L884.451 62.15H886.246L891.165 73.8176H888.988L887.775 70.8425H882.806L881.592 73.8176ZM886.994 68.9311L885.299 64.7927L883.587 68.9311H886.994Z" fill="#6B6B6B"/>
<path d="M892.469 68C892.469 66.3047 893.034 64.8809 894.164 63.7285C895.317 62.5762 896.768 62 898.519 62C900.27 62 901.716 62.554 902.857 63.662C904.009 64.7812 904.585 66.2271 904.585 68C904.585 69.7396 904.009 71.1745 902.857 72.3047C901.705 73.4349 900.259 74 898.519 74C896.768 74 895.323 73.446 894.181 72.338C893.04 71.2299 892.469 69.7839 892.469 68ZM894.63 68C894.63 69.1745 895.001 70.1496 895.744 70.9252C896.486 71.7008 897.411 72.0887 898.519 72.0887C899.716 72.0887 900.663 71.7008 901.361 70.9252C902.07 70.1496 902.425 69.1745 902.425 68C902.425 66.8144 902.048 65.8338 901.295 65.0582C900.541 64.2936 899.616 63.9113 898.519 63.9113C897.4 63.9113 896.469 64.2936 895.727 65.0582C894.995 65.8227 894.63 66.8033 894.63 68Z" fill="#6B6B6B"/>
<path d="M1066.58 65C1067.71 65 1068.59 64.1309 1068.59 63C1068.59 61.869 1067.71 61 1066.58 61C1065.46 61 1064.59 61.873 1064.59 63C1064.59 64.1309 1065.46 65 1066.58 65ZM1066.58 64.4921C1065.76 64.4921 1065.13 63.8492 1065.13 63C1065.13 62.1508 1065.76 61.5119 1066.58 61.5119C1067.41 61.5119 1068.04 62.1508 1068.04 63C1068.04 63.8492 1067.41 64.4921 1066.58 64.4921ZM1066.29 63.8928V63.2659H1066.54L1066.94 63.8928H1067.52L1067.04 63.1944C1067.28 63.1309 1067.43 62.9206 1067.43 62.6428C1067.43 62.2936 1067.16 62.0556 1066.75 62.0556H1065.8V63.8928H1066.29ZM1066.64 62.9087H1066.29V62.4444H1066.65C1066.82 62.4444 1066.92 62.5238 1066.92 62.6746C1066.92 62.8254 1066.82 62.9087 1066.64 62.9087Z" fill="#6C6C6C"/>
<path d="M1004.35 73.1584C1006.82 73.1584 1008.63 71.6281 1008.81 69.4075H1006.71C1006.51 70.5391 1005.58 71.2651 1004.35 71.2651C1002.73 71.2651 1001.73 69.9199 1001.73 67.7562C1001.73 65.5926 1002.73 64.2544 1004.35 64.2544C1005.57 64.2544 1006.5 65.0303 1006.71 66.2117H1008.8C1008.64 63.9768 1006.78 62.3612 1004.35 62.3612C1001.37 62.3612 999.534 64.4181 999.534 67.7562C999.534 71.1015 1001.38 73.1584 1004.35 73.1584ZM1013.79 73.0658C1016.2 73.0658 1017.65 71.5356 1017.65 68.9662C1017.65 66.4181 1016.18 64.8737 1013.79 64.8737C1011.4 64.8737 1009.93 66.4253 1009.93 68.9662C1009.93 71.5356 1011.38 73.0658 1013.79 73.0658ZM1013.79 71.3719C1012.68 71.3719 1012.06 70.4964 1012.06 68.9662C1012.06 67.4573 1012.69 66.5677 1013.79 66.5677C1014.89 66.5677 1015.53 67.4573 1015.53 68.9662C1015.53 70.4893 1014.89 71.3719 1013.79 71.3719ZM1020.13 63.8701C1020.78 63.8701 1021.3 63.3434 1021.3 62.6815C1021.3 62.0196 1020.78 61.5 1020.13 61.5C1019.49 61.5 1018.96 62.0196 1018.96 62.6815C1018.96 63.3434 1019.49 63.8701 1020.13 63.8701ZM1021.16 72.895V65.0445H1019.09V72.895H1021.16ZM1025.06 72.895V68.3684C1025.06 67.3363 1025.65 66.6601 1026.61 66.6601C1027.59 66.6601 1028.05 67.2295 1028.05 68.3114V72.895H1030.12V67.8203C1030.12 65.9413 1029.18 64.8737 1027.44 64.8737C1026.28 64.8737 1025.49 65.4217 1025.12 66.3043H1025V65.0445H1022.99V72.895H1025.06ZM1036.68 72.895C1038.87 72.895 1040.23 71.7562 1040.23 69.9555C1040.23 68.6317 1039.24 67.6068 1037.88 67.5071V67.379C1038.93 67.2224 1039.74 66.2758 1039.74 65.1868C1039.74 63.5997 1038.55 62.6246 1036.56 62.6246H1032.07V72.895H1036.68ZM1035.83 66.8808H1034.22V64.2686H1036.01C1037.03 64.2686 1037.62 64.7597 1037.62 65.5783C1037.62 66.4039 1036.99 66.8808 1035.83 66.8808ZM1036.13 71.2509H1034.22V68.3328H1036.08C1037.35 68.3328 1038.04 68.831 1038.04 69.7704C1038.04 70.7313 1037.37 71.2509 1036.13 71.2509ZM1044.37 73.0658C1045.56 73.0658 1046.29 72.5462 1046.66 71.6353H1046.79V72.895H1048.8V65.0445H1046.73V69.5712C1046.73 70.6175 1046.17 71.2651 1045.14 71.2651C1044.19 71.2651 1043.7 70.71 1043.7 69.6281V65.0445H1041.63V70.1619C1041.63 71.984 1042.68 73.0658 1044.37 73.0658ZM1052.68 72.895V68.5462C1052.68 67.4431 1053.46 66.774 1054.59 66.774C1054.92 66.774 1055.4 66.8381 1055.57 66.9021V65.016C1055.39 64.9519 1055.04 64.9164 1054.76 64.9164C1053.76 64.9164 1052.95 65.5142 1052.74 66.2972H1052.62V65.0445H1050.61V72.895H1052.68ZM1058.83 75.5V71.6922H1058.95C1059.34 72.5249 1060.2 73.016 1061.32 73.016C1063.28 73.016 1064.49 71.5 1064.49 68.9662C1064.49 66.4253 1063.27 64.9164 1061.29 64.9164C1060.21 64.9164 1059.32 65.4502 1058.89 66.3328H1058.76V65.0445H1056.76V75.5H1058.83ZM1060.58 71.2864C1059.49 71.2864 1058.81 70.411 1058.81 68.9733C1058.81 67.5355 1059.49 66.653 1060.59 66.653C1061.69 66.653 1062.36 67.5284 1062.36 68.9662C1062.36 70.4182 1061.7 71.2864 1060.58 71.2864Z" fill="#6C6C6C"/>
<path d="M992.287 67.6665C991.923 68.0338 991.392 68.4001 990.793 68.6977C990.194 68.9953 989.582 69.197 989.068 69.2658C988.565 69.3331 988.346 69.2462 988.306 69.2142L988.206 69.0197C988.169 68.9474 988.217 68.8618 988.298 68.8542C988.299 68.8542 988.3 68.8542 988.3 68.8541C988.96 68.7923 989.744 68.5492 990.509 68.1692C991.274 67.7892 991.941 67.3113 992.387 66.8231C992.395 66.8142 992.403 66.8054 992.411 66.7966C992.465 66.737 992.561 66.7495 992.598 66.8207L992.705 67.0287C992.706 67.081 992.642 67.308 992.287 67.6665ZM987.884 67.8472C987.707 67.837 987.608 67.6398 987.707 67.4921C987.77 67.398 987.861 67.2839 987.992 67.1522C988.356 66.7848 988.887 66.4186 989.486 66.121C990.085 65.8234 990.697 65.6215 991.211 65.5527C991.395 65.528 991.541 65.5241 991.654 65.5306C991.832 65.5407 991.931 65.738 991.832 65.8857C991.769 65.9798 991.678 66.0938 991.547 66.2257C991.183 66.593 990.652 66.9594 990.053 67.2569C989.454 67.5545 988.842 67.7562 988.328 67.8251C988.144 67.8497 987.998 67.8538 987.884 67.8472ZM993.624 66.5822L992.881 65.1363H992.881C992.741 64.8608 992.343 64.421 991.238 64.5238C990.579 64.5854 989.794 64.8285 989.03 65.2085C988.265 65.5885 987.598 66.0666 987.151 66.5546C986.399 67.3767 986.518 67.9612 986.655 68.2364C986.656 68.238 986.657 68.2398 986.658 68.2414L986.658 68.2415L987.397 69.6802C987.522 69.9277 987.855 70.3102 988.725 70.3102C988.823 70.3102 988.928 70.3053 989.04 70.2947C989.7 70.2332 990.484 69.99 991.249 69.61C992.014 69.23 992.681 68.752 993.127 68.2639C993.879 67.4419 993.761 66.8574 993.624 66.5822ZM988.848 75.6713C986.813 77.6447 984.129 78.7186 981.287 78.6972C978.429 78.675 975.753 77.5542 973.751 75.5412C971.749 73.5285 970.647 70.8503 970.647 68.0002C970.647 62.1014 975.458 57.3025 981.373 57.3025C984.186 57.3025 986.844 58.3807 988.858 60.3384C989.07 60.5448 989.178 60.8207 989.162 61.1174C989.145 61.4422 988.97 61.7384 988.705 61.9285L987.234 62.9855C986.939 63.1974 986.559 63.2348 986.236 63.105C986.185 63.0846 986.063 62.9923 985.949 62.9007C985.801 62.7818 985.74 62.5859 985.794 62.4042C985.94 61.9137 986.215 60.9332 986.223 60.4494C986.244 59.3368 985.768 58.9758 985.483 58.8597L983.968 58.2631C983.68 58.1483 983.089 58.08 982.329 58.8847C981.874 59.3655 981.446 60.0647 981.123 60.8538C981.078 60.9656 981.035 61.0774 980.995 61.1892C979.293 61.2808 977.71 61.9897 976.504 63.2095C975.208 64.519 974.509 66.2539 974.534 68.0948C974.585 71.8144 977.647 74.8216 981.373 74.8212C981.39 74.8212 981.407 74.8211 981.424 74.821C983.086 74.809 984.684 74.195 985.924 73.0921C986.297 72.7604 986.836 72.7287 987.234 73.015L988.728 74.0887C988.979 74.2688 989.136 74.5484 989.158 74.8557C989.181 75.1612 989.068 75.4584 988.848 75.6713ZM985.197 60.5542C985.166 61.0701 985.011 61.6945 984.758 62.3124C984.505 62.9303 984.179 63.4854 983.839 63.8753C983.506 64.2568 983.283 64.336 983.232 64.3385L983.028 64.2582C982.953 64.2285 982.932 64.1322 982.988 64.0734C982.988 64.0728 982.989 64.0723 982.989 64.0718C983.444 63.5911 983.872 62.8918 984.194 62.1029C984.517 61.314 984.701 60.5156 984.714 59.8549C984.714 59.8429 984.714 59.8309 984.714 59.8191C984.715 59.7391 984.796 59.685 984.87 59.7144L985.088 59.8002C985.124 59.8389 985.226 60.051 985.197 60.5542ZM982.329 63.2808C982.207 63.4207 982.1 63.5199 982.01 63.5897C981.87 63.6991 981.665 63.6159 981.642 63.4398C981.627 63.3276 981.62 63.1819 981.631 62.9968C981.661 62.481 981.817 61.8566 982.07 61.2386C982.323 60.6207 982.649 60.0657 982.989 59.6758C983.111 59.5359 983.218 59.4367 983.308 59.367C983.448 59.2575 983.652 59.3407 983.676 59.5168C983.691 59.629 983.698 59.7746 983.687 59.9596C983.657 60.4756 983.501 61.1 983.248 61.7179C982.995 62.3359 982.669 62.8909 982.329 63.2808ZM983.394 67.6129C983.642 67.7194 983.799 67.8764 983.89 68.1074C984.1 68.6388 983.935 68.907 983.37 69.5986C983.002 70.0481 982.545 70.6075 982.336 71.3779C982.277 71.5922 982.145 72.1658 982.16 72.8914C982.167 73.2041 982.018 73.4799 981.789 73.4958C981.576 73.5106 981.381 73.5188 981.373 73.5188C980.62 73.5188 979.899 73.3666 979.243 73.0917C979.283 72.0816 979.723 71.2553 980.492 70.7542C980.768 70.5746 980.846 70.2062 980.666 69.9313C980.486 69.6562 980.116 69.579 979.84 69.7584C978.911 70.3639 978.304 71.321 978.112 72.4529C977.562 72.0511 977.089 71.5507 976.718 70.9779C976.548 70.7151 976.602 70.2951 976.822 70.0726C977.715 69.1721 978.764 68.4845 980.006 67.984C980.888 67.6288 982.518 67.2369 983.394 67.6129ZM989.492 73.0321L987.998 71.9582C987.098 71.3121 985.888 71.3788 985.055 72.1201C984.585 72.5378 984.051 72.8675 983.479 73.1025C983.436 72.5759 983.499 72.0737 983.596 71.7193C983.733 71.2158 984.048 70.8299 984.382 70.4212C984.93 69.7506 985.612 68.916 985.106 67.6314C984.889 67.0792 984.475 66.659 983.91 66.4164C982.263 65.7098 979.793 66.665 979.517 66.7763C978.131 67.3347 976.956 68.1005 975.95 69.1002C975.883 68.7688 975.845 68.427 975.84 68.0771C975.82 66.5875 976.386 65.1837 977.433 64.1242C978.311 63.237 979.435 62.6839 980.653 62.5273C980.624 62.7271 980.608 62.9197 980.604 63.1016C980.584 64.2142 981.059 64.5751 981.345 64.6913C981.347 64.6919 981.349 64.6926 981.35 64.6932L981.35 64.6935L982.858 65.2871C982.95 65.3243 983.074 65.3569 983.226 65.3569C983.544 65.3568 983.982 65.213 984.499 64.6662C984.701 64.4522 984.899 64.1946 985.083 63.9052C985.896 64.6162 987.117 64.6751 987.998 64.0422L989.492 62.9683C990.058 62.562 990.411 61.9312 990.463 61.2378C990.514 60.5516 990.261 59.8838 989.77 59.4057C987.51 57.2095 984.528 56 981.373 56C974.738 56 969.341 61.3833 969.341 68.0002C969.341 71.1962 970.578 74.2001 972.824 76.4586C975.07 78.7171 978.072 79.9747 981.277 79.9997C981.309 80 981.341 80 981.373 80C984.523 80 987.498 78.7965 989.759 76.6052C990.256 76.1232 990.512 75.4507 990.461 74.7602C990.41 74.0678 990.057 73.4377 989.492 73.0321Z" fill="#6C6C6C"/>
<g clip-path="url(#clip12_305_201)">
<path fill-rule="evenodd" clip-rule="evenodd" d="M1150.6 59.9987H1150.43H1149.72V56H1145.68V59.9987H1141.65V56H1137.62V59.9987H1133.59V63.9974H1137.62V72.0026H1133.59V76.0014H1137.62V80H1141.65V76.0014H1145.69V80H1149.72V76.0014H1150.43C1154.83 76.0488 1158.43 72.4057 1158.48 68.0593C1158.52 63.705 1155 60.0461 1150.6 59.9987ZM1150.55 72.0026C1150.51 72.0026 1150.47 72.0026 1150.43 72.0026H1141.66V64.0053H1150.43C1152.63 63.9737 1154.45 65.728 1154.48 67.9091C1154.5 70.0823 1152.75 71.971 1150.55 72.0026Z" fill="#6B6B6B"/>
<path d="M1163.34 74.3577V61.682H1167.98C1169.03 61.682 1169.95 61.848 1170.73 62.1799C1171.52 62.5118 1172.17 62.9622 1172.7 63.5391C1173.22 64.1081 1173.62 64.7798 1173.89 65.5463C1174.15 66.3129 1174.28 67.1348 1174.28 68.004C1174.28 68.9681 1174.14 69.8374 1173.85 70.6198C1173.55 71.4022 1173.13 72.066 1172.58 72.6191C1172.03 73.1723 1171.37 73.5991 1170.58 73.9073C1169.8 74.2155 1168.94 74.3656 1167.98 74.3656H1163.34V74.3577ZM1171.78 68.004C1171.78 67.3956 1171.69 66.8345 1171.52 66.3287C1171.36 65.815 1171.11 65.3804 1170.78 65.009C1170.46 64.6375 1170.06 64.353 1169.59 64.1555C1169.12 63.95 1168.57 63.8552 1167.98 63.8552H1165.82V72.2003H1167.98C1168.59 72.2003 1169.13 72.0896 1169.6 71.8763C1170.07 71.6629 1170.47 71.3705 1170.79 70.9912C1171.11 70.6198 1171.35 70.1772 1171.52 69.6636C1171.69 69.1499 1171.78 68.5967 1171.78 68.004Z" fill="#6B6B6B"/>
<path d="M1185.04 72.0898C1184.43 73.1803 1183.56 73.7414 1183.37 73.8441C1182.27 74.5159 1181.18 74.5317 1180.65 74.5317C1179.89 74.5317 1179.2 74.4052 1178.6 74.1445C1177.99 73.8837 1177.47 73.5439 1177.03 73.1013C1176.6 72.6588 1176.27 72.153 1176.04 71.5683C1175.81 70.9834 1175.69 70.375 1175.69 69.727C1175.69 69.0632 1175.8 68.4309 1176.03 67.8461C1176.26 67.2535 1176.59 66.7398 1177.02 66.2972C1177.45 65.8547 1177.98 65.4991 1178.6 65.2383C1179.22 64.9775 1179.91 64.8431 1180.68 64.8431C1181.44 64.8431 1182.14 64.9775 1182.74 65.2383C1183.35 65.4991 1183.87 65.8547 1184.29 66.2893C1184.71 66.7319 1185.04 67.2377 1185.26 67.8225C1185.49 68.4072 1185.6 69.0157 1185.6 69.64C1185.6 69.7981 1185.6 69.9403 1185.59 70.0826C1185.58 70.2248 1185.57 70.3434 1185.54 70.4382H1178.25C1178.29 70.8096 1178.37 71.1336 1178.52 71.4181C1178.66 71.7026 1178.84 71.9476 1179.08 72.153C1179.31 72.3585 1179.56 72.5087 1179.85 72.6193C1180.14 72.7299 1180.44 72.7773 1180.75 72.7773C1181.23 72.7773 1181.68 72.6588 1182.11 72.4296C1182.54 72.2005 1182.83 71.8923 1182.99 71.5129C1183.77 71.5129 1184.55 71.5129 1185.33 71.5209C1185.25 71.671 1185.17 71.8685 1185.04 72.0898ZM1183.09 68.8972C1183.03 68.1939 1182.78 67.6328 1182.31 67.2139C1181.85 66.7951 1181.29 66.5817 1180.63 66.5817C1180.3 66.5817 1180 66.637 1179.72 66.7477C1179.44 66.8583 1179.19 67.0164 1178.97 67.2219C1178.76 67.4273 1178.58 67.6644 1178.44 67.9568C1178.3 68.2413 1178.22 68.5573 1178.2 68.9051H1183.09V68.8972Z" fill="#6B6B6B"/>
<path d="M1192.63 67.0717C1191.9 67.0875 1191.24 67.2219 1190.67 67.4905C1190.1 67.7592 1189.68 68.1623 1189.43 68.6917V74.35H1187.01V65.0012H1189.23V67.0006C1189.39 66.6766 1189.59 66.3921 1189.82 66.1313C1190.06 65.8784 1190.3 65.6492 1190.57 65.4596C1190.83 65.2699 1191.1 65.1197 1191.36 65.025C1191.63 64.9222 1191.9 64.8748 1192.14 64.8748C1192.28 64.8748 1192.38 64.8748 1192.44 64.8748C1192.5 64.8748 1192.57 64.8827 1192.63 64.8906V67.0717Z" fill="#6B6B6B"/>
<path d="M1194.07 74.3578V65.0012H1196.48V74.3499H1194.07V74.3578Z" fill="#6B6B6B"/>
<path d="M1209.11 74.3578V65.0012H1211.53V74.3499H1209.11V74.3578Z" fill="#6B6B6B"/>
<path d="M1216.56 74.5235C1215.07 74.5235 1214.33 73.7174 1214.33 72.1132V67.0635H1213.01V65.0325H1214.33V61.674H1216.67V65.0404H1218.72V67.0714H1216.67V71.7813C1216.67 72.2554 1216.89 72.4925 1217.32 72.4925C1217.81 72.4925 1218.32 72.3582 1218.83 72.0974V74.0967C1218.25 74.3654 1217.31 74.5235 1216.56 74.5235Z" fill="#6B6B6B"/>
<path d="M1195.27 64.0605C1195.94 64.0605 1196.48 63.5263 1196.48 62.8672C1196.48 62.2082 1195.94 61.674 1195.27 61.674C1194.61 61.674 1194.07 62.2082 1194.07 62.8672C1194.07 63.5263 1194.61 64.0605 1195.27 64.0605Z" fill="#6B6B6B"/>
<path d="M1210.32 64.0528C1210.98 64.0528 1211.52 63.5186 1211.52 62.8595C1211.52 62.2005 1210.98 61.6663 1210.32 61.6663C1209.65 61.6663 1209.11 62.2005 1209.11 62.8595C1209.11 63.5186 1209.65 64.0528 1210.32 64.0528Z" fill="#6B6B6B"/>
<path d="M1203.33 74.5395C1202.59 74.5395 1201.95 74.3735 1201.37 74.0495C1200.8 73.7255 1200.55 73.4094 1200.34 72.9511V74.3577H1197.89V61.6663H1200.33V66.5421C1200.67 65.9653 1201.12 65.5148 1201.67 65.1908C1202.22 64.8747 1202.87 64.7087 1203.61 64.7087C1204.23 64.7087 1204.8 64.843 1205.31 65.1038C1205.82 65.3725 1206.26 65.7282 1206.63 66.1707C1207.01 66.6133 1207.29 67.1427 1207.5 67.7433C1207.7 68.3439 1207.8 68.984 1207.8 69.6399C1207.8 70.3275 1207.69 70.9675 1207.46 71.5602C1207.24 72.153 1206.92 72.6666 1206.52 73.1091C1206.12 73.5517 1205.65 73.8994 1205.1 74.1522C1204.55 74.4131 1203.96 74.5395 1203.33 74.5395ZM1202.65 72.477C1203.04 72.477 1203.4 72.3979 1203.72 72.2478C1204.05 72.0976 1204.33 71.8922 1204.56 71.6393C1204.79 71.3864 1204.98 71.094 1205.1 70.7542C1205.23 70.4144 1205.29 70.0509 1205.29 69.6715C1205.29 69.2843 1205.23 68.9208 1205.11 68.5652C1204.99 68.2174 1204.82 67.9093 1204.59 67.6405C1204.37 67.3719 1204.11 67.1664 1203.8 67.0083C1203.49 66.8504 1203.16 66.7713 1202.79 66.7713C1202.24 66.7713 1201.75 66.9531 1201.32 67.3087C1200.89 67.6643 1200.56 68.0989 1200.33 68.6205V70.8806C1200.41 71.1256 1200.53 71.3389 1200.7 71.5286C1200.87 71.7183 1201.05 71.8842 1201.26 72.0265C1201.47 72.1688 1201.69 72.2715 1201.94 72.3505C1202.18 72.4374 1202.42 72.477 1202.65 72.477Z" fill="#6B6B6B"/>
</g>
<defs>
<clipPath id="clip0_305_201">
<rect width="119.998" height="24" fill="white"/>
</clipPath>
<clipPath id="clip1_305_201">
<rect width="77" height="24" fill="white" transform="translate(183.998)"/>
</clipPath>
<clipPath id="clip2_305_201">
<rect width="115" height="24" fill="white" transform="translate(324.998)"/>
</clipPath>
<clipPath id="clip3_305_201">
<rect width="124" height="20" fill="white" transform="translate(503.998 2)"/>
</clipPath>
<clipPath id="clip4_305_201">
<rect width="144" height="24" fill="white" transform="translate(691.998)"/>
</clipPath>
<clipPath id="clip5_305_201">
<rect width="110" height="24" fill="white" transform="translate(899.998)"/>
</clipPath>
<clipPath id="clip6_305_201">
<rect width="143.2" height="24" fill="white" transform="translate(1074)"/>
</clipPath>
<clipPath id="clip7_305_201">
<rect width="126.5" height="22" fill="white" transform="translate(178 57)"/>
</clipPath>
<clipPath id="clip8_305_201">
<rect width="81.8156" height="12" fill="white" transform="translate(398.684 61.6001)"/>
</clipPath>
<clipPath id="clip9_305_201">
<rect width="23.8298" height="24" fill="white" transform="translate(368.5 56)"/>
</clipPath>
<clipPath id="clip10_305_201">
<rect width="64" height="20" fill="white" transform="translate(544.5 58)"/>
</clipPath>
<clipPath id="clip11_305_201">
<rect width="86" height="24" fill="white" transform="translate(672.5 56)"/>
</clipPath>
<clipPath id="clip12_305_201">
<rect width="85.2414" height="24" fill="white" transform="translate(1133.59 56)"/>
</clipPath>
</defs>
</svg>
