<svg width="810" height="784" viewBox="0 0 810 784" fill="none" xmlns="http://www.w3.org/2000/svg">
<g style="mix-blend-mode:soft-light">
<path d="M294.299 585.16V634.984M260.267 533.514V572.732C260.2 572.962 260.374 573.11 260.535 573.259L260.976 573.719L272.008 584.862L277.518 590.312L281.61 594.45L282.292 595.153C282.415 595.253 282.524 595.372 282.613 595.505V627.394M252.202 553.907V577.897C252.202 577.979 252.35 578.046 252.416 578.127L252.858 578.587L273.023 598.98L273.692 599.67L274.04 600.008C274.04 600.157 274.04 600.333 274.04 600.481V623.345M381.595 585.16V656.725M347.562 533.514V572.732C347.562 572.962 347.655 573.11 347.829 573.259L348.271 573.719L359.303 584.862L364.812 590.312L368.904 594.45L369.586 595.153C369.71 595.253 369.818 595.372 369.907 595.505V656.725M339.498 553.907V577.897C339.498 577.979 339.645 578.046 339.712 578.127L340.154 578.587L360.319 598.98L361.148 599.778L361.496 600.116C361.496 600.265 361.496 600.441 361.496 600.59V656.725M327.249 519.044V536.368L317.286 546.442C317.019 546.605 317.059 546.902 317.073 547.186V568.499C316.992 569.445 317.353 570.581 316.377 571.136L306.615 581.008C306.375 581.211 306.548 581.589 306.495 581.887V640.551M337.611 522.1V539.424L335.873 541.182L331.166 545.928L328.825 548.309L327.649 549.499C327.368 549.661 327.421 549.958 327.421 550.242V571.569C327.421 572.515 327.715 573.638 326.726 574.192L321.551 579.493L317.619 583.469L316.977 584.132C316.737 584.334 316.911 584.713 316.857 585.011V642.069M333.56 603.686L339.417 609.623V656.725M345.433 603.686L339.576 609.623V656.725M390.623 585.16V656.725M424.666 533.514V572.732C424.666 572.962 424.56 573.11 424.399 573.259L412.925 584.862L407.416 590.312L402.629 595.153C402.505 595.253 402.397 595.372 402.308 595.505V656.725M432.716 553.907V577.897C432.657 577.981 432.59 578.058 432.516 578.127L432.061 578.587L421.323 589.514L411.962 598.98L411.293 599.67L410.959 600.008C410.946 600.166 410.946 600.324 410.959 600.481V656.725M421.886 615.582V656.177M495.729 585.16V640.045M461.684 533.514V572.732C461.684 572.962 461.791 573.11 461.951 573.259L462.406 573.719L473.478 584.808L478.934 590.312L483.721 595.153C483.845 595.253 483.953 595.372 484.042 595.505V656.725M453.619 553.907V577.897C453.619 577.979 453.766 578.046 453.833 578.127L475.47 600.008C475.49 600.165 475.49 600.324 475.47 600.481V656.725M548.978 533.514V572.732C548.978 572.962 549.085 573.11 549.246 573.259L560.719 584.862L566.229 590.312L571.016 595.153C571.14 595.253 571.248 595.372 571.337 595.505V602.091M540.915 553.907V577.897C540.915 577.979 541.062 578.046 541.129 578.127L562.752 600.008C562.772 600.165 562.772 600.324 562.752 600.481L563.915 608.67M464.199 615.582V656.177M528.679 519.044V536.368L526.941 538.126L522.233 542.872L519.893 545.252L518.716 546.442C518.436 546.605 518.489 546.902 518.489 547.186V568.499C518.422 569.445 518.783 570.581 517.794 571.136L512.619 576.383L510.024 578.993L508.687 580.345L508.045 581.008C507.805 581.211 507.978 581.589 507.925 581.887V638.021M539.001 522.1V539.424L529.038 549.499C528.771 549.661 528.811 549.958 528.811 550.242V571.569C528.811 572.515 529.105 573.638 528.129 574.192L522.954 579.493L520.373 582.117L518.38 584.132C518.14 584.334 518.314 584.713 518.26 585.011V630.43M437.156 603.686L443.027 609.623V656.725M449.044 603.686L443.174 609.623V656.725M546.865 603.686L540.995 609.623V621.037M396.638 531.12V567.24L413.474 584.252M375.537 531.12V567.24L358.714 584.252M288.295 531.12V567.24L271.459 584.252M602.293 497.745H673.047M551.239 532.162H589.939C590.18 532.162 590.313 532.054 590.46 531.891L612.231 509.875C612.351 509.781 612.445 509.618 612.578 509.551H673.009M571.391 540.275H595.167C595.253 540.21 595.334 540.138 595.408 540.059L595.849 539.599L616.015 519.219L616.683 518.53L617.018 518.192C617.178 518.171 617.339 518.171 617.499 518.192H673.022M602.293 409.465H673.047M551.239 443.881H589.939C590.18 443.881 590.313 443.773 590.46 443.61L612.231 421.595C612.351 421.5 612.445 421.338 612.578 421.27H673.009M571.391 452.036H595.167C595.253 451.972 595.334 451.899 595.408 451.82L595.849 451.36L616.015 430.981L616.683 430.291L617.018 429.953C617.178 429.939 617.339 429.939 617.499 429.953H673.022M536.903 464.41H554.034L555.772 466.168L560.466 470.929L562.819 473.295L563.996 474.485C564.157 474.769 564.451 474.729 564.732 474.715H585.807C586.743 474.715 587.853 474.418 588.414 475.418L598.163 485.277C598.363 485.52 598.751 485.277 599.032 485.398H673.075M539.925 453.943H557.055L567.018 464.018C567.178 464.302 567.472 464.248 567.753 464.248H588.842C589.778 464.316 590.888 463.95 591.516 464.938L596.691 470.185L599.178 472.795L600.516 474.147L601.158 474.81C601.372 475.053 601.746 474.877 602.027 474.931H676.07M620.602 458.042L626.473 452.118H673.049M620.602 446.032L626.473 451.955H673.049M602.293 400.337H673.047M551.239 365.906H589.939C590.18 365.906 590.313 366.014 590.46 366.177L612.231 388.193C612.351 388.287 612.445 388.45 612.578 388.517H673.009M571.391 357.712H595.167C595.253 357.777 595.334 357.849 595.408 357.928L595.849 358.388L616.015 378.767L616.683 379.457L617.018 379.795C617.178 379.816 617.339 379.816 617.499 379.795H673.022M632.364 368.719H673.591M602.293 294.043H673.047M551.239 328.461H589.939C590.18 328.528 590.313 328.366 590.46 328.19L590.915 327.744L601.934 316.601L607.443 311.016L611.535 306.878L612.231 306.188C612.333 306.066 612.45 305.957 612.578 305.863H673.009M571.391 336.615H595.167C595.26 336.559 595.341 336.485 595.408 336.399L617.018 314.545C617.178 314.532 617.339 314.532 617.499 314.545H673.022M552.561 240.193H589.937C590.178 240.193 590.312 240.085 590.459 239.923L607.442 222.748L610.196 219.949L611.534 218.597L612.229 217.907C612.331 217.785 612.448 217.676 612.577 217.582H656.991M571.421 247.857H594.835C594.923 247.803 595.003 247.738 595.072 247.662L595.507 247.219L616.353 226.613C616.51 226.6 616.669 226.6 616.827 226.613H671.503M632.364 325.929H672.506M536.903 260.723H554.034L563.996 270.798C564.157 271.081 564.451 271.027 564.732 271.027H585.807C586.743 271.095 587.853 270.73 588.414 271.717L593.589 276.964L596.184 279.574L597.521 280.926L598.163 281.589C598.363 281.832 598.751 281.657 599.032 281.711H673.075M539.925 250.242H557.055L558.794 252L563.487 256.76L565.841 259.14L567.084 260.343C567.245 260.627 567.539 260.587 567.82 260.573H588.908C589.844 260.641 590.954 260.276 591.583 261.277L601.331 271.135C601.545 271.378 601.92 271.203 602.201 271.257H676.07M620.602 353.275L626.473 347.338H673.049M620.602 341.254L626.473 347.19H673.049M620.602 254.354L626.473 248.417H673.049M620.602 242.331L626.473 248.268H673.049M548.846 394.251H584.564L601.4 377.225M548.846 415.591H584.564L601.4 432.603M548.846 503.816H584.564L601.4 520.842M515.841 186.276V133.49M549.874 237.909V198.773C549.941 198.529 549.767 198.38 549.607 198.232L538.133 186.642L532.624 181.057L527.85 176.229C527.729 176.121 527.621 175.998 527.529 175.864V143.105M557.938 217.529V193.539C557.938 193.458 557.791 193.39 557.724 193.309L557.283 192.863L546.478 181.909L536.101 171.415C536.101 171.266 536.101 171.104 536.101 170.942V149.178M428.545 186.276V114.725M462.578 237.909V198.773C462.578 198.529 462.484 198.38 462.31 198.232L450.837 186.642L445.394 181.057L440.62 176.229C440.499 176.121 440.391 175.998 440.299 175.864V114.766M470.642 217.529V193.539C470.578 193.456 470.507 193.379 470.428 193.309L469.987 192.863L459.182 181.909L448.805 171.415C448.805 171.266 448.805 171.104 448.805 170.942V114.793M482.837 252.406V235.083L484.575 233.325L489.269 228.565L491.622 226.198L492.799 225.008C493.067 224.846 493.026 224.535 493.026 224.264V202.938C493.026 201.991 492.732 200.869 493.708 200.301L498.897 195.067L501.478 192.444L502.815 191.092L503.47 190.442C503.711 190.226 503.537 189.847 503.591 189.563V127.924M472.527 249.35V232.027L482.49 221.952C482.771 221.789 482.717 221.478 482.717 221.208V199.882C482.717 198.935 482.423 197.813 483.412 197.177L493.161 187.319C493.402 187.102 493.228 186.724 493.281 186.44V123.37M476.594 167.764L470.723 161.827V114.726M464.706 167.764L470.577 161.827V114.726M419.518 186.276V114.725M385.473 237.909V198.773C385.473 198.529 385.58 198.38 385.74 198.232L386.195 197.785L397.254 186.642L402.763 181.057L407.537 176.229C407.658 176.121 407.766 175.998 407.858 175.864V114.766M377.423 217.529V193.539C377.482 193.456 377.549 193.379 377.623 193.309L378.078 192.863L398.912 171.794L399.246 171.442C399.26 171.284 399.26 171.126 399.246 170.969V114.82M388.254 155.868V115.273M314.213 186.119V123.369M348.457 237.909V198.773C348.457 198.529 348.35 198.38 348.189 198.232L347.735 197.785L336.716 186.642L331.206 181.057L327.114 176.919L326.419 176.229C326.298 176.121 326.19 175.998 326.098 175.864V114.766M356.52 217.529V193.539C356.52 193.458 356.373 193.39 356.306 193.309L355.852 192.863L345.1 181.909L335.739 172.443L335.057 171.767L334.723 171.415C334.703 171.258 334.703 171.099 334.723 170.942V114.793M261.161 237.909V198.773C261.161 198.529 261.054 198.38 260.893 198.232L260.439 197.785L249.42 186.642L243.91 181.057L239.818 176.919L239.123 176.229C239.029 176.107 238.869 175.999 238.802 175.864M269.225 217.529V193.539C269.225 193.458 269.078 193.39 269.011 193.309L268.556 192.863L257.765 181.909L248.404 172.443L247.722 171.767L247.388 171.415C247.368 171.258 247.368 171.099 247.388 170.942M345.941 155.868V115.273M281.462 252.406V235.083L291.424 225.008C291.705 224.846 291.651 224.535 291.651 224.264V202.938C291.718 201.991 291.357 200.869 292.347 200.301L302.095 190.442C302.336 190.226 302.162 189.847 302.216 189.563M271.108 249.35V232.027L272.847 230.269L277.541 225.508L279.894 223.142L281.071 221.952C281.338 221.789 281.298 221.478 281.298 221.208V199.882C281.365 198.935 281.004 197.813 281.98 197.177L287.169 191.944L289.75 189.32L291.087 187.968L291.742 187.319C291.983 187.102 291.809 186.724 291.862 186.44M372.983 167.764L367.112 161.827V114.726M361.108 167.764L366.965 161.827V114.726M263.289 167.764L269.146 161.827V150.4M413.514 240.33V204.209L396.678 187.184M434.603 240.33V204.209L451.439 187.184M521.845 240.33V204.209L538.681 187.184M207.86 273.705H137.093M258.903 239.275H220.203C219.962 239.275 219.829 239.383 219.681 239.545L202.698 256.72L199.944 259.519L198.606 260.871L197.911 261.561C197.809 261.683 197.692 261.792 197.563 261.886H137.093M238.751 231.134H215.041C214.954 231.187 214.876 231.255 214.814 231.337L214.359 231.797L203.554 242.764L193.191 253.244C193.035 253.258 192.878 253.258 192.723 253.244H137.093M207.86 361.984H137.093M258.903 327.554H220.203C219.962 327.554 219.829 327.663 219.681 327.825L197.911 349.841C197.809 349.963 197.692 350.072 197.563 350.165H137.093M238.751 319.399H215.041C214.956 319.461 214.88 319.534 214.814 319.616L194.193 340.469L193.525 341.158L193.191 341.496C193.035 341.51 192.878 341.51 192.723 341.496H137.093M273.238 307.026H256.108L246.146 296.952C245.985 296.668 245.691 296.722 245.41 296.722H224.322C223.386 296.722 222.276 297.019 221.647 296.018L212.541 286.809L211.899 286.146C211.698 285.903 211.31 286.079 211.029 286.025H137.093M270.216 317.507H253.085L251.347 315.749L246.653 310.989L243.123 307.419C242.962 307.148 242.668 307.189 242.387 307.202H221.299C220.363 307.202 219.253 307.486 218.691 306.499L208.943 296.641C208.742 296.397 208.354 296.573 208.074 296.519H134.07M189.54 313.396L183.669 319.333H137.093M189.54 325.418L183.669 319.481H137.093M207.86 371.113H137.093M258.903 405.53H220.203C219.962 405.53 219.829 405.421 219.681 405.259L219.227 404.813L198.606 383.946L197.911 383.257C197.809 383.135 197.692 383.026 197.563 382.932H137.093M238.751 413.684H215.041C214.956 413.623 214.88 413.55 214.814 413.468L214.359 413.021L193.525 391.952L193.191 391.601C193.043 391.601 192.87 391.601 192.723 391.601H137.093M177.777 402.731H137.634M207.86 477.393H137.093M258.903 442.908H220.203C219.962 442.84 219.829 443.016 219.681 443.178L202.698 460.353L199.944 463.192L197.911 465.248C197.791 465.343 197.697 465.505 197.563 465.559H137.093M238.751 434.793H215.041C214.956 434.855 214.88 434.928 214.814 435.01L194.193 455.849L193.525 456.539L193.191 456.877C193.035 456.891 192.878 456.891 192.723 456.877H137.093M257.659 531.256H220.216C219.976 531.188 219.842 531.364 219.695 531.526L219.24 531.972L198.62 552.839L197.924 553.528C197.822 553.651 197.705 553.76 197.577 553.853H152.581M238.751 523.1H215.041C214.956 523.162 214.88 523.235 214.814 523.317L214.359 523.763L193.525 544.832L193.191 545.184C193.043 545.184 192.87 545.184 192.723 545.184H153.582M177.777 445.521H137.634M273.238 510.727H256.108L254.37 508.969L249.676 504.209L246.146 500.639C245.985 500.368 245.691 500.409 245.41 500.422H224.322C223.386 500.355 222.276 500.706 221.647 499.719L211.899 489.861C211.698 489.617 211.31 489.793 211.029 489.739H137.093M270.216 521.195H253.085L243.123 511.12C242.962 510.836 242.668 510.89 242.387 510.89H221.299C220.363 510.822 219.253 511.187 218.691 510.187L208.943 500.328C208.742 500.085 208.354 500.261 208.074 500.207H134.07M189.54 418.174L183.669 424.111H137.093M189.54 430.182L183.669 424.259H137.093M189.54 517.097L183.669 523.02H137.093M189.54 529.106L183.669 523.183H137.093M261.296 377.186H225.578L208.756 394.212M261.296 355.858H225.578L208.756 338.832M261.296 267.632H225.578L208.756 250.607M294.285 579.723C293.756 579.723 293.239 579.882 292.799 580.179C292.359 580.476 292.016 580.898 291.814 581.393C291.612 581.887 291.559 582.431 291.662 582.955C291.765 583.48 292.02 583.962 292.394 584.34C292.768 584.718 293.244 584.976 293.763 585.08C294.282 585.185 294.82 585.131 295.308 584.926C295.797 584.722 296.215 584.375 296.509 583.93C296.803 583.485 296.959 582.962 296.959 582.428C296.959 581.71 296.678 581.022 296.176 580.515C295.675 580.008 294.994 579.723 294.285 579.723ZM260.265 528.105C259.736 528.105 259.218 528.264 258.779 528.561C258.339 528.858 257.996 529.28 257.794 529.775C257.591 530.269 257.538 530.813 257.641 531.337C257.745 531.862 257.999 532.344 258.373 532.722C258.747 533.1 259.224 533.358 259.743 533.462C260.262 533.567 260.799 533.513 261.288 533.308C261.777 533.104 262.194 532.757 262.488 532.312C262.782 531.867 262.939 531.344 262.939 530.81C262.939 530.092 262.657 529.404 262.156 528.897C261.654 528.39 260.974 528.105 260.265 528.105ZM252.203 548.47C251.674 548.47 251.157 548.628 250.717 548.926C250.278 549.223 249.935 549.645 249.732 550.139C249.53 550.634 249.477 551.177 249.58 551.702C249.683 552.227 249.938 552.709 250.312 553.087C250.686 553.465 251.163 553.723 251.682 553.827C252.2 553.931 252.738 553.878 253.227 553.673C253.716 553.469 254.133 553.122 254.427 552.677C254.721 552.232 254.878 551.709 254.878 551.174C254.878 550.457 254.596 549.769 254.094 549.262C253.593 548.755 252.913 548.47 252.203 548.47ZM381.596 579.723C381.067 579.723 380.549 579.882 380.11 580.179C379.67 580.476 379.327 580.898 379.125 581.393C378.922 581.887 378.869 582.431 378.972 582.955C379.076 583.48 379.33 583.962 379.704 584.34C380.078 584.718 380.555 584.976 381.074 585.08C381.593 585.185 382.13 585.131 382.619 584.926C383.108 584.722 383.525 584.375 383.819 583.93C384.113 583.485 384.27 582.962 384.27 582.428C384.27 581.71 383.988 581.022 383.487 580.515C382.985 580.008 382.305 579.723 381.596 579.723ZM347.56 528.105C347.031 528.105 346.514 528.264 346.075 528.561C345.635 528.858 345.292 529.28 345.09 529.775C344.887 530.269 344.834 530.813 344.937 531.337C345.041 531.862 345.295 532.344 345.669 532.722C346.043 533.1 346.52 533.358 347.039 533.462C347.557 533.567 348.095 533.513 348.584 533.308C349.073 533.104 349.49 532.757 349.784 532.312C350.078 531.867 350.235 531.344 350.235 530.81C350.235 530.092 349.953 529.404 349.452 528.897C348.95 528.39 348.27 528.105 347.56 528.105ZM339.497 548.47C338.968 548.47 338.451 548.628 338.011 548.926C337.571 549.223 337.229 549.645 337.026 550.139C336.824 550.634 336.771 551.177 336.874 551.702C336.977 552.227 337.232 552.709 337.606 553.087C337.98 553.465 338.456 553.723 338.975 553.827C339.494 553.931 340.032 553.878 340.521 553.673C341.009 553.469 341.427 553.122 341.721 552.677C342.015 552.232 342.172 551.709 342.172 551.174C342.172 550.457 341.89 549.769 341.388 549.262C340.887 548.755 340.206 548.47 339.497 548.47ZM327.249 513.607C326.72 513.607 326.203 513.766 325.763 514.063C325.324 514.36 324.981 514.783 324.778 515.277C324.576 515.771 324.523 516.315 324.626 516.839C324.729 517.364 324.984 517.846 325.358 518.224C325.732 518.603 326.209 518.86 326.727 518.965C327.246 519.069 327.784 519.015 328.273 518.811C328.761 518.606 329.179 518.259 329.473 517.814C329.767 517.37 329.924 516.847 329.924 516.312C329.924 515.594 329.642 514.907 329.14 514.399C328.639 513.892 327.959 513.607 327.249 513.607ZM337.611 516.663C337.082 516.663 336.565 516.821 336.125 517.119C335.686 517.416 335.343 517.838 335.14 518.332C334.938 518.827 334.885 519.37 334.988 519.895C335.091 520.42 335.346 520.902 335.72 521.28C336.094 521.658 336.571 521.916 337.09 522.02C337.608 522.124 338.146 522.071 338.635 521.866C339.124 521.661 339.541 521.315 339.835 520.87C340.129 520.425 340.286 519.902 340.286 519.367C340.286 518.65 340.004 517.962 339.503 517.455C339.001 516.948 338.321 516.663 337.611 516.663ZM329.75 599.778C329.378 600.157 329.126 600.639 329.024 601.163C328.923 601.687 328.977 602.23 329.18 602.722C329.383 603.215 329.726 603.636 330.165 603.933C330.605 604.229 331.121 604.387 331.649 604.387C332.177 604.387 332.693 604.229 333.133 603.933C333.572 603.636 333.915 603.215 334.118 602.722C334.321 602.23 334.375 601.687 334.274 601.163C334.172 600.639 333.92 600.157 333.548 599.778C333.299 599.524 333.004 599.323 332.678 599.186C332.352 599.048 332.002 598.978 331.649 598.978C331.296 598.978 330.946 599.048 330.621 599.186C330.295 599.323 329.999 599.524 329.75 599.778ZM349.233 599.778C348.858 599.402 348.381 599.146 347.863 599.044C347.345 598.941 346.808 598.996 346.321 599.202C345.833 599.407 345.417 599.754 345.124 600.198C344.831 600.642 344.675 601.164 344.675 601.698C344.675 602.232 344.831 602.754 345.124 603.199C345.417 603.643 345.833 603.99 346.321 604.195C346.808 604.4 347.345 604.455 347.863 604.353C348.381 604.25 348.858 603.995 349.233 603.619C349.483 603.367 349.682 603.068 349.818 602.738C349.954 602.409 350.024 602.055 350.024 601.698C350.024 601.341 349.954 600.988 349.818 600.658C349.682 600.328 349.483 600.029 349.233 599.778ZM390.567 579.723C390.038 579.723 389.521 579.882 389.081 580.179C388.641 580.476 388.299 580.898 388.096 581.393C387.894 581.887 387.841 582.431 387.944 582.955C388.047 583.48 388.302 583.962 388.676 584.34C389.05 584.718 389.526 584.976 390.045 585.08C390.564 585.185 391.102 585.131 391.59 584.926C392.079 584.722 392.497 584.375 392.791 583.93C393.085 583.485 393.241 582.962 393.241 582.428C393.241 581.71 392.96 581.022 392.458 580.515C391.957 580.008 391.276 579.723 390.567 579.723ZM424.668 528.105C424.139 528.105 423.622 528.264 423.182 528.561C422.743 528.858 422.4 529.28 422.197 529.775C421.995 530.269 421.942 530.813 422.045 531.337C422.148 531.862 422.403 532.344 422.777 532.722C423.151 533.1 423.628 533.358 424.147 533.462C424.665 533.567 425.203 533.513 425.692 533.308C426.181 533.104 426.598 532.757 426.892 532.312C427.186 531.867 427.343 531.344 427.343 530.81C427.343 530.092 427.061 529.404 426.559 528.897C426.058 528.39 425.378 528.105 424.668 528.105ZM432.718 548.47C432.189 548.47 431.672 548.628 431.232 548.926C430.793 549.223 430.45 549.645 430.247 550.139C430.045 550.634 429.992 551.177 430.095 551.702C430.198 552.227 430.453 552.709 430.827 553.087C431.201 553.465 431.678 553.723 432.196 553.827C432.715 553.931 433.253 553.878 433.742 553.673C434.23 553.469 434.648 553.122 434.942 552.677C435.236 552.232 435.393 551.709 435.393 551.174C435.393 550.457 435.111 549.769 434.609 549.262C434.108 548.755 433.428 548.47 432.718 548.47ZM421.751 610.529C421.222 610.529 420.705 610.688 420.265 610.985C419.825 611.282 419.483 611.705 419.28 612.199C419.078 612.693 419.025 613.237 419.128 613.762C419.231 614.286 419.486 614.768 419.86 615.146C420.234 615.525 420.711 615.782 421.229 615.887C421.748 615.991 422.286 615.937 422.775 615.733C423.263 615.528 423.681 615.181 423.975 614.737C424.269 614.292 424.426 613.769 424.426 613.234C424.426 612.517 424.144 611.829 423.642 611.321C423.141 610.814 422.46 610.529 421.751 610.529ZM495.727 579.723C495.198 579.723 494.681 579.882 494.241 580.179C493.802 580.476 493.459 580.898 493.256 581.393C493.054 581.887 493.001 582.431 493.104 582.955C493.207 583.48 493.462 583.962 493.836 584.34C494.21 584.718 494.687 584.976 495.206 585.08C495.724 585.185 496.262 585.131 496.751 584.926C497.24 584.722 497.657 584.375 497.951 583.93C498.245 583.485 498.402 582.962 498.402 582.428C498.402 581.71 498.12 581.022 497.618 580.515C497.117 580.008 496.437 579.723 495.727 579.723ZM461.682 528.105C461.153 528.105 460.636 528.264 460.196 528.561C459.757 528.858 459.414 529.28 459.211 529.775C459.009 530.269 458.956 530.813 459.059 531.337C459.162 531.862 459.417 532.344 459.791 532.722C460.165 533.1 460.642 533.358 461.16 533.462C461.679 533.567 462.217 533.513 462.706 533.308C463.194 533.104 463.612 532.757 463.906 532.312C464.2 531.867 464.357 531.344 464.357 530.81C464.357 530.092 464.075 529.404 463.573 528.897C463.072 528.39 462.392 528.105 461.682 528.105ZM453.62 548.47C453.091 548.47 452.574 548.628 452.134 548.926C451.694 549.223 451.351 549.645 451.149 550.139C450.947 550.634 450.894 551.177 450.997 551.702C451.1 552.227 451.355 552.709 451.729 553.087C452.103 553.465 452.579 553.723 453.098 553.827C453.617 553.931 454.155 553.878 454.643 553.673C455.132 553.469 455.55 553.122 455.844 552.677C456.138 552.232 456.294 551.709 456.294 551.174C456.294 550.457 456.013 549.769 455.511 549.262C455.01 548.755 454.329 548.47 453.62 548.47ZM548.977 528.105C548.448 528.105 547.931 528.264 547.491 528.561C547.051 528.858 546.709 529.28 546.506 529.775C546.304 530.269 546.251 530.813 546.354 531.337C546.457 531.862 546.712 532.344 547.086 532.722C547.46 533.1 547.936 533.358 548.455 533.462C548.974 533.567 549.512 533.513 550 533.308C550.489 533.104 550.907 532.757 551.201 532.312C551.495 531.867 551.651 531.344 551.651 530.81C551.651 530.092 551.37 529.404 550.868 528.897C550.367 528.39 549.686 528.105 548.977 528.105ZM540.914 548.47C540.385 548.47 539.868 548.628 539.428 548.926C538.988 549.223 538.645 549.645 538.443 550.139C538.24 550.634 538.187 551.177 538.29 551.702C538.394 552.227 538.648 552.709 539.022 553.087C539.396 553.465 539.873 553.723 540.392 553.827C540.911 553.931 541.448 553.878 541.937 553.673C542.426 553.469 542.843 553.122 543.137 552.677C543.431 552.232 543.588 551.709 543.588 551.174C543.588 550.457 543.306 549.769 542.805 549.262C542.303 548.755 541.623 548.47 540.914 548.47ZM464.598 610.529C464.069 610.529 463.552 610.688 463.112 610.985C462.673 611.282 462.33 611.705 462.127 612.199C461.925 612.693 461.872 613.237 461.975 613.762C462.078 614.286 462.333 614.768 462.707 615.146C463.081 615.525 463.558 615.782 464.076 615.887C464.595 615.991 465.133 615.937 465.622 615.733C466.11 615.528 466.528 615.181 466.822 614.737C467.116 614.292 467.273 613.769 467.273 613.234C467.273 612.517 466.991 611.829 466.489 611.321C465.988 610.814 465.308 610.529 464.598 610.529ZM528.679 513.607C528.15 513.607 527.633 513.766 527.193 514.063C526.754 514.36 526.411 514.783 526.208 515.277C526.006 515.771 525.953 516.315 526.056 516.839C526.159 517.364 526.414 517.846 526.788 518.224C527.162 518.603 527.639 518.86 528.157 518.965C528.676 519.069 529.214 519.015 529.703 518.811C530.191 518.606 530.609 518.259 530.903 517.814C531.197 517.37 531.354 516.847 531.354 516.312C531.354 515.594 531.072 514.907 530.57 514.399C530.069 513.892 529.389 513.607 528.679 513.607ZM539.002 516.663C538.473 516.663 537.956 516.821 537.516 517.119C537.076 517.416 536.734 517.838 536.531 518.332C536.329 518.827 536.276 519.37 536.379 519.895C536.482 520.42 536.737 520.902 537.111 521.28C537.485 521.658 537.962 521.916 538.48 522.02C538.999 522.124 539.537 522.071 540.026 521.866C540.514 521.661 540.932 521.315 541.226 520.87C541.52 520.425 541.677 519.902 541.677 519.367C541.677 518.65 541.395 517.962 540.893 517.455C540.392 516.948 539.711 516.663 539.002 516.663ZM433.359 599.778C432.988 600.157 432.735 600.639 432.634 601.163C432.532 601.687 432.586 602.23 432.789 602.722C432.993 603.215 433.335 603.636 433.775 603.933C434.214 604.229 434.73 604.387 435.258 604.387C435.786 604.387 436.303 604.229 436.742 603.933C437.181 603.636 437.524 603.215 437.727 602.722C437.93 602.23 437.984 601.687 437.883 601.163C437.781 600.639 437.529 600.157 437.157 599.778C436.909 599.524 436.613 599.323 436.287 599.186C435.961 599.048 435.611 598.978 435.258 598.978C434.905 598.978 434.556 599.048 434.23 599.186C433.904 599.323 433.608 599.524 433.359 599.778ZM452.843 599.778C452.468 599.402 451.992 599.146 451.473 599.044C450.955 598.941 450.419 598.996 449.931 599.202C449.444 599.407 449.027 599.754 448.734 600.198C448.442 600.642 448.285 601.164 448.285 601.698C448.285 602.232 448.442 602.754 448.734 603.199C449.027 603.643 449.444 603.99 449.931 604.195C450.419 604.4 450.955 604.455 451.473 604.353C451.992 604.25 452.468 603.995 452.843 603.619C453.094 603.367 453.293 603.068 453.429 602.738C453.564 602.409 453.634 602.055 453.634 601.698C453.634 601.341 453.564 600.988 453.429 600.658C453.293 600.328 453.094 600.029 452.843 599.778ZM531.179 599.777C530.809 600.157 530.559 600.639 530.459 601.163C530.359 601.686 530.414 602.228 530.618 602.72C530.821 603.211 531.164 603.631 531.603 603.927C532.042 604.222 532.558 604.38 533.085 604.38C533.612 604.38 534.127 604.222 534.566 603.927C535.005 603.631 535.348 603.211 535.552 602.72C535.755 602.228 535.811 601.686 535.711 601.163C535.611 600.639 535.36 600.157 534.99 599.777C534.741 599.522 534.445 599.319 534.118 599.18C533.791 599.042 533.439 598.97 533.085 598.97C532.73 598.97 532.379 599.042 532.052 599.18C531.725 599.319 531.428 599.522 531.179 599.777ZM550.664 599.778C550.289 599.402 549.813 599.146 549.294 599.044C548.776 598.941 548.24 598.996 547.752 599.202C547.265 599.407 546.848 599.754 546.555 600.198C546.262 600.642 546.106 601.164 546.106 601.698C546.106 602.232 546.262 602.754 546.555 603.199C546.848 603.643 547.265 603.99 547.752 604.195C548.24 604.4 548.776 604.455 549.294 604.353C549.813 604.25 550.289 603.995 550.664 603.619C550.915 603.367 551.114 603.068 551.249 602.738C551.385 602.409 551.455 602.055 551.455 601.698C551.455 601.341 551.385 600.988 551.249 600.658C551.114 600.328 550.915 600.029 550.664 599.778ZM396.638 525.684C396.109 525.684 395.592 525.843 395.152 526.14C394.712 526.437 394.37 526.86 394.167 527.354C393.965 527.848 393.912 528.392 394.015 528.917C394.118 529.441 394.373 529.923 394.747 530.301C395.121 530.68 395.598 530.937 396.116 531.042C396.635 531.146 397.173 531.092 397.662 530.888C398.15 530.683 398.568 530.336 398.862 529.892C399.156 529.447 399.313 528.924 399.313 528.389C399.313 527.672 399.031 526.984 398.529 526.477C398.028 525.969 397.347 525.684 396.638 525.684ZM375.538 525.684C375.009 525.684 374.492 525.843 374.052 526.14C373.612 526.437 373.269 526.86 373.067 527.354C372.864 527.848 372.812 528.392 372.915 528.917C373.018 529.441 373.273 529.923 373.647 530.301C374.021 530.68 374.497 530.937 375.016 531.042C375.535 531.146 376.073 531.092 376.561 530.888C377.05 530.683 377.468 530.336 377.762 529.892C378.056 529.447 378.212 528.924 378.212 528.389C378.212 527.672 377.931 526.984 377.429 526.477C376.927 525.969 376.247 525.684 375.538 525.684ZM288.296 525.684C287.767 525.684 287.25 525.843 286.81 526.14C286.37 526.437 286.027 526.86 285.825 527.354C285.622 527.848 285.569 528.392 285.673 528.917C285.776 529.441 286.031 529.923 286.405 530.301C286.779 530.68 287.255 530.937 287.774 531.042C288.293 531.146 288.831 531.092 289.319 530.888C289.808 530.683 290.226 530.336 290.52 529.892C290.813 529.447 290.97 528.924 290.97 528.389C290.97 527.672 290.689 526.984 290.187 526.477C289.685 525.969 289.005 525.684 288.296 525.684ZM596.919 497.746C596.919 498.281 597.076 498.804 597.37 499.249C597.664 499.693 598.081 500.04 598.57 500.245C599.059 500.449 599.596 500.503 600.115 500.399C600.634 500.294 601.111 500.037 601.485 499.658C601.859 499.28 602.113 498.798 602.217 498.274C602.32 497.749 602.267 497.205 602.064 496.711C601.862 496.217 601.519 495.794 601.079 495.497C600.64 495.2 600.122 495.041 599.593 495.041C598.884 495.041 598.204 495.326 597.702 495.833C597.201 496.341 596.919 497.029 596.919 497.746ZM566.014 540.277C566.014 540.812 566.171 541.334 566.465 541.779C566.759 542.224 567.177 542.571 567.665 542.775C568.154 542.98 568.692 543.034 569.211 542.929C569.729 542.825 570.206 542.567 570.58 542.189C570.954 541.811 571.209 541.329 571.312 540.804C571.415 540.28 571.362 539.736 571.16 539.242C570.957 538.747 570.615 538.325 570.175 538.028C569.735 537.731 569.218 537.572 568.689 537.572C567.98 537.572 567.299 537.857 566.798 538.364C566.296 538.871 566.014 539.559 566.014 540.277ZM596.919 409.465C596.919 410 597.076 410.523 597.37 410.968C597.664 411.413 598.081 411.759 598.57 411.964C599.059 412.169 599.596 412.222 600.115 412.118C600.634 412.013 601.111 411.756 601.485 411.378C601.859 410.999 602.113 410.517 602.217 409.993C602.32 409.468 602.267 408.924 602.064 408.43C601.862 407.936 601.519 407.513 601.079 407.216C600.64 406.919 600.122 406.761 599.593 406.761C598.884 406.761 598.204 407.045 597.702 407.553C597.201 408.06 596.919 408.748 596.919 409.465ZM545.861 443.882C545.861 444.417 546.018 444.94 546.312 445.384C546.606 445.829 547.024 446.176 547.512 446.38C548.001 446.585 548.539 446.639 549.058 446.534C549.577 446.43 550.053 446.172 550.427 445.794C550.801 445.416 551.056 444.934 551.159 444.409C551.262 443.885 551.209 443.341 551.007 442.847C550.804 442.352 550.462 441.93 550.022 441.633C549.582 441.336 549.065 441.177 548.536 441.177C547.827 441.177 547.146 441.462 546.645 441.969C546.143 442.476 545.861 443.164 545.861 443.882ZM566.014 452.035C566.014 452.57 566.171 453.093 566.465 453.538C566.759 453.983 567.177 454.33 567.665 454.534C568.154 454.739 568.692 454.793 569.211 454.688C569.729 454.584 570.206 454.326 570.58 453.948C570.954 453.57 571.209 453.088 571.312 452.563C571.415 452.039 571.362 451.495 571.16 451C570.957 450.506 570.615 450.084 570.175 449.787C569.735 449.489 569.218 449.331 568.689 449.331C567.98 449.331 567.299 449.616 566.798 450.123C566.296 450.63 566.014 451.318 566.014 452.035ZM531.527 464.41C531.527 464.945 531.684 465.468 531.978 465.913C532.272 466.357 532.689 466.704 533.178 466.909C533.667 467.114 534.204 467.167 534.723 467.063C535.242 466.958 535.719 466.701 536.093 466.323C536.467 465.944 536.721 465.462 536.825 464.938C536.928 464.413 536.875 463.869 536.672 463.375C536.47 462.881 536.127 462.458 535.687 462.161C535.248 461.864 534.731 461.705 534.202 461.705C533.492 461.705 532.812 461.99 532.31 462.498C531.809 463.005 531.527 463.693 531.527 464.41ZM534.549 453.942C534.549 454.477 534.705 455 534.999 455.445C535.293 455.89 535.711 456.236 536.2 456.441C536.688 456.646 537.226 456.699 537.745 456.595C538.264 456.491 538.74 456.233 539.114 455.855C539.488 455.477 539.743 454.995 539.846 454.47C539.949 453.945 539.896 453.402 539.694 452.907C539.492 452.413 539.149 451.991 538.709 451.694C538.269 451.396 537.752 451.238 537.223 451.238C536.514 451.238 535.833 451.523 535.332 452.03C534.83 452.537 534.549 453.225 534.549 453.942ZM616.804 461.84C617.178 462.216 617.655 462.471 618.173 462.574C618.691 462.677 619.228 462.622 619.716 462.416C620.203 462.211 620.619 461.864 620.912 461.42C621.205 460.976 621.362 460.454 621.362 459.92C621.362 459.386 621.205 458.864 620.912 458.419C620.619 457.975 620.203 457.628 619.716 457.423C619.228 457.218 618.691 457.163 618.173 457.265C617.655 457.368 617.178 457.623 616.804 457.999C616.553 458.251 616.354 458.55 616.218 458.88C616.082 459.209 616.012 459.563 616.012 459.92C616.012 460.277 616.082 460.63 616.218 460.96C616.354 461.289 616.553 461.589 616.804 461.84ZM616.803 442.178C616.431 442.557 616.178 443.039 616.077 443.563C615.975 444.087 616.03 444.63 616.233 445.123C616.436 445.616 616.779 446.037 617.218 446.333C617.657 446.629 618.174 446.787 618.702 446.787C619.23 446.787 619.746 446.629 620.185 446.333C620.624 446.037 620.967 445.616 621.17 445.123C621.373 444.63 621.428 444.087 621.326 443.563C621.225 443.039 620.972 442.557 620.6 442.178C620.352 441.924 620.056 441.723 619.73 441.586C619.404 441.449 619.055 441.378 618.702 441.378C618.348 441.378 617.999 441.449 617.673 441.586C617.347 441.723 617.051 441.924 616.803 442.178ZM596.919 400.323C596.919 400.858 597.076 401.381 597.37 401.826C597.664 402.271 598.081 402.617 598.57 402.822C599.059 403.027 599.596 403.08 600.115 402.976C600.634 402.872 601.111 402.614 601.485 402.236C601.859 401.857 602.113 401.376 602.217 400.851C602.32 400.326 602.267 399.782 602.064 399.288C601.862 398.794 601.519 398.372 601.079 398.074C600.64 397.777 600.122 397.619 599.593 397.619C598.884 397.619 598.204 397.904 597.702 398.411C597.201 398.918 596.919 399.606 596.919 400.323ZM545.861 365.907C545.861 366.442 546.018 366.965 546.312 367.409C546.606 367.854 547.024 368.201 547.512 368.406C548.001 368.61 548.539 368.664 549.058 368.559C549.577 368.455 550.053 368.197 550.427 367.819C550.801 367.441 551.056 366.959 551.159 366.434C551.262 365.91 551.209 365.366 551.007 364.872C550.804 364.378 550.462 363.955 550.022 363.658C549.582 363.361 549.065 363.202 548.536 363.202C547.827 363.202 547.146 363.487 546.645 363.994C546.143 364.501 545.861 365.189 545.861 365.907ZM566.014 357.712C566.014 358.247 566.171 358.77 566.465 359.215C566.759 359.66 567.177 360.006 567.665 360.211C568.154 360.416 568.692 360.469 569.211 360.365C569.729 360.26 570.206 360.003 570.58 359.625C570.954 359.246 571.209 358.764 571.312 358.24C571.415 357.715 571.362 357.171 571.16 356.677C570.957 356.183 570.615 355.76 570.175 355.463C569.735 355.166 569.218 355.007 568.689 355.007C567.98 355.007 567.299 355.292 566.798 355.8C566.296 356.307 566.014 356.995 566.014 357.712ZM627.368 368.855C627.368 369.389 627.525 369.912 627.819 370.357C628.113 370.802 628.53 371.149 629.019 371.353C629.508 371.558 630.045 371.612 630.564 371.507C631.083 371.403 631.56 371.145 631.934 370.767C632.308 370.389 632.562 369.907 632.666 369.382C632.769 368.858 632.716 368.314 632.513 367.819C632.311 367.325 631.968 366.903 631.528 366.606C631.088 366.308 630.571 366.15 630.042 366.15C629.333 366.15 628.653 366.435 628.151 366.942C627.65 367.449 627.368 368.137 627.368 368.855ZM596.919 294.044C596.919 294.579 597.076 295.102 597.37 295.547C597.664 295.992 598.081 296.338 598.57 296.543C599.059 296.748 599.596 296.801 600.115 296.697C600.634 296.592 601.111 296.335 601.485 295.957C601.859 295.578 602.113 295.096 602.217 294.572C602.32 294.047 602.267 293.503 602.064 293.009C601.862 292.515 601.519 292.093 601.079 291.795C600.64 291.498 600.122 291.34 599.593 291.34C598.884 291.34 598.204 291.625 597.702 292.132C597.201 292.639 596.919 293.327 596.919 294.044ZM545.861 328.461C545.861 328.996 546.018 329.519 546.312 329.963C546.606 330.408 547.024 330.755 547.512 330.959C548.001 331.164 548.539 331.218 549.058 331.113C549.577 331.009 550.053 330.751 550.427 330.373C550.801 329.995 551.056 329.513 551.159 328.988C551.262 328.464 551.209 327.92 551.007 327.426C550.804 326.932 550.462 326.509 550.022 326.212C549.582 325.915 549.065 325.756 548.536 325.756C547.827 325.756 547.146 326.041 546.645 326.548C546.143 327.055 545.861 327.743 545.861 328.461ZM566.014 336.614C566.014 337.149 566.171 337.672 566.465 338.117C566.759 338.562 567.177 338.909 567.665 339.113C568.154 339.318 568.692 339.372 569.211 339.267C569.729 339.163 570.206 338.905 570.58 338.527C570.954 338.149 571.209 337.667 571.312 337.142C571.415 336.617 571.362 336.074 571.16 335.579C570.957 335.085 570.615 334.663 570.175 334.366C569.735 334.068 569.218 333.91 568.689 333.91C567.98 333.91 567.299 334.195 566.798 334.702C566.296 335.209 566.014 335.897 566.014 336.614ZM566.014 248.335C566.014 248.87 566.171 249.393 566.465 249.837C566.759 250.282 567.177 250.629 567.665 250.834C568.154 251.038 568.692 251.092 569.211 250.987C569.729 250.883 570.206 250.625 570.58 250.247C570.954 249.869 571.209 249.387 571.312 248.862C571.415 248.338 571.362 247.794 571.16 247.3C570.957 246.806 570.615 246.383 570.175 246.086C569.735 245.789 569.218 245.63 568.689 245.63C567.98 245.63 567.299 245.915 566.798 246.422C566.296 246.93 566.014 247.618 566.014 248.335ZM627.368 325.526C627.368 326.061 627.525 326.584 627.819 327.029C628.113 327.473 628.53 327.82 629.019 328.025C629.508 328.229 630.045 328.283 630.564 328.179C631.083 328.074 631.56 327.817 631.934 327.438C632.308 327.06 632.562 326.578 632.666 326.054C632.769 325.529 632.716 324.985 632.513 324.491C632.311 323.997 631.968 323.574 631.528 323.277C631.088 322.98 630.571 322.821 630.042 322.821C629.333 322.821 628.653 323.106 628.151 323.613C627.65 324.121 627.368 324.809 627.368 325.526ZM531.527 260.722C531.527 261.257 531.684 261.78 531.978 262.225C532.272 262.67 532.689 263.016 533.178 263.221C533.667 263.426 534.204 263.479 534.723 263.375C535.242 263.271 535.719 263.013 536.093 262.635C536.467 262.257 536.721 261.775 536.825 261.25C536.928 260.725 536.875 260.182 536.672 259.687C536.47 259.193 536.127 258.771 535.687 258.474C535.248 258.176 534.731 258.018 534.202 258.018C533.492 258.018 532.812 258.303 532.31 258.81C531.809 259.317 531.527 260.005 531.527 260.722ZM534.549 250.242C534.549 250.777 534.705 251.3 534.999 251.744C535.293 252.189 535.711 252.536 536.2 252.74C536.688 252.945 537.226 252.999 537.745 252.894C538.264 252.79 538.74 252.532 539.114 252.154C539.488 251.776 539.743 251.294 539.846 250.769C539.949 250.245 539.896 249.701 539.694 249.207C539.492 248.712 539.149 248.29 538.709 247.993C538.269 247.696 537.752 247.537 537.223 247.537C536.514 247.537 535.833 247.822 535.332 248.329C534.83 248.836 534.549 249.524 534.549 250.242ZM616.804 357.117C617.178 357.493 617.655 357.748 618.173 357.851C618.691 357.953 619.228 357.898 619.716 357.693C620.203 357.487 620.619 357.141 620.912 356.697C621.205 356.252 621.362 355.73 621.362 355.196C621.362 354.662 621.205 354.14 620.912 353.696C620.619 353.252 620.203 352.905 619.716 352.7C619.228 352.494 618.691 352.439 618.173 352.542C617.655 352.645 617.178 352.9 616.804 353.276C616.553 353.527 616.354 353.826 616.218 354.156C616.082 354.486 616.012 354.839 616.012 355.196C616.012 355.553 616.082 355.907 616.218 356.236C616.354 356.566 616.553 356.865 616.804 357.117ZM616.803 337.427C616.431 337.806 616.178 338.288 616.077 338.812C615.975 339.336 616.03 339.878 616.233 340.371C616.436 340.864 616.779 341.285 617.218 341.582C617.657 341.878 618.174 342.036 618.702 342.036C619.23 342.036 619.746 341.878 620.185 341.582C620.624 341.285 620.967 340.864 621.17 340.371C621.373 339.878 621.428 339.336 621.326 338.812C621.225 338.288 620.972 337.806 620.6 337.427C620.352 337.173 620.056 336.972 619.73 336.835C619.404 336.697 619.055 336.627 618.702 336.627C618.348 336.627 617.999 336.697 617.673 336.835C617.347 336.972 617.051 337.173 616.803 337.427ZM616.804 258.194C617.178 258.57 617.655 258.825 618.173 258.928C618.691 259.03 619.228 258.975 619.716 258.77C620.203 258.565 620.619 258.218 620.912 257.774C621.205 257.329 621.362 256.807 621.362 256.273C621.362 255.739 621.205 255.217 620.912 254.773C620.619 254.329 620.203 253.982 619.716 253.777C619.228 253.571 618.691 253.517 618.173 253.619C617.655 253.722 617.178 253.977 616.804 254.353C616.553 254.605 616.354 254.904 616.218 255.233C616.082 255.563 616.012 255.916 616.012 256.273C616.012 256.63 616.082 256.984 616.218 257.314C616.354 257.643 616.553 257.942 616.804 258.194ZM616.803 238.49C616.431 238.869 616.178 239.351 616.077 239.875C615.975 240.399 616.03 240.942 616.233 241.435C616.436 241.928 616.779 242.349 617.218 242.645C617.657 242.942 618.174 243.1 618.702 243.1C619.23 243.1 619.746 242.942 620.185 242.645C620.624 242.349 620.967 241.928 621.17 241.435C621.373 240.942 621.428 240.399 621.326 239.875C621.225 239.351 620.972 238.869 620.6 238.49C620.352 238.237 620.056 238.036 619.73 237.898C619.404 237.761 619.055 237.69 618.702 237.69C618.348 237.69 617.999 237.761 617.673 237.898C617.347 238.036 617.051 238.237 616.803 238.49ZM548.844 394.251C548.844 392.75 547.641 391.533 546.156 391.533C544.672 391.533 543.468 392.75 543.468 394.251C543.468 395.752 544.672 396.969 546.156 396.969C547.641 396.969 548.844 395.752 548.844 394.251ZM543.468 415.592C543.468 416.127 543.625 416.65 543.919 417.094C544.213 417.539 544.631 417.886 545.119 418.09C545.608 418.295 546.146 418.349 546.665 418.244C547.183 418.14 547.66 417.882 548.034 417.504C548.408 417.126 548.663 416.644 548.766 416.119C548.869 415.595 548.816 415.051 548.614 414.557C548.411 414.062 548.069 413.64 547.629 413.343C547.189 413.046 546.672 412.887 546.143 412.887C545.434 412.887 544.753 413.172 544.252 413.679C543.75 414.186 543.468 414.874 543.468 415.592ZM543.468 503.762C543.468 504.297 543.625 504.82 543.919 505.265C544.213 505.71 544.631 506.057 545.119 506.261C545.608 506.466 546.146 506.519 546.665 506.415C547.183 506.311 547.66 506.053 548.034 505.675C548.408 505.297 548.663 504.815 548.766 504.29C548.869 503.765 548.816 503.222 548.614 502.727C548.411 502.233 548.069 501.811 547.629 501.514C547.189 501.216 546.672 501.058 546.143 501.058C545.434 501.058 544.753 501.343 544.252 501.85C543.75 502.357 543.468 503.045 543.468 503.762ZM518.53 188.996C518.53 187.494 517.327 186.277 515.842 186.277C514.358 186.277 513.154 187.494 513.154 188.996C513.154 190.497 514.358 191.714 515.842 191.714C517.327 191.714 518.53 190.497 518.53 188.996ZM549.875 243.345C550.404 243.345 550.921 243.186 551.361 242.889C551.801 242.592 552.143 242.169 552.346 241.675C552.548 241.181 552.601 240.637 552.498 240.112C552.395 239.588 552.14 239.106 551.766 238.728C551.392 238.349 550.916 238.092 550.397 237.987C549.878 237.883 549.34 237.937 548.851 238.141C548.363 238.346 547.945 238.693 547.651 239.137C547.357 239.582 547.2 240.105 547.2 240.64C547.2 241.357 547.482 242.045 547.984 242.553C548.485 243.06 549.166 243.345 549.875 243.345ZM557.937 222.966C558.466 222.966 558.983 222.807 559.423 222.51C559.863 222.213 560.206 221.79 560.408 221.296C560.611 220.802 560.664 220.258 560.56 219.733C560.457 219.209 560.203 218.727 559.828 218.349C559.454 217.97 558.978 217.713 558.459 217.608C557.94 217.504 557.402 217.557 556.914 217.762C556.425 217.967 556.007 218.314 555.714 218.758C555.42 219.203 555.263 219.726 555.263 220.261C555.263 220.978 555.545 221.666 556.046 222.174C556.548 222.681 557.228 222.966 557.937 222.966ZM428.545 191.714C429.074 191.714 429.591 191.555 430.031 191.258C430.471 190.961 430.814 190.538 431.016 190.044C431.218 189.55 431.271 189.006 431.168 188.482C431.065 187.957 430.81 187.475 430.436 187.097C430.062 186.718 429.586 186.461 429.067 186.356C428.548 186.252 428.01 186.306 427.522 186.51C427.033 186.715 426.615 187.062 426.321 187.507C426.027 187.951 425.871 188.474 425.871 189.009C425.871 189.726 426.152 190.414 426.654 190.922C427.156 191.429 427.836 191.714 428.545 191.714ZM462.579 243.345C463.108 243.345 463.625 243.186 464.065 242.889C464.505 242.592 464.848 242.169 465.05 241.675C465.252 241.181 465.305 240.637 465.202 240.112C465.099 239.588 464.844 239.106 464.47 238.728C464.096 238.349 463.62 238.092 463.101 237.987C462.582 237.883 462.044 237.937 461.556 238.141C461.067 238.346 460.649 238.693 460.355 239.137C460.061 239.582 459.905 240.105 459.905 240.64C459.905 241.357 460.186 242.045 460.688 242.553C461.189 243.06 461.87 243.345 462.579 243.345ZM470.641 222.966C471.17 222.966 471.687 222.807 472.127 222.51C472.567 222.213 472.91 221.79 473.112 221.296C473.315 220.802 473.368 220.258 473.264 219.733C473.161 219.209 472.907 218.727 472.533 218.349C472.158 217.97 471.682 217.713 471.163 217.608C470.644 217.504 470.107 217.557 469.618 217.762C469.129 217.967 468.711 218.314 468.418 218.758C468.124 219.203 467.967 219.726 467.967 220.261C467.967 220.978 468.249 221.666 468.75 222.174C469.252 222.681 469.932 222.966 470.641 222.966ZM482.839 257.843C483.368 257.843 483.885 257.684 484.325 257.387C484.764 257.089 485.107 256.667 485.31 256.173C485.512 255.679 485.565 255.135 485.462 254.61C485.359 254.086 485.104 253.604 484.73 253.225C484.356 252.847 483.879 252.59 483.36 252.485C482.842 252.381 482.304 252.434 481.815 252.639C481.326 252.844 480.909 253.19 480.615 253.635C480.321 254.08 480.164 254.603 480.164 255.138C480.164 255.855 480.446 256.543 480.947 257.05C481.449 257.558 482.129 257.843 482.839 257.843ZM472.527 254.786C473.056 254.786 473.573 254.628 474.013 254.33C474.453 254.033 474.795 253.611 474.998 253.117C475.2 252.622 475.253 252.079 475.15 251.554C475.047 251.029 474.792 250.547 474.418 250.169C474.044 249.791 473.568 249.533 473.049 249.429C472.53 249.325 471.992 249.378 471.504 249.583C471.015 249.788 470.597 250.134 470.303 250.579C470.009 251.024 469.853 251.547 469.853 252.082C469.853 252.799 470.134 253.487 470.636 253.994C471.137 254.501 471.818 254.786 472.527 254.786ZM480.39 171.603C480.762 171.224 481.015 170.742 481.116 170.218C481.218 169.694 481.163 169.151 480.96 168.658C480.757 168.166 480.414 167.744 479.975 167.448C479.536 167.152 479.02 166.994 478.492 166.994C477.963 166.994 477.447 167.152 477.008 167.448C476.569 167.744 476.226 168.166 476.023 168.658C475.82 169.151 475.765 169.694 475.867 170.218C475.968 170.742 476.221 171.224 476.593 171.603C476.841 171.857 477.137 172.058 477.463 172.195C477.789 172.333 478.138 172.403 478.492 172.403C478.845 172.403 479.194 172.333 479.52 172.195C479.846 172.058 480.142 171.857 480.39 171.603ZM460.908 171.604C461.283 171.978 461.76 172.232 462.278 172.333C462.795 172.434 463.331 172.378 463.817 172.172C464.304 171.966 464.719 171.619 465.011 171.175C465.303 170.732 465.459 170.21 465.459 169.677C465.459 169.144 465.303 168.623 465.011 168.179C464.719 167.735 464.304 167.388 463.817 167.182C463.331 166.976 462.795 166.92 462.278 167.021C461.76 167.122 461.283 167.376 460.908 167.75C460.655 168.002 460.454 168.302 460.317 168.632C460.18 168.963 460.11 169.318 460.11 169.677C460.11 170.036 460.18 170.391 460.317 170.722C460.454 171.053 460.655 171.352 460.908 171.604ZM422.206 188.996C422.206 187.494 421.003 186.277 419.519 186.277C418.034 186.277 416.831 187.494 416.831 188.996C416.831 190.497 418.034 191.714 419.519 191.714C421.003 191.714 422.206 190.497 422.206 188.996ZM385.472 243.345C386.001 243.345 386.518 243.186 386.958 242.889C387.398 242.592 387.741 242.169 387.943 241.675C388.146 241.181 388.199 240.637 388.095 240.112C387.992 239.588 387.738 239.106 387.364 238.728C386.989 238.349 386.513 238.092 385.994 237.987C385.475 237.883 384.938 237.937 384.449 238.141C383.96 238.346 383.542 238.693 383.249 239.137C382.955 239.582 382.798 240.105 382.798 240.64C382.798 241.357 383.08 242.045 383.581 242.553C384.083 243.06 384.763 243.345 385.472 243.345ZM377.422 222.966C377.951 222.966 378.468 222.807 378.908 222.51C379.348 222.213 379.691 221.79 379.893 221.296C380.096 220.802 380.149 220.258 380.045 219.733C379.942 219.209 379.688 218.727 379.313 218.349C378.939 217.97 378.463 217.713 377.944 217.608C377.425 217.504 376.888 217.557 376.399 217.762C375.91 217.967 375.492 218.314 375.199 218.758C374.905 219.203 374.748 219.726 374.748 220.261C374.748 220.978 375.03 221.666 375.531 222.174C376.033 222.681 376.713 222.966 377.422 222.966ZM388.388 160.921C388.917 160.921 389.434 160.762 389.874 160.465C390.314 160.168 390.657 159.745 390.859 159.251C391.062 158.757 391.115 158.213 391.012 157.689C390.908 157.164 390.654 156.682 390.28 156.304C389.906 155.926 389.429 155.668 388.91 155.564C388.391 155.459 387.854 155.513 387.365 155.718C386.876 155.922 386.459 156.269 386.165 156.714C385.871 157.158 385.714 157.681 385.714 158.216C385.714 158.934 385.996 159.622 386.497 160.129C386.999 160.636 387.679 160.921 388.388 160.921ZM317.113 188.996C317.113 187.494 315.91 186.277 314.426 186.277C312.941 186.277 311.738 187.494 311.738 188.996C311.738 190.497 312.941 191.714 314.426 191.714C315.91 191.714 317.113 190.497 317.113 188.996ZM348.457 243.345C348.986 243.345 349.503 243.186 349.943 242.889C350.383 242.592 350.726 242.169 350.928 241.675C351.131 241.181 351.184 240.637 351.08 240.112C350.977 239.588 350.722 239.106 350.348 238.728C349.974 238.349 349.498 238.092 348.979 237.987C348.46 237.883 347.922 237.937 347.434 238.141C346.945 238.346 346.527 238.693 346.233 239.137C345.94 239.582 345.783 240.105 345.783 240.64C345.783 241.357 346.065 242.045 346.566 242.553C347.068 243.06 347.748 243.345 348.457 243.345ZM356.521 222.966C357.05 222.966 357.567 222.807 358.007 222.51C358.446 222.213 358.789 221.79 358.992 221.296C359.194 220.802 359.247 220.258 359.144 219.733C359.041 219.209 358.786 218.727 358.412 218.349C358.038 217.97 357.561 217.713 357.042 217.608C356.524 217.504 355.986 217.557 355.497 217.762C355.009 217.967 354.591 218.314 354.297 218.758C354.003 219.203 353.846 219.726 353.846 220.261C353.846 220.978 354.128 221.666 354.63 222.174C355.131 222.681 355.811 222.966 356.521 222.966ZM261.162 243.345C261.691 243.345 262.209 243.186 262.648 242.889C263.088 242.592 263.431 242.169 263.633 241.675C263.836 241.181 263.889 240.637 263.786 240.112C263.682 239.588 263.428 239.106 263.054 238.728C262.68 238.349 262.203 238.092 261.684 237.987C261.165 237.883 260.628 237.937 260.139 238.141C259.65 238.346 259.233 238.693 258.939 239.137C258.645 239.582 258.488 240.105 258.488 240.64C258.488 241.357 258.77 242.045 259.271 242.553C259.773 243.06 260.453 243.345 261.162 243.345ZM269.225 222.966C269.754 222.966 270.271 222.807 270.711 222.51C271.15 222.213 271.493 221.79 271.696 221.296C271.898 220.802 271.951 220.258 271.848 219.733C271.745 219.209 271.49 218.727 271.116 218.349C270.742 217.97 270.265 217.713 269.747 217.608C269.228 217.504 268.69 217.557 268.201 217.762C267.713 217.967 267.295 218.314 267.001 218.758C266.707 219.203 266.55 219.726 266.55 220.261C266.55 220.978 266.832 221.666 267.334 222.174C267.835 222.681 268.515 222.966 269.225 222.966ZM345.542 160.921C346.071 160.921 346.588 160.762 347.028 160.465C347.468 160.168 347.811 159.745 348.013 159.251C348.216 158.757 348.269 158.213 348.166 157.689C348.062 157.164 347.808 156.682 347.434 156.304C347.06 155.926 346.583 155.668 346.064 155.564C345.545 155.459 345.008 155.513 344.519 155.718C344.03 155.922 343.612 156.269 343.319 156.714C343.025 157.158 342.868 157.681 342.868 158.216C342.868 158.934 343.15 159.622 343.651 160.129C344.153 160.636 344.833 160.921 345.542 160.921ZM281.461 257.843C281.99 257.843 282.507 257.684 282.947 257.387C283.387 257.089 283.73 256.667 283.932 256.173C284.135 255.679 284.188 255.135 284.084 254.61C283.981 254.086 283.727 253.604 283.353 253.225C282.978 252.847 282.502 252.59 281.983 252.485C281.464 252.381 280.927 252.434 280.438 252.639C279.949 252.844 279.531 253.19 279.238 253.635C278.944 254.08 278.787 254.603 278.787 255.138C278.787 255.855 279.069 256.543 279.57 257.05C280.072 257.558 280.752 257.843 281.461 257.843ZM271.112 254.786C271.64 254.786 272.158 254.628 272.597 254.33C273.037 254.033 273.38 253.611 273.582 253.117C273.785 252.622 273.838 252.079 273.735 251.554C273.631 251.029 273.377 250.547 273.003 250.169C272.629 249.791 272.152 249.533 271.633 249.429C271.115 249.325 270.577 249.378 270.088 249.583C269.599 249.788 269.182 250.134 268.888 250.579C268.594 251.024 268.437 251.547 268.437 252.082C268.437 252.799 268.719 253.487 269.22 253.994C269.722 254.501 270.402 254.786 271.112 254.786ZM376.779 171.603C377.151 171.224 377.403 170.742 377.505 170.218C377.606 169.694 377.552 169.151 377.349 168.658C377.146 168.166 376.803 167.744 376.364 167.448C375.924 167.152 375.408 166.994 374.88 166.994C374.352 166.994 373.836 167.152 373.396 167.448C372.957 167.744 372.614 168.166 372.411 168.658C372.208 169.151 372.154 169.694 372.255 170.218C372.357 170.742 372.609 171.224 372.981 171.603C373.23 171.857 373.526 172.058 373.852 172.195C374.177 172.333 374.527 172.403 374.88 172.403C375.233 172.403 375.583 172.333 375.909 172.195C376.235 172.058 376.53 171.857 376.779 171.603ZM357.297 171.604C357.673 171.978 358.15 172.232 358.667 172.333C359.185 172.434 359.721 172.378 360.207 172.172C360.693 171.966 361.109 171.619 361.401 171.175C361.693 170.732 361.849 170.21 361.849 169.677C361.849 169.144 361.693 168.623 361.401 168.179C361.109 167.735 360.693 167.388 360.207 167.182C359.721 166.976 359.185 166.92 358.667 167.021C358.15 167.122 357.673 167.376 357.297 167.75C357.045 168.002 356.844 168.302 356.707 168.632C356.57 168.963 356.5 169.318 356.5 169.677C356.5 170.036 356.57 170.391 356.707 170.722C356.844 171.053 357.045 171.352 357.297 171.604ZM278.96 171.603C279.332 171.224 279.585 170.742 279.686 170.218C279.788 169.694 279.733 169.151 279.53 168.658C279.327 168.166 278.984 167.744 278.545 167.448C278.106 167.152 277.589 166.994 277.061 166.994C276.533 166.994 276.017 167.152 275.578 167.448C275.139 167.744 274.796 168.166 274.593 168.658C274.39 169.151 274.335 169.694 274.437 170.218C274.538 170.742 274.791 171.224 275.163 171.603C275.411 171.857 275.707 172.058 276.033 172.195C276.359 172.333 276.708 172.403 277.061 172.403C277.415 172.403 277.764 172.333 278.09 172.195C278.416 172.058 278.712 171.857 278.96 171.603ZM259.517 171.604C259.893 171.978 260.369 172.232 260.887 172.333C261.405 172.434 261.94 172.378 262.427 172.172C262.913 171.966 263.328 171.619 263.62 171.175C263.912 170.732 264.068 170.21 264.068 169.677C264.068 169.144 263.912 168.623 263.62 168.179C263.328 167.735 262.913 167.388 262.427 167.182C261.94 166.976 261.405 166.92 260.887 167.021C260.369 167.122 259.893 167.376 259.517 167.75C259.264 168.002 259.064 168.302 258.927 168.632C258.79 168.963 258.719 169.318 258.719 169.677C258.719 170.036 258.79 170.391 258.927 170.722C259.064 171.053 259.264 171.352 259.517 171.604ZM413.501 245.766C414.03 245.766 414.547 245.607 414.987 245.31C415.427 245.013 415.77 244.59 415.972 244.096C416.175 243.602 416.228 243.058 416.124 242.534C416.021 242.009 415.767 241.527 415.392 241.149C415.018 240.771 414.542 240.513 414.023 240.409C413.504 240.304 412.967 240.358 412.478 240.563C411.989 240.767 411.571 241.114 411.278 241.559C410.984 242.003 410.827 242.526 410.827 243.061C410.827 243.779 411.109 244.467 411.61 244.974C412.112 245.481 412.792 245.766 413.501 245.766ZM434.604 245.766C435.133 245.766 435.65 245.607 436.09 245.31C436.53 245.013 436.872 244.59 437.075 244.096C437.277 243.602 437.33 243.058 437.227 242.534C437.124 242.009 436.869 241.527 436.495 241.149C436.121 240.771 435.645 240.513 435.126 240.409C434.607 240.304 434.069 240.358 433.58 240.563C433.092 240.767 432.674 241.114 432.38 241.559C432.086 242.003 431.929 242.526 431.929 243.061C431.929 243.779 432.211 244.467 432.713 244.974C433.214 245.481 433.895 245.766 434.604 245.766ZM521.846 245.766C522.375 245.766 522.892 245.607 523.332 245.31C523.772 245.013 524.114 244.59 524.317 244.096C524.519 243.602 524.572 243.058 524.469 242.534C524.366 242.009 524.111 241.527 523.737 241.149C523.363 240.771 522.887 240.513 522.368 240.409C521.849 240.304 521.311 240.358 520.822 240.563C520.334 240.767 519.916 241.114 519.622 241.559C519.328 242.003 519.171 242.526 519.171 243.061C519.171 243.779 519.453 244.467 519.955 244.974C520.456 245.481 521.137 245.766 521.846 245.766ZM213.222 273.705C213.222 273.17 213.065 272.648 212.771 272.203C212.477 271.758 212.059 271.411 211.571 271.207C211.082 271.002 210.544 270.948 210.025 271.053C209.507 271.157 209.03 271.415 208.656 271.793C208.282 272.171 208.027 272.653 207.924 273.178C207.821 273.702 207.874 274.246 208.076 274.74C208.279 275.235 208.621 275.657 209.061 275.954C209.501 276.251 210.018 276.41 210.547 276.41C211.256 276.41 211.937 276.125 212.438 275.618C212.94 275.111 213.222 274.423 213.222 273.705ZM244.127 231.133C244.127 230.598 243.97 230.075 243.677 229.631C243.383 229.186 242.965 228.839 242.476 228.635C241.988 228.43 241.45 228.376 240.931 228.481C240.412 228.585 239.936 228.843 239.562 229.221C239.188 229.599 238.933 230.081 238.83 230.606C238.727 231.13 238.779 231.674 238.982 232.168C239.184 232.663 239.527 233.085 239.967 233.382C240.407 233.679 240.924 233.838 241.453 233.838C242.162 233.838 242.842 233.553 243.344 233.046C243.846 232.539 244.127 231.851 244.127 231.133ZM213.222 361.985C213.222 361.45 213.065 360.927 212.771 360.482C212.477 360.038 212.059 359.691 211.571 359.486C211.082 359.282 210.544 359.228 210.025 359.332C209.507 359.437 209.03 359.694 208.656 360.073C208.282 360.451 208.027 360.933 207.924 361.457C207.821 361.982 207.874 362.526 208.076 363.02C208.279 363.514 208.621 363.937 209.061 364.234C209.501 364.531 210.018 364.69 210.547 364.69C211.256 364.69 211.937 364.405 212.438 363.898C212.94 363.39 213.222 362.702 213.222 361.985ZM264.277 327.555C264.277 327.02 264.12 326.497 263.826 326.052C263.532 325.607 263.115 325.261 262.626 325.056C262.137 324.851 261.599 324.798 261.081 324.902C260.562 325.007 260.085 325.264 259.711 325.642C259.337 326.021 259.083 326.503 258.979 327.027C258.876 327.552 258.929 328.096 259.132 328.59C259.334 329.084 259.677 329.507 260.117 329.804C260.556 330.101 261.073 330.26 261.602 330.26C262.312 330.26 262.992 329.975 263.494 329.467C263.995 328.96 264.277 328.272 264.277 327.555ZM244.127 319.399C244.127 318.865 243.97 318.342 243.677 317.897C243.383 317.452 242.965 317.105 242.476 316.901C241.988 316.696 241.45 316.642 240.931 316.747C240.412 316.851 239.936 317.109 239.562 317.487C239.188 317.865 238.933 318.347 238.83 318.872C238.727 319.396 238.779 319.94 238.982 320.434C239.184 320.929 239.527 321.351 239.967 321.648C240.407 321.945 240.924 322.104 241.453 322.104C242.162 322.104 242.842 321.819 243.344 321.312C243.846 320.805 244.127 320.117 244.127 319.399ZM278.614 307.027C278.614 306.492 278.457 305.969 278.163 305.524C277.869 305.079 277.451 304.733 276.963 304.528C276.474 304.323 275.936 304.27 275.417 304.374C274.899 304.478 274.422 304.736 274.048 305.114C273.674 305.492 273.419 305.974 273.316 306.499C273.213 307.024 273.266 307.567 273.468 308.062C273.671 308.556 274.013 308.978 274.453 309.275C274.893 309.573 275.41 309.731 275.939 309.731C276.648 309.731 277.329 309.446 277.83 308.939C278.332 308.432 278.614 307.744 278.614 307.027ZM275.564 317.507C275.564 316.972 275.407 316.449 275.113 316.004C274.819 315.559 274.402 315.213 273.913 315.008C273.424 314.803 272.886 314.75 272.368 314.854C271.849 314.958 271.372 315.216 270.998 315.594C270.624 315.972 270.37 316.454 270.266 316.979C270.163 317.504 270.216 318.047 270.419 318.542C270.621 319.036 270.964 319.458 271.404 319.756C271.843 320.053 272.36 320.211 272.889 320.211C273.599 320.211 274.279 319.926 274.781 319.419C275.282 318.912 275.564 318.224 275.564 317.507ZM193.335 309.555C192.96 309.179 192.483 308.924 191.965 308.821C191.447 308.719 190.91 308.773 190.423 308.979C189.935 309.184 189.519 309.531 189.226 309.975C188.933 310.419 188.777 310.941 188.777 311.475C188.777 312.009 188.933 312.531 189.226 312.976C189.519 313.42 189.935 313.767 190.423 313.972C190.91 314.177 191.447 314.232 191.965 314.13C192.483 314.027 192.96 313.772 193.335 313.396C193.585 313.144 193.784 312.845 193.92 312.516C194.056 312.186 194.126 311.832 194.126 311.475C194.126 311.118 194.056 310.765 193.92 310.435C193.784 310.106 193.585 309.807 193.335 309.555ZM193.335 329.313C193.706 328.934 193.959 328.452 194.06 327.928C194.162 327.404 194.108 326.861 193.904 326.368C193.701 325.875 193.359 325.454 192.919 325.158C192.48 324.862 191.964 324.704 191.436 324.704C190.908 324.704 190.391 324.862 189.952 325.158C189.513 325.454 189.17 325.875 188.967 326.368C188.764 326.861 188.71 327.404 188.811 327.928C188.912 328.452 189.165 328.934 189.537 329.313C189.785 329.567 190.081 329.768 190.407 329.905C190.733 330.042 191.083 330.113 191.436 330.113C191.789 330.113 192.138 330.042 192.464 329.905C192.79 329.768 193.086 329.567 193.335 329.313ZM213.222 371.113C213.222 370.578 213.065 370.056 212.771 369.611C212.477 369.166 212.059 368.819 211.571 368.615C211.082 368.41 210.544 368.356 210.025 368.461C209.507 368.565 209.03 368.823 208.656 369.201C208.282 369.579 208.027 370.061 207.924 370.586C207.821 371.11 207.874 371.654 208.076 372.148C208.279 372.643 208.621 373.065 209.061 373.362C209.501 373.659 210.018 373.818 210.547 373.818C211.256 373.818 211.937 373.533 212.438 373.026C212.94 372.519 213.222 371.831 213.222 371.113ZM264.277 405.53C264.277 404.995 264.12 404.472 263.826 404.027C263.532 403.582 263.115 403.236 262.626 403.031C262.137 402.826 261.599 402.773 261.081 402.877C260.562 402.982 260.085 403.239 259.711 403.617C259.337 403.996 259.083 404.478 258.979 405.002C258.876 405.527 258.929 406.071 259.132 406.565C259.334 407.059 259.677 407.481 260.117 407.779C260.556 408.076 261.073 408.235 261.602 408.235C262.312 408.235 262.992 407.95 263.494 407.442C263.995 406.935 264.277 406.247 264.277 405.53ZM244.127 413.684C244.127 413.149 243.97 412.626 243.677 412.181C243.383 411.736 242.965 411.39 242.476 411.185C241.988 410.98 241.45 410.927 240.931 411.031C240.412 411.135 239.936 411.393 239.562 411.771C239.188 412.149 238.933 412.631 238.83 413.156C238.727 413.681 238.779 414.224 238.982 414.719C239.184 415.213 239.527 415.635 239.967 415.932C240.407 416.23 240.924 416.388 241.453 416.388C242.162 416.388 242.842 416.103 243.344 415.596C243.846 415.089 244.127 414.401 244.127 413.684ZM182.772 402.595C182.772 402.06 182.615 401.537 182.321 401.093C182.027 400.648 181.609 400.301 181.121 400.096C180.632 399.892 180.094 399.838 179.575 399.942C179.056 400.047 178.58 400.304 178.206 400.683C177.832 401.061 177.577 401.543 177.474 402.067C177.371 402.592 177.424 403.136 177.626 403.63C177.829 404.124 178.171 404.547 178.611 404.844C179.051 405.141 179.568 405.3 180.097 405.3C180.806 405.3 181.487 405.015 181.988 404.508C182.49 404 182.772 403.312 182.772 402.595ZM213.222 477.392C213.222 476.857 213.065 476.334 212.771 475.889C212.477 475.444 212.059 475.098 211.571 474.893C211.082 474.688 210.544 474.635 210.025 474.739C209.507 474.844 209.03 475.101 208.656 475.479C208.282 475.858 208.027 476.34 207.924 476.864C207.821 477.389 207.874 477.933 208.076 478.427C208.279 478.921 208.621 479.344 209.061 479.641C209.501 479.938 210.018 480.097 210.547 480.097C211.256 480.097 211.937 479.812 212.438 479.304C212.94 478.797 213.222 478.109 213.222 477.392ZM264.277 442.907C264.277 442.372 264.12 441.849 263.826 441.405C263.532 440.96 263.115 440.613 262.626 440.408C262.137 440.204 261.599 440.15 261.081 440.255C260.562 440.359 260.085 440.616 259.711 440.995C259.337 441.373 259.083 441.855 258.979 442.38C258.876 442.904 258.929 443.448 259.132 443.942C259.334 444.436 259.677 444.859 260.117 445.156C260.556 445.453 261.073 445.612 261.602 445.612C262.312 445.612 262.992 445.327 263.494 444.82C263.995 444.312 264.277 443.625 264.277 442.907ZM244.127 434.795C244.127 434.26 243.97 433.737 243.677 433.292C243.383 432.847 242.965 432.501 242.476 432.296C241.988 432.091 241.45 432.038 240.931 432.142C240.412 432.247 239.936 432.504 239.562 432.882C239.188 433.261 238.933 433.743 238.83 434.267C238.727 434.792 238.779 435.336 238.982 435.83C239.184 436.324 239.527 436.746 239.967 437.044C240.407 437.341 240.924 437.5 241.453 437.5C242.162 437.5 242.842 437.215 243.344 436.707C243.846 436.2 244.127 435.512 244.127 434.795ZM244.127 523.1C244.127 522.565 243.97 522.042 243.677 521.597C243.383 521.153 242.965 520.806 242.476 520.601C241.988 520.397 241.45 520.343 240.931 520.447C240.412 520.552 239.936 520.809 239.562 521.188C239.188 521.566 238.933 522.048 238.83 522.572C238.727 523.097 238.779 523.641 238.982 524.135C239.184 524.629 239.527 525.052 239.967 525.349C240.407 525.646 240.924 525.805 241.453 525.805C242.162 525.805 242.842 525.52 243.344 525.013C243.846 524.505 244.127 523.817 244.127 523.1ZM182.772 445.924C182.772 445.389 182.615 444.866 182.321 444.421C182.027 443.976 181.609 443.63 181.121 443.425C180.632 443.22 180.094 443.167 179.575 443.271C179.056 443.375 178.58 443.633 178.206 444.011C177.832 444.389 177.577 444.871 177.474 445.396C177.371 445.921 177.424 446.464 177.626 446.959C177.829 447.453 178.171 447.875 178.611 448.173C179.051 448.47 179.568 448.628 180.097 448.628C180.806 448.628 181.487 448.343 181.988 447.836C182.49 447.329 182.772 446.641 182.772 445.924ZM278.614 510.727C278.614 510.192 278.457 509.669 278.163 509.224C277.869 508.779 277.451 508.433 276.963 508.228C276.474 508.023 275.936 507.97 275.417 508.074C274.899 508.178 274.422 508.436 274.048 508.814C273.674 509.192 273.419 509.674 273.316 510.199C273.213 510.724 273.266 511.268 273.468 511.762C273.671 512.256 274.013 512.678 274.453 512.976C274.893 513.273 275.41 513.431 275.939 513.431C276.648 513.431 277.329 513.146 277.83 512.639C278.332 512.132 278.614 511.444 278.614 510.727ZM275.564 521.194C275.564 520.659 275.407 520.136 275.113 519.692C274.819 519.247 274.402 518.9 273.913 518.696C273.424 518.491 272.886 518.437 272.368 518.542C271.849 518.646 271.372 518.904 270.998 519.282C270.624 519.66 270.37 520.142 270.266 520.667C270.163 521.191 270.216 521.735 270.419 522.229C270.621 522.724 270.964 523.146 271.404 523.443C271.843 523.74 272.36 523.899 272.889 523.899C273.599 523.899 274.279 523.614 274.781 523.107C275.282 522.6 275.564 521.912 275.564 521.194ZM193.336 414.32C192.96 413.946 192.484 413.693 191.966 413.592C191.448 413.491 190.913 413.546 190.426 413.752C189.94 413.958 189.525 414.305 189.233 414.749C188.941 415.193 188.785 415.714 188.785 416.247C188.785 416.78 188.941 417.302 189.233 417.746C189.525 418.189 189.94 418.536 190.426 418.742C190.913 418.948 191.448 419.004 191.966 418.903C192.484 418.802 192.96 418.548 193.336 418.174C193.589 417.923 193.789 417.623 193.926 417.292C194.063 416.961 194.134 416.606 194.134 416.247C194.134 415.889 194.063 415.533 193.926 415.203C193.789 414.872 193.589 414.572 193.336 414.32ZM193.335 434.037C193.706 433.657 193.959 433.176 194.06 432.651C194.162 432.127 194.108 431.585 193.904 431.092C193.701 430.599 193.359 430.178 192.919 429.882C192.48 429.585 191.964 429.427 191.436 429.427C190.908 429.427 190.391 429.585 189.952 429.882C189.513 430.178 189.17 430.599 188.967 431.092C188.764 431.585 188.71 432.127 188.811 432.651C188.912 433.176 189.165 433.657 189.537 434.037C189.785 434.29 190.081 434.491 190.407 434.629C190.733 434.766 191.083 434.837 191.436 434.837C191.789 434.837 192.138 434.766 192.464 434.629C192.79 434.491 193.086 434.29 193.335 434.037ZM193.336 513.229C192.96 512.855 192.484 512.601 191.966 512.5C191.448 512.399 190.913 512.455 190.426 512.661C189.94 512.867 189.525 513.214 189.233 513.657C188.941 514.101 188.785 514.623 188.785 515.156C188.785 515.689 188.941 516.21 189.233 516.654C189.525 517.098 189.94 517.445 190.426 517.651C190.913 517.856 191.448 517.912 191.966 517.811C192.484 517.71 192.96 517.457 193.336 517.083C193.589 516.831 193.789 516.531 193.926 516.2C194.063 515.869 194.134 515.514 194.134 515.156C194.134 514.797 194.063 514.442 193.926 514.111C193.789 513.78 193.589 513.48 193.336 513.229ZM193.335 532.946C193.706 532.567 193.959 532.085 194.06 531.561C194.162 531.037 194.108 530.494 193.904 530.001C193.701 529.509 193.359 529.087 192.919 528.791C192.48 528.495 191.964 528.337 191.436 528.337C190.908 528.337 190.391 528.495 189.952 528.791C189.513 529.087 189.17 529.509 188.967 530.001C188.764 530.494 188.71 531.037 188.811 531.561C188.912 532.085 189.165 532.567 189.537 532.946C189.785 533.2 190.081 533.401 190.407 533.538C190.733 533.676 191.083 533.746 191.436 533.746C191.789 533.746 192.138 533.676 192.464 533.538C192.79 533.401 193.086 533.2 193.335 532.946ZM266.67 377.185C266.67 376.65 266.513 376.127 266.219 375.682C265.925 375.237 265.508 374.891 265.019 374.686C264.53 374.481 263.992 374.428 263.474 374.532C262.955 374.637 262.478 374.894 262.104 375.272C261.73 375.651 261.476 376.133 261.372 376.657C261.269 377.182 261.322 377.726 261.525 378.22C261.727 378.714 262.07 379.136 262.51 379.434C262.949 379.731 263.466 379.889 263.995 379.889C264.705 379.889 265.385 379.605 265.887 379.097C266.388 378.59 266.67 377.902 266.67 377.185ZM266.67 355.859C266.67 355.324 266.513 354.801 266.219 354.356C265.925 353.912 265.508 353.565 265.019 353.36C264.53 353.156 263.992 353.102 263.474 353.206C262.955 353.311 262.478 353.568 262.104 353.947C261.73 354.325 261.476 354.807 261.372 355.331C261.269 355.856 261.322 356.4 261.525 356.894C261.727 357.388 262.07 357.811 262.51 358.108C262.949 358.405 263.466 358.564 263.995 358.564C264.705 358.564 265.385 358.279 265.887 357.772C266.388 357.264 266.67 356.576 266.67 355.859ZM266.67 267.619C266.67 267.084 266.513 266.561 266.219 266.116C265.925 265.672 265.508 265.325 265.019 265.12C264.53 264.916 263.992 264.862 263.474 264.966C262.955 265.071 262.478 265.328 262.104 265.707C261.73 266.085 261.476 266.567 261.372 267.091C261.269 267.616 261.322 268.16 261.525 268.654C261.727 269.148 262.07 269.571 262.51 269.868C262.949 270.165 263.466 270.324 263.995 270.324C264.705 270.324 265.385 270.039 265.887 269.532C266.388 269.024 266.67 268.336 266.67 267.619Z" stroke="url(#paint0_radial_221_443)" stroke-miterlimit="10"/>
</g>
<path fill-rule="evenodd" clip-rule="evenodd" d="M658.482 561.301L585.524 603.423L568.162 613.446L520.004 641.251L424.905 696.156C418.912 699.62 412.11 701.44 405.184 701.435C398.258 701.43 391.452 699.599 385.451 696.127L151.304 560.876C145.305 557.405 140.322 552.416 136.855 546.41C133.387 540.405 131.559 533.594 131.552 526.664L131.494 256.261C131.488 249.366 133.285 242.592 136.707 236.615C140.13 230.638 145.058 225.665 151.001 222.191L384.675 87.279C390.667 83.8222 397.465 82.0063 404.386 82.0139C411.307 82.0214 418.108 83.8521 424.105 87.3221L658.252 222.574C664.251 226.045 669.234 231.033 672.701 237.039C676.169 243.044 677.997 249.855 678.004 256.785L678.062 527.188C678.068 534.098 676.263 540.884 672.827 546.871C669.392 552.857 664.445 557.832 658.482 561.301ZM623.596 538.203L560.73 574.499L545.77 583.136L504.273 607.094L422.329 654.404C417.165 657.389 411.303 658.955 405.332 658.946C399.362 658.937 393.494 657.353 388.318 654.353L186.382 537.503C181.209 534.504 176.909 530.196 173.916 525.012C170.923 519.828 169.343 513.951 169.332 507.971L169.104 274.664C169.094 268.715 170.639 262.872 173.586 257.717C176.532 252.562 180.777 248.274 185.898 245.281L387.248 129.031C392.411 126.053 398.27 124.491 404.237 124.502C410.203 124.513 416.067 126.097 421.239 129.095L623.174 245.945C628.348 248.944 632.647 253.252 635.64 258.436C638.633 263.62 640.214 269.497 640.224 275.477L640.452 508.783C640.463 514.745 638.911 520.6 635.953 525.762C632.995 530.925 628.734 535.215 623.596 538.203Z" fill="url(#paint1_radial_221_443)"/>
<defs>
<radialGradient id="paint0_radial_221_443" cx="0" cy="0" r="1" gradientUnits="userSpaceOnUse" gradientTransform="translate(391.275 421.432) rotate(109.66) scale(249.879 17.7344)">
<stop stop-color="#DFD1AF"/>
<stop offset="1" stop-color="#67625C"/>
</radialGradient>
<radialGradient id="paint1_radial_221_443" cx="0" cy="0" r="1" gradientUnits="userSpaceOnUse" gradientTransform="translate(414.07 358.725) rotate(-55.5668) scale(235.213 1774.95)">
<stop stop-color="#564729"/>
<stop offset="1" stop-color="#1E1B15"/>
</radialGradient>
</defs>
</svg>
