<svg width="743" height="784" viewBox="0 0 743 784" fill="none" xmlns="http://www.w3.org/2000/svg">
<g style="mix-blend-mode:soft-light">
<path d="M295.226 585.435V635.26M261.195 533.79V573.007C261.128 573.237 261.302 573.386 261.462 573.534L261.904 573.994L272.936 585.137L278.445 590.587L282.537 594.725L283.219 595.429C283.343 595.529 283.451 595.647 283.54 595.78V627.669M253.13 554.183V578.173C253.13 578.254 253.277 578.322 253.344 578.403L253.785 578.863L273.951 599.256L274.62 599.945L274.967 600.283C274.967 600.432 274.967 600.608 274.967 600.757V623.621M382.522 585.435V657M348.49 533.79V573.007C348.49 573.237 348.583 573.386 348.757 573.534L349.198 573.994L360.231 585.137L365.74 590.587L369.832 594.725L370.514 595.429C370.638 595.529 370.746 595.647 370.835 595.78V657M340.426 554.183V578.173C340.426 578.254 340.573 578.322 340.64 578.403L341.081 578.863L361.247 599.256L362.076 600.054L362.424 600.392C362.424 600.54 362.424 600.716 362.424 600.865V657M328.177 519.32V536.643L318.214 546.718C317.947 546.88 317.987 547.178 318 547.462V568.774C317.92 569.721 318.281 570.857 317.305 571.411L307.543 581.283C307.302 581.486 307.476 581.865 307.423 582.162V640.826M338.539 522.376V539.699L336.8 541.457L332.093 546.204L329.753 548.584L328.576 549.774C328.296 549.936 328.349 550.234 328.349 550.518V571.844C328.349 572.791 328.643 573.913 327.654 574.467L322.479 579.769L318.547 583.744L317.905 584.407C317.664 584.61 317.838 584.989 317.785 585.286V642.344M334.487 603.962L340.345 609.898V657M346.361 603.962L340.504 609.898V657M391.551 585.435V657M425.594 533.79V573.007C425.594 573.237 425.487 573.386 425.327 573.534L413.853 585.137L408.344 590.587L403.556 595.429C403.433 595.529 403.324 595.647 403.235 595.78V657M433.644 554.183V578.173C433.585 578.256 433.518 578.333 433.443 578.403L432.989 578.863L422.251 589.789L412.89 599.256L412.221 599.945L411.887 600.283C411.874 600.441 411.874 600.599 411.887 600.757V657M422.814 615.857V656.452M496.656 585.435V640.32M462.611 533.79V573.007C462.611 573.237 462.718 573.386 462.879 573.534L463.333 573.994L474.406 585.083L479.862 590.587L484.649 595.429C484.773 595.529 484.881 595.647 484.97 595.78V657M454.547 554.183V578.173C454.547 578.254 454.694 578.322 454.761 578.403L476.397 600.283C476.417 600.441 476.417 600.6 476.397 600.757V657M549.906 533.79V573.007C549.906 573.237 550.013 573.386 550.174 573.534L561.647 585.137L567.157 590.587L571.944 595.429C572.068 595.529 572.176 595.647 572.265 595.78V602.367M541.843 554.183V578.173C541.843 578.254 541.99 578.322 542.057 578.403L563.68 600.283C563.7 600.441 563.7 600.6 563.68 600.757L564.843 608.945M465.127 615.857V656.452M529.607 519.32V536.643L527.868 538.401L523.161 543.148L520.821 545.528L519.644 546.718C519.363 546.88 519.417 547.178 519.417 547.462V568.774C519.35 569.721 519.711 570.857 518.722 571.411L513.546 576.658L510.952 579.268L509.615 580.621L508.973 581.283C508.732 581.486 508.906 581.865 508.853 582.162V638.296M539.929 522.376V539.699L529.966 549.774C529.699 549.936 529.739 550.234 529.739 550.518V571.844C529.739 572.791 530.033 573.913 529.057 574.467L523.882 579.769L521.301 582.392L519.308 584.407C519.068 584.61 519.241 584.989 519.188 585.286V630.705M438.084 603.962L443.955 609.898V657M449.972 603.962L444.102 609.898V657M547.793 603.962L541.922 609.898V621.312M397.566 531.395V567.516L414.402 584.528M376.464 531.395V567.516L359.642 584.528M289.222 531.395V567.516L272.386 584.528M603.221 498.02H673.975M552.167 532.437H590.867C591.107 532.437 591.241 532.329 591.388 532.167L613.159 510.151C613.279 510.056 613.372 509.894 613.506 509.826H673.937M572.319 540.551H596.095C596.181 540.486 596.262 540.413 596.335 540.334L596.777 539.874L616.942 519.495L617.611 518.805L617.945 518.467C618.105 518.447 618.267 518.447 618.427 518.467H673.949M603.221 409.74H673.975M552.167 444.156H590.867C591.107 444.156 591.241 444.048 591.388 443.886L613.159 421.87C613.279 421.775 613.372 421.613 613.506 421.545H673.937M572.319 452.312H596.095C596.181 452.247 596.262 452.175 596.335 452.095L596.777 451.636L616.942 431.256L617.611 430.566L617.945 430.228C618.106 430.215 618.267 430.215 618.427 430.228H673.949M537.831 464.686H554.961L556.7 466.444L561.393 471.204L563.747 473.571L564.924 474.761C565.084 475.045 565.378 475.004 565.659 474.99H586.734C587.67 474.99 588.78 474.693 589.342 475.694L599.09 485.552C599.291 485.796 599.679 485.552 599.96 485.674H674.003M540.853 454.219H557.983L567.945 464.293C568.106 464.577 568.4 464.523 568.681 464.523H589.769C590.705 464.591 591.815 464.226 592.444 465.213L597.619 470.46L600.106 473.07L601.443 474.422L602.085 475.085C602.299 475.328 602.674 475.153 602.955 475.207H676.998M621.53 458.317L627.4 452.394H673.977M621.53 446.307L627.4 452.231H673.977M603.221 400.612H673.975M552.167 366.182H590.867C591.107 366.182 591.241 366.29 591.388 366.452L613.159 388.468C613.279 388.563 613.372 388.725 613.506 388.793H673.937M572.319 357.987H596.095C596.181 358.052 596.262 358.124 596.335 358.203L596.777 358.663L616.942 379.043L617.611 379.733L617.945 380.071C618.105 380.091 618.267 380.091 618.427 380.071H673.949M633.292 368.994H674.519M603.221 294.319H673.975M552.167 328.736H590.867C591.107 328.804 591.241 328.641 591.388 328.466L591.843 328.019L602.862 316.876L608.371 311.291L612.463 307.153L613.159 306.463C613.261 306.341 613.378 306.232 613.506 306.139H673.937M572.319 336.891H596.095C596.187 336.834 596.269 336.761 596.335 336.674L617.945 314.821C618.106 314.807 618.267 314.807 618.427 314.821H673.949M553.489 240.469H590.865C591.106 240.469 591.239 240.36 591.386 240.198L608.369 223.024L611.124 220.224L612.461 218.872L613.157 218.182C613.259 218.06 613.376 217.951 613.504 217.858H657.918M572.349 248.133H595.763C595.851 248.079 595.931 248.013 596 247.937L596.435 247.495L617.28 226.889C617.438 226.875 617.597 226.875 617.754 226.889H672.43M633.292 326.205H673.434M537.831 260.998H554.961L564.924 271.073C565.084 271.357 565.378 271.303 565.659 271.303H586.734C587.67 271.37 588.78 271.005 589.342 271.992L594.517 277.239L597.111 279.849L598.449 281.202L599.09 281.864C599.291 282.108 599.679 281.932 599.96 281.986H674.003M540.853 250.517H557.983L559.721 252.275L564.415 257.035L566.769 259.415L568.012 260.619C568.173 260.903 568.467 260.862 568.748 260.849H589.836C590.772 260.916 591.882 260.551 592.511 261.552L602.259 271.41C602.473 271.654 602.848 271.478 603.128 271.532H676.998M621.53 353.55L627.4 347.613H673.977M621.53 341.529L627.4 347.466H673.977M621.53 254.629L627.4 248.693H673.977M621.53 242.606L627.4 248.543H673.977M549.774 394.526H585.492L602.327 377.501M549.774 415.867H585.492L602.327 432.879M549.774 504.092H585.492L602.327 521.118M516.769 186.552V133.766M550.802 238.184V199.048C550.869 198.805 550.695 198.656 550.535 198.507L539.061 186.918L533.552 181.332L528.778 176.505C528.657 176.396 528.549 176.274 528.457 176.139V143.381M558.866 217.805V193.814C558.866 193.733 558.719 193.666 558.652 193.584L558.211 193.138L547.406 182.184L537.029 171.69C537.029 171.542 537.029 171.379 537.029 171.217V149.453M429.473 186.552V115M463.506 238.184V199.048C463.506 198.805 463.412 198.656 463.238 198.507L451.765 186.918L446.322 181.332L441.548 176.505C441.427 176.396 441.319 176.274 441.227 176.139V115.041M471.57 217.805V193.814C471.506 193.731 471.434 193.654 471.356 193.584L470.915 193.138L460.11 182.184L449.733 171.69C449.733 171.542 449.733 171.379 449.733 171.217V115.068M483.764 252.681V235.358L485.503 233.6L490.197 228.84L492.55 226.473L493.727 225.283C493.994 225.121 493.954 224.81 493.954 224.54V203.213C493.954 202.267 493.66 201.144 494.636 200.576L499.825 195.343L502.406 192.719L503.743 191.367L504.398 190.718C504.639 190.502 504.465 190.123 504.518 189.839V128.199M473.455 249.625V232.302L483.417 222.227C483.698 222.065 483.645 221.754 483.645 221.483V200.157C483.645 199.211 483.351 198.088 484.34 197.453L494.089 187.594C494.329 187.378 494.156 186.999 494.209 186.715V123.645M477.522 168.039L471.651 162.103V115.001M465.634 168.039L471.505 162.103V115.001M420.445 186.552V115M386.4 238.184V199.048C386.4 198.805 386.507 198.656 386.668 198.507L387.122 198.061L398.181 186.918L403.691 181.332L408.465 176.505C408.586 176.396 408.694 176.274 408.786 176.139V115.041M378.35 217.805V193.814C378.409 193.731 378.477 193.654 378.551 193.584L379.006 193.138L399.84 172.069L400.174 171.717C400.188 171.56 400.188 171.401 400.174 171.244V115.095M389.182 156.143V115.548M315.14 186.395V123.645M349.384 238.184V199.048C349.384 198.805 349.277 198.656 349.117 198.507L348.662 198.061L337.643 186.918L332.134 181.332L328.042 177.194L327.346 176.505C327.225 176.396 327.118 176.274 327.026 176.139V115.041M357.448 217.805V193.814C357.448 193.733 357.301 193.666 357.234 193.584L356.779 193.138L346.028 182.184L336.667 172.718L335.985 172.042L335.651 171.69C335.631 171.533 335.631 171.374 335.651 171.217V115.068M262.088 238.184V199.048C262.088 198.805 261.981 198.656 261.821 198.507L261.366 198.061L250.347 186.918L244.838 181.332L240.746 177.194L240.051 176.505C239.957 176.383 239.796 176.275 239.73 176.139M270.153 217.805V193.814C270.153 193.733 270.006 193.666 269.939 193.584L269.484 193.138L258.693 182.184L249.332 172.718L248.65 172.042L248.316 171.69C248.295 171.533 248.295 171.374 248.316 171.217M346.869 156.143V115.548M282.389 252.681V235.358L292.352 225.283C292.633 225.121 292.579 224.81 292.579 224.54V203.213C292.646 202.267 292.285 201.144 293.275 200.576L303.023 190.718C303.264 190.502 303.09 190.123 303.143 189.839M272.036 249.625V232.302L273.775 230.544L278.468 225.784L280.822 223.417L281.999 222.227C282.266 222.065 282.226 221.754 282.226 221.483V200.157C282.293 199.211 281.932 198.088 282.908 197.453L288.096 192.219L290.677 189.595L292.015 188.243L292.67 187.594C292.911 187.378 292.737 186.999 292.79 186.715M373.91 168.039L368.04 162.103V115.001M362.036 168.039L367.893 162.103V115.001M264.216 168.039L270.073 162.103V150.676M414.441 240.605V204.485L397.605 187.459M435.531 240.605V204.485L452.367 187.459M522.773 240.605V204.485L539.609 187.459M208.788 273.981H138.021M259.831 239.55H221.131C220.89 239.55 220.756 239.658 220.609 239.821L203.626 256.995L200.871 259.794L199.534 261.147L198.839 261.836C198.736 261.959 198.62 262.068 198.491 262.161H138.021M239.678 231.409H215.969C215.881 231.462 215.804 231.531 215.742 231.612L215.287 232.072L204.482 243.039L194.118 253.52C193.963 253.533 193.806 253.533 193.65 253.52H138.021M208.788 362.259H138.021M259.831 327.83H221.131C220.89 327.83 220.756 327.938 220.609 328.1L198.839 350.116C198.736 350.238 198.62 350.347 198.491 350.441H138.021M239.678 319.675H215.969C215.884 319.736 215.807 319.809 215.742 319.891L195.121 340.744L194.453 341.434L194.118 341.772C193.963 341.785 193.806 341.785 193.65 341.772H138.021M274.166 307.302H257.036L247.073 297.227C246.913 296.943 246.619 296.997 246.338 296.997H225.249C224.313 296.997 223.203 297.295 222.575 296.294L213.468 287.084L212.826 286.422C212.626 286.178 212.238 286.354 211.957 286.3H138.021M271.143 317.782H254.013L252.275 316.024L247.581 311.264L244.051 307.694C243.89 307.424 243.596 307.464 243.315 307.478H222.227C221.291 307.478 220.181 307.762 219.619 306.774L209.871 296.916C209.67 296.673 209.282 296.848 209.001 296.794H134.998M190.468 313.671L184.597 319.608H138.021M190.468 325.693L184.597 319.757H138.021M208.788 371.388H138.021M259.831 405.805H221.131C220.89 405.805 220.756 405.697 220.609 405.535L220.155 405.088L199.534 384.222L198.839 383.532C198.736 383.41 198.62 383.301 198.491 383.208H138.021M239.678 413.959H215.969C215.884 413.898 215.807 413.825 215.742 413.743L215.287 413.297L194.453 392.228L194.118 391.876C193.971 391.876 193.797 391.876 193.65 391.876H138.021M178.704 403.006H138.562M208.788 477.668H138.021M259.831 443.183H221.131C220.89 443.115 220.756 443.291 220.609 443.453L203.626 460.628L200.871 463.468L198.839 465.523C198.718 465.618 198.625 465.78 198.491 465.834H138.021M239.678 435.069H215.969C215.884 435.13 215.807 435.203 215.742 435.285L195.121 456.124L194.453 456.814L194.118 457.152C193.963 457.166 193.806 457.166 193.65 457.152H138.021M258.587 531.531H221.144C220.903 531.463 220.77 531.639 220.623 531.801L220.168 532.248L199.548 553.114L198.852 553.804C198.75 553.926 198.633 554.035 198.504 554.128H153.509M239.678 523.376H215.969C215.884 523.437 215.807 523.51 215.742 523.592L215.287 524.038L194.453 545.108L194.118 545.459C193.971 545.459 193.797 545.459 193.65 545.459H154.51M178.704 445.796H138.562M274.166 511.002H257.036L255.297 509.244L250.604 504.484L247.073 500.914C246.913 500.644 246.619 500.684 246.338 500.698H225.249C224.313 500.63 223.203 500.982 222.575 499.994L212.826 490.136C212.626 489.893 212.238 490.068 211.957 490.014H138.021M271.143 521.47H254.013L244.051 511.395C243.89 511.111 243.596 511.165 243.315 511.165H222.227C221.291 511.098 220.181 511.463 219.619 510.462L209.871 500.604C209.67 500.36 209.282 500.536 209.001 500.482H134.998M190.468 418.449L184.597 424.386H138.021M190.468 430.458L184.597 424.534H138.021M190.468 517.372L184.597 523.295H138.021M190.468 529.382L184.597 523.458H138.021M262.224 377.461H226.506L209.684 394.487M262.224 356.134H226.506L209.684 339.108M262.224 267.908H226.506L209.684 250.882M295.213 579.998C294.684 579.998 294.167 580.157 293.727 580.454C293.287 580.751 292.944 581.174 292.742 581.668C292.539 582.162 292.486 582.706 292.59 583.231C292.693 583.755 292.948 584.237 293.322 584.615C293.696 584.994 294.172 585.251 294.691 585.356C295.21 585.46 295.747 585.406 296.236 585.202C296.725 584.997 297.143 584.65 297.436 584.206C297.73 583.761 297.887 583.238 297.887 582.703C297.887 581.986 297.605 581.298 297.104 580.79C296.602 580.283 295.922 579.998 295.213 579.998ZM261.192 528.38C260.663 528.38 260.146 528.539 259.706 528.836C259.267 529.133 258.924 529.556 258.721 530.05C258.519 530.544 258.466 531.088 258.569 531.613C258.672 532.137 258.927 532.619 259.301 532.997C259.675 533.376 260.152 533.633 260.67 533.738C261.189 533.842 261.727 533.788 262.216 533.584C262.704 533.379 263.122 533.032 263.416 532.588C263.71 532.143 263.867 531.62 263.867 531.085C263.867 530.368 263.585 529.68 263.083 529.172C262.582 528.665 261.902 528.38 261.192 528.38ZM253.131 548.745C252.602 548.745 252.085 548.904 251.645 549.201C251.205 549.498 250.863 549.921 250.66 550.415C250.458 550.909 250.405 551.453 250.508 551.977C250.611 552.502 250.866 552.984 251.24 553.362C251.614 553.741 252.09 553.998 252.609 554.102C253.128 554.207 253.666 554.153 254.155 553.949C254.643 553.744 255.061 553.397 255.355 552.952C255.649 552.508 255.806 551.985 255.806 551.45C255.806 550.732 255.524 550.045 255.022 549.537C254.521 549.03 253.84 548.745 253.131 548.745ZM382.523 579.998C381.994 579.998 381.477 580.157 381.037 580.454C380.598 580.751 380.255 581.174 380.052 581.668C379.85 582.162 379.797 582.706 379.9 583.231C380.003 583.755 380.258 584.237 380.632 584.615C381.006 584.994 381.483 585.251 382.001 585.356C382.52 585.46 383.058 585.406 383.547 585.202C384.035 584.997 384.453 584.65 384.747 584.206C385.041 583.761 385.198 583.238 385.198 582.703C385.198 581.986 384.916 581.298 384.414 580.79C383.913 580.283 383.233 579.998 382.523 579.998ZM348.488 528.38C347.959 528.38 347.442 528.539 347.002 528.836C346.563 529.133 346.22 529.556 346.017 530.05C345.815 530.544 345.762 531.088 345.865 531.613C345.968 532.137 346.223 532.619 346.597 532.997C346.971 533.376 347.448 533.633 347.966 533.738C348.485 533.842 349.023 533.788 349.512 533.584C350 533.379 350.418 533.032 350.712 532.588C351.006 532.143 351.163 531.62 351.163 531.085C351.163 530.368 350.881 529.68 350.379 529.172C349.878 528.665 349.197 528.38 348.488 528.38ZM340.425 548.745C339.896 548.745 339.379 548.904 338.939 549.201C338.499 549.498 338.156 549.921 337.954 550.415C337.751 550.909 337.698 551.453 337.802 551.977C337.905 552.502 338.16 552.984 338.534 553.362C338.908 553.741 339.384 553.998 339.903 554.102C340.422 554.207 340.96 554.153 341.448 553.949C341.937 553.744 342.355 553.397 342.649 552.952C342.942 552.508 343.099 551.985 343.099 551.45C343.099 550.732 342.817 550.045 342.316 549.537C341.814 549.03 341.134 548.745 340.425 548.745ZM328.177 513.883C327.648 513.883 327.131 514.041 326.691 514.338C326.251 514.636 325.908 515.058 325.706 515.552C325.504 516.046 325.451 516.59 325.554 517.115C325.657 517.639 325.912 518.121 326.286 518.5C326.66 518.878 327.136 519.136 327.655 519.24C328.174 519.344 328.712 519.291 329.2 519.086C329.689 518.881 330.107 518.535 330.401 518.09C330.695 517.645 330.851 517.122 330.851 516.587C330.851 515.87 330.57 515.182 330.068 514.675C329.567 514.167 328.886 513.883 328.177 513.883ZM338.539 516.938C338.01 516.938 337.493 517.097 337.053 517.394C336.613 517.691 336.271 518.114 336.068 518.608C335.866 519.102 335.813 519.646 335.916 520.17C336.019 520.695 336.274 521.177 336.648 521.555C337.022 521.934 337.499 522.191 338.017 522.295C338.536 522.4 339.074 522.346 339.563 522.142C340.051 521.937 340.469 521.59 340.763 521.145C341.057 520.701 341.214 520.178 341.214 519.643C341.214 518.925 340.932 518.238 340.43 517.73C339.929 517.223 339.248 516.938 338.539 516.938ZM330.678 600.053C330.306 600.432 330.054 600.914 329.952 601.438C329.851 601.962 329.905 602.505 330.108 602.998C330.311 603.491 330.654 603.912 331.093 604.208C331.533 604.504 332.049 604.662 332.577 604.662C333.105 604.662 333.621 604.504 334.06 604.208C334.5 603.912 334.843 603.491 335.046 602.998C335.249 602.505 335.303 601.962 335.202 601.438C335.1 600.914 334.848 600.432 334.476 600.053C334.227 599.8 333.931 599.598 333.605 599.461C333.279 599.324 332.93 599.253 332.577 599.253C332.224 599.253 331.874 599.324 331.548 599.461C331.222 599.598 330.927 599.8 330.678 600.053ZM350.161 600.053C349.786 599.677 349.309 599.422 348.791 599.319C348.273 599.217 347.736 599.272 347.249 599.477C346.761 599.682 346.345 600.029 346.052 600.473C345.759 600.918 345.603 601.44 345.603 601.974C345.603 602.508 345.759 603.03 346.052 603.474C346.345 603.918 346.761 604.265 347.249 604.47C347.736 604.676 348.273 604.73 348.791 604.628C349.309 604.525 349.786 604.27 350.161 603.894C350.411 603.642 350.61 603.343 350.746 603.014C350.882 602.684 350.952 602.331 350.952 601.974C350.952 601.617 350.882 601.263 350.746 600.933C350.61 600.604 350.411 600.305 350.161 600.053ZM391.495 579.998C390.966 579.998 390.449 580.157 390.009 580.454C389.569 580.751 389.226 581.174 389.024 581.668C388.821 582.162 388.768 582.706 388.872 583.231C388.975 583.755 389.23 584.237 389.604 584.615C389.978 584.994 390.454 585.251 390.973 585.356C391.492 585.46 392.03 585.406 392.518 585.202C393.007 584.997 393.425 584.65 393.718 584.206C394.012 583.761 394.169 583.238 394.169 582.703C394.169 581.986 393.887 581.298 393.386 580.79C392.884 580.283 392.204 579.998 391.495 579.998ZM425.596 528.38C425.067 528.38 424.55 528.539 424.11 528.836C423.67 529.133 423.328 529.556 423.125 530.05C422.923 530.544 422.87 531.088 422.973 531.613C423.076 532.137 423.331 532.619 423.705 532.997C424.079 533.376 424.555 533.633 425.074 533.738C425.593 533.842 426.131 533.788 426.62 533.584C427.108 533.379 427.526 533.032 427.82 532.588C428.114 532.143 428.271 531.62 428.271 531.085C428.271 530.368 427.989 529.68 427.487 529.172C426.986 528.665 426.305 528.38 425.596 528.38ZM433.646 548.745C433.117 548.745 432.6 548.904 432.16 549.201C431.72 549.498 431.377 549.921 431.175 550.415C430.973 550.909 430.92 551.453 431.023 551.977C431.126 552.502 431.381 552.984 431.755 553.362C432.129 553.741 432.605 553.998 433.124 554.102C433.643 554.207 434.181 554.153 434.669 553.949C435.158 553.744 435.576 553.397 435.87 552.952C436.164 552.508 436.32 551.985 436.32 551.45C436.32 550.732 436.039 550.045 435.537 549.537C435.035 549.03 434.355 548.745 433.646 548.745ZM422.679 610.805C422.15 610.805 421.633 610.963 421.193 611.261C420.753 611.558 420.41 611.98 420.208 612.474C420.005 612.969 419.953 613.512 420.056 614.037C420.159 614.562 420.414 615.044 420.788 615.422C421.162 615.8 421.638 616.058 422.157 616.162C422.676 616.266 423.214 616.213 423.702 616.008C424.191 615.803 424.609 615.457 424.903 615.012C425.196 614.567 425.353 614.044 425.353 613.509C425.353 612.792 425.072 612.104 424.57 611.597C424.068 611.09 423.388 610.805 422.679 610.805ZM496.655 579.998C496.126 579.998 495.609 580.157 495.169 580.454C494.729 580.751 494.387 581.174 494.184 581.668C493.982 582.162 493.929 582.706 494.032 583.231C494.135 583.755 494.39 584.237 494.764 584.615C495.138 584.994 495.615 585.251 496.133 585.356C496.652 585.46 497.19 585.406 497.679 585.202C498.167 584.997 498.585 584.65 498.879 584.206C499.173 583.761 499.33 583.238 499.33 582.703C499.33 581.986 499.048 581.298 498.546 580.79C498.045 580.283 497.364 579.998 496.655 579.998ZM462.61 528.38C462.081 528.38 461.564 528.539 461.124 528.836C460.684 529.133 460.341 529.556 460.139 530.05C459.937 530.544 459.884 531.088 459.987 531.613C460.09 532.137 460.345 532.619 460.719 532.997C461.093 533.376 461.569 533.633 462.088 533.738C462.607 533.842 463.145 533.788 463.633 533.584C464.122 533.379 464.54 533.032 464.834 532.588C465.128 532.143 465.284 531.62 465.284 531.085C465.284 530.368 465.003 529.68 464.501 529.172C464 528.665 463.319 528.38 462.61 528.38ZM454.548 548.745C454.019 548.745 453.502 548.904 453.062 549.201C452.622 549.498 452.279 549.921 452.077 550.415C451.874 550.909 451.821 551.453 451.925 551.977C452.028 552.502 452.282 552.984 452.656 553.362C453.031 553.741 453.507 553.998 454.026 554.102C454.545 554.207 455.082 554.153 455.571 553.949C456.06 553.744 456.478 553.397 456.771 552.952C457.065 552.508 457.222 551.985 457.222 551.45C457.222 550.732 456.94 550.045 456.439 549.537C455.937 549.03 455.257 548.745 454.548 548.745ZM549.905 528.38C549.376 528.38 548.859 528.539 548.419 528.836C547.979 529.133 547.636 529.556 547.434 530.05C547.231 530.544 547.178 531.088 547.282 531.613C547.385 532.137 547.64 532.619 548.014 532.997C548.388 533.376 548.864 533.633 549.383 533.738C549.902 533.842 550.44 533.788 550.928 533.584C551.417 533.379 551.835 533.032 552.128 532.588C552.422 532.143 552.579 531.62 552.579 531.085C552.579 530.368 552.297 529.68 551.796 529.172C551.294 528.665 550.614 528.38 549.905 528.38ZM541.841 548.745C541.312 548.745 540.795 548.904 540.355 549.201C539.916 549.498 539.573 549.921 539.37 550.415C539.168 550.909 539.115 551.453 539.218 551.977C539.321 552.502 539.576 552.984 539.95 553.362C540.324 553.741 540.801 553.998 541.32 554.102C541.838 554.207 542.376 554.153 542.865 553.949C543.353 553.744 543.771 553.397 544.065 552.952C544.359 552.508 544.516 551.985 544.516 551.45C544.516 550.732 544.234 550.045 543.732 549.537C543.231 549.03 542.551 548.745 541.841 548.745ZM465.526 610.805C464.997 610.805 464.48 610.963 464.04 611.261C463.6 611.558 463.257 611.98 463.055 612.474C462.853 612.969 462.8 613.512 462.903 614.037C463.006 614.562 463.261 615.044 463.635 615.422C464.009 615.8 464.485 616.058 465.004 616.162C465.523 616.266 466.061 616.213 466.549 616.008C467.038 615.803 467.456 615.457 467.75 615.012C468.044 614.567 468.2 614.044 468.2 613.509C468.2 612.792 467.919 612.104 467.417 611.597C466.916 611.09 466.235 610.805 465.526 610.805ZM529.607 513.883C529.078 513.883 528.561 514.041 528.121 514.338C527.681 514.636 527.338 515.058 527.136 515.552C526.934 516.046 526.881 516.59 526.984 517.115C527.087 517.639 527.342 518.121 527.716 518.5C528.09 518.878 528.566 519.136 529.085 519.24C529.604 519.344 530.142 519.291 530.63 519.086C531.119 518.881 531.537 518.535 531.831 518.09C532.125 517.645 532.281 517.122 532.281 516.587C532.281 515.87 532 515.182 531.498 514.675C530.997 514.167 530.316 513.883 529.607 513.883ZM539.93 516.938C539.401 516.938 538.884 517.097 538.444 517.394C538.004 517.691 537.661 518.114 537.459 518.608C537.256 519.102 537.203 519.646 537.307 520.17C537.41 520.695 537.665 521.177 538.039 521.555C538.413 521.934 538.889 522.191 539.408 522.295C539.927 522.4 540.465 522.346 540.953 522.142C541.442 521.937 541.86 521.59 542.154 521.145C542.447 520.701 542.604 520.178 542.604 519.643C542.604 518.925 542.323 518.238 541.821 517.73C541.319 517.223 540.639 516.938 539.93 516.938ZM434.287 600.053C433.915 600.432 433.663 600.914 433.561 601.438C433.46 601.962 433.514 602.505 433.717 602.998C433.92 603.491 434.263 603.912 434.702 604.208C435.142 604.504 435.658 604.662 436.186 604.662C436.714 604.662 437.23 604.504 437.67 604.208C438.109 603.912 438.452 603.491 438.655 602.998C438.858 602.505 438.912 601.962 438.811 601.438C438.709 600.914 438.457 600.432 438.085 600.053C437.836 599.8 437.54 599.598 437.215 599.461C436.889 599.324 436.539 599.253 436.186 599.253C435.833 599.253 435.483 599.324 435.157 599.461C434.832 599.598 434.536 599.8 434.287 600.053ZM453.771 600.053C453.396 599.677 452.919 599.422 452.401 599.319C451.883 599.217 451.346 599.272 450.859 599.477C450.372 599.682 449.955 600.029 449.662 600.473C449.369 600.918 449.213 601.44 449.213 601.974C449.213 602.508 449.369 603.03 449.662 603.474C449.955 603.918 450.372 604.265 450.859 604.47C451.346 604.676 451.883 604.73 452.401 604.628C452.919 604.525 453.396 604.27 453.771 603.894C454.022 603.642 454.22 603.343 454.356 603.014C454.492 602.684 454.562 602.331 454.562 601.974C454.562 601.617 454.492 601.263 454.356 600.933C454.22 600.604 454.022 600.305 453.771 600.053ZM532.107 600.053C531.737 600.432 531.486 600.914 531.386 601.438C531.287 601.961 531.342 602.503 531.545 602.995C531.749 603.487 532.092 603.907 532.531 604.202C532.97 604.497 533.485 604.655 534.012 604.655C534.54 604.655 535.055 604.497 535.494 604.202C535.933 603.907 536.276 603.487 536.479 602.995C536.683 602.503 536.738 601.961 536.639 601.438C536.539 600.914 536.288 600.432 535.918 600.053C535.669 599.797 535.373 599.594 535.045 599.456C534.718 599.317 534.367 599.246 534.012 599.246C533.658 599.246 533.307 599.317 532.98 599.456C532.652 599.594 532.356 599.797 532.107 600.053ZM551.592 600.053C551.217 599.677 550.74 599.422 550.222 599.319C549.704 599.217 549.167 599.272 548.68 599.477C548.192 599.682 547.776 600.029 547.483 600.473C547.19 600.918 547.034 601.44 547.034 601.974C547.034 602.508 547.19 603.03 547.483 603.474C547.776 603.918 548.192 604.265 548.68 604.47C549.167 604.676 549.704 604.73 550.222 604.628C550.74 604.525 551.217 604.27 551.592 603.894C551.842 603.642 552.041 603.343 552.177 603.014C552.313 602.684 552.383 602.331 552.383 601.974C552.383 601.617 552.313 601.263 552.177 600.933C552.041 600.604 551.842 600.305 551.592 600.053ZM397.566 525.96C397.037 525.96 396.52 526.118 396.08 526.416C395.64 526.713 395.297 527.135 395.095 527.629C394.893 528.124 394.84 528.667 394.943 529.192C395.046 529.717 395.301 530.199 395.675 530.577C396.049 530.955 396.525 531.213 397.044 531.317C397.563 531.421 398.101 531.368 398.589 531.163C399.078 530.958 399.496 530.612 399.79 530.167C400.084 529.722 400.24 529.199 400.24 528.664C400.24 527.947 399.959 527.259 399.457 526.752C398.956 526.245 398.275 525.96 397.566 525.96ZM376.466 525.96C375.937 525.96 375.42 526.118 374.98 526.416C374.54 526.713 374.197 527.135 373.995 527.629C373.792 528.124 373.739 528.667 373.842 529.192C373.946 529.717 374.2 530.199 374.574 530.577C374.948 530.955 375.425 531.213 375.944 531.317C376.463 531.421 377 531.368 377.489 531.163C377.978 530.958 378.395 530.612 378.689 530.167C378.983 529.722 379.14 529.199 379.14 528.664C379.14 527.947 378.858 527.259 378.357 526.752C377.855 526.245 377.175 525.96 376.466 525.96ZM289.224 525.96C288.695 525.96 288.177 526.118 287.738 526.416C287.298 526.713 286.955 527.135 286.753 527.629C286.55 528.124 286.497 528.667 286.6 529.192C286.704 529.717 286.958 530.199 287.332 530.577C287.706 530.955 288.183 531.213 288.702 531.317C289.221 531.421 289.758 531.368 290.247 531.163C290.736 530.958 291.153 530.612 291.447 530.167C291.741 529.722 291.898 529.199 291.898 528.664C291.898 527.947 291.616 527.259 291.115 526.752C290.613 526.245 289.933 525.96 289.224 525.96ZM597.847 498.021C597.847 498.556 598.004 499.079 598.297 499.524C598.591 499.969 599.009 500.315 599.498 500.52C599.986 500.725 600.524 500.778 601.043 500.674C601.562 500.57 602.038 500.312 602.412 499.934C602.786 499.556 603.041 499.074 603.144 498.549C603.247 498.024 603.194 497.481 602.992 496.986C602.79 496.492 602.447 496.07 602.007 495.772C601.567 495.475 601.05 495.317 600.521 495.317C599.812 495.317 599.132 495.602 598.63 496.109C598.129 496.616 597.847 497.304 597.847 498.021ZM566.942 540.552C566.942 541.087 567.099 541.61 567.393 542.055C567.687 542.499 568.104 542.846 568.593 543.051C569.082 543.255 569.62 543.309 570.138 543.205C570.657 543.1 571.134 542.843 571.508 542.464C571.882 542.086 572.137 541.604 572.24 541.08C572.343 540.555 572.29 540.011 572.088 539.517C571.885 539.023 571.542 538.6 571.102 538.303C570.663 538.006 570.146 537.847 569.617 537.847C568.907 537.847 568.227 538.132 567.725 538.64C567.224 539.147 566.942 539.835 566.942 540.552ZM597.847 409.741C597.847 410.275 598.004 410.798 598.297 411.243C598.591 411.688 599.009 412.035 599.498 412.239C599.986 412.444 600.524 412.498 601.043 412.393C601.562 412.289 602.038 412.031 602.412 411.653C602.786 411.275 603.041 410.793 603.144 410.268C603.247 409.744 603.194 409.2 602.992 408.706C602.79 408.211 602.447 407.789 602.007 407.492C601.567 407.195 601.05 407.036 600.521 407.036C599.812 407.036 599.132 407.321 598.63 407.828C598.129 408.335 597.847 409.023 597.847 409.741ZM546.789 444.157C546.789 444.692 546.946 445.215 547.24 445.66C547.534 446.104 547.951 446.451 548.44 446.656C548.929 446.861 549.467 446.914 549.985 446.81C550.504 446.705 550.981 446.448 551.355 446.07C551.729 445.691 551.984 445.209 552.087 444.685C552.19 444.16 552.137 443.616 551.935 443.122C551.732 442.628 551.389 442.205 550.95 441.908C550.51 441.611 549.993 441.452 549.464 441.452C548.754 441.452 548.074 441.737 547.573 442.245C547.071 442.752 546.789 443.44 546.789 444.157ZM566.942 452.311C566.942 452.846 567.099 453.369 567.393 453.814C567.687 454.258 568.104 454.605 568.593 454.81C569.082 455.014 569.62 455.068 570.138 454.964C570.657 454.859 571.134 454.602 571.508 454.223C571.882 453.845 572.137 453.363 572.24 452.839C572.343 452.314 572.29 451.77 572.088 451.276C571.885 450.782 571.542 450.359 571.102 450.062C570.663 449.765 570.146 449.606 569.617 449.606C568.907 449.606 568.227 449.891 567.725 450.398C567.224 450.906 566.942 451.594 566.942 452.311ZM532.455 464.685C532.455 465.22 532.612 465.743 532.906 466.188C533.199 466.633 533.617 466.979 534.106 467.184C534.594 467.389 535.132 467.442 535.651 467.338C536.17 467.234 536.646 466.976 537.02 466.598C537.394 466.22 537.649 465.738 537.752 465.213C537.856 464.688 537.803 464.145 537.6 463.65C537.398 463.156 537.055 462.734 536.615 462.437C536.175 462.139 535.658 461.981 535.129 461.981C534.42 461.981 533.74 462.266 533.238 462.773C532.737 463.28 532.455 463.968 532.455 464.685ZM535.476 454.218C535.476 454.753 535.633 455.276 535.927 455.72C536.221 456.165 536.639 456.512 537.127 456.717C537.616 456.921 538.154 456.975 538.673 456.87C539.191 456.766 539.668 456.509 540.042 456.13C540.416 455.752 540.671 455.27 540.774 454.745C540.877 454.221 540.824 453.677 540.622 453.183C540.419 452.689 540.076 452.266 539.637 451.969C539.197 451.672 538.68 451.513 538.151 451.513C537.441 451.513 536.761 451.798 536.26 452.305C535.758 452.813 535.476 453.501 535.476 454.218ZM617.731 462.115C618.106 462.491 618.583 462.747 619.101 462.849C619.619 462.952 620.156 462.897 620.643 462.692C621.131 462.486 621.547 462.14 621.84 461.695C622.133 461.251 622.289 460.729 622.289 460.195C622.289 459.661 622.133 459.139 621.84 458.695C621.547 458.25 621.131 457.904 620.643 457.698C620.156 457.493 619.619 457.438 619.101 457.541C618.583 457.643 618.106 457.899 617.731 458.275C617.481 458.526 617.282 458.825 617.146 459.155C617.01 459.485 616.94 459.838 616.94 460.195C616.94 460.552 617.01 460.906 617.146 461.235C617.282 461.565 617.481 461.864 617.731 462.115ZM617.73 442.453C617.359 442.832 617.106 443.314 617.005 443.838C616.903 444.363 616.957 444.905 617.16 445.398C617.364 445.891 617.706 446.312 618.146 446.608C618.585 446.905 619.101 447.063 619.629 447.063C620.157 447.063 620.674 446.905 621.113 446.608C621.552 446.312 621.895 445.891 622.098 445.398C622.301 444.905 622.355 444.363 622.254 443.838C622.153 443.314 621.9 442.832 621.528 442.453C621.279 442.2 620.984 441.999 620.658 441.861C620.332 441.724 619.982 441.653 619.629 441.653C619.276 441.653 618.927 441.724 618.601 441.861C618.275 441.999 617.979 442.2 617.73 442.453ZM597.847 400.599C597.847 401.134 598.004 401.656 598.297 402.101C598.591 402.546 599.009 402.893 599.498 403.097C599.986 403.302 600.524 403.356 601.043 403.251C601.562 403.147 602.038 402.889 602.412 402.511C602.786 402.133 603.041 401.651 603.144 401.126C603.247 400.602 603.194 400.058 602.992 399.564C602.79 399.069 602.447 398.647 602.007 398.35C601.567 398.053 601.05 397.894 600.521 397.894C599.812 397.894 599.132 398.179 598.63 398.686C598.129 399.193 597.847 399.881 597.847 400.599ZM546.789 366.182C546.789 366.717 546.946 367.24 547.24 367.685C547.534 368.13 547.951 368.476 548.44 368.681C548.929 368.886 549.467 368.939 549.985 368.835C550.504 368.73 550.981 368.473 551.355 368.095C551.729 367.716 551.984 367.234 552.087 366.71C552.19 366.185 552.137 365.641 551.935 365.147C551.732 364.653 551.389 364.23 550.95 363.933C550.51 363.636 549.993 363.477 549.464 363.477C548.754 363.477 548.074 363.762 547.573 364.27C547.071 364.777 546.789 365.465 546.789 366.182ZM566.942 357.987C566.942 358.522 567.099 359.045 567.393 359.49C567.687 359.935 568.104 360.282 568.593 360.486C569.082 360.691 569.62 360.745 570.138 360.64C570.657 360.536 571.134 360.278 571.508 359.9C571.882 359.522 572.137 359.04 572.24 358.515C572.343 357.99 572.29 357.447 572.088 356.952C571.885 356.458 571.542 356.036 571.102 355.739C570.663 355.441 570.146 355.283 569.617 355.283C568.907 355.283 568.227 355.568 567.725 356.075C567.224 356.582 566.942 357.27 566.942 357.987ZM628.296 369.13C628.296 369.665 628.453 370.188 628.746 370.633C629.04 371.077 629.458 371.424 629.947 371.629C630.435 371.833 630.973 371.887 631.492 371.783C632.011 371.678 632.487 371.421 632.861 371.042C633.235 370.664 633.49 370.182 633.593 369.658C633.696 369.133 633.644 368.589 633.441 368.095C633.239 367.601 632.896 367.178 632.456 366.881C632.016 366.584 631.499 366.425 630.97 366.425C630.261 366.425 629.581 366.71 629.079 367.217C628.577 367.725 628.296 368.413 628.296 369.13ZM597.847 294.32C597.847 294.855 598.004 295.377 598.297 295.822C598.591 296.267 599.009 296.614 599.498 296.818C599.986 297.023 600.524 297.077 601.043 296.972C601.562 296.868 602.038 296.61 602.412 296.232C602.786 295.854 603.041 295.372 603.144 294.847C603.247 294.323 603.194 293.779 602.992 293.285C602.79 292.79 602.447 292.368 602.007 292.071C601.567 291.774 601.05 291.615 600.521 291.615C599.812 291.615 599.132 291.9 598.63 292.407C598.129 292.914 597.847 293.602 597.847 294.32ZM546.789 328.736C546.789 329.271 546.946 329.794 547.24 330.239C547.534 330.684 547.951 331.03 548.44 331.235C548.929 331.44 549.467 331.493 549.985 331.389C550.504 331.284 550.981 331.027 551.355 330.649C551.729 330.27 551.984 329.788 552.087 329.264C552.19 328.739 552.137 328.195 551.935 327.701C551.732 327.207 551.389 326.784 550.95 326.487C550.51 326.19 549.993 326.031 549.464 326.031C548.754 326.031 548.074 326.316 547.573 326.824C547.071 327.331 546.789 328.019 546.789 328.736ZM566.942 336.89C566.942 337.425 567.099 337.948 567.393 338.392C567.687 338.837 568.104 339.184 568.593 339.389C569.082 339.593 569.62 339.647 570.138 339.543C570.657 339.438 571.134 339.181 571.508 338.802C571.882 338.424 572.137 337.942 572.24 337.418C572.343 336.893 572.29 336.349 572.088 335.855C571.885 335.361 571.542 334.938 571.102 334.641C570.663 334.344 570.146 334.185 569.617 334.185C568.907 334.185 568.227 334.47 567.725 334.977C567.224 335.485 566.942 336.173 566.942 336.89ZM566.942 248.61C566.942 249.145 567.099 249.668 567.393 250.113C567.687 250.558 568.104 250.904 568.593 251.109C569.082 251.314 569.62 251.367 570.138 251.263C570.657 251.158 571.134 250.901 571.508 250.523C571.882 250.144 572.137 249.663 572.24 249.138C572.343 248.613 572.29 248.069 572.088 247.575C571.885 247.081 571.542 246.659 571.102 246.361C570.663 246.064 570.146 245.906 569.617 245.906C568.907 245.906 568.227 246.191 567.725 246.698C567.224 247.205 566.942 247.893 566.942 248.61ZM628.296 325.801C628.296 326.336 628.453 326.859 628.746 327.304C629.04 327.749 629.458 328.095 629.947 328.3C630.435 328.505 630.973 328.558 631.492 328.454C632.011 328.35 632.487 328.092 632.861 327.714C633.235 327.336 633.49 326.854 633.593 326.329C633.696 325.804 633.644 325.261 633.441 324.766C633.239 324.272 632.896 323.85 632.456 323.552C632.016 323.255 631.499 323.097 630.97 323.097C630.261 323.097 629.581 323.382 629.079 323.889C628.577 324.396 628.296 325.084 628.296 325.801ZM532.455 260.998C532.455 261.533 532.612 262.056 532.906 262.5C533.199 262.945 533.617 263.292 534.106 263.497C534.594 263.701 535.132 263.755 535.651 263.65C536.17 263.546 536.646 263.289 537.02 262.91C537.394 262.532 537.649 262.05 537.752 261.525C537.856 261.001 537.803 260.457 537.6 259.963C537.398 259.469 537.055 259.046 536.615 258.749C536.175 258.452 535.658 258.293 535.129 258.293C534.42 258.293 533.74 258.578 533.238 259.085C532.737 259.593 532.455 260.28 532.455 260.998ZM535.476 250.517C535.476 251.052 535.633 251.575 535.927 252.02C536.221 252.464 536.639 252.811 537.127 253.016C537.616 253.221 538.154 253.274 538.673 253.17C539.191 253.065 539.668 252.808 540.042 252.43C540.416 252.051 540.671 251.569 540.774 251.045C540.877 250.52 540.824 249.976 540.622 249.482C540.419 248.988 540.076 248.565 539.637 248.268C539.197 247.971 538.68 247.812 538.151 247.812C537.441 247.812 536.761 248.097 536.26 248.605C535.758 249.112 535.476 249.8 535.476 250.517ZM617.731 357.392C618.106 357.768 618.583 358.023 619.101 358.126C619.619 358.228 620.156 358.174 620.643 357.968C621.131 357.763 621.547 357.416 621.84 356.972C622.133 356.528 622.289 356.006 622.289 355.472C622.289 354.938 622.133 354.416 621.84 353.971C621.547 353.527 621.131 353.18 620.643 352.975C620.156 352.77 619.619 352.715 619.101 352.817C618.583 352.92 618.106 353.175 617.731 353.551C617.481 353.803 617.282 354.102 617.146 354.431C617.01 354.761 616.94 355.115 616.94 355.472C616.94 355.829 617.01 356.182 617.146 356.512C617.282 356.841 617.481 357.14 617.731 357.392ZM617.73 337.702C617.359 338.081 617.106 338.563 617.005 339.087C616.903 339.611 616.957 340.154 617.16 340.647C617.364 341.14 617.706 341.561 618.146 341.857C618.585 342.153 619.101 342.311 619.629 342.311C620.157 342.311 620.674 342.153 621.113 341.857C621.552 341.561 621.895 341.14 622.098 340.647C622.301 340.154 622.355 339.611 622.254 339.087C622.153 338.563 621.9 338.081 621.528 337.702C621.279 337.449 620.984 337.247 620.658 337.11C620.332 336.973 619.982 336.902 619.629 336.902C619.276 336.902 618.927 336.973 618.601 337.11C618.275 337.247 617.979 337.449 617.73 337.702ZM617.731 258.469C618.106 258.845 618.583 259.101 619.101 259.203C619.619 259.306 620.156 259.251 620.643 259.045C621.131 258.84 621.547 258.493 621.84 258.049C622.133 257.605 622.289 257.083 622.289 256.549C622.289 256.015 622.133 255.493 621.84 255.048C621.547 254.604 621.131 254.257 620.643 254.052C620.156 253.847 619.619 253.792 619.101 253.895C618.583 253.997 618.106 254.252 617.731 254.628C617.481 254.88 617.282 255.179 617.146 255.509C617.01 255.838 616.94 256.192 616.94 256.549C616.94 256.906 617.01 257.259 617.146 257.589C617.282 257.919 617.481 258.218 617.731 258.469ZM617.73 238.766C617.359 239.145 617.106 239.627 617.005 240.151C616.903 240.675 616.957 241.218 617.16 241.71C617.364 242.203 617.706 242.624 618.146 242.921C618.585 243.217 619.101 243.375 619.629 243.375C620.157 243.375 620.674 243.217 621.113 242.921C621.552 242.624 621.895 242.203 622.098 241.71C622.301 241.218 622.355 240.675 622.254 240.151C622.153 239.627 621.9 239.145 621.528 238.766C621.279 238.512 620.984 238.311 620.658 238.174C620.332 238.036 619.982 237.966 619.629 237.966C619.276 237.966 618.927 238.036 618.601 238.174C618.275 238.311 617.979 238.512 617.73 238.766ZM549.772 394.526C549.772 393.025 548.569 391.808 547.084 391.808C545.6 391.808 544.396 393.025 544.396 394.526C544.396 396.027 545.6 397.244 547.084 397.244C548.569 397.244 549.772 396.027 549.772 394.526ZM544.396 415.867C544.396 416.402 544.553 416.925 544.847 417.37C545.141 417.815 545.558 418.161 546.047 418.366C546.536 418.571 547.074 418.624 547.592 418.52C548.111 418.415 548.588 418.158 548.962 417.78C549.336 417.401 549.591 416.919 549.694 416.395C549.797 415.87 549.744 415.326 549.542 414.832C549.339 414.338 548.996 413.915 548.557 413.618C548.117 413.321 547.6 413.162 547.071 413.162C546.361 413.162 545.681 413.447 545.179 413.955C544.678 414.462 544.396 415.15 544.396 415.867ZM544.396 504.038C544.396 504.573 544.553 505.096 544.847 505.54C545.141 505.985 545.558 506.332 546.047 506.537C546.536 506.741 547.074 506.795 547.592 506.691C548.111 506.586 548.588 506.329 548.962 505.95C549.336 505.572 549.591 505.09 549.694 504.565C549.797 504.041 549.744 503.497 549.542 503.003C549.339 502.509 548.996 502.086 548.557 501.789C548.117 501.492 547.6 501.333 547.071 501.333C546.361 501.333 545.681 501.618 545.179 502.125C544.678 502.633 544.396 503.32 544.396 504.038ZM519.458 189.271C519.458 187.77 518.254 186.553 516.77 186.553C515.285 186.553 514.082 187.77 514.082 189.271C514.082 190.772 515.285 191.989 516.77 191.989C518.254 191.989 519.458 190.772 519.458 189.271ZM550.803 243.62C551.332 243.62 551.849 243.462 552.289 243.164C552.728 242.867 553.071 242.445 553.274 241.951C553.476 241.456 553.529 240.913 553.426 240.388C553.323 239.863 553.068 239.381 552.694 239.003C552.32 238.625 551.843 238.367 551.324 238.263C550.806 238.158 550.268 238.212 549.779 238.417C549.29 238.621 548.873 238.968 548.579 239.413C548.285 239.858 548.128 240.381 548.128 240.915C548.128 241.633 548.41 242.321 548.912 242.828C549.413 243.335 550.093 243.62 550.803 243.62ZM558.865 223.241C559.394 223.241 559.911 223.082 560.351 222.785C560.791 222.488 561.134 222.066 561.336 221.571C561.538 221.077 561.591 220.533 561.488 220.009C561.385 219.484 561.13 219.002 560.756 218.624C560.382 218.246 559.906 217.988 559.387 217.884C558.868 217.779 558.33 217.833 557.841 218.038C557.353 218.242 556.935 218.589 556.641 219.034C556.347 219.479 556.19 220.001 556.19 220.536C556.19 221.254 556.472 221.942 556.974 222.449C557.475 222.956 558.156 223.241 558.865 223.241ZM429.473 191.989C430.002 191.989 430.519 191.83 430.959 191.533C431.399 191.236 431.741 190.814 431.944 190.32C432.146 189.825 432.199 189.282 432.096 188.757C431.993 188.232 431.738 187.75 431.364 187.372C430.99 186.994 430.513 186.736 429.995 186.632C429.476 186.528 428.938 186.581 428.449 186.786C427.961 186.991 427.543 187.337 427.249 187.782C426.955 188.227 426.798 188.75 426.798 189.285C426.798 190.002 427.08 190.69 427.582 191.197C428.083 191.704 428.763 191.989 429.473 191.989ZM463.507 243.62C464.036 243.62 464.553 243.462 464.993 243.164C465.432 242.867 465.775 242.445 465.978 241.951C466.18 241.456 466.233 240.913 466.13 240.388C466.027 239.863 465.772 239.381 465.398 239.003C465.024 238.625 464.547 238.367 464.029 238.263C463.51 238.158 462.972 238.212 462.483 238.417C461.995 238.621 461.577 238.968 461.283 239.413C460.989 239.858 460.832 240.381 460.832 240.915C460.832 241.633 461.114 242.321 461.616 242.828C462.117 243.335 462.797 243.62 463.507 243.62ZM471.569 223.241C472.098 223.241 472.615 223.082 473.055 222.785C473.495 222.488 473.838 222.066 474.04 221.571C474.242 221.077 474.295 220.533 474.192 220.009C474.089 219.484 473.834 219.002 473.46 218.624C473.086 218.246 472.61 217.988 472.091 217.884C471.572 217.779 471.034 217.833 470.546 218.038C470.057 218.242 469.639 218.589 469.345 219.034C469.051 219.479 468.895 220.001 468.895 220.536C468.895 221.254 469.176 221.942 469.678 222.449C470.18 222.956 470.86 223.241 471.569 223.241ZM483.766 258.118C484.295 258.118 484.812 257.959 485.252 257.662C485.692 257.365 486.035 256.943 486.237 256.448C486.44 255.954 486.493 255.41 486.39 254.886C486.286 254.361 486.032 253.879 485.658 253.501C485.283 253.123 484.807 252.865 484.288 252.761C483.769 252.656 483.232 252.71 482.743 252.915C482.254 253.119 481.836 253.466 481.543 253.911C481.249 254.355 481.092 254.878 481.092 255.413C481.092 256.131 481.374 256.819 481.875 257.326C482.377 257.833 483.057 258.118 483.766 258.118ZM473.455 255.062C473.984 255.062 474.501 254.903 474.941 254.606C475.38 254.309 475.723 253.886 475.926 253.392C476.128 252.898 476.181 252.354 476.078 251.829C475.975 251.305 475.72 250.823 475.346 250.445C474.972 250.066 474.495 249.809 473.976 249.704C473.458 249.6 472.92 249.654 472.431 249.858C471.943 250.063 471.525 250.41 471.231 250.854C470.937 251.299 470.78 251.822 470.78 252.357C470.78 253.074 471.062 253.762 471.564 254.269C472.065 254.777 472.745 255.062 473.455 255.062ZM481.318 171.879C481.69 171.5 481.943 171.018 482.044 170.493C482.145 169.969 482.091 169.427 481.888 168.934C481.685 168.441 481.342 168.02 480.903 167.724C480.464 167.427 479.947 167.269 479.419 167.269C478.891 167.269 478.375 167.427 477.936 167.724C477.496 168.02 477.154 168.441 476.95 168.934C476.747 169.427 476.693 169.969 476.795 170.493C476.896 171.018 477.149 171.5 477.52 171.879C477.769 172.132 478.065 172.333 478.391 172.471C478.717 172.608 479.066 172.679 479.419 172.679C479.772 172.679 480.122 172.608 480.448 172.471C480.774 172.333 481.07 172.132 481.318 171.879ZM461.836 171.88C462.211 172.254 462.688 172.507 463.205 172.608C463.723 172.709 464.259 172.653 464.745 172.447C465.231 172.241 465.647 171.895 465.939 171.451C466.231 171.007 466.387 170.486 466.387 169.952C466.387 169.419 466.231 168.898 465.939 168.454C465.647 168.01 465.231 167.664 464.745 167.458C464.259 167.252 463.723 167.196 463.205 167.297C462.688 167.398 462.211 167.651 461.836 168.025C461.583 168.277 461.382 168.577 461.245 168.908C461.108 169.239 461.038 169.594 461.038 169.952C461.038 170.311 461.108 170.666 461.245 170.997C461.382 171.328 461.583 171.628 461.836 171.88ZM423.134 189.271C423.134 187.77 421.931 186.553 420.446 186.553C418.962 186.553 417.758 187.77 417.758 189.271C417.758 190.772 418.962 191.989 420.446 191.989C421.931 191.989 423.134 190.772 423.134 189.271ZM386.4 243.62C386.929 243.62 387.446 243.462 387.886 243.164C388.326 242.867 388.669 242.445 388.871 241.951C389.073 241.456 389.126 240.913 389.023 240.388C388.92 239.863 388.665 239.381 388.291 239.003C387.917 238.625 387.441 238.367 386.922 238.263C386.403 238.158 385.865 238.212 385.377 238.417C384.888 238.621 384.47 238.968 384.176 239.413C383.882 239.858 383.726 240.381 383.726 240.915C383.726 241.633 384.007 242.321 384.509 242.828C385.01 243.335 385.691 243.62 386.4 243.62ZM378.35 223.241C378.879 223.241 379.396 223.082 379.836 222.785C380.276 222.488 380.619 222.066 380.821 221.571C381.023 221.077 381.076 220.533 380.973 220.009C380.87 219.484 380.615 219.002 380.241 218.624C379.867 218.246 379.391 217.988 378.872 217.884C378.353 217.779 377.815 217.833 377.327 218.038C376.838 218.242 376.42 218.589 376.126 219.034C375.832 219.479 375.676 220.001 375.676 220.536C375.676 221.254 375.957 221.942 376.459 222.449C376.96 222.956 377.641 223.241 378.35 223.241ZM389.316 161.196C389.845 161.196 390.362 161.038 390.802 160.74C391.242 160.443 391.585 160.021 391.787 159.527C391.99 159.032 392.042 158.489 391.939 157.964C391.836 157.439 391.581 156.957 391.207 156.579C390.833 156.201 390.357 155.943 389.838 155.839C389.319 155.735 388.781 155.788 388.293 155.993C387.804 156.198 387.386 156.544 387.092 156.989C386.798 157.434 386.642 157.957 386.642 158.492C386.642 159.209 386.923 159.897 387.425 160.404C387.927 160.911 388.607 161.196 389.316 161.196ZM318.041 189.271C318.041 187.77 316.838 186.553 315.353 186.553C313.869 186.553 312.665 187.77 312.665 189.271C312.665 190.772 313.869 191.989 315.353 191.989C316.838 191.989 318.041 190.772 318.041 189.271ZM349.385 243.62C349.914 243.62 350.431 243.462 350.871 243.164C351.311 242.867 351.653 242.445 351.856 241.951C352.058 241.456 352.111 240.913 352.008 240.388C351.905 239.863 351.65 239.381 351.276 239.003C350.902 238.625 350.426 238.367 349.907 238.263C349.388 238.158 348.85 238.212 348.362 238.417C347.873 238.621 347.455 238.968 347.161 239.413C346.867 239.858 346.711 240.381 346.711 240.915C346.711 241.633 346.992 242.321 347.494 242.828C347.995 243.335 348.676 243.62 349.385 243.62ZM357.448 223.241C357.977 223.241 358.495 223.082 358.934 222.785C359.374 222.488 359.717 222.066 359.919 221.571C360.122 221.077 360.175 220.533 360.072 220.009C359.968 219.484 359.714 219.002 359.34 218.624C358.966 218.246 358.489 217.988 357.97 217.884C357.451 217.779 356.914 217.833 356.425 218.038C355.936 218.242 355.519 218.589 355.225 219.034C354.931 219.479 354.774 220.001 354.774 220.536C354.774 221.254 355.056 221.942 355.557 222.449C356.059 222.956 356.739 223.241 357.448 223.241ZM262.09 243.62C262.619 243.62 263.136 243.462 263.576 243.164C264.016 242.867 264.359 242.445 264.561 241.951C264.764 241.456 264.817 240.913 264.713 240.388C264.61 239.863 264.355 239.381 263.981 239.003C263.607 238.625 263.131 238.367 262.612 238.263C262.093 238.158 261.555 238.212 261.067 238.417C260.578 238.621 260.16 238.968 259.866 239.413C259.573 239.858 259.416 240.381 259.416 240.915C259.416 241.633 259.697 242.321 260.199 242.828C260.701 243.335 261.381 243.62 262.09 243.62ZM270.152 223.241C270.681 223.241 271.199 223.082 271.638 222.785C272.078 222.488 272.421 222.066 272.623 221.571C272.826 221.077 272.879 220.533 272.776 220.009C272.672 219.484 272.418 219.002 272.044 218.624C271.67 218.246 271.193 217.988 270.674 217.884C270.155 217.779 269.618 217.833 269.129 218.038C268.64 218.242 268.223 218.589 267.929 219.034C267.635 219.479 267.478 220.001 267.478 220.536C267.478 221.254 267.76 221.942 268.261 222.449C268.763 222.956 269.443 223.241 270.152 223.241ZM346.47 161.196C346.999 161.196 347.516 161.038 347.956 160.74C348.396 160.443 348.739 160.021 348.941 159.527C349.144 159.032 349.196 158.489 349.093 157.964C348.99 157.439 348.735 156.957 348.361 156.579C347.987 156.201 347.511 155.943 346.992 155.839C346.473 155.735 345.935 155.788 345.447 155.993C344.958 156.198 344.54 156.544 344.246 156.989C343.952 157.434 343.796 157.957 343.796 158.492C343.796 159.209 344.077 159.897 344.579 160.404C345.081 160.911 345.761 161.196 346.47 161.196ZM282.389 258.118C282.918 258.118 283.435 257.959 283.875 257.662C284.315 257.365 284.658 256.943 284.86 256.448C285.062 255.954 285.115 255.41 285.012 254.886C284.909 254.361 284.654 253.879 284.28 253.501C283.906 253.123 283.43 252.865 282.911 252.761C282.392 252.656 281.854 252.71 281.366 252.915C280.877 253.119 280.459 253.466 280.165 253.911C279.871 254.355 279.715 254.878 279.715 255.413C279.715 256.131 279.996 256.819 280.498 257.326C280.999 257.833 281.68 258.118 282.389 258.118ZM272.039 255.062C272.568 255.062 273.085 254.903 273.525 254.606C273.965 254.309 274.308 253.886 274.51 253.392C274.713 252.898 274.766 252.354 274.662 251.829C274.559 251.305 274.304 250.823 273.93 250.445C273.556 250.066 273.08 249.809 272.561 249.704C272.042 249.6 271.504 249.654 271.016 249.858C270.527 250.063 270.109 250.41 269.816 250.854C269.522 251.299 269.365 251.822 269.365 252.357C269.365 253.074 269.647 253.762 270.148 254.269C270.65 254.777 271.33 255.062 272.039 255.062ZM377.707 171.879C378.079 171.5 378.331 171.018 378.433 170.493C378.534 169.969 378.48 169.427 378.277 168.934C378.074 168.441 377.731 168.02 377.291 167.724C376.852 167.427 376.336 167.269 375.808 167.269C375.28 167.269 374.764 167.427 374.324 167.724C373.885 168.02 373.542 168.441 373.339 168.934C373.136 169.427 373.082 169.969 373.183 170.493C373.285 171.018 373.537 171.5 373.909 171.879C374.158 172.132 374.453 172.333 374.779 172.471C375.105 172.608 375.455 172.679 375.808 172.679C376.161 172.679 376.51 172.608 376.836 172.471C377.162 172.333 377.458 172.132 377.707 171.879ZM358.225 171.88C358.601 172.254 359.077 172.507 359.595 172.608C360.113 172.709 360.648 172.653 361.135 172.447C361.621 172.241 362.036 171.895 362.328 171.451C362.621 171.007 362.776 170.486 362.776 169.952C362.776 169.419 362.621 168.898 362.328 168.454C362.036 168.01 361.621 167.664 361.135 167.458C360.648 167.252 360.113 167.196 359.595 167.297C359.077 167.398 358.601 167.651 358.225 168.025C357.973 168.277 357.772 168.577 357.635 168.908C357.498 169.239 357.427 169.594 357.427 169.952C357.427 170.311 357.498 170.666 357.635 170.997C357.772 171.328 357.973 171.628 358.225 171.88ZM279.888 171.879C280.26 171.5 280.512 171.018 280.614 170.493C280.715 169.969 280.661 169.427 280.458 168.934C280.255 168.441 279.912 168.02 279.473 167.724C279.033 167.427 278.517 167.269 277.989 167.269C277.461 167.269 276.945 167.427 276.506 167.724C276.066 168.02 275.723 168.441 275.52 168.934C275.317 169.427 275.263 169.969 275.365 170.493C275.466 171.018 275.718 171.5 276.09 171.879C276.339 172.132 276.635 172.333 276.961 172.471C277.287 172.608 277.636 172.679 277.989 172.679C278.342 172.679 278.692 172.608 279.018 172.471C279.344 172.333 279.639 172.132 279.888 171.879ZM260.445 171.88C260.82 172.254 261.297 172.507 261.815 172.608C262.332 172.709 262.868 172.653 263.354 172.447C263.841 172.241 264.256 171.895 264.548 171.451C264.84 171.007 264.996 170.486 264.996 169.952C264.996 169.419 264.84 168.898 264.548 168.454C264.256 168.01 263.841 167.664 263.354 167.458C262.868 167.252 262.332 167.196 261.815 167.297C261.297 167.398 260.82 167.651 260.445 168.025C260.192 168.277 259.991 168.577 259.854 168.908C259.717 169.239 259.647 169.594 259.647 169.952C259.647 170.311 259.717 170.666 259.854 170.997C259.991 171.328 260.192 171.628 260.445 171.88ZM414.429 246.041C414.958 246.041 415.475 245.883 415.915 245.585C416.355 245.288 416.698 244.866 416.9 244.372C417.102 243.877 417.155 243.334 417.052 242.809C416.949 242.284 416.694 241.802 416.32 241.424C415.946 241.046 415.47 240.788 414.951 240.684C414.432 240.58 413.894 240.633 413.406 240.838C412.917 241.043 412.499 241.389 412.205 241.834C411.911 242.279 411.755 242.802 411.755 243.337C411.755 244.054 412.036 244.742 412.538 245.249C413.039 245.756 413.72 246.041 414.429 246.041ZM435.532 246.041C436.061 246.041 436.578 245.883 437.018 245.585C437.457 245.288 437.8 244.866 438.003 244.372C438.205 243.877 438.258 243.334 438.155 242.809C438.052 242.284 437.797 241.802 437.423 241.424C437.049 241.046 436.572 240.788 436.053 240.684C435.535 240.58 434.997 240.633 434.508 240.838C434.019 241.043 433.602 241.389 433.308 241.834C433.014 242.279 432.857 242.802 432.857 243.337C432.857 244.054 433.139 244.742 433.64 245.249C434.142 245.756 434.822 246.041 435.532 246.041ZM522.774 246.041C523.303 246.041 523.82 245.883 524.26 245.585C524.699 245.288 525.042 244.866 525.245 244.372C525.447 243.877 525.5 243.334 525.397 242.809C525.294 242.284 525.039 241.802 524.665 241.424C524.291 241.046 523.814 240.788 523.295 240.684C522.777 240.58 522.239 240.633 521.75 240.838C521.261 241.043 520.844 241.389 520.55 241.834C520.256 242.279 520.099 242.802 520.099 243.337C520.099 244.054 520.381 244.742 520.883 245.249C521.384 245.756 522.064 246.041 522.774 246.041ZM214.149 273.981C214.149 273.446 213.992 272.923 213.699 272.478C213.405 272.033 212.987 271.687 212.498 271.482C212.01 271.277 211.472 271.224 210.953 271.328C210.434 271.432 209.958 271.69 209.584 272.068C209.21 272.447 208.955 272.928 208.852 273.453C208.748 273.978 208.801 274.522 209.004 275.016C209.206 275.51 209.549 275.932 209.989 276.23C210.429 276.527 210.946 276.685 211.475 276.685C212.184 276.685 212.864 276.4 213.366 275.893C213.868 275.386 214.149 274.698 214.149 273.981ZM245.055 231.409C245.055 230.874 244.898 230.351 244.604 229.906C244.31 229.461 243.893 229.115 243.404 228.91C242.915 228.705 242.378 228.652 241.859 228.756C241.34 228.86 240.863 229.118 240.489 229.496C240.115 229.874 239.861 230.356 239.757 230.881C239.654 231.406 239.707 231.95 239.91 232.444C240.112 232.938 240.455 233.36 240.895 233.658C241.334 233.955 241.852 234.113 242.381 234.113C243.09 234.113 243.77 233.828 244.272 233.321C244.773 232.814 245.055 232.126 245.055 231.409ZM214.149 362.26C214.149 361.726 213.992 361.203 213.699 360.758C213.405 360.313 212.987 359.966 212.498 359.762C212.01 359.557 211.472 359.503 210.953 359.608C210.434 359.712 209.958 359.97 209.584 360.348C209.21 360.726 208.955 361.208 208.852 361.733C208.748 362.257 208.801 362.801 209.004 363.295C209.206 363.79 209.549 364.212 209.989 364.509C210.429 364.806 210.946 364.965 211.475 364.965C212.184 364.965 212.864 364.68 213.366 364.173C213.868 363.666 214.149 362.978 214.149 362.26ZM265.205 327.83C265.205 327.295 265.048 326.772 264.754 326.328C264.46 325.883 264.042 325.536 263.554 325.331C263.065 325.127 262.527 325.073 262.008 325.178C261.49 325.282 261.013 325.54 260.639 325.918C260.265 326.296 260.01 326.778 259.907 327.303C259.804 327.827 259.857 328.371 260.059 328.865C260.262 329.36 260.604 329.782 261.044 330.079C261.484 330.376 262.001 330.535 262.53 330.535C263.239 330.535 263.92 330.25 264.421 329.743C264.923 329.236 265.205 328.548 265.205 327.83ZM245.055 319.675C245.055 319.14 244.898 318.617 244.604 318.172C244.31 317.727 243.893 317.381 243.404 317.176C242.915 316.971 242.378 316.918 241.859 317.022C241.34 317.126 240.863 317.384 240.489 317.762C240.115 318.141 239.861 318.622 239.757 319.147C239.654 319.672 239.707 320.216 239.91 320.71C240.112 321.204 240.455 321.626 240.895 321.924C241.334 322.221 241.852 322.379 242.381 322.379C243.09 322.379 243.77 322.094 244.272 321.587C244.773 321.08 245.055 320.392 245.055 319.675ZM279.541 307.302C279.541 306.767 279.384 306.244 279.091 305.799C278.797 305.355 278.379 305.008 277.89 304.803C277.402 304.599 276.864 304.545 276.345 304.649C275.826 304.754 275.35 305.011 274.976 305.389C274.602 305.768 274.347 306.25 274.244 306.774C274.14 307.299 274.193 307.843 274.396 308.337C274.598 308.831 274.941 309.254 275.381 309.551C275.821 309.848 276.338 310.007 276.867 310.007C277.576 310.007 278.256 309.722 278.758 309.214C279.26 308.707 279.541 308.019 279.541 307.302ZM276.492 317.782C276.492 317.247 276.335 316.724 276.041 316.279C275.747 315.835 275.329 315.488 274.841 315.283C274.352 315.079 273.814 315.025 273.295 315.129C272.777 315.234 272.3 315.491 271.926 315.87C271.552 316.248 271.297 316.73 271.194 317.254C271.091 317.779 271.144 318.323 271.346 318.817C271.549 319.311 271.891 319.734 272.331 320.031C272.771 320.328 273.288 320.487 273.817 320.487C274.527 320.487 275.207 320.202 275.708 319.695C276.21 319.187 276.492 318.499 276.492 317.782ZM194.263 309.831C193.888 309.455 193.411 309.199 192.893 309.097C192.375 308.994 191.838 309.049 191.351 309.254C190.863 309.46 190.447 309.806 190.154 310.25C189.861 310.695 189.705 311.217 189.705 311.751C189.705 312.285 189.861 312.807 190.154 313.251C190.447 313.695 190.863 314.042 191.351 314.247C191.838 314.453 192.375 314.508 192.893 314.405C193.411 314.303 193.888 314.047 194.263 313.671C194.513 313.42 194.712 313.121 194.848 312.791C194.984 312.461 195.054 312.108 195.054 311.751C195.054 311.394 194.984 311.04 194.848 310.711C194.712 310.381 194.513 310.082 194.263 309.831ZM194.262 329.589C194.634 329.209 194.887 328.727 194.988 328.203C195.09 327.679 195.035 327.137 194.832 326.644C194.629 326.151 194.286 325.73 193.847 325.433C193.408 325.137 192.891 324.979 192.363 324.979C191.835 324.979 191.319 325.137 190.88 325.433C190.44 325.73 190.098 326.151 189.895 326.644C189.692 327.137 189.637 327.679 189.739 328.203C189.84 328.727 190.093 329.209 190.465 329.589C190.713 329.842 191.009 330.043 191.335 330.181C191.661 330.318 192.01 330.389 192.363 330.389C192.716 330.389 193.066 330.318 193.392 330.181C193.718 330.043 194.014 329.842 194.262 329.589ZM214.149 371.389C214.149 370.854 213.992 370.331 213.699 369.886C213.405 369.441 212.987 369.095 212.498 368.89C212.01 368.685 211.472 368.632 210.953 368.736C210.434 368.84 209.958 369.098 209.584 369.476C209.21 369.855 208.955 370.336 208.852 370.861C208.748 371.386 208.801 371.93 209.004 372.424C209.206 372.918 209.549 373.34 209.989 373.638C210.429 373.935 210.946 374.093 211.475 374.093C212.184 374.093 212.864 373.808 213.366 373.301C213.868 372.794 214.149 372.106 214.149 371.389ZM265.205 405.805C265.205 405.27 265.048 404.747 264.754 404.303C264.46 403.858 264.042 403.511 263.554 403.306C263.065 403.102 262.527 403.048 262.008 403.153C261.49 403.257 261.013 403.515 260.639 403.893C260.265 404.271 260.01 404.753 259.907 405.278C259.804 405.802 259.857 406.346 260.059 406.84C260.262 407.334 260.604 407.757 261.044 408.054C261.484 408.351 262.001 408.51 262.53 408.51C263.239 408.51 263.92 408.225 264.421 407.718C264.923 407.211 265.205 406.523 265.205 405.805ZM245.055 413.959C245.055 413.424 244.898 412.901 244.604 412.456C244.31 412.012 243.893 411.665 243.404 411.46C242.915 411.256 242.378 411.202 241.859 411.306C241.34 411.411 240.863 411.668 240.489 412.047C240.115 412.425 239.861 412.907 239.757 413.431C239.654 413.956 239.707 414.5 239.91 414.994C240.112 415.488 240.455 415.911 240.895 416.208C241.334 416.505 241.852 416.664 242.381 416.664C243.09 416.664 243.77 416.379 244.272 415.872C244.773 415.364 245.055 414.676 245.055 413.959ZM183.699 402.871C183.699 402.336 183.542 401.813 183.249 401.368C182.955 400.923 182.537 400.576 182.048 400.372C181.56 400.167 181.022 400.113 180.503 400.218C179.984 400.322 179.508 400.58 179.134 400.958C178.76 401.336 178.505 401.818 178.402 402.343C178.298 402.868 178.351 403.411 178.554 403.906C178.756 404.4 179.099 404.822 179.539 405.119C179.979 405.417 180.496 405.575 181.025 405.575C181.734 405.575 182.414 405.29 182.916 404.783C183.418 404.276 183.699 403.588 183.699 402.871ZM214.149 477.667C214.149 477.132 213.992 476.609 213.699 476.165C213.405 475.72 212.987 475.373 212.498 475.168C212.01 474.964 211.472 474.91 210.953 475.015C210.434 475.119 209.958 475.377 209.584 475.755C209.21 476.133 208.955 476.615 208.852 477.14C208.748 477.664 208.801 478.208 209.004 478.702C209.206 479.197 209.549 479.619 209.989 479.916C210.429 480.213 210.946 480.372 211.475 480.372C212.184 480.372 212.864 480.087 213.366 479.58C213.868 479.073 214.149 478.385 214.149 477.667ZM265.205 443.183C265.205 442.648 265.048 442.125 264.754 441.68C264.46 441.235 264.042 440.889 263.554 440.684C263.065 440.479 262.527 440.426 262.008 440.53C261.49 440.634 261.013 440.892 260.639 441.27C260.265 441.648 260.01 442.13 259.907 442.655C259.804 443.18 259.857 443.723 260.059 444.218C260.262 444.712 260.604 445.134 261.044 445.431C261.484 445.729 262.001 445.887 262.53 445.887C263.239 445.887 263.92 445.602 264.421 445.095C264.923 444.588 265.205 443.9 265.205 443.183ZM245.055 435.07C245.055 434.535 244.898 434.012 244.604 433.568C244.31 433.123 243.893 432.776 243.404 432.571C242.915 432.367 242.378 432.313 241.859 432.418C241.34 432.522 240.863 432.78 240.489 433.158C240.115 433.536 239.861 434.018 239.757 434.543C239.654 435.067 239.707 435.611 239.91 436.105C240.112 436.599 240.455 437.022 240.895 437.319C241.334 437.616 241.852 437.775 242.381 437.775C243.09 437.775 243.77 437.49 244.272 436.983C244.773 436.476 245.055 435.788 245.055 435.07ZM245.055 523.376C245.055 522.841 244.898 522.318 244.604 521.873C244.31 521.428 243.893 521.081 243.404 520.877C242.915 520.672 242.378 520.618 241.859 520.723C241.34 520.827 240.863 521.085 240.489 521.463C240.115 521.841 239.861 522.323 239.757 522.848C239.654 523.373 239.707 523.916 239.91 524.411C240.112 524.905 240.455 525.327 240.895 525.624C241.334 525.922 241.852 526.08 242.381 526.08C243.09 526.08 243.77 525.795 244.272 525.288C244.773 524.781 245.055 524.093 245.055 523.376ZM183.699 446.199C183.699 445.664 183.542 445.141 183.249 444.696C182.955 444.252 182.537 443.905 182.048 443.7C181.56 443.496 181.022 443.442 180.503 443.546C179.984 443.651 179.508 443.908 179.134 444.287C178.76 444.665 178.505 445.147 178.402 445.671C178.298 446.196 178.351 446.74 178.554 447.234C178.756 447.728 179.099 448.151 179.539 448.448C179.979 448.745 180.496 448.904 181.025 448.904C181.734 448.904 182.414 448.619 182.916 448.112C183.418 447.604 183.699 446.916 183.699 446.199ZM279.541 511.002C279.541 510.467 279.384 509.944 279.091 509.499C278.797 509.055 278.379 508.708 277.89 508.503C277.402 508.299 276.864 508.245 276.345 508.349C275.826 508.454 275.35 508.711 274.976 509.09C274.602 509.468 274.347 509.95 274.244 510.474C274.14 510.999 274.193 511.543 274.396 512.037C274.598 512.531 274.941 512.954 275.381 513.251C275.821 513.548 276.338 513.707 276.867 513.707C277.576 513.707 278.256 513.422 278.758 512.915C279.26 512.407 279.541 511.719 279.541 511.002ZM276.492 521.47C276.492 520.935 276.335 520.412 276.041 519.967C275.747 519.522 275.329 519.176 274.841 518.971C274.352 518.766 273.814 518.713 273.295 518.817C272.777 518.921 272.3 519.179 271.926 519.557C271.552 519.935 271.297 520.417 271.194 520.942C271.091 521.467 271.144 522.011 271.346 522.505C271.549 522.999 271.891 523.421 272.331 523.719C272.771 524.016 273.288 524.174 273.817 524.174C274.527 524.174 275.207 523.889 275.708 523.382C276.21 522.875 276.492 522.187 276.492 521.47ZM194.264 414.596C193.888 414.221 193.411 413.968 192.894 413.867C192.376 413.766 191.84 413.822 191.354 414.028C190.868 414.234 190.452 414.58 190.16 415.024C189.868 415.468 189.712 415.989 189.712 416.523C189.712 417.056 189.868 417.577 190.16 418.021C190.452 418.465 190.868 418.811 191.354 419.017C191.84 419.223 192.376 419.279 192.894 419.178C193.411 419.077 193.888 418.824 194.264 418.45C194.516 418.198 194.717 417.898 194.854 417.567C194.991 417.236 195.061 416.881 195.061 416.523C195.061 416.164 194.991 415.809 194.854 415.478C194.717 415.147 194.516 414.847 194.264 414.596ZM194.262 434.312C194.634 433.933 194.887 433.451 194.988 432.927C195.09 432.403 195.035 431.86 194.832 431.367C194.629 430.874 194.286 430.453 193.847 430.157C193.408 429.861 192.891 429.703 192.363 429.703C191.835 429.703 191.319 429.861 190.88 430.157C190.44 430.453 190.098 430.874 189.895 431.367C189.692 431.86 189.637 432.403 189.739 432.927C189.84 433.451 190.093 433.933 190.465 434.312C190.713 434.565 191.009 434.767 191.335 434.904C191.661 435.041 192.01 435.112 192.363 435.112C192.716 435.112 193.066 435.041 193.392 434.904C193.718 434.767 194.014 434.565 194.262 434.312ZM194.264 513.504C193.888 513.13 193.411 512.876 192.894 512.775C192.376 512.674 191.84 512.73 191.354 512.936C190.868 513.142 190.452 513.489 190.16 513.933C189.868 514.377 189.712 514.898 189.712 515.431C189.712 515.964 189.868 516.486 190.16 516.929C190.452 517.373 190.868 517.72 191.354 517.926C191.84 518.132 192.376 518.188 192.894 518.087C193.411 517.986 193.888 517.732 194.264 517.358C194.516 517.107 194.717 516.807 194.854 516.476C194.991 516.145 195.061 515.79 195.061 515.431C195.061 515.072 194.991 514.717 194.854 514.387C194.717 514.056 194.516 513.756 194.264 513.504ZM194.262 533.222C194.634 532.843 194.887 532.361 194.988 531.837C195.09 531.312 195.035 530.77 194.832 530.277C194.629 529.784 194.286 529.363 193.847 529.067C193.408 528.77 192.891 528.612 192.363 528.612C191.835 528.612 191.319 528.77 190.88 529.067C190.44 529.363 190.098 529.784 189.895 530.277C189.692 530.77 189.637 531.312 189.739 531.837C189.84 532.361 190.093 532.843 190.465 533.222C190.713 533.475 191.009 533.676 191.335 533.814C191.661 533.951 192.01 534.022 192.363 534.022C192.716 534.022 193.066 533.951 193.392 533.814C193.718 533.676 194.014 533.475 194.262 533.222ZM267.598 377.46C267.598 376.925 267.441 376.402 267.147 375.958C266.853 375.513 266.435 375.166 265.947 374.961C265.458 374.757 264.92 374.703 264.401 374.808C263.883 374.912 263.406 375.169 263.032 375.548C262.658 375.926 262.403 376.408 262.3 376.933C262.197 377.457 262.25 378.001 262.452 378.495C262.655 378.989 262.997 379.412 263.437 379.709C263.877 380.006 264.394 380.165 264.923 380.165C265.633 380.165 266.313 379.88 266.814 379.373C267.316 378.865 267.598 378.178 267.598 377.46ZM267.598 356.134C267.598 355.6 267.441 355.077 267.147 354.632C266.853 354.187 266.435 353.84 265.947 353.636C265.458 353.431 264.92 353.377 264.401 353.482C263.883 353.586 263.406 353.844 263.032 354.222C262.658 354.6 262.403 355.082 262.3 355.607C262.197 356.131 262.25 356.675 262.452 357.169C262.655 357.664 262.997 358.086 263.437 358.383C263.877 358.68 264.394 358.839 264.923 358.839C265.633 358.839 266.313 358.554 266.814 358.047C267.316 357.54 267.598 356.852 267.598 356.134ZM267.598 267.895C267.598 267.36 267.441 266.837 267.147 266.392C266.853 265.947 266.435 265.6 265.947 265.396C265.458 265.191 264.92 265.137 264.401 265.242C263.883 265.346 263.406 265.604 263.032 265.982C262.658 266.36 262.403 266.842 262.3 267.367C262.197 267.891 262.25 268.435 262.452 268.929C262.655 269.424 262.997 269.846 263.437 270.143C263.877 270.441 264.394 270.599 264.923 270.599C265.633 270.599 266.313 270.314 266.814 269.807C267.316 269.3 267.598 268.612 267.598 267.895Z" stroke="url(#paint0_radial_221_443)" stroke-miterlimit="10"/>
</g>
<path fill-rule="evenodd" clip-rule="evenodd" d="M659.409 561.576L586.452 603.698L569.09 613.722L520.931 641.526L425.833 696.431C419.839 699.895 413.038 701.716 406.112 701.711C399.186 701.706 392.38 699.875 386.379 696.402L152.232 561.151C146.233 557.68 141.25 552.691 137.782 546.686C134.315 540.68 132.486 533.87 132.48 526.939L132.422 256.536C132.415 249.641 134.213 242.868 137.635 236.89C141.057 230.913 145.985 225.94 151.929 222.466L385.603 87.5544C391.595 84.0976 398.393 82.2817 405.314 82.2893C412.235 82.2968 419.036 84.1275 425.033 87.5975L659.179 222.849C665.178 226.32 670.162 231.309 673.629 237.314C677.096 243.32 678.925 250.13 678.932 257.061L678.99 527.463C678.996 534.373 677.191 541.16 673.755 547.146C670.319 553.132 665.373 558.108 659.409 561.576ZM624.523 538.479L561.658 574.774L546.698 583.411L505.201 607.369L423.257 654.68C418.093 657.664 412.231 659.231 406.26 659.222C400.29 659.213 394.421 657.629 389.246 654.629L187.31 537.778C182.136 534.779 177.837 530.471 174.844 525.288C171.851 520.104 170.27 514.226 170.26 508.247L170.032 274.94C170.022 268.991 171.567 263.148 174.513 257.992C177.46 252.837 181.705 248.55 186.826 245.557L388.176 129.307C393.339 126.328 399.198 124.766 405.164 124.777C411.131 124.788 416.995 126.372 422.167 129.37L624.102 246.221C629.276 249.22 633.575 253.527 636.568 258.711C639.561 263.895 641.142 269.772 641.152 275.752L641.38 509.059C641.39 515.02 639.839 520.875 636.881 526.038C633.923 531.2 629.662 535.49 624.523 538.479Z" fill="url(#paint1_radial_221_443)"/>
<defs>
<radialGradient id="paint0_radial_221_443" cx="0" cy="0" r="1" gradientUnits="userSpaceOnUse" gradientTransform="translate(392.203 421.707) rotate(109.66) scale(249.879 17.7344)">
<stop stop-color="#DFD1AF"/>
<stop offset="1" stop-color="#67625C"/>
</radialGradient>
<radialGradient id="paint1_radial_221_443" cx="0" cy="0" r="1" gradientUnits="userSpaceOnUse" gradientTransform="translate(414.997 359) rotate(-55.5668) scale(235.213 1774.95)">
<stop stop-color="#564729"/>
<stop offset="1" stop-color="#1E1B15"/>
</radialGradient>
</defs>
</svg>
