<svg width="274" height="308" viewBox="0 0 274 308" fill="none" xmlns="http://www.w3.org/2000/svg">
<circle cx="136.71" cy="150" r="130.98" fill="url(#paint0_linear_253_202)"/>
<mask id="mask0_253_202" style="mask-type:alpha" maskUnits="userSpaceOnUse" x="5" y="19" width="263" height="262">
<circle cx="136.71" cy="150" r="130.98" fill="url(#paint1_linear_253_202)"/>
</mask>
<g mask="url(#mask0_253_202)">
<g style="mix-blend-mode:soft-light" filter="url(#filter0_d_253_202)">
<path d="M81.0107 248.576V283.231M63.8412 223.567V242.558C63.8075 242.669 63.8951 242.741 63.9761 242.813L64.1987 243.036L69.7645 248.432L72.544 251.071L74.6084 253.075L74.9525 253.415C75.0149 253.464 75.0695 253.521 75.1144 253.586V283.231M59.7731 233.442V245.059C59.7731 245.099 59.8473 245.131 59.8811 245.171L60.1037 245.393L70.2773 255.269L70.6146 255.603L70.79 255.766C70.79 255.838 70.79 255.923 70.79 255.995V283.231M125.051 248.576V283.231M107.882 223.567V242.558C107.882 242.669 107.929 242.741 108.016 242.813L108.239 243.036L113.805 248.432L116.584 251.071L118.649 253.075L118.993 253.415C119.055 253.464 119.11 253.521 119.155 253.586V283.231M103.813 233.442V245.059C103.813 245.099 103.888 245.131 103.921 245.171L104.144 245.393L114.318 255.269L114.736 255.655L114.911 255.819C114.911 255.891 114.911 255.976 114.911 256.048V283.231M97.6338 222.598V224.948L92.6077 229.827C92.4728 229.906 92.493 230.05 92.4998 230.187V240.508C92.4593 240.966 92.6415 241.516 92.149 241.785L87.2241 246.565C87.1027 246.664 87.1904 246.847 87.1634 246.991V283.231M102.862 218.04V226.428L101.985 227.28L99.6105 229.578L98.4299 230.731L97.8362 231.307C97.6945 231.386 97.7215 231.53 97.7215 231.667V241.994C97.7215 242.453 97.8699 242.996 97.3707 243.265L94.7599 245.832L92.7764 247.757L92.4526 248.078C92.3311 248.176 92.4189 248.36 92.3919 248.504V284.711M100.818 257.547L103.773 260.422V283.231M106.809 257.547L103.854 260.422V283.231M129.605 248.576V283.231M146.781 223.567V242.558C146.781 242.669 146.727 242.741 146.646 242.813L140.858 248.432L138.078 251.071L135.663 253.415C135.601 253.464 135.546 253.521 135.501 253.586V283.231M150.842 233.442V245.059C150.813 245.1 150.779 245.137 150.741 245.171L150.512 245.393L145.095 250.684L140.372 255.269L140.035 255.603L139.866 255.766C139.859 255.842 139.859 255.919 139.866 255.995V283.231M145.31 263.494V309M182.631 248.576V283.231M165.455 223.567V242.558C165.455 242.669 165.509 242.741 165.59 242.813L165.819 243.036L171.405 248.406L174.158 251.071L176.573 253.415C176.636 253.464 176.69 253.521 176.735 253.586V283.231M161.387 233.442V245.059C161.387 245.099 161.461 245.131 161.495 245.171L172.411 255.766C172.421 255.842 172.421 255.919 172.411 255.995V283.231M209.495 223.567V242.558C209.495 242.669 209.549 242.741 209.63 242.813L215.419 248.432L218.198 251.071L220.613 253.415C220.676 253.464 220.731 253.521 220.775 253.586V283.231M205.427 233.442V245.059C205.427 245.099 205.502 245.131 205.535 245.171L216.444 255.766C216.454 255.842 216.454 255.919 216.444 255.995V283.231M166.926 263.494V309M199.254 216.56V224.948L198.377 225.8L196.003 228.098L194.822 229.251L194.228 229.827C194.087 229.906 194.114 230.05 194.114 230.187V240.508C194.08 240.966 194.262 241.516 193.763 241.785L191.152 244.326L189.843 245.59L189.169 246.245L188.845 246.565C188.723 246.664 188.811 246.847 188.784 246.991V283.231M204.463 218.04V226.428L199.437 231.307C199.302 231.386 199.322 231.53 199.322 231.667V241.994C199.322 242.453 199.47 242.996 198.978 243.265L196.367 245.832L195.065 247.102L194.06 248.078C193.938 248.176 194.026 248.36 193.999 248.504V284.711M153.082 257.547L156.044 260.422V283.231M159.08 257.547L156.118 260.422V283.231M202.432 257.547L205.394 260.422V283.231M208.43 257.547L205.468 260.422V283.231M132.641 222.408V239.899L141.134 248.137M121.995 237.504V239.899L113.508 248.137M77.9816 222.408V239.899L69.4879 248.137M236.393 206.246H272.088M210.636 222.912H230.16C230.281 222.912 230.349 222.859 230.423 222.781L241.406 212.12C241.467 212.074 241.514 211.995 241.581 211.962H272.068M220.802 226.841H232.797C232.841 226.81 232.882 226.774 232.919 226.736L233.142 226.514L243.315 216.645L243.652 216.311L243.821 216.147C243.902 216.137 243.983 216.137 244.064 216.147H272.075M236.393 163.496H272.088M210.636 180.162H230.16C230.281 180.162 230.349 180.11 230.423 180.031L241.406 169.37C241.467 169.324 241.514 169.246 241.581 169.213H272.068M220.802 184.111H232.797C232.841 184.08 232.882 184.045 232.919 184.006L233.142 183.784L243.315 173.915L243.652 173.581L243.821 173.417C243.902 173.411 243.983 173.411 244.064 173.417H272.075M203.404 190.103H212.046L212.923 190.954L215.291 193.26L216.478 194.406L217.072 194.982C217.153 195.119 217.301 195.1 217.443 195.093H228.075C228.547 195.093 229.107 194.949 229.391 195.434L234.309 200.208C234.41 200.326 234.606 200.208 234.747 200.267H272.102M204.928 185.035H213.57L218.596 189.913C218.677 190.051 218.826 190.025 218.967 190.025H229.606C230.079 190.057 230.639 189.881 230.956 190.359L233.567 192.899L234.821 194.163L235.496 194.818L235.82 195.139C235.928 195.257 236.117 195.172 236.258 195.198H273.613M245.629 187.019L248.591 184.15H272.088M245.629 181.204L248.591 184.072H272.088M236.393 159.076H272.088M210.636 142.403H230.16C230.281 142.403 230.349 142.455 230.423 142.534L241.406 153.195C241.467 153.241 241.514 153.32 241.581 153.352H272.068M220.802 138.435H232.797C232.841 138.466 232.882 138.501 232.919 138.539L233.142 138.762L243.315 148.631L243.652 148.965L243.821 149.128C243.902 149.138 243.983 149.138 244.064 149.128H272.075M251.755 143.831H298.635M236.393 107.604H272.088M226.965 124.27H230.16C230.281 124.303 230.349 124.224 230.423 124.139L230.652 123.923L236.211 118.527L238.991 115.822L241.055 113.818L241.406 113.484C241.458 113.425 241.516 113.372 241.581 113.327H272.068M220.802 128.219H232.797C232.844 128.191 232.885 128.156 232.919 128.114L243.821 117.531C243.902 117.525 243.983 117.525 244.064 117.531H272.075M211.304 81.527H230.16C230.281 81.527 230.349 81.4746 230.423 81.396L238.991 73.0793L240.38 71.7237L241.055 71.0688L241.406 70.7348C241.457 70.6757 241.516 70.6229 241.581 70.5777H272.068M220.802 85.4692H232.797C232.842 85.4422 232.883 85.4091 232.919 85.371L233.142 85.1484L243.821 74.7819C243.902 74.7752 243.983 74.7752 244.064 74.7819H272.075M251.755 122.849H298.635M203.404 91.4678H212.046L217.072 96.3465C217.153 96.484 217.301 96.4579 217.443 96.4579H228.075C228.547 96.4906 229.107 96.3138 229.391 96.7918L232.001 99.3327L233.31 100.597L233.985 101.251L234.309 101.572C234.41 101.69 234.606 101.605 234.747 101.631H272.102M204.928 86.3926H213.57L214.447 87.2439L216.815 89.5491L218.003 90.7016L218.63 91.2844C218.711 91.422 218.859 91.4023 219.001 91.3958H229.64C230.112 91.4285 230.672 91.2517 230.989 91.7363L235.908 96.5103C236.015 96.6281 236.204 96.543 236.346 96.5692H273.613M245.629 136.287L248.591 133.412H272.088M245.629 130.465L248.591 133.34H272.088M245.629 88.3834L248.591 85.5086H272.088M245.629 82.5617L248.591 85.4365H272.088M223.425 156.129C223.425 155.402 222.818 154.813 222.069 154.813C221.32 154.813 220.713 155.402 220.713 156.129C220.713 156.856 221.32 157.445 222.069 157.445C222.818 157.445 223.425 156.856 223.425 156.129ZM223.425 156.129H227.448L235.941 147.884M225.758 166.463H227.448L235.941 174.701M209.428 209.186H227.448L235.941 217.431M192.778 55.4176C193.527 55.4176 194.134 56.0069 194.134 56.7339C194.134 57.4608 193.527 58.0501 192.778 58.0501C192.029 58.0501 191.422 57.4608 191.422 56.7339C191.422 56.0069 192.029 55.4176 192.778 55.4176ZM192.778 55.4176L192.778 20.7688M209.947 80.4203V61.4685C209.981 61.3507 209.893 61.2786 209.813 61.2066L204.024 55.5944L201.245 52.8898L198.836 50.552C198.775 50.4996 198.721 50.4402 198.674 50.3752V20.7885M214.016 70.5515V58.9342C214.016 58.8949 213.941 58.8622 213.908 58.8229L213.685 58.6068L208.234 53.3024L202.999 48.2207C202.999 48.1486 202.999 48.0701 202.999 47.9915V20.8016M148.738 55.4176V20.7688M165.907 80.4203V61.4685C165.907 61.3507 165.86 61.2786 165.772 61.2066L159.984 55.5944L157.238 52.8898L154.83 50.552C154.768 50.4996 154.714 50.4402 154.668 50.3752V20.7885M169.975 70.5515V58.9342C169.943 58.8939 169.907 58.8567 169.867 58.8229L169.645 58.6068L164.194 53.3024L158.958 48.2207C158.958 48.1486 158.958 48.0701 158.958 47.9915V20.8016M176.128 81.4019V79.0516L177.005 78.2002L179.373 75.8952L180.56 74.7491L181.154 74.1729C181.289 74.0943 181.269 73.9437 181.269 73.8127V63.4855C181.269 63.0271 181.12 62.4836 181.613 62.2085L184.23 59.6742L185.532 58.4038L186.207 57.7489L186.538 57.4346C186.659 57.3298 186.571 57.1465 186.598 57.0089V20.7492M170.926 85.9604V77.5716L175.952 72.6929C176.094 72.6143 176.067 72.4637 176.067 72.3327V62.0055C176.067 61.5471 175.919 61.0036 176.418 60.6958L181.336 55.9218C181.458 55.8171 181.37 55.6337 181.397 55.4962V19.2364M172.977 46.4525L170.016 43.5777V20.7688M166.98 46.4525L169.941 43.5777V20.7688M144.184 55.4176C144.933 55.4176 145.54 56.0069 145.54 56.7339C145.54 57.4608 144.933 58.0501 144.184 58.0501C143.435 58.0501 142.828 57.4608 142.828 56.7339C142.828 56.0069 143.435 55.4176 144.184 55.4176ZM144.184 55.4176L144.184 20.7688M127.008 80.4203V61.4685C127.008 61.3507 127.062 61.2786 127.142 61.2066L127.372 60.9905L132.951 55.5944L135.731 52.8898L138.139 50.552C138.2 50.4996 138.255 50.4402 138.301 50.3752V20.7885M122.946 70.5515V58.9342C122.976 58.8939 123.01 58.8566 123.047 58.8229L123.277 58.6068L133.788 48.404L133.956 48.2338C133.963 48.1575 133.963 48.0808 133.956 48.0046V20.8147M128.478 40.5065V-5M91.164 55.4176C91.9129 55.4176 92.52 56.0069 92.52 56.7339C92.52 57.4608 91.9129 58.0501 91.164 58.0501C90.4151 58.0501 89.808 57.4608 89.808 56.7339C89.808 56.0069 90.4151 55.4176 91.164 55.4176ZM91.164 55.4176L91.164 20.7688M108.334 74.3818V61.4685C108.334 61.3507 108.28 61.2786 108.199 61.2066L107.969 60.9905L102.41 55.5944L99.6307 52.8898L97.5663 50.886L97.2155 50.552C97.1544 50.4996 97.1 50.4402 97.0536 50.3752V20.7885M112.402 70.5515V58.9342C112.402 58.8949 112.327 58.8622 112.294 58.8229L112.064 58.6068L106.64 53.3024L101.918 48.7184L101.574 48.3909L101.405 48.2207C101.395 48.1446 101.395 48.0676 101.405 47.9915V20.8016M64.2932 80.4203V61.4685C64.2932 61.3507 64.2392 61.2786 64.1583 61.2066L63.9289 60.9905L58.3699 55.5944L55.5904 52.8898L53.526 50.886L53.1752 50.552C53.128 50.493 53.047 50.4406 53.0133 50.3752V20.7885M68.3613 70.5515V58.9342C68.3613 58.8949 68.2871 58.8622 68.2534 58.8229L68.024 58.6068L62.5797 53.3024L57.8572 48.7184L57.5131 48.3909L57.3445 48.2207C57.3343 48.1446 57.3343 48.0676 57.3445 47.9915V20.8016M106.863 40.5065V-5M74.5343 87.4404V79.0516L79.5603 74.1729C79.702 74.0943 79.675 73.9437 79.675 73.8127V63.4855C79.7087 63.0271 79.5266 62.4836 80.0258 62.2085L84.9439 57.4346C85.0653 57.3298 84.9776 57.1465 85.0046 57.0089V20.7492M69.3125 85.9604V77.5716L70.1895 76.7203L72.5575 74.4152L73.7448 73.2692L74.3385 72.6929C74.4734 72.6143 74.4532 72.4637 74.4532 72.3327V62.0055C74.4869 61.5471 74.3048 61.0036 74.7973 60.6958L77.4149 58.1615L78.7169 56.8911L79.3916 56.2362L79.7221 55.9218C79.8436 55.8171 79.7559 55.6337 79.7828 55.4962V19.2364M120.706 46.4525L117.745 43.5777V20.7688M114.716 46.4525L117.671 43.5777V20.7688M71.3567 46.4525L68.4018 43.5777V20.7688M65.3659 46.4525L68.3208 43.5777V20.7688M141.155 81.5924V64.1011L132.661 55.8564M151.794 67.2511V64.1011L160.287 55.8564M195.807 81.5924V64.1011L204.301 55.8564M37.4022 97.7544H1.70034M63.1531 81.0817H43.6291C43.5076 81.0817 43.4402 81.134 43.366 81.2126L34.7981 89.5294L33.4083 90.8849L32.7337 91.5398L32.3829 91.8738C32.3312 91.9329 32.2723 91.9857 32.2075 92.031H1.70034M52.9863 77.1394H41.025C40.9808 77.1649 40.9419 77.1982 40.9103 77.2376L40.6809 77.4603L35.2298 82.7712L30.0014 87.8464C29.9228 87.8529 29.8438 87.8529 29.7653 87.8464H1.70034M37.4022 140.504H1.70034M46.0459 123.831H43.6291C43.5076 123.831 43.4402 123.883 43.366 123.962L32.3829 134.623C32.3312 134.682 32.2723 134.735 32.2075 134.78H1.70034M52.9863 119.882H41.025C40.9821 119.912 40.9435 119.947 40.9103 119.987L30.5074 130.085L30.1701 130.419L30.0014 130.583C29.9228 130.589 29.8438 130.589 29.7653 130.583H1.70034M70.3852 113.89H61.7431L56.7171 109.012C56.6361 108.874 56.4877 108.9 56.346 108.9H45.707C45.2347 108.9 44.6748 109.044 44.3577 108.56L39.7634 104.1L39.4396 103.779C39.3384 103.661 39.1427 103.746 39.0011 103.72H1.70034M68.8605 118.965H60.2184L59.3414 118.114L56.9734 115.809L55.1924 114.08C55.1114 113.949 54.963 113.969 54.8213 113.975H44.1823C43.71 113.975 43.1501 114.113 42.8667 113.635L37.9486 108.861C37.8474 108.743 37.6518 108.828 37.5101 108.802H0.175636M28.1596 116.975L25.198 119.85H1.70034M28.1596 122.796L25.198 119.922H1.70034M37.4022 144.924H1.70034M63.1531 161.59H43.6291C43.5076 161.59 43.4402 161.538 43.366 161.46L43.1366 161.243L32.7337 151.139L32.3829 150.805C32.3312 150.746 32.2723 150.693 32.2075 150.648H1.70034M52.9863 165.539H41.025C40.9821 165.509 40.9435 165.474 40.9103 165.434L40.6809 165.218L30.1701 155.016L30.0014 154.845C29.9272 154.845 29.8395 154.845 29.7653 154.845H1.70034M22.0339 160.169H-24.8467M37.4022 196.39H1.70034M60.8203 179.691H43.6291C43.5076 179.658 43.4402 179.743 43.366 179.822L34.7981 188.139L33.4083 189.514L32.3829 190.509C32.3221 190.555 32.2749 190.634 32.2075 190.66H1.70034M52.9863 175.762H41.025C40.9821 175.791 40.9435 175.827 40.9103 175.866L30.5074 185.958L30.1701 186.292L30.0014 186.456C29.9228 186.462 29.8438 186.462 29.7653 186.456H1.70034M62.5257 222.473H43.6358C43.5144 222.44 43.4469 222.525 43.3727 222.604L43.1433 222.82L32.7404 232.925L32.3896 233.259C32.338 233.318 32.2791 233.371 32.2142 233.416H1.70034M52.9863 218.524H41.025C40.9821 218.554 40.9435 218.589 40.9103 218.629L40.6809 218.845L30.1701 229.048L30.0014 229.218C29.9272 229.218 29.8395 229.218 29.7653 229.218H1.70034M22.0339 181.151H-24.8467M70.3852 212.532H61.7431L60.8661 211.681L58.4981 209.376L56.7171 207.647C56.6361 207.516 56.4877 207.536 56.346 207.542H45.707C45.2347 207.509 44.6748 207.68 44.3577 207.202L39.4396 202.428C39.3384 202.31 39.1427 202.395 39.0011 202.369H1.70034M68.8605 217.601H60.2184L55.1924 212.722C55.1114 212.585 54.963 212.611 54.8213 212.611H44.1823C43.71 212.578 43.1501 212.755 42.8667 212.27L37.9486 207.496C37.8474 207.378 37.6518 207.464 37.5101 207.437H0.175636M28.1596 167.713L25.198 170.588H1.70034M28.1596 173.529L25.198 170.66H1.70034M28.1596 215.617L25.198 218.485H1.70034M28.1596 221.432L25.198 218.564H1.70034M50.3638 147.865H46.3411L37.8541 156.109M51.919 137.537H46.3411L37.8541 129.293M64.3606 94.8142H46.3411L37.8541 86.5694M81.0039 245.943C80.7371 245.943 80.4762 246.02 80.2543 246.164C80.0324 246.308 79.8595 246.512 79.7574 246.752C79.6552 246.991 79.6285 247.254 79.6806 247.509C79.7327 247.763 79.8611 247.996 80.0498 248.179C80.2385 248.362 80.479 248.487 80.7407 248.538C81.0024 248.588 81.2737 248.562 81.5203 248.463C81.7668 248.364 81.9775 248.196 82.1258 247.981C82.2741 247.765 82.3532 247.512 82.3532 247.253C82.3532 246.906 82.211 246.573 81.958 246.327C81.705 246.081 81.3618 245.943 81.0039 245.943ZM63.8412 220.947C63.5743 220.947 63.3135 221.024 63.0916 221.168C62.8697 221.312 62.6967 221.516 62.5946 221.756C62.4925 221.995 62.4658 222.258 62.5178 222.512C62.5699 222.766 62.6984 223 62.8871 223.183C63.0758 223.366 63.3162 223.491 63.578 223.541C63.8397 223.592 64.111 223.566 64.3575 223.467C64.6041 223.368 64.8148 223.2 64.9631 222.985C65.1113 222.769 65.1905 222.516 65.1905 222.257C65.1905 221.91 65.0483 221.576 64.7953 221.331C64.5422 221.085 64.199 220.947 63.8412 220.947ZM59.7732 230.809C59.5063 230.809 59.2454 230.886 59.0235 231.03C58.8016 231.174 58.6287 231.379 58.5266 231.618C58.4245 231.857 58.3978 232.121 58.4498 232.375C58.5019 232.629 58.6304 232.862 58.8191 233.045C59.0078 233.228 59.2482 233.353 59.5099 233.404C59.7717 233.454 60.043 233.428 60.2895 233.329C60.5361 233.23 60.7468 233.062 60.895 232.847C61.0433 232.631 61.1224 232.378 61.1224 232.119C61.1224 231.772 60.9803 231.439 60.7272 231.193C60.4742 230.947 60.131 230.809 59.7732 230.809ZM125.051 245.943C124.784 245.943 124.523 246.02 124.301 246.164C124.08 246.308 123.907 246.512 123.804 246.752C123.702 246.991 123.676 247.254 123.728 247.509C123.78 247.763 123.908 247.996 124.097 248.179C124.286 248.362 124.526 248.487 124.788 248.538C125.05 248.588 125.321 248.562 125.567 248.463C125.814 248.364 126.025 248.196 126.173 247.981C126.321 247.765 126.4 247.512 126.4 247.253C126.4 246.906 126.258 246.573 126.005 246.327C125.752 246.081 125.409 245.943 125.051 245.943ZM107.882 220.947C107.615 220.947 107.354 221.024 107.132 221.168C106.91 221.312 106.737 221.516 106.635 221.756C106.533 221.995 106.506 222.258 106.558 222.512C106.61 222.766 106.739 223 106.927 223.183C107.116 223.366 107.357 223.491 107.618 223.541C107.88 223.592 108.151 223.566 108.398 223.467C108.644 223.368 108.855 223.2 109.003 222.985C109.152 222.769 109.231 222.516 109.231 222.257C109.231 221.91 109.089 221.576 108.836 221.331C108.583 221.085 108.239 220.947 107.882 220.947ZM103.813 230.809C103.547 230.809 103.286 230.886 103.064 231.03C102.842 231.174 102.669 231.379 102.567 231.618C102.465 231.857 102.438 232.121 102.49 232.375C102.542 232.629 102.671 232.862 102.859 233.045C103.048 233.228 103.289 233.353 103.55 233.404C103.812 233.454 104.083 233.428 104.33 233.329C104.576 233.23 104.787 233.062 104.935 232.847C105.084 232.631 105.163 232.378 105.163 232.119C105.163 231.772 105.021 231.439 104.768 231.193C104.515 230.947 104.171 230.809 103.813 230.809ZM97.6338 219.966C97.3669 219.966 97.106 220.042 96.8842 220.186C96.6623 220.33 96.4893 220.535 96.3872 220.774C96.2851 221.013 96.2584 221.277 96.3104 221.531C96.3625 221.785 96.491 222.018 96.6797 222.201C96.8684 222.385 97.1088 222.509 97.3706 222.56C97.6323 222.61 97.9036 222.584 98.1501 222.485C98.3967 222.386 98.6074 222.218 98.7557 222.003C98.9039 221.788 98.9831 221.534 98.9831 221.275C98.9831 220.928 98.8409 220.595 98.5879 220.349C98.3348 220.104 97.9916 219.966 97.6338 219.966ZM102.862 215.407C102.595 215.407 102.335 215.484 102.113 215.628C101.891 215.772 101.718 215.976 101.616 216.216C101.514 216.455 101.487 216.718 101.539 216.972C101.591 217.226 101.719 217.46 101.908 217.643C102.097 217.826 102.337 217.951 102.599 218.001C102.861 218.052 103.132 218.026 103.379 217.927C103.625 217.828 103.836 217.66 103.984 217.444C104.132 217.229 104.212 216.976 104.212 216.717C104.212 216.369 104.069 216.036 103.816 215.791C103.563 215.545 103.22 215.407 102.862 215.407ZM98.8954 255.655C98.7078 255.839 98.5804 256.072 98.5292 256.326C98.478 256.579 98.5054 256.842 98.6079 257.081C98.7103 257.32 98.8833 257.524 99.1049 257.667C99.3266 257.81 99.587 257.887 99.8534 257.887C100.12 257.887 100.38 257.81 100.602 257.667C100.823 257.524 100.996 257.32 101.099 257.081C101.201 256.842 101.229 256.579 101.178 256.326C101.126 256.072 100.999 255.839 100.811 255.655C100.686 255.532 100.537 255.435 100.372 255.368C100.208 255.302 100.031 255.268 99.8534 255.268C99.6753 255.268 99.4989 255.302 99.3345 255.368C99.17 255.435 99.0208 255.532 98.8954 255.655ZM108.725 255.655C108.536 255.473 108.295 255.349 108.034 255.299C107.772 255.25 107.502 255.276 107.256 255.376C107.01 255.475 106.8 255.643 106.652 255.858C106.504 256.073 106.425 256.326 106.425 256.585C106.425 256.843 106.504 257.096 106.652 257.311C106.8 257.526 107.01 257.694 107.256 257.794C107.502 257.893 107.772 257.92 108.034 257.87C108.295 257.82 108.536 257.697 108.725 257.515C108.851 257.393 108.952 257.248 109.02 257.088C109.089 256.929 109.124 256.758 109.124 256.585C109.124 256.412 109.089 256.241 109.02 256.081C108.952 255.922 108.851 255.777 108.725 255.655ZM129.578 245.943C129.311 245.943 129.05 246.02 128.828 246.164C128.606 246.308 128.433 246.512 128.331 246.752C128.229 246.991 128.202 247.254 128.255 247.509C128.307 247.763 128.435 247.996 128.624 248.179C128.813 248.362 129.053 248.487 129.315 248.538C129.576 248.588 129.848 248.562 130.094 248.463C130.341 248.364 130.552 248.196 130.7 247.981C130.848 247.765 130.927 247.512 130.927 247.253C130.927 246.906 130.785 246.573 130.532 246.327C130.279 246.081 129.936 245.943 129.578 245.943ZM146.781 220.947C146.514 220.947 146.253 221.024 146.032 221.168C145.81 221.312 145.637 221.516 145.535 221.756C145.432 221.995 145.406 222.258 145.458 222.512C145.51 222.766 145.638 223 145.827 223.183C146.016 223.366 146.256 223.491 146.518 223.541C146.78 223.592 147.051 223.566 147.298 223.467C147.544 223.368 147.755 223.2 147.903 222.985C148.051 222.769 148.13 222.516 148.13 222.257C148.13 221.91 147.988 221.576 147.735 221.331C147.482 221.085 147.139 220.947 146.781 220.947ZM150.842 230.809C150.576 230.809 150.315 230.886 150.093 231.03C149.871 231.174 149.698 231.379 149.596 231.618C149.494 231.857 149.467 232.121 149.519 232.375C149.571 232.629 149.7 232.862 149.888 233.045C150.077 233.228 150.318 233.353 150.579 233.404C150.841 233.454 151.112 233.428 151.359 233.329C151.605 233.23 151.816 233.062 151.964 232.847C152.113 232.631 152.192 232.378 152.192 232.119C152.192 231.772 152.05 231.439 151.797 231.193C151.544 230.947 151.2 230.809 150.842 230.809ZM145.31 260.861C145.044 260.861 144.783 260.938 144.561 261.082C144.339 261.226 144.166 261.43 144.064 261.67C143.962 261.909 143.935 262.172 143.987 262.426C144.039 262.68 144.168 262.914 144.356 263.097C144.545 263.28 144.785 263.405 145.047 263.455C145.309 263.506 145.58 263.48 145.827 263.381C146.073 263.282 146.284 263.114 146.432 262.898C146.581 262.683 146.66 262.43 146.66 262.171C146.66 261.823 146.518 261.49 146.265 261.245C146.012 260.999 145.668 260.861 145.31 260.861ZM182.631 245.943C182.365 245.943 182.104 246.02 181.882 246.164C181.66 246.308 181.487 246.512 181.385 246.752C181.283 246.991 181.256 247.254 181.308 247.509C181.36 247.763 181.489 247.996 181.677 248.179C181.866 248.362 182.106 248.487 182.368 248.538C182.63 248.588 182.901 248.562 183.148 248.463C183.394 248.364 183.605 248.196 183.753 247.981C183.902 247.765 183.981 247.512 183.981 247.253C183.981 246.906 183.838 246.573 183.585 246.327C183.332 246.081 182.989 245.943 182.631 245.943ZM165.455 220.947C165.188 220.947 164.927 221.024 164.706 221.168C164.484 221.312 164.311 221.516 164.209 221.756C164.106 221.995 164.08 222.258 164.132 222.512C164.184 222.766 164.312 223 164.501 223.183C164.69 223.366 164.93 223.491 165.192 223.541C165.454 223.592 165.725 223.566 165.971 223.467C166.218 223.368 166.429 223.2 166.577 222.985C166.725 222.769 166.804 222.516 166.804 222.257C166.804 221.91 166.662 221.576 166.409 221.331C166.156 221.085 165.813 220.947 165.455 220.947ZM161.387 230.809C161.12 230.809 160.859 230.886 160.637 231.03C160.416 231.174 160.243 231.379 160.141 231.618C160.038 231.857 160.012 232.121 160.064 232.375C160.116 232.629 160.244 232.862 160.433 233.045C160.622 233.228 160.862 233.353 161.124 233.404C161.386 233.454 161.657 233.428 161.903 233.329C162.15 233.23 162.361 233.062 162.509 232.847C162.657 232.631 162.736 232.378 162.736 232.119C162.736 231.772 162.594 231.439 162.341 231.193C162.088 230.947 161.745 230.809 161.387 230.809ZM209.495 220.947C209.229 220.947 208.968 221.024 208.746 221.168C208.524 221.312 208.351 221.516 208.249 221.756C208.147 221.995 208.12 222.258 208.172 222.512C208.224 222.766 208.353 223 208.541 223.183C208.73 223.366 208.971 223.491 209.232 223.541C209.494 223.592 209.765 223.566 210.012 223.467C210.258 223.368 210.469 223.2 210.617 222.985C210.766 222.769 210.845 222.516 210.845 222.257C210.845 221.91 210.703 221.576 210.45 221.331C210.197 221.085 209.853 220.947 209.495 220.947ZM205.427 230.809C205.161 230.809 204.9 230.886 204.678 231.03C204.456 231.174 204.283 231.379 204.181 231.618C204.079 231.857 204.052 232.121 204.104 232.375C204.156 232.629 204.285 232.862 204.473 233.045C204.662 233.228 204.902 233.353 205.164 233.404C205.426 233.454 205.697 233.428 205.944 233.329C206.19 233.23 206.401 233.062 206.549 232.847C206.698 232.631 206.777 232.378 206.777 232.119C206.777 231.772 206.635 231.439 206.381 231.193C206.128 230.947 205.785 230.809 205.427 230.809ZM166.926 260.861C166.659 260.861 166.398 260.938 166.176 261.082C165.954 261.226 165.781 261.43 165.679 261.67C165.577 261.909 165.55 262.172 165.603 262.426C165.655 262.68 165.783 262.914 165.972 263.097C166.16 263.28 166.401 263.405 166.663 263.455C166.924 263.506 167.196 263.48 167.442 263.381C167.689 263.282 167.899 263.114 168.048 262.898C168.196 262.683 168.275 262.43 168.275 262.171C168.275 261.823 168.133 261.49 167.88 261.245C167.627 260.999 167.284 260.861 166.926 260.861ZM199.255 213.927C198.988 213.927 198.727 214.004 198.505 214.148C198.283 214.292 198.11 214.496 198.008 214.736C197.906 214.975 197.879 215.238 197.931 215.492C197.983 215.746 198.112 215.98 198.3 216.163C198.489 216.346 198.73 216.471 198.991 216.521C199.253 216.572 199.524 216.546 199.771 216.447C200.017 216.348 200.228 216.18 200.376 215.964C200.525 215.749 200.604 215.496 200.604 215.237C200.604 214.889 200.462 214.556 200.209 214.311C199.956 214.065 199.612 213.927 199.255 213.927ZM204.463 215.407C204.196 215.407 203.935 215.484 203.713 215.628C203.491 215.772 203.318 215.976 203.216 216.216C203.114 216.455 203.087 216.718 203.139 216.972C203.191 217.226 203.32 217.46 203.509 217.643C203.697 217.826 203.938 217.951 204.199 218.001C204.461 218.052 204.732 218.026 204.979 217.927C205.226 217.828 205.436 217.66 205.585 217.444C205.733 217.229 205.812 216.976 205.812 216.717C205.812 216.369 205.67 216.036 205.417 215.791C205.164 215.545 204.82 215.407 204.463 215.407ZM151.166 255.655C150.979 255.839 150.851 256.072 150.8 256.326C150.749 256.579 150.776 256.842 150.879 257.081C150.981 257.32 151.154 257.524 151.376 257.667C151.597 257.81 151.858 257.887 152.124 257.887C152.391 257.887 152.651 257.81 152.873 257.667C153.094 257.524 153.267 257.32 153.37 257.081C153.472 256.842 153.5 256.579 153.448 256.326C153.397 256.072 153.27 255.839 153.082 255.655C152.957 255.532 152.808 255.435 152.643 255.368C152.479 255.302 152.302 255.268 152.124 255.268C151.946 255.268 151.77 255.302 151.605 255.368C151.441 255.435 151.292 255.532 151.166 255.655ZM160.996 255.655C160.807 255.473 160.566 255.349 160.305 255.299C160.043 255.25 159.773 255.276 159.527 255.376C159.281 255.475 159.071 255.643 158.923 255.858C158.775 256.073 158.696 256.326 158.696 256.585C158.696 256.843 158.775 257.096 158.923 257.311C159.071 257.526 159.281 257.694 159.527 257.794C159.773 257.893 160.043 257.92 160.305 257.87C160.566 257.82 160.807 257.697 160.996 257.515C161.122 257.393 161.223 257.248 161.291 257.088C161.36 256.929 161.395 256.758 161.395 256.585C161.395 256.412 161.36 256.241 161.291 256.081C161.223 255.922 161.122 255.777 160.996 255.655ZM200.516 255.655C200.329 255.839 200.203 256.072 200.153 256.326C200.102 256.579 200.13 256.842 200.233 257.08C200.336 257.318 200.509 257.521 200.73 257.664C200.951 257.807 201.211 257.884 201.477 257.884C201.743 257.884 202.003 257.807 202.225 257.664C202.446 257.521 202.619 257.318 202.722 257.08C202.825 256.842 202.853 256.579 202.802 256.326C202.752 256.072 202.625 255.839 202.439 255.655C202.313 255.531 202.164 255.433 201.999 255.366C201.834 255.299 201.656 255.264 201.477 255.264C201.299 255.264 201.121 255.299 200.956 255.366C200.791 255.433 200.642 255.531 200.516 255.655ZM210.345 255.655C210.156 255.473 209.916 255.349 209.654 255.299C209.393 255.25 209.122 255.276 208.876 255.376C208.631 255.475 208.42 255.643 208.273 255.858C208.125 256.073 208.046 256.326 208.046 256.585C208.046 256.843 208.125 257.096 208.273 257.311C208.42 257.526 208.631 257.694 208.876 257.794C209.122 257.893 209.393 257.92 209.654 257.87C209.916 257.82 210.156 257.697 210.345 257.515C210.472 257.393 210.572 257.248 210.641 257.088C210.709 256.929 210.745 256.758 210.745 256.585C210.745 256.412 210.709 256.241 210.641 256.081C210.572 255.922 210.472 255.777 210.345 255.655ZM132.641 219.775C132.374 219.775 132.113 219.852 131.891 219.996C131.669 220.14 131.496 220.344 131.394 220.584C131.292 220.823 131.265 221.086 131.317 221.34C131.369 221.594 131.498 221.828 131.687 222.011C131.875 222.194 132.116 222.319 132.377 222.369C132.639 222.42 132.911 222.394 133.157 222.295C133.404 222.196 133.614 222.028 133.763 221.812C133.911 221.597 133.99 221.344 133.99 221.085C133.99 220.737 133.848 220.404 133.595 220.159C133.342 219.913 132.999 219.775 132.641 219.775ZM121.995 234.871C121.728 234.871 121.467 234.948 121.245 235.092C121.023 235.236 120.851 235.44 120.748 235.68C120.646 235.919 120.62 236.182 120.672 236.436C120.724 236.69 120.852 236.924 121.041 237.107C121.23 237.29 121.47 237.415 121.732 237.465C121.993 237.516 122.265 237.49 122.511 237.391C122.758 237.292 122.969 237.124 123.117 236.909C123.265 236.693 123.344 236.44 123.344 236.181C123.344 235.834 123.202 235.5 122.949 235.255C122.696 235.009 122.353 234.871 121.995 234.871ZM77.9816 219.775C77.7147 219.775 77.4538 219.852 77.232 219.996C77.0101 220.14 76.8371 220.344 76.735 220.584C76.6329 220.823 76.6062 221.086 76.6582 221.34C76.7103 221.594 76.8388 221.828 77.0275 222.011C77.2162 222.194 77.4566 222.319 77.7183 222.369C77.9801 222.42 78.2514 222.394 78.4979 222.295C78.7445 222.196 78.9552 222.028 79.1035 221.812C79.2517 221.597 79.3309 221.344 79.3309 221.085C79.3309 220.737 79.1887 220.404 78.9357 220.159C78.6826 219.913 78.3394 219.775 77.9816 219.775ZM233.681 206.246C233.681 206.505 233.76 206.758 233.909 206.973C234.057 207.189 234.268 207.356 234.514 207.456C234.761 207.555 235.032 207.581 235.294 207.53C235.555 207.48 235.796 207.355 235.985 207.172C236.173 206.988 236.302 206.755 236.354 206.501C236.406 206.247 236.379 205.984 236.277 205.744C236.175 205.505 236.002 205.3 235.78 205.157C235.558 205.013 235.297 204.936 235.03 204.936C234.673 204.936 234.329 205.074 234.076 205.319C233.823 205.565 233.681 205.898 233.681 206.246ZM218.09 226.841C218.09 227.1 218.17 227.353 218.318 227.569C218.466 227.784 218.677 227.952 218.923 228.051C219.17 228.15 219.441 228.176 219.703 228.126C219.965 228.075 220.205 227.95 220.394 227.767C220.582 227.584 220.711 227.351 220.763 227.096C220.815 226.842 220.788 226.579 220.686 226.34C220.584 226.1 220.411 225.896 220.189 225.752C219.967 225.608 219.707 225.531 219.44 225.531C219.082 225.531 218.739 225.669 218.486 225.915C218.233 226.16 218.09 226.494 218.09 226.841ZM233.681 163.496C233.681 163.755 233.76 164.008 233.909 164.224C234.057 164.439 234.268 164.607 234.514 164.706C234.761 164.805 235.032 164.831 235.294 164.781C235.555 164.73 235.796 164.605 235.985 164.422C236.173 164.239 236.302 164.006 236.354 163.752C236.406 163.498 236.379 163.234 236.277 162.995C236.175 162.756 236.002 162.551 235.78 162.407C235.558 162.263 235.297 162.186 235.03 162.186C234.673 162.186 234.329 162.324 234.076 162.57C233.823 162.816 233.681 163.149 233.681 163.496ZM207.924 180.162C207.924 180.421 208.003 180.675 208.151 180.89C208.299 181.105 208.51 181.273 208.756 181.372C209.003 181.472 209.274 181.497 209.536 181.447C209.798 181.396 210.038 181.272 210.227 181.088C210.416 180.905 210.544 180.672 210.596 180.418C210.648 180.164 210.621 179.9 210.519 179.661C210.417 179.422 210.244 179.217 210.022 179.073C209.801 178.929 209.54 178.853 209.273 178.853C208.915 178.853 208.572 178.991 208.319 179.236C208.066 179.482 207.924 179.815 207.924 180.162ZM218.09 184.111C218.09 184.37 218.17 184.623 218.318 184.839C218.466 185.054 218.677 185.222 218.923 185.321C219.17 185.42 219.441 185.446 219.703 185.396C219.965 185.345 220.205 185.22 220.394 185.037C220.582 184.854 220.711 184.621 220.763 184.367C220.815 184.113 220.788 183.849 220.686 183.61C220.584 183.371 220.411 183.166 220.189 183.022C219.967 182.878 219.707 182.801 219.44 182.801C219.082 182.801 218.739 182.939 218.486 183.185C218.233 183.431 218.09 183.764 218.09 184.111ZM200.691 190.103C200.691 190.362 200.771 190.615 200.919 190.831C201.067 191.046 201.278 191.214 201.524 191.313C201.771 191.412 202.042 191.438 202.304 191.388C202.566 191.337 202.806 191.212 202.995 191.029C203.184 190.846 203.312 190.613 203.364 190.359C203.416 190.105 203.389 189.841 203.287 189.602C203.185 189.363 203.012 189.158 202.79 189.014C202.568 188.87 202.308 188.793 202.041 188.793C201.683 188.793 201.34 188.931 201.087 189.177C200.834 189.423 200.691 189.756 200.691 190.103ZM202.216 185.035C202.216 185.294 202.295 185.547 202.444 185.762C202.592 185.978 202.802 186.145 203.049 186.245C203.296 186.344 203.567 186.37 203.829 186.319C204.09 186.269 204.331 186.144 204.519 185.961C204.708 185.777 204.837 185.544 204.889 185.29C204.941 185.036 204.914 184.773 204.812 184.533C204.71 184.294 204.537 184.089 204.315 183.946C204.093 183.802 203.832 183.725 203.565 183.725C203.208 183.725 202.864 183.863 202.611 184.108C202.358 184.354 202.216 184.687 202.216 185.035ZM243.713 188.859C243.902 189.041 244.143 189.165 244.404 189.214C244.666 189.264 244.936 189.237 245.182 189.138C245.428 189.039 245.638 188.871 245.786 188.656C245.934 188.44 246.013 188.188 246.013 187.929C246.013 187.67 245.934 187.418 245.786 187.203C245.638 186.987 245.428 186.819 245.182 186.72C244.936 186.621 244.666 186.594 244.404 186.644C244.143 186.693 243.902 186.817 243.713 186.999C243.587 187.121 243.486 187.266 243.418 187.425C243.349 187.585 243.314 187.756 243.314 187.929C243.314 188.102 243.349 188.273 243.418 188.433C243.486 188.592 243.587 188.737 243.713 188.859ZM243.713 179.337C243.526 179.521 243.398 179.754 243.347 180.008C243.296 180.262 243.323 180.525 243.426 180.763C243.528 181.002 243.701 181.206 243.923 181.349C244.144 181.493 244.405 181.569 244.671 181.569C244.937 181.569 245.198 181.493 245.42 181.349C245.641 181.206 245.814 181.002 245.917 180.763C246.019 180.525 246.046 180.262 245.995 180.008C245.944 179.754 245.817 179.521 245.629 179.337C245.504 179.214 245.354 179.117 245.19 179.051C245.026 178.984 244.849 178.95 244.671 178.95C244.493 178.95 244.317 178.984 244.152 179.051C243.988 179.117 243.839 179.214 243.713 179.337ZM233.681 159.069C233.681 159.328 233.76 159.582 233.909 159.797C234.057 160.012 234.268 160.18 234.514 160.279C234.761 160.378 235.032 160.404 235.294 160.354C235.555 160.303 235.796 160.179 235.985 159.995C236.173 159.812 236.302 159.579 236.354 159.325C236.406 159.071 236.379 158.807 236.277 158.568C236.175 158.329 236.002 158.124 235.78 157.98C235.558 157.836 235.297 157.76 235.03 157.76C234.673 157.76 234.329 157.898 234.076 158.143C233.823 158.389 233.681 158.722 233.681 159.069ZM207.924 142.403C207.924 142.662 208.003 142.915 208.151 143.131C208.299 143.346 208.51 143.514 208.756 143.613C209.003 143.712 209.274 143.738 209.536 143.688C209.798 143.637 210.038 143.512 210.227 143.329C210.416 143.146 210.544 142.913 210.596 142.659C210.648 142.404 210.621 142.141 210.519 141.902C210.417 141.662 210.244 141.458 210.022 141.314C209.801 141.17 209.54 141.093 209.273 141.093C208.915 141.093 208.572 141.231 208.319 141.477C208.066 141.722 207.924 142.056 207.924 142.403ZM218.09 138.435C218.09 138.694 218.17 138.947 218.318 139.162C218.466 139.378 218.677 139.545 218.923 139.645C219.17 139.744 219.441 139.77 219.703 139.719C219.965 139.669 220.205 139.544 220.394 139.361C220.582 139.177 220.711 138.944 220.763 138.69C220.815 138.436 220.788 138.173 220.686 137.933C220.584 137.694 220.411 137.489 220.189 137.346C219.967 137.202 219.707 137.125 219.44 137.125C219.082 137.125 218.739 137.263 218.486 137.508C218.233 137.754 218.09 138.087 218.09 138.435ZM249.043 143.831C249.043 144.09 249.122 144.343 249.27 144.558C249.418 144.774 249.629 144.942 249.876 145.041C250.122 145.14 250.393 145.166 250.655 145.115C250.917 145.065 251.157 144.94 251.346 144.757C251.535 144.574 251.663 144.34 251.715 144.086C251.767 143.832 251.741 143.569 251.639 143.329C251.536 143.09 251.363 142.886 251.142 142.742C250.92 142.598 250.659 142.521 250.392 142.521C250.034 142.521 249.691 142.659 249.438 142.904C249.185 143.15 249.043 143.483 249.043 143.831ZM233.681 107.604C233.681 107.863 233.76 108.116 233.909 108.331C234.057 108.547 234.268 108.715 234.514 108.814C234.761 108.913 235.032 108.939 235.294 108.888C235.555 108.838 235.796 108.713 235.985 108.53C236.173 108.347 236.302 108.113 236.354 107.859C236.406 107.605 236.379 107.342 236.277 107.102C236.175 106.863 236.002 106.659 235.78 106.515C235.558 106.371 235.297 106.294 235.03 106.294C234.673 106.294 234.329 106.432 234.076 106.677C233.823 106.923 233.681 107.256 233.681 107.604ZM224.253 124.27C224.253 124.529 224.332 124.782 224.481 124.997C224.629 125.213 224.84 125.381 225.086 125.48C225.333 125.579 225.604 125.605 225.866 125.554C226.127 125.504 226.368 125.379 226.557 125.196C226.745 125.013 226.874 124.779 226.926 124.525C226.978 124.271 226.951 124.008 226.849 123.769C226.747 123.529 226.574 123.325 226.352 123.181C226.13 123.037 225.869 122.96 225.602 122.96C225.245 122.96 224.901 123.098 224.648 123.344C224.395 123.589 224.253 123.922 224.253 124.27ZM218.09 128.219C218.09 128.478 218.17 128.731 218.318 128.946C218.466 129.162 218.677 129.33 218.923 129.429C219.17 129.528 219.441 129.554 219.703 129.503C219.965 129.453 220.205 129.328 220.394 129.145C220.582 128.962 220.711 128.728 220.763 128.474C220.815 128.22 220.788 127.957 220.686 127.717C220.584 127.478 220.411 127.274 220.189 127.13C219.967 126.986 219.707 126.909 219.44 126.909C219.082 126.909 218.739 127.047 218.486 127.293C218.233 127.538 218.09 127.871 218.09 128.219ZM218.09 85.4692C218.09 85.7283 218.17 85.9815 218.318 86.1969C218.466 86.4123 218.677 86.5801 218.923 86.6793C219.17 86.7784 219.441 86.8043 219.703 86.7538C219.965 86.7032 220.205 86.5785 220.394 86.3954C220.582 86.2122 220.711 85.9788 220.763 85.7248C220.815 85.4707 220.788 85.2074 220.686 84.9681C220.584 84.7287 220.411 84.5242 220.189 84.3803C219.967 84.2363 219.707 84.1595 219.44 84.1595C219.082 84.1595 218.739 84.2975 218.486 84.5431C218.233 84.7888 218.09 85.1219 218.09 85.4692ZM249.043 122.849C249.043 123.108 249.122 123.361 249.27 123.576C249.418 123.792 249.629 123.96 249.876 124.059C250.122 124.158 250.393 124.184 250.655 124.133C250.917 124.083 251.157 123.958 251.346 123.775C251.535 123.592 251.663 123.358 251.715 123.104C251.767 122.85 251.741 122.587 251.639 122.348C251.536 122.108 251.363 121.904 251.142 121.76C250.92 121.616 250.659 121.539 250.392 121.539C250.034 121.539 249.691 121.677 249.438 121.923C249.185 122.168 249.043 122.501 249.043 122.849ZM200.691 91.4678C200.691 91.7268 200.771 91.9801 200.919 92.1954C201.067 92.4108 201.278 92.5787 201.524 92.6778C201.771 92.7769 202.042 92.8029 202.304 92.7523C202.566 92.7018 202.806 92.5771 202.995 92.3939C203.184 92.2107 203.312 91.9773 203.364 91.7233C203.416 91.4692 203.389 91.2059 203.287 90.9666C203.185 90.7272 203.012 90.5227 202.79 90.3788C202.568 90.2349 202.308 90.1581 202.041 90.1581C201.683 90.1581 201.34 90.296 201.087 90.5417C200.834 90.7873 200.691 91.1204 200.691 91.4678ZM202.216 86.3926C202.216 86.6517 202.295 86.9049 202.444 87.1203C202.592 87.3357 202.802 87.5035 203.049 87.6026C203.296 87.7018 203.567 87.7277 203.829 87.6772C204.09 87.6267 204.331 87.5019 204.519 87.3187C204.708 87.1356 204.837 86.9022 204.889 86.6481C204.941 86.394 204.914 86.1307 204.812 85.8914C204.71 85.6521 204.537 85.4475 204.315 85.3036C204.093 85.1597 203.832 85.0829 203.565 85.0829C203.208 85.0829 202.864 85.2209 202.611 85.4665C202.358 85.7121 202.216 86.0453 202.216 86.3926ZM243.713 138.146C243.902 138.328 244.143 138.452 244.404 138.502C244.666 138.551 244.936 138.525 245.182 138.425C245.428 138.326 245.638 138.158 245.786 137.943C245.934 137.728 246.013 137.475 246.013 137.216C246.013 136.958 245.934 136.705 245.786 136.49C245.638 136.275 245.428 136.107 245.182 136.007C244.936 135.908 244.666 135.881 244.404 135.931C244.143 135.981 243.902 136.104 243.713 136.287C243.587 136.408 243.486 136.553 243.418 136.713C243.349 136.872 243.314 137.044 243.314 137.216C243.314 137.389 243.349 137.561 243.418 137.72C243.486 137.88 243.587 138.025 243.713 138.146ZM243.713 128.612C243.526 128.795 243.398 129.029 243.347 129.282C243.296 129.536 243.323 129.799 243.426 130.038C243.528 130.276 243.701 130.48 243.923 130.624C244.144 130.767 244.405 130.844 244.671 130.844C244.937 130.844 245.198 130.767 245.42 130.624C245.641 130.48 245.814 130.276 245.917 130.038C246.019 129.799 246.046 129.536 245.995 129.282C245.944 129.029 245.817 128.795 245.629 128.612C245.504 128.489 245.354 128.391 245.19 128.325C245.026 128.258 244.849 128.224 244.671 128.224C244.493 128.224 244.317 128.258 244.152 128.325C243.988 128.391 243.839 128.489 243.713 128.612ZM243.713 90.2432C243.902 90.4253 244.143 90.549 244.404 90.5987C244.666 90.6483 244.936 90.6218 245.182 90.5223C245.428 90.4229 245.638 90.255 245.786 90.0398C245.934 89.8247 246.013 89.5719 246.013 89.3133C246.013 89.0547 245.934 88.8019 245.786 88.5868C245.638 88.3716 245.428 88.2037 245.182 88.1043C244.936 88.0048 244.666 87.9783 244.404 88.028C244.143 88.0776 243.902 88.2013 243.713 88.3834C243.587 88.5051 243.486 88.65 243.418 88.8096C243.349 88.9692 243.314 89.1404 243.314 89.3133C243.314 89.4862 243.349 89.6574 243.418 89.817C243.486 89.9766 243.587 90.1215 243.713 90.2432ZM243.713 80.7018C243.526 80.8854 243.398 81.1188 243.347 81.3726C243.296 81.6263 243.323 81.8891 243.426 82.1278C243.528 82.3665 243.701 82.5705 243.923 82.7139C244.144 82.8573 244.405 82.9339 244.671 82.9339C244.937 82.9339 245.198 82.8573 245.42 82.7139C245.641 82.5705 245.814 82.3665 245.917 82.1278C246.019 81.8891 246.046 81.6263 245.995 81.3726C245.944 81.1188 245.817 80.8854 245.629 80.7018C245.504 80.5791 245.354 80.4817 245.19 80.4152C245.026 80.3487 244.849 80.3144 244.671 80.3144C244.493 80.3144 244.317 80.3487 244.152 80.4152C243.988 80.4817 243.839 80.5791 243.713 80.7018ZM223.046 166.463C223.046 166.722 223.125 166.975 223.273 167.19C223.421 167.406 223.632 167.574 223.879 167.673C224.125 167.772 224.396 167.798 224.658 167.747C224.92 167.697 225.16 167.572 225.349 167.389C225.538 167.206 225.666 166.972 225.718 166.718C225.77 166.464 225.744 166.201 225.641 165.961C225.539 165.722 225.366 165.518 225.144 165.374C224.923 165.23 224.662 165.153 224.395 165.153C224.037 165.153 223.694 165.291 223.441 165.537C223.188 165.782 223.046 166.115 223.046 166.463ZM206.716 209.16C206.716 209.419 206.795 209.672 206.943 209.887C207.092 210.103 207.302 210.271 207.549 210.37C207.795 210.469 208.067 210.495 208.328 210.444C208.59 210.394 208.831 210.269 209.019 210.086C209.208 209.903 209.337 209.669 209.389 209.415C209.441 209.161 209.414 208.898 209.312 208.658C209.21 208.419 209.037 208.215 208.815 208.071C208.593 207.927 208.332 207.85 208.065 207.85C207.707 207.85 207.364 207.988 207.111 208.234C206.858 208.479 206.716 208.812 206.716 209.16ZM209.947 83.0528C210.214 83.0528 210.475 82.976 210.697 82.8321C210.919 82.6882 211.092 82.4836 211.194 82.2443C211.296 82.005 211.323 81.7416 211.271 81.4876C211.219 81.2335 211.09 81.0001 210.902 80.8169C210.713 80.6338 210.472 80.509 210.211 80.4585C209.949 80.4079 209.678 80.4339 209.431 80.533C209.185 80.6322 208.974 80.8 208.826 81.0154C208.677 81.2308 208.598 81.484 208.598 81.7431C208.598 82.0904 208.74 82.4236 208.993 82.6692C209.246 82.9148 209.59 83.0528 209.947 83.0528ZM214.016 73.1841C214.282 73.1841 214.543 73.1073 214.765 72.9633C214.987 72.8194 215.16 72.6149 215.262 72.3756C215.364 72.1362 215.391 71.8729 215.339 71.6188C215.287 71.3647 215.158 71.1314 214.97 70.9482C214.781 70.7651 214.541 70.6403 214.279 70.5898C214.017 70.5392 213.746 70.5652 213.499 70.6643C213.253 70.7634 213.042 70.9313 212.894 71.1467C212.745 71.3621 212.666 71.6153 212.666 71.8743C212.666 72.2217 212.808 72.5548 213.061 72.8004C213.315 73.0461 213.658 73.1841 214.016 73.1841ZM148.738 58.0501C149.004 58.0501 149.265 57.9733 149.487 57.8294C149.709 57.6855 149.882 57.481 149.984 57.2416C150.086 57.0023 150.113 56.739 150.061 56.4849C150.009 56.2309 149.88 55.9975 149.692 55.8143C149.503 55.6312 149.263 55.5064 149.001 55.4559C148.739 55.4053 148.468 55.4313 148.221 55.5304C147.975 55.6296 147.764 55.7974 147.616 56.0128C147.467 56.2282 147.388 56.4814 147.388 56.7405C147.388 57.0878 147.531 57.4209 147.784 57.6665C148.037 57.9122 148.38 58.0501 148.738 58.0501ZM165.907 83.0528C166.174 83.0528 166.435 82.976 166.657 82.8321C166.879 82.6882 167.052 82.4836 167.154 82.2443C167.256 82.005 167.283 81.7416 167.23 81.4876C167.178 81.2335 167.05 81.0001 166.861 80.8169C166.673 80.6338 166.432 80.509 166.17 80.4585C165.909 80.4079 165.637 80.4339 165.391 80.533C165.144 80.6322 164.934 80.8 164.785 81.0154C164.637 81.2308 164.558 81.484 164.558 81.7431C164.558 82.0904 164.7 82.4236 164.953 82.6692C165.206 82.9148 165.549 83.0528 165.907 83.0528ZM169.975 73.1841C170.242 73.1841 170.503 73.1073 170.725 72.9633C170.947 72.8194 171.12 72.6149 171.222 72.3756C171.324 72.1362 171.351 71.8729 171.299 71.6188C171.246 71.3647 171.118 71.1314 170.929 70.9482C170.741 70.7651 170.5 70.6403 170.238 70.5898C169.977 70.5392 169.705 70.5652 169.459 70.6643C169.212 70.7634 169.002 70.9313 168.853 71.1467C168.705 71.3621 168.626 71.6153 168.626 71.8743C168.626 72.2217 168.768 72.5548 169.021 72.8004C169.274 73.0461 169.617 73.1841 169.975 73.1841ZM176.128 84.0345C176.395 84.0345 176.656 83.9577 176.878 83.8138C177.099 83.6698 177.272 83.4653 177.374 83.226C177.477 82.9866 177.503 82.7233 177.451 82.4692C177.399 82.2152 177.271 81.9818 177.082 81.7986C176.893 81.6155 176.653 81.4907 176.391 81.4402C176.129 81.3896 175.858 81.4156 175.612 81.5147C175.365 81.6139 175.154 81.7817 175.006 81.9971C174.858 82.2125 174.779 82.4657 174.779 82.7247C174.779 83.0721 174.921 83.4052 175.174 83.6509C175.427 83.8965 175.77 84.0345 176.128 84.0345ZM170.926 88.5929C171.193 88.5929 171.454 88.5161 171.676 88.3722C171.898 88.2283 172.071 88.0237 172.173 87.7844C172.275 87.5451 172.302 87.2818 172.25 87.0277C172.198 86.7736 172.069 86.5403 171.881 86.3571C171.692 86.1739 171.451 86.0492 171.19 85.9987C170.928 85.9481 170.657 85.974 170.41 86.0732C170.164 86.1723 169.953 86.3402 169.805 86.5556C169.656 86.7709 169.577 87.0242 169.577 87.2832C169.577 87.6306 169.719 87.9637 169.972 88.2093C170.225 88.4549 170.569 88.5929 170.926 88.5929ZM174.893 48.3124C175.081 48.1288 175.208 47.8954 175.259 47.6416C175.311 47.3879 175.283 47.1251 175.181 46.8864C175.078 46.6477 174.905 46.4437 174.684 46.3003C174.462 46.1568 174.202 46.0803 173.935 46.0803C173.669 46.0803 173.408 46.1568 173.187 46.3003C172.965 46.4437 172.792 46.6477 172.69 46.8864C172.587 47.1251 172.56 47.3879 172.611 47.6416C172.662 47.8954 172.79 48.1288 172.977 48.3124C173.103 48.4351 173.252 48.5326 173.416 48.5991C173.581 48.6656 173.757 48.6998 173.935 48.6998C174.113 48.6998 174.29 48.6656 174.454 48.5991C174.619 48.5326 174.768 48.4351 174.893 48.3124ZM165.064 48.3124C165.253 48.4935 165.494 48.6163 165.755 48.6652C166.016 48.7141 166.286 48.687 166.532 48.5873C166.777 48.4876 166.987 48.3197 167.134 48.1048C167.281 47.8898 167.36 47.6374 167.36 47.3792C167.36 47.121 167.281 46.8686 167.134 46.6536C166.987 46.4387 166.777 46.2708 166.532 46.1711C166.286 46.0714 166.016 46.0443 165.755 46.0932C165.494 46.1421 165.253 46.2649 165.064 46.446C164.936 46.5679 164.835 46.7131 164.766 46.8734C164.697 47.0336 164.661 47.2055 164.661 47.3792C164.661 47.5529 164.697 47.7248 164.766 47.885C164.835 48.0452 164.936 48.1905 165.064 48.3124ZM127.008 83.0528C127.274 83.0528 127.535 82.976 127.757 82.8321C127.979 82.6882 128.152 82.4836 128.254 82.2443C128.356 82.005 128.383 81.7416 128.331 81.4876C128.279 81.2335 128.15 81.0001 127.962 80.8169C127.773 80.6338 127.532 80.509 127.271 80.4585C127.009 80.4079 126.738 80.4339 126.491 80.533C126.245 80.6322 126.034 80.8 125.886 81.0154C125.737 81.2308 125.658 81.484 125.658 81.7431C125.658 82.0904 125.8 82.4236 126.053 82.6692C126.306 82.9148 126.65 83.0528 127.008 83.0528ZM122.946 73.1841C123.213 73.1841 123.474 73.1073 123.696 72.9633C123.918 72.8194 124.091 72.6149 124.193 72.3756C124.295 72.1362 124.322 71.8729 124.27 71.6188C124.217 71.3647 124.089 71.1314 123.9 70.9482C123.712 70.7651 123.471 70.6403 123.209 70.5898C122.948 70.5392 122.676 70.5652 122.43 70.6643C122.183 70.7634 121.973 70.9313 121.824 71.1467C121.676 71.3621 121.597 71.6153 121.597 71.8743C121.597 72.2217 121.739 72.5548 121.992 72.8004C122.245 73.0461 122.588 73.1841 122.946 73.1841ZM128.478 43.139C128.745 43.139 129.006 43.0622 129.228 42.9182C129.45 42.7743 129.623 42.5698 129.725 42.3305C129.827 42.0911 129.854 41.8278 129.802 41.5737C129.75 41.3197 129.621 41.0863 129.432 40.9031C129.244 40.72 129.003 40.5952 128.742 40.5447C128.48 40.4942 128.208 40.5201 127.962 40.6192C127.715 40.7184 127.505 40.8862 127.356 41.1016C127.208 41.317 127.129 41.5702 127.129 41.8293C127.129 42.1766 127.271 42.5097 127.524 42.7554C127.777 43.001 128.12 43.139 128.478 43.139ZM108.334 77.0143C108.6 77.0143 108.861 76.9375 109.083 76.7936C109.305 76.6497 109.478 76.4451 109.58 76.2058C109.682 75.9665 109.709 75.7032 109.657 75.4491C109.605 75.195 109.476 74.9617 109.288 74.7785C109.099 74.5953 108.858 74.4705 108.597 74.42C108.335 74.3695 108.064 74.3955 107.817 74.4946C107.571 74.5937 107.36 74.7616 107.212 74.977C107.063 75.1923 106.984 75.4456 106.984 75.7046C106.984 76.052 107.126 76.3851 107.379 76.6307C107.633 76.8763 107.976 77.0143 108.334 77.0143ZM112.402 73.1841C112.668 73.1841 112.929 73.1073 113.151 72.9633C113.373 72.8194 113.546 72.6149 113.648 72.3756C113.75 72.1362 113.777 71.8729 113.725 71.6188C113.673 71.3647 113.544 71.1314 113.356 70.9482C113.167 70.7651 112.927 70.6403 112.665 70.5898C112.403 70.5392 112.132 70.5652 111.885 70.6643C111.639 70.7634 111.428 70.9313 111.28 71.1467C111.131 71.3621 111.052 71.6153 111.052 71.8743C111.052 72.2217 111.194 72.5548 111.448 72.8004C111.701 73.0461 112.044 73.1841 112.402 73.1841ZM64.2932 83.0528C64.5601 83.0528 64.8209 82.976 65.0428 82.8321C65.2647 82.6882 65.4376 82.4836 65.5398 82.2443C65.6419 82.005 65.6686 81.7416 65.6166 81.4876C65.5645 81.2335 65.436 81.0001 65.2473 80.8169C65.0586 80.6338 64.8182 80.509 64.5564 80.4585C64.2947 80.4079 64.0234 80.4339 63.7769 80.533C63.5303 80.6322 63.3196 80.8 63.1713 81.0154C63.0231 81.2308 62.9439 81.484 62.9439 81.7431C62.9439 82.0904 63.0861 82.4236 63.3391 82.6692C63.5922 82.9148 63.9353 83.0528 64.2932 83.0528ZM68.3613 73.1841C68.6281 73.1841 68.889 73.1073 69.1109 72.9633C69.3328 72.8194 69.5057 72.6149 69.6078 72.3756C69.71 72.1362 69.7367 71.8729 69.6846 71.6188C69.6326 71.3647 69.504 71.1314 69.3153 70.9482C69.1266 70.7651 68.8862 70.6403 68.6245 70.5898C68.3628 70.5392 68.0915 70.5652 67.8449 70.6643C67.5984 70.7634 67.3876 70.9313 67.2394 71.1467C67.0911 71.3621 67.012 71.6153 67.012 71.8743C67.012 72.2217 67.1541 72.5548 67.4072 72.8004C67.6602 73.0461 68.0034 73.1841 68.3613 73.1841ZM106.863 43.139C107.13 43.139 107.391 43.0622 107.612 42.9182C107.834 42.7743 108.007 42.5698 108.109 42.3305C108.212 42.0911 108.238 41.8278 108.186 41.5737C108.134 41.3197 108.006 41.0863 107.817 40.9031C107.628 40.72 107.388 40.5952 107.126 40.5447C106.864 40.4942 106.593 40.5201 106.346 40.6192C106.1 40.7184 105.889 40.8862 105.741 41.1016C105.593 41.317 105.514 41.5702 105.514 41.8293C105.514 42.1766 105.656 42.5097 105.909 42.7554C106.162 43.001 106.505 43.139 106.863 43.139ZM74.5342 90.0729C74.8011 90.0729 75.0619 89.9961 75.2838 89.8522C75.5057 89.7083 75.6787 89.5037 75.7808 89.2644C75.8829 89.0251 75.9096 88.7618 75.8576 88.5077C75.8055 88.2536 75.677 88.0203 75.4883 87.8371C75.2996 87.6539 75.0592 87.5292 74.7975 87.4786C74.5357 87.4281 74.2644 87.4541 74.0179 87.5532C73.7713 87.6523 73.5606 87.8202 73.4123 88.0355C73.2641 88.2509 73.185 88.5042 73.185 88.7632C73.185 89.1106 73.3271 89.4437 73.5801 89.6893C73.8332 89.935 74.1764 90.0729 74.5342 90.0729ZM69.3125 88.5929C69.5794 88.5929 69.8402 88.5161 70.0621 88.3722C70.284 88.2283 70.4569 88.0237 70.5591 87.7844C70.6612 87.5451 70.6879 87.2818 70.6359 87.0277C70.5838 86.7736 70.4553 86.5403 70.2666 86.3571C70.0779 86.1739 69.8375 86.0492 69.5757 85.9987C69.314 85.9481 69.0427 85.974 68.7962 86.0732C68.5496 86.1723 68.3389 86.3402 68.1906 86.5556C68.0424 86.7709 67.9632 87.0242 67.9632 87.2832C67.9632 87.6306 68.1054 87.9637 68.3584 88.2093C68.6115 88.4549 68.9547 88.5929 69.3125 88.5929ZM122.622 48.3124C122.81 48.1288 122.937 47.8954 122.989 47.6416C123.04 47.3879 123.012 47.1251 122.91 46.8864C122.807 46.6477 122.635 46.4437 122.413 46.3003C122.191 46.1568 121.931 46.0803 121.664 46.0803C121.398 46.0803 121.138 46.1568 120.916 46.3003C120.694 46.4437 120.521 46.6477 120.419 46.8864C120.316 47.1251 120.289 47.3879 120.34 47.6416C120.391 47.8954 120.519 48.1288 120.706 48.3124C120.832 48.4351 120.981 48.5326 121.146 48.5991C121.31 48.6656 121.486 48.6998 121.664 48.6998C121.843 48.6998 122.019 48.6656 122.183 48.5991C122.348 48.5326 122.497 48.4351 122.622 48.3124ZM112.793 48.3124C112.982 48.4935 113.223 48.6163 113.484 48.6652C113.745 48.7141 114.015 48.687 114.261 48.5873C114.506 48.4876 114.716 48.3197 114.863 48.1048C115.01 47.8898 115.089 47.6374 115.089 47.3792C115.089 47.121 115.01 46.8686 114.863 46.6536C114.716 46.4387 114.506 46.2708 114.261 46.1711C114.015 46.0714 113.745 46.0443 113.484 46.0932C113.223 46.1421 112.982 46.2649 112.793 46.446C112.665 46.5679 112.564 46.7131 112.495 46.8734C112.426 47.0336 112.39 47.2055 112.39 47.3792C112.39 47.5529 112.426 47.7248 112.495 47.885C112.564 48.0452 112.665 48.1905 112.793 48.3124ZM73.2727 48.3124C73.4602 48.1288 73.5877 47.8954 73.6388 47.6416C73.69 47.3879 73.6626 47.1251 73.5602 46.8864C73.4577 46.6477 73.2848 46.4437 73.0631 46.3003C72.8415 46.1568 72.5811 46.0803 72.3147 46.0803C72.0483 46.0803 71.7879 46.1568 71.5662 46.3003C71.3446 46.4437 71.1716 46.6477 71.0692 46.8864C70.9667 47.1251 70.9394 47.3879 70.9905 47.6416C71.0417 47.8954 71.1691 48.1288 71.3567 48.3124C71.4821 48.4351 71.6314 48.5326 71.7958 48.5991C71.9602 48.6656 72.1366 48.6998 72.3147 48.6998C72.4928 48.6998 72.6692 48.6656 72.8336 48.5991C72.998 48.5326 73.1472 48.4351 73.2727 48.3124ZM63.4634 48.3124C63.6529 48.4935 63.8933 48.6163 64.1545 48.6652C64.4156 48.7141 64.6859 48.687 64.9312 48.5873C65.1766 48.4876 65.3861 48.3197 65.5334 48.1048C65.6808 47.8898 65.7594 47.6374 65.7594 47.3792C65.7594 47.121 65.6808 46.8686 65.5334 46.6536C65.3861 46.4387 65.1766 46.2708 64.9312 46.1711C64.6859 46.0714 64.4156 46.0443 64.1545 46.0932C63.8933 46.1421 63.6529 46.2649 63.4634 46.446C63.3359 46.5679 63.2346 46.7131 63.1655 46.8734C63.0964 47.0336 63.0608 47.2055 63.0608 47.3792C63.0608 47.5529 63.0964 47.7248 63.1655 47.885C63.2346 48.0452 63.3359 48.1905 63.4634 48.3124ZM141.148 84.225C141.415 84.225 141.676 84.1482 141.898 84.0043C142.119 83.8604 142.292 83.6558 142.394 83.4165C142.497 83.1772 142.523 82.9139 142.471 82.6598C142.419 82.4058 142.291 82.1724 142.102 81.9892C141.913 81.806 141.673 81.6813 141.411 81.6307C141.149 81.5802 140.878 81.6062 140.632 81.7053C140.385 81.8044 140.174 81.9723 140.026 82.1877C139.878 82.403 139.799 82.6563 139.799 82.9153C139.799 83.2627 139.941 83.5958 140.194 83.8414C140.447 84.087 140.79 84.225 141.148 84.225ZM151.794 69.8837C152.061 69.8837 152.321 69.8069 152.543 69.6629C152.765 69.519 152.938 69.3145 153.04 69.0752C153.142 68.8358 153.169 68.5725 153.117 68.3185C153.065 68.0644 152.936 67.831 152.748 67.6478C152.559 67.4647 152.319 67.3399 152.057 67.2894C151.795 67.2389 151.524 67.2648 151.277 67.364C151.031 67.4631 150.82 67.6309 150.672 67.8463C150.524 68.0617 150.444 68.3149 150.444 68.574C150.444 68.9213 150.587 69.2544 150.84 69.5001C151.093 69.7457 151.436 69.8837 151.794 69.8837ZM195.807 84.225C196.074 84.225 196.335 84.1482 196.557 84.0043C196.779 83.8604 196.952 83.6558 197.054 83.4165C197.156 83.1772 197.182 82.9139 197.13 82.6598C197.078 82.4058 196.95 82.1724 196.761 81.9892C196.572 81.806 196.332 81.6813 196.07 81.6307C195.809 81.5802 195.537 81.6062 195.291 81.7053C195.044 81.8044 194.833 81.9723 194.685 82.1877C194.537 82.403 194.458 82.6563 194.458 82.9153C194.458 83.2627 194.6 83.5958 194.853 83.8414C195.106 84.087 195.449 84.225 195.807 84.225ZM40.1074 97.7545C40.1074 97.4955 40.0283 97.2422 39.88 97.0269C39.7318 96.8115 39.521 96.6436 39.2745 96.5445C39.0279 96.4453 38.7566 96.4194 38.4949 96.47C38.2332 96.5205 37.9928 96.6452 37.8041 96.8284C37.6154 97.0116 37.4868 97.2449 37.4348 97.499C37.3827 97.7531 37.4094 98.0164 37.5116 98.2557C37.6137 98.495 37.7866 98.6996 38.0085 98.8435C38.2304 98.9874 38.4913 99.0642 38.7581 99.0642C39.116 99.0642 39.4592 98.9263 39.7122 98.6806C39.9653 98.435 40.1074 98.1019 40.1074 97.7545ZM55.6983 77.1394C55.6983 76.8804 55.6192 76.6271 55.4709 76.4118C55.3227 76.1964 55.1119 76.0285 54.8654 75.9294C54.6188 75.8302 54.3476 75.8043 54.0858 75.8548C53.8241 75.9054 53.5837 76.0301 53.395 76.2133C53.2063 76.3965 53.0778 76.6298 53.0257 76.8839C52.9736 77.1379 53.0004 77.4013 53.1025 77.6406C53.2046 77.88 53.3776 78.0845 53.5994 78.2284C53.8213 78.3723 54.0822 78.4491 54.3491 78.4491C54.7069 78.4491 55.0501 78.3112 55.3031 78.0655C55.5562 77.8199 55.6983 77.4868 55.6983 77.1394ZM40.1074 140.504C40.1074 140.245 40.0283 139.992 39.88 139.776C39.7318 139.561 39.521 139.393 39.2745 139.294C39.0279 139.195 38.7566 139.169 38.4949 139.219C38.2332 139.27 37.9928 139.395 37.8041 139.578C37.6154 139.761 37.4868 139.994 37.4348 140.248C37.3827 140.502 37.4094 140.766 37.5116 141.005C37.6137 141.244 37.7866 141.449 38.0085 141.593C38.2304 141.737 38.4913 141.814 38.7581 141.814C39.116 141.814 39.4592 141.676 39.7122 141.43C39.9653 141.184 40.1074 140.851 40.1074 140.504ZM48.7579 123.831C48.7579 123.572 48.6787 123.319 48.5305 123.103C48.3822 122.888 48.1715 122.72 47.9249 122.621C47.6784 122.522 47.4071 122.496 47.1454 122.547C46.8836 122.597 46.6432 122.722 46.4545 122.905C46.2658 123.088 46.1373 123.322 46.0853 123.576C46.0332 123.83 46.0599 124.093 46.162 124.332C46.2641 124.572 46.4371 124.776 46.659 124.92C46.8809 125.064 47.1417 125.141 47.4086 125.141C47.7664 125.141 48.1096 125.003 48.3627 124.757C48.6157 124.512 48.7579 124.178 48.7579 123.831ZM55.6983 119.882C55.6983 119.623 55.6192 119.37 55.4709 119.155C55.3227 118.939 55.1119 118.771 54.8654 118.672C54.6188 118.573 54.3476 118.547 54.0858 118.598C53.8241 118.648 53.5837 118.773 53.395 118.956C53.2063 119.139 53.0778 119.373 53.0257 119.627C52.9736 119.881 53.0004 120.144 53.1025 120.383C53.2046 120.623 53.3776 120.827 53.5994 120.971C53.8213 121.115 54.0822 121.192 54.3491 121.192C54.7069 121.192 55.0501 121.054 55.3031 120.808C55.5562 120.563 55.6983 120.23 55.6983 119.882ZM73.0973 113.89C73.0973 113.631 73.0181 113.378 72.8699 113.163C72.7216 112.947 72.5109 112.779 72.2643 112.68C72.0178 112.581 71.7465 112.555 71.4848 112.606C71.223 112.656 70.9826 112.781 70.7939 112.964C70.6052 113.147 70.4767 113.381 70.4246 113.635C70.3726 113.889 70.3993 114.152 70.5014 114.391C70.6035 114.631 70.7765 114.835 70.9984 114.979C71.2203 115.123 71.4811 115.2 71.748 115.2C72.1058 115.2 72.449 115.062 72.7021 114.816C72.9551 114.571 73.0973 114.238 73.0973 113.89ZM71.559 118.965C71.559 118.706 71.4799 118.453 71.3316 118.238C71.1833 118.022 70.9726 117.855 70.7261 117.755C70.4795 117.656 70.2082 117.63 69.9465 117.681C69.6848 117.731 69.4443 117.856 69.2556 118.039C69.0669 118.223 68.9384 118.456 68.8864 118.71C68.8343 118.964 68.861 119.227 68.9632 119.467C69.0653 119.706 69.2382 119.911 69.4601 120.054C69.682 120.198 69.9429 120.275 70.2097 120.275C70.5676 120.275 70.9108 120.137 71.1638 119.892C71.4168 119.646 71.559 119.313 71.559 118.965ZM30.0755 115.115C29.8864 114.933 29.646 114.809 29.3845 114.759C29.1231 114.71 28.8524 114.736 28.6065 114.836C28.3606 114.935 28.1505 115.103 28.0027 115.318C27.855 115.533 27.7761 115.786 27.7761 116.045C27.7761 116.303 27.855 116.556 28.0027 116.771C28.1505 116.986 28.3606 117.154 28.6065 117.254C28.8524 117.353 29.1231 117.38 29.3845 117.33C29.646 117.28 29.8864 117.157 30.0755 116.975C30.202 116.853 30.3024 116.708 30.3709 116.548C30.4394 116.389 30.4747 116.218 30.4747 116.045C30.4747 115.872 30.4394 115.701 30.3709 115.541C30.3024 115.381 30.202 115.237 30.0755 115.115ZM30.0755 124.682C30.2631 124.499 30.3906 124.265 30.4417 124.012C30.4929 123.758 30.4655 123.495 30.3631 123.256C30.2606 123.018 30.0877 122.814 29.866 122.67C29.6444 122.527 29.384 122.45 29.1176 122.45C28.8512 122.45 28.5907 122.527 28.3691 122.67C28.1474 122.814 27.9745 123.018 27.8721 123.256C27.7696 123.495 27.7422 123.758 27.7934 124.012C27.8446 124.265 27.972 124.499 28.1596 124.682C28.285 124.805 28.4342 124.903 28.5987 124.969C28.7631 125.036 28.9394 125.07 29.1176 125.07C29.2957 125.07 29.472 125.036 29.6365 124.969C29.8009 124.903 29.9501 124.805 30.0755 124.682ZM40.1074 144.924C40.1074 144.665 40.0283 144.412 39.88 144.197C39.7318 143.981 39.521 143.813 39.2745 143.714C39.0279 143.615 38.7566 143.589 38.4949 143.64C38.2332 143.69 37.9928 143.815 37.8041 143.998C37.6154 144.181 37.4868 144.415 37.4348 144.669C37.3827 144.923 37.4094 145.186 37.5116 145.425C37.6137 145.665 37.7866 145.869 38.0085 146.013C38.2304 146.157 38.4913 146.234 38.7581 146.234C39.116 146.234 39.4592 146.096 39.7122 145.85C39.9653 145.605 40.1074 145.272 40.1074 144.924ZM65.8651 161.59C65.8651 161.331 65.786 161.078 65.6377 160.863C65.4894 160.647 65.2787 160.48 65.0322 160.38C64.7856 160.281 64.5143 160.255 64.2526 160.306C63.9909 160.356 63.7504 160.481 63.5617 160.664C63.373 160.848 63.2445 161.081 63.1925 161.335C63.1404 161.589 63.1671 161.852 63.2692 162.092C63.3714 162.331 63.5443 162.536 63.7662 162.679C63.9881 162.823 64.249 162.9 64.5158 162.9C64.8737 162.9 65.2169 162.762 65.4699 162.517C65.7229 162.271 65.8651 161.938 65.8651 161.59ZM55.6983 165.539C55.6983 165.28 55.6192 165.027 55.4709 164.812C55.3227 164.596 55.1119 164.428 54.8654 164.329C54.6188 164.23 54.3476 164.204 54.0858 164.255C53.8241 164.305 53.5837 164.43 53.395 164.613C53.2063 164.796 53.0778 165.03 53.0257 165.284C52.9736 165.538 53.0004 165.801 53.1025 166.04C53.2046 166.28 53.3776 166.484 53.5994 166.628C53.8213 166.772 54.0822 166.849 54.3491 166.849C54.7069 166.849 55.0501 166.711 55.3031 166.465C55.5562 166.22 55.6983 165.887 55.6983 165.539ZM24.746 160.169C24.746 159.91 24.6668 159.657 24.5186 159.442C24.3703 159.226 24.1596 159.059 23.913 158.959C23.6665 158.86 23.3952 158.834 23.1334 158.885C22.8717 158.935 22.6313 159.06 22.4426 159.243C22.2539 159.426 22.1254 159.66 22.0733 159.914C22.0213 160.168 22.048 160.431 22.1501 160.671C22.2522 160.91 22.4252 161.114 22.6471 161.258C22.8689 161.402 23.1298 161.479 23.3967 161.479C23.7545 161.479 24.0977 161.341 24.3508 161.096C24.6038 160.85 24.746 160.517 24.746 160.169ZM40.1074 196.39C40.1074 196.131 40.0283 195.878 39.88 195.662C39.7318 195.447 39.521 195.279 39.2745 195.18C39.0279 195.081 38.7566 195.055 38.4949 195.105C38.2332 195.156 37.9928 195.281 37.8041 195.464C37.6154 195.647 37.4868 195.88 37.4348 196.134C37.3827 196.388 37.4094 196.652 37.5116 196.891C37.6137 197.13 37.7866 197.335 38.0085 197.479C38.2304 197.623 38.4913 197.7 38.7581 197.7C39.116 197.7 39.4592 197.562 39.7122 197.316C39.9653 197.07 40.1074 196.737 40.1074 196.39ZM63.5323 179.691C63.5323 179.432 63.4532 179.179 63.3049 178.963C63.1566 178.748 62.9459 178.58 62.6994 178.481C62.4528 178.382 62.1815 178.356 61.9198 178.406C61.6581 178.457 61.4176 178.582 61.2289 178.765C61.0402 178.948 60.9117 179.181 60.8597 179.435C60.8076 179.689 60.8343 179.953 60.9364 180.192C61.0386 180.431 61.2115 180.636 61.4334 180.78C61.6553 180.924 61.9162 181.001 62.183 181.001C62.5409 181.001 62.8841 180.863 63.1371 180.617C63.3901 180.371 63.5323 180.038 63.5323 179.691ZM55.6983 175.762C55.6983 175.503 55.6192 175.249 55.4709 175.034C55.3227 174.819 55.1119 174.651 54.8654 174.552C54.6188 174.453 54.3476 174.427 54.0858 174.477C53.8241 174.528 53.5837 174.652 53.395 174.836C53.2063 175.019 53.0778 175.252 53.0257 175.506C52.9736 175.76 53.0004 176.024 53.1025 176.263C53.2046 176.502 53.3776 176.707 53.5994 176.851C53.8213 176.995 54.0822 177.071 54.3491 177.071C54.7069 177.071 55.0501 176.933 55.3031 176.688C55.5562 176.442 55.6983 176.109 55.6983 175.762ZM55.6983 218.524C55.6983 218.265 55.6192 218.012 55.4709 217.797C55.3227 217.581 55.1119 217.413 54.8654 217.314C54.6188 217.215 54.3476 217.189 54.0858 217.24C53.8241 217.29 53.5837 217.415 53.395 217.598C53.2063 217.781 53.0778 218.015 53.0257 218.269C52.9736 218.523 53.0004 218.786 53.1025 219.025C53.2046 219.265 53.3776 219.469 53.5994 219.613C53.8213 219.757 54.0822 219.834 54.3491 219.834C54.7069 219.834 55.0501 219.696 55.3031 219.45C55.5562 219.205 55.6983 218.872 55.6983 218.524ZM24.746 181.151C24.746 180.892 24.6668 180.639 24.5186 180.424C24.3703 180.208 24.1596 180.04 23.913 179.941C23.6665 179.842 23.3952 179.816 23.1334 179.867C22.8717 179.917 22.6313 180.042 22.4426 180.225C22.2539 180.408 22.1254 180.642 22.0733 180.896C22.0213 181.15 22.048 181.413 22.1501 181.652C22.2522 181.892 22.4252 182.096 22.6471 182.24C22.8689 182.384 23.1298 182.461 23.3967 182.461C23.7545 182.461 24.0977 182.323 24.3508 182.077C24.6038 181.832 24.746 181.499 24.746 181.151ZM73.0973 212.532C73.0973 212.273 73.0181 212.02 72.8699 211.805C72.7216 211.589 72.5109 211.421 72.2643 211.322C72.0178 211.223 71.7465 211.197 71.4848 211.248C71.223 211.298 70.9826 211.423 70.7939 211.606C70.6052 211.789 70.4767 212.023 70.4246 212.277C70.3726 212.531 70.3993 212.794 70.5014 213.033C70.6035 213.273 70.7765 213.477 70.9984 213.621C71.2203 213.765 71.4811 213.842 71.748 213.842C72.1058 213.842 72.449 213.704 72.7021 213.458C72.9551 213.213 73.0973 212.88 73.0973 212.532ZM71.559 217.601C71.559 217.342 71.4799 217.089 71.3316 216.873C71.1833 216.658 70.9726 216.49 70.7261 216.391C70.4795 216.292 70.2082 216.266 69.9465 216.316C69.6848 216.367 69.4443 216.492 69.2556 216.675C69.0669 216.858 68.9384 217.091 68.8864 217.345C68.8343 217.599 68.861 217.863 68.9632 218.102C69.0653 218.341 69.2382 218.546 69.4601 218.69C69.682 218.834 69.9429 218.911 70.2097 218.911C70.5676 218.911 70.9108 218.773 71.1638 218.527C71.4168 218.281 71.559 217.948 71.559 217.601ZM30.0756 165.847C29.8861 165.666 29.6456 165.543 29.3845 165.494C29.1233 165.445 28.853 165.472 28.6077 165.572C28.3624 165.672 28.1529 165.84 28.0055 166.055C27.8582 166.27 27.7796 166.522 27.7796 166.78C27.7796 167.038 27.8582 167.291 28.0055 167.506C28.1529 167.721 28.3624 167.889 28.6077 167.988C28.853 168.088 29.1233 168.115 29.3845 168.066C29.6456 168.017 29.8861 167.895 30.0756 167.713C30.2031 167.592 30.3043 167.446 30.3734 167.286C30.4425 167.126 30.4781 166.954 30.4781 166.78C30.4781 166.607 30.4425 166.435 30.3734 166.274C30.3043 166.114 30.2031 165.969 30.0756 165.847ZM30.0755 175.395C30.2631 175.211 30.3906 174.978 30.4417 174.724C30.4929 174.47 30.4655 174.208 30.3631 173.969C30.2606 173.73 30.0877 173.526 29.866 173.383C29.6444 173.239 29.384 173.163 29.1176 173.163C28.8512 173.163 28.5907 173.239 28.3691 173.383C28.1474 173.526 27.9745 173.73 27.8721 173.969C27.7696 174.208 27.7422 174.47 27.7934 174.724C27.8446 174.978 27.972 175.211 28.1596 175.395C28.285 175.518 28.4342 175.615 28.5987 175.682C28.7631 175.748 28.9394 175.782 29.1176 175.782C29.2957 175.782 29.472 175.748 29.6365 175.682C29.8009 175.615 29.9501 175.518 30.0755 175.395ZM30.0756 213.744C29.8861 213.563 29.6456 213.44 29.3845 213.391C29.1233 213.342 28.853 213.369 28.6077 213.469C28.3624 213.569 28.1529 213.736 28.0055 213.951C27.8582 214.166 27.7796 214.419 27.7796 214.677C27.7796 214.935 27.8582 215.188 28.0055 215.402C28.1529 215.617 28.3624 215.785 28.6077 215.885C28.853 215.985 29.1233 216.012 29.3845 215.963C29.6456 215.914 29.8861 215.791 30.0756 215.61C30.2031 215.488 30.3043 215.343 30.3734 215.183C30.4425 215.023 30.4781 214.851 30.4781 214.677C30.4781 214.503 30.4425 214.331 30.3734 214.171C30.3043 214.011 30.2031 213.866 30.0756 213.744ZM30.0755 223.292C30.2631 223.108 30.3906 222.875 30.4417 222.621C30.4929 222.367 30.4655 222.104 30.3631 221.866C30.2606 221.627 30.0877 221.423 29.866 221.28C29.6444 221.136 29.384 221.06 29.1176 221.06C28.8512 221.06 28.5907 221.136 28.3691 221.28C28.1474 221.423 27.9745 221.627 27.8721 221.866C27.7696 222.104 27.7422 222.367 27.7934 222.621C27.8446 222.875 27.972 223.108 28.1596 223.292C28.285 223.414 28.4342 223.512 28.5987 223.578C28.7631 223.645 28.9394 223.679 29.1176 223.679C29.2957 223.679 29.472 223.645 29.6365 223.578C29.8009 223.512 29.9501 223.414 30.0755 223.292ZM53.0759 147.865C53.0759 147.606 52.9968 147.352 52.8485 147.137C52.7002 146.922 52.4895 146.754 52.243 146.655C51.9964 146.555 51.7251 146.529 51.4634 146.58C51.2017 146.631 50.9612 146.755 50.7725 146.938C50.5838 147.122 50.4553 147.355 50.4033 147.609C50.3512 147.863 50.3779 148.126 50.4801 148.366C50.5822 148.605 50.7551 148.81 50.977 148.954C51.1989 149.097 51.4598 149.174 51.7266 149.174C52.0845 149.174 52.4277 149.036 52.6807 148.791C52.9337 148.545 53.0759 148.212 53.0759 147.865ZM54.6311 137.537C54.6311 137.278 54.552 137.025 54.4037 136.81C54.2554 136.594 54.0447 136.426 53.7982 136.327C53.5516 136.228 53.2803 136.202 53.0186 136.253C52.7569 136.303 52.5164 136.428 52.3277 136.611C52.139 136.794 52.0105 137.028 51.9585 137.282C51.9064 137.536 51.9331 137.799 52.0352 138.039C52.1374 138.278 52.3103 138.482 52.5322 138.626C52.7541 138.77 53.015 138.847 53.2818 138.847C53.6397 138.847 53.9829 138.709 54.2359 138.463C54.4889 138.218 54.6311 137.885 54.6311 137.537ZM67.0727 94.8076C67.0727 94.5486 66.9936 94.2954 66.8453 94.08C66.6971 93.8646 66.4863 93.6967 66.2398 93.5976C65.9932 93.4985 65.7219 93.4725 65.4602 93.5231C65.1985 93.5736 64.9581 93.6984 64.7694 93.8815C64.5807 94.0647 64.4521 94.298 64.4001 94.5521C64.348 94.8061 64.3747 95.0695 64.4769 95.3088C64.579 95.5481 64.7519 95.7527 64.9738 95.8966C65.1957 96.0405 65.4566 96.1173 65.7234 96.1173C66.0813 96.1173 66.4245 95.9794 66.6775 95.7337C66.9306 95.4881 67.0727 95.155 67.0727 94.8076Z" stroke="url(#paint2_linear_253_202)" stroke-opacity="0.9" stroke-miterlimit="10" shape-rendering="crispEdges"/>
</g>
</g>
<g filter="url(#filter1_d_253_202)">
<path fill-rule="evenodd" clip-rule="evenodd" d="M200.2 120.422C200.2 116.912 198.359 113.658 195.35 111.85L142.15 79.8883C138.981 77.9842 135.019 77.9842 131.85 79.8883L78.6501 111.85C75.6408 113.658 73.8 116.912 73.8 120.422L73.8 145.277C73.8 146.393 73.4267 147.476 72.7396 148.356L59.7879 164.928C59.2023 165.677 58 165.263 58 164.312V114.764C58 109.22 60.9076 104.083 65.6609 101.227L128.861 63.2568C133.869 60.2477 140.131 60.2477 145.139 63.2568L208.339 101.227C213.092 104.083 216 109.22 216 114.764V186.236C216 191.78 213.092 196.917 208.339 199.773L145.139 237.743C140.131 240.752 133.869 240.752 128.861 237.743L65.8724 199.9L65.6609 199.773C60.9076 196.917 58 191.78 58 186.236C58 184.994 58.4156 183.787 59.1805 182.808L61.8002 179.456L73.8 164.102L87.4723 146.608C90.6346 142.561 96.3477 141.568 100.69 144.31L119.261 156.034C121.428 157.403 124.279 156.91 125.862 154.894L155.956 116.57C159.109 112.555 164.779 111.559 169.111 114.259L187.783 125.897C188.954 126.628 189.667 127.911 189.667 129.292V143.883C189.667 144.668 188.804 145.147 188.138 144.732L168.977 132.789C166.811 131.438 163.976 131.936 162.4 133.944L132.271 172.313C129.105 176.345 123.402 177.33 119.067 174.593L100.516 162.88C98.3446 161.509 95.488 162.006 93.9069 164.029L79.1533 182.907C77.3038 185.273 77.9433 188.725 80.5179 190.272L131.85 221.112C135.019 223.016 138.981 223.016 142.15 221.112L195.35 189.15C198.359 187.342 200.2 184.088 200.2 180.578V120.422Z" fill="url(#paint3_linear_253_202)"/>
</g>
<g filter="url(#filter2_d_253_202)">
<path d="M145.139 63.2568C140.131 60.2477 133.869 60.2477 128.861 63.2568L65.6609 101.227C60.9076 104.083 58 109.22 58 114.764V164.312C58 165.263 59.2023 165.677 59.7879 164.928L72.7396 148.356C73.4267 147.476 73.8 146.393 73.8 145.277M208.339 199.773C213.092 196.917 216 191.78 216 186.236V150.5M128.861 237.743L65.8724 199.9L65.6609 199.773M200.2 180.578C200.2 184.088 198.359 187.342 195.35 189.15L142.15 221.112C138.981 223.016 135.019 223.016 131.85 221.112L80.5179 190.272C77.9433 188.725 77.3038 185.273 79.1533 182.907M87.4723 146.608C90.6346 142.561 96.3477 141.568 100.69 144.31L119.261 156.034C121.428 157.403 124.279 156.91 125.862 154.894L155.956 116.57C159.109 112.555 164.779 111.559 169.111 114.259L187.783 125.897C188.954 126.628 189.667 127.911 189.667 129.292" stroke="#FCE3A8" stroke-width="2" stroke-linecap="round"/>
</g>
<g filter="url(#filter3_d_253_202)">
<path fill-rule="evenodd" clip-rule="evenodd" d="M269.419 84.5806V125.427V135.147V162.109V215.351C269.42 218.707 268.536 222.005 266.855 224.912C265.173 227.819 262.755 230.233 259.842 231.911L146.287 297.439C143.375 299.117 140.072 300 136.71 300C133.348 300 130.045 299.117 127.133 297.439L13.5779 231.911C10.681 230.242 8.27266 227.845 6.59245 224.959C4.91223 222.073 4.01877 218.798 4.00098 215.46V84.6352C4.00202 81.2812 4.88755 77.9866 6.5686 75.0823C8.24965 72.178 10.667 69.7662 13.5779 68.0892L127.133 2.56059C130.045 0.883113 133.348 0 136.71 0C140.072 0 143.375 0.883113 146.287 2.56059L259.842 68.0892C262.745 69.7615 265.157 72.1647 266.838 75.0587C268.518 77.9526 269.408 81.2359 269.419 84.5806ZM251.263 93.6297V128.826V137.201V160.434V206.311C251.264 209.203 250.501 212.044 249.05 214.549C247.598 217.054 245.511 219.134 242.996 220.58L144.976 277.044C142.463 278.49 139.612 279.25 136.71 279.25C133.807 279.25 130.956 278.49 128.443 277.044L30.4231 220.58C27.9226 219.142 25.8437 217.077 24.3933 214.59C22.943 212.103 22.1718 209.281 22.1564 206.405V93.6768C22.1573 90.7868 22.9217 87.9479 24.3728 85.4453C25.8238 82.9427 27.9105 80.8646 30.4231 79.4196L128.443 22.9554C130.956 21.51 133.807 20.7491 136.71 20.7491C139.612 20.7491 142.463 21.51 144.976 22.9554L242.996 79.4196C245.502 80.8606 247.584 82.9313 249.035 85.425C250.486 87.9186 251.254 90.7477 251.263 93.6297Z" fill="url(#paint4_radial_253_202)"/>
</g>
<defs>
<filter id="filter0_d_253_202" x="-26.8467" y="-5" width="327.482" height="320" filterUnits="userSpaceOnUse" color-interpolation-filters="sRGB">
<feFlood flood-opacity="0" result="BackgroundImageFix"/>
<feColorMatrix in="SourceAlpha" type="matrix" values="0 0 0 0 0 0 0 0 0 0 0 0 0 0 0 0 0 0 127 0" result="hardAlpha"/>
<feOffset dy="4"/>
<feGaussianBlur stdDeviation="1"/>
<feComposite in2="hardAlpha" operator="out"/>
<feColorMatrix type="matrix" values="0 0 0 0 0 0 0 0 0 0 0 0 0 0 0 0 0 0 0.2 0"/>
<feBlend mode="normal" in2="BackgroundImageFix" result="effect1_dropShadow_253_202"/>
<feBlend mode="normal" in="SourceGraphic" in2="effect1_dropShadow_253_202" result="shape"/>
</filter>
<filter id="filter1_d_253_202" x="52" y="57" width="170" height="191" filterUnits="userSpaceOnUse" color-interpolation-filters="sRGB">
<feFlood flood-opacity="0" result="BackgroundImageFix"/>
<feColorMatrix in="SourceAlpha" type="matrix" values="0 0 0 0 0 0 0 0 0 0 0 0 0 0 0 0 0 0 127 0" result="hardAlpha"/>
<feOffset dy="2"/>
<feGaussianBlur stdDeviation="3"/>
<feComposite in2="hardAlpha" operator="out"/>
<feColorMatrix type="matrix" values="0 0 0 0 0.132666 0 0 0 0 0.132452 0 0 0 0 0.132254 0 0 0 1 0"/>
<feBlend mode="normal" in2="BackgroundImageFix" result="effect1_dropShadow_253_202"/>
<feBlend mode="normal" in="SourceGraphic" in2="effect1_dropShadow_253_202" result="shape"/>
</filter>
<filter id="filter2_d_253_202" x="51" y="54" width="172" height="190.743" filterUnits="userSpaceOnUse" color-interpolation-filters="sRGB">
<feFlood flood-opacity="0" result="BackgroundImageFix"/>
<feColorMatrix in="SourceAlpha" type="matrix" values="0 0 0 0 0 0 0 0 0 0 0 0 0 0 0 0 0 0 127 0" result="hardAlpha"/>
<feOffset/>
<feGaussianBlur stdDeviation="3"/>
<feComposite in2="hardAlpha" operator="out"/>
<feColorMatrix type="matrix" values="0 0 0 0 1 0 0 0 0 0.924558 0 0 0 0 0.742725 0 0 0 1 0"/>
<feBlend mode="normal" in2="BackgroundImageFix" result="effect1_dropShadow_253_202"/>
<feBlend mode="normal" in="SourceGraphic" in2="effect1_dropShadow_253_202" result="shape"/>
</filter>
<filter id="filter3_d_253_202" x="0.000976562" y="0" width="273.418" height="308" filterUnits="userSpaceOnUse" color-interpolation-filters="sRGB">
<feFlood flood-opacity="0" result="BackgroundImageFix"/>
<feColorMatrix in="SourceAlpha" type="matrix" values="0 0 0 0 0 0 0 0 0 0 0 0 0 0 0 0 0 0 127 0" result="hardAlpha"/>
<feOffset dy="4"/>
<feGaussianBlur stdDeviation="2"/>
<feComposite in2="hardAlpha" operator="out"/>
<feColorMatrix type="matrix" values="0 0 0 0 0 0 0 0 0 0 0 0 0 0 0 0 0 0 0.25 0"/>
<feBlend mode="normal" in2="BackgroundImageFix" result="effect1_dropShadow_253_202"/>
<feBlend mode="normal" in="SourceGraphic" in2="effect1_dropShadow_253_202" result="shape"/>
</filter>
<linearGradient id="paint0_linear_253_202" x1="97.9334" y1="19.02" x2="215.557" y2="258.575" gradientUnits="userSpaceOnUse">
<stop stop-color="#232323"/>
<stop offset="1" stop-color="#3B3529"/>
</linearGradient>
<linearGradient id="paint1_linear_253_202" x1="97.9334" y1="19.02" x2="215.557" y2="258.575" gradientUnits="userSpaceOnUse">
<stop stop-color="#222121"/>
<stop offset="1" stop-color="#3B3425"/>
</linearGradient>
<linearGradient id="paint2_linear_253_202" x1="236.427" y1="216.159" x2="29.0553" y2="78.0636" gradientUnits="userSpaceOnUse">
<stop offset="0.163648" stop-color="#F8E69D"/>
<stop offset="0.702021" stop-color="#DCD8C5" stop-opacity="0.485027"/>
<stop offset="1" stop-color="#FAE89E" stop-opacity="0.2"/>
</linearGradient>
<linearGradient id="paint3_linear_253_202" x1="152.992" y1="236.511" x2="73.4403" y2="94.0653" gradientUnits="userSpaceOnUse">
<stop stop-color="#BB964D"/>
<stop offset="1" stop-color="#FFD779"/>
</linearGradient>
<radialGradient id="paint4_radial_253_202" cx="0" cy="0" r="1" gradientUnits="userSpaceOnUse" gradientTransform="translate(141.798 155.751) rotate(-138.096) scale(150.253 1133.83)">
<stop stop-color="#977129"/>
<stop offset="1" stop-color="#F5CD6F"/>
</radialGradient>
</defs>
</svg>
