<svg width="1078" height="715" viewBox="0 0 1078 715" fill="none" xmlns="http://www.w3.org/2000/svg">
<g filter="url(#filter0_f_262_205)">
<path d="M671.081 122.582V349.146L585.574 298.799L347.134 122.582L261.675 119.27L671.081 122.582Z" fill="url(#paint0_linear_262_205)" fill-opacity="0.2"/>
<path d="M671.081 122.582V349.146L585.574 298.799L347.134 122.582L261.675 119.27L671.081 122.582Z" stroke="black"/>
</g>
<g filter="url(#filter1_f_262_205)">
<path d="M673.337 134.239L672.391 372.177L453.806 81.0036L673.337 134.239Z" fill="url(#paint1_linear_262_205)" fill-opacity="0.3"/>
<path d="M673.337 134.239L672.391 372.177L453.806 81.0036L673.337 134.239Z" stroke="black"/>
</g>
<g filter="url(#filter2_f_262_205)">
<path d="M231.528 583.328L675.795 347.432L102.015 280.249L231.528 583.328Z" fill="url(#paint2_linear_262_205)" fill-opacity="0.2"/>
<path d="M231.528 583.328L675.795 347.432L102.015 280.249L231.528 583.328Z" stroke="black"/>
</g>
<g filter="url(#filter3_f_262_205)">
<path d="M169.365 563.789L675.795 367.305L187.341 206.932L169.365 563.789Z" fill="url(#paint3_linear_262_205)" fill-opacity="0.15"/>
<path d="M169.365 563.789L675.795 367.305L187.341 206.932L169.365 563.789Z" stroke="black"/>
</g>
<g filter="url(#filter4_f_262_205)">
<path d="M674.392 368.026L962.566 533.974L957.929 198.766L674.392 368.026Z" fill="url(#paint4_linear_262_205)" fill-opacity="0.6"/>
<path d="M674.392 368.026L962.566 533.974L957.929 198.766L674.392 368.026Z" stroke="black"/>
</g>
<defs>
<filter id="filter0_f_262_205" x="181.656" y="38.7698" width="569.925" height="391.251" filterUnits="userSpaceOnUse" color-interpolation-filters="sRGB">
<feFlood flood-opacity="0" result="BackgroundImageFix"/>
<feBlend mode="normal" in="SourceGraphic" in2="BackgroundImageFix" result="shape"/>
<feGaussianBlur stdDeviation="40" result="effect1_foregroundBlur_262_205"/>
</filter>
<filter id="filter1_f_262_205" x="372.57" y="0.189209" width="381.27" height="453.479" filterUnits="userSpaceOnUse" color-interpolation-filters="sRGB">
<feFlood flood-opacity="0" result="BackgroundImageFix"/>
<feBlend mode="normal" in="SourceGraphic" in2="BackgroundImageFix" result="shape"/>
<feGaussianBlur stdDeviation="40" result="effect1_foregroundBlur_262_205"/>
</filter>
<filter id="filter2_f_262_205" x="21.2163" y="199.652" width="736.229" height="464.373" filterUnits="userSpaceOnUse" color-interpolation-filters="sRGB">
<feFlood flood-opacity="0" result="BackgroundImageFix"/>
<feBlend mode="normal" in="SourceGraphic" in2="BackgroundImageFix" result="shape"/>
<feGaussianBlur stdDeviation="40" result="effect1_foregroundBlur_262_205"/>
</filter>
<filter id="filter3_f_262_205" x="18.8271" y="56.2527" width="808.451" height="658.282" filterUnits="userSpaceOnUse" color-interpolation-filters="sRGB">
<feFlood flood-opacity="0" result="BackgroundImageFix"/>
<feBlend mode="normal" in="SourceGraphic" in2="BackgroundImageFix" result="shape"/>
<feGaussianBlur stdDeviation="75" result="effect1_foregroundBlur_262_205"/>
</filter>
<filter id="filter4_f_262_205" x="573.404" y="97.8921" width="489.674" height="536.954" filterUnits="userSpaceOnUse" color-interpolation-filters="sRGB">
<feFlood flood-opacity="0" result="BackgroundImageFix"/>
<feBlend mode="normal" in="SourceGraphic" in2="BackgroundImageFix" result="shape"/>
<feGaussianBlur stdDeviation="50" result="effect1_foregroundBlur_262_205"/>
</filter>
<linearGradient id="paint0_linear_262_205" x1="606.49" y1="160.343" x2="466.378" y2="349.146" gradientUnits="userSpaceOnUse">
<stop offset="0.0261123" stop-color="#A27C32"/>
<stop offset="1" stop-color="#A27C32" stop-opacity="0"/>
</linearGradient>
<linearGradient id="paint1_linear_262_205" x1="626.493" y1="282.509" x2="429.615" y2="154.408" gradientUnits="userSpaceOnUse">
<stop offset="0.0261123" stop-color="#FCD478"/>
<stop offset="1" stop-color="#A27C32" stop-opacity="0"/>
</linearGradient>
<linearGradient id="paint2_linear_262_205" x1="649.545" y1="349.477" x2="261.007" y2="323.972" gradientUnits="userSpaceOnUse">
<stop offset="0.0261123" stop-color="#FFC030"/>
<stop offset="1" stop-color="#A27C32" stop-opacity="0"/>
</linearGradient>
<linearGradient id="paint3_linear_262_205" x1="657.984" y1="362.707" x2="315.7" y2="586.538" gradientUnits="userSpaceOnUse">
<stop offset="0.137117" stop-color="#FFCA3A"/>
<stop offset="1" stop-color="#A27C32" stop-opacity="0"/>
</linearGradient>
<linearGradient id="paint4_linear_262_205" x1="701.41" y1="619.878" x2="1063.63" y2="514.305" gradientUnits="userSpaceOnUse">
<stop stop-color="#AC863C"/>
<stop offset="1" stop-color="#A27C32" stop-opacity="0"/>
</linearGradient>
</defs>
</svg>
